<?xml version="1.0" encoding="UTF-8"?><svg xmlns="http://www.w3.org/2000/svg" xmlns:xlink="http://www.w3.org/1999/xlink" height="423.7" preserveAspectRatio="xMidYMid meet" version="1.0" viewBox="0.0 -0.2 500.1 423.7" width="500.1" zoomAndPan="magnify"><g id="change1_1"><path d="M425.32,63.082c-2.088-3.255,0.549-4.895,2.656-7.066c3.25-3.35-2.696-6.445-4.56-9.41 c-3.079-4.897-4.632-10.596-7.909-15.41c-3.309-4.86-7.192-9.014-11.691-13.005c-5.247-4.655-12.588-7.984-19.725-7.339 c-8.15,0.737-11.701,7.415-18.217,10.681c-3.982,1.529-8.22,5.998-9.975,9.475c-1.723,3.004-2.215,8.525-2.039,12.071 c0.084,10.305,4.98,17.646,13.199,22.965c3.395,2.698,7.919,4.322,12.474,5.956c2.014,1.098,4.586,1.646,6.643,2.196 c2.585,0.552,4.629,1.661,7.23,2.217c5.733,1.677,12.087,1.678,17.969-0.007c5.349-1.684,11.75-1.69,16.575-5.609 C432.215,67.454,426.897,65.818,425.32,63.082z" fill="#531515"/></g><g id="change2_2"><path d="M310.196 398.167L311.137 390.36 311.163 382.423 310.79 374.492 310.818 366.549 310.366 358.617 310.208 350.674 318.469 351.248 326.749 351.383 335.024 351.608 343.352 351.594 342.133 359.161 340.269 366.538 338.037 373.808 336.022 381.138 334.168 388.514 332.654 395.896 332.757 403.709 333.106 411.491 327.971 414.855 321.258 414.36 313.164 413.506 305.001 413.364 296.845 413.865 288.683 413.581 281.077 412.307 286.941 407.364 294.759 404.331 302.682 401.591z" fill="#F48A70"/></g><g id="change2_3"><path d="M392.59 271.463L395.129 278.992 398.093 286.392 400.643 293.925 402.862 301.566 405.126 309.19 406.93 316.957 409.592 324.451 412.685 331.242 414.695 338.453 417.887 345.197 420.263 352.279 423.808 358.884 426.617 365.795 429.168 372.805 431.647 379.843 433.041 386.99 427.354 392.81 420.764 397.992 414.219 403.309 410.742 410.7 418.374 408.617 426.018 405.83 433.764 403.191 441.374 400.228 449.336 398.58 455.884 396.705 460.01 391.319 456.75 384.083 453.113 377.149 451.656 370.095 451.351 362.937 451.461 355.758 450.648 348.648 450.146 341.491 448.459 334.507 447.254 327.44 445.464 320.487 441.921 314.325 439.015 307.92 437.082 301.111 434.816 293.524 434.838 285.533 433.006 277.841 431.538 270.09 431.156 262.189" fill="#F48A70"/></g><g id="change3_4"><path d="M407.207 415.663L408.124 413.874 407.474 407.164 412.485 402.812 417.27 398.177 422.595 394.178 427.823 390.04 434.383 397.741 440.825 396.3 447.081 393.921 453.422 391.778 459.88 390.066 462.417 396.317 464.495 402.433 457.675 405.331 450.646 407.721 443.614 410.095 436.516 412.288 429.331 414.201 422.325 416.678 415.203 418.805 407.83 418.581z" fill="#EF5441"/></g><g id="change3_5"><path d="M275.717 417.275L277.216 415.899 278.736 409.307 284.731 406.425 290.934 404.02 297.188 401.746 303.559 400.033 307.155 409.2 313.833 409.261 320.517 409.607 327.21 409.278 333.78 409.992 334.105 416.557 334.279 422.85 326.94 423.563 319.516 423.137 312.095 423.453 304.667 423.418 297.237 423.395 289.825 422.763 282.424 422.412 275.531 420.256z" fill="#EF5441"/></g><g id="change4_37"><path d="M303.724 295.33L303.52 287.785 305.703 280.607 308.156 273.558 311.586 266.895 313.775 259.766 316.09 252.653 319.034 245.795 322.426 239.149 325.977 232.588 329.744 226.147 333.303 219.609 335.494 212.339 340.285 206.471 346.678 202.718 354.345 201.481 361.958 200.091 369.615 198.947 377.311 198.078 385.03 197.448 392.695 195.854 400.5 196.871 408.23 196.469 416.023 195.82 423.592 197.763 429.363 201.443 430.156 209.057 429.871 216.74 431.577 224.254 432.64 231.814 432.479 239.508 433.508 247.082 434.032 254.724 435.494 262.239 436.07 269.876 436.946 276.791 439.228 283.565 438.741 290.699 440.204 297.595 443.117 304.058 445.349 310.676 448.543 317.462 451.628 324.304 455.587 330.779 458.053 337.903 460.621 344.978 461.749 352.472 463.802 359.793 457.493 363.843 450.79 366.842 443.962 369.58 436.996 371.964 430.255 375.343 422.512 375.167 419.369 367.936 416.435 360.666 413.579 353.37 410.642 346.106 407.638 338.874 404.123 331.847 400.627 324.798 398.133 317.344 394.929 310.167 392.257 302.786 390.295 295.263 388.667 287.675 387.243 280.037 383.865 272.948 382.251 265.352 378.234 259.186 373.446 265.043 369.473 271.76 366.224 278.867 362.39 285.668 358.723 292.579 356.278 300.034 352.472 306.923 350.46 314.498 348.79 322.143 349.755 329.595 350.045 337.099 350.84 344.593 350.522 352.118 350.761 359.647 349.027 367.041 348.363 374.819 340.878 377.101 333.405 376.192 326.043 376.981 318.647 376.83 311.291 376.062 305.186 373.524 304.642 365.793 304.388 357.97 303.278 350.171 303.054 342.337 302.552 334.509 303.387 326.661 302.796 318.824 302.771 310.977 303.653 303.154z" fill="#D7B8D7"/></g><g id="change3_6"><path d="M413.752,311.573c1.248-3.292,2.965-6.604,2.451-10.179c-0.351-2.438-3.564-1.75-4.27,0 c-1.251,3.102-2.911,6.782-2.452,10.179C409.807,313.986,413.076,313.355,413.752,311.573L413.752,311.573z" fill="#EF5441"/></g><g id="change3_7"><path d="M319.063,312.015c2.172-2.503,5.494-5.265,6.027-8.66c0.313-1.995-1.978-3.805-3.619-2.107 c-1.248,1.292-2.298,2.697-3.445,4.078c-1.117,1.344-2.284,2.798-2.664,4.534C314.919,311.875,317.514,313.798,319.063,312.015 L319.063,312.015z" fill="#EF5441"/></g><g id="change4_38"><path d="M329.34,415.581c-16.055,0.688-32.289-0.411-48.299-1.41c-2.706-0.169-2.69,4.032,0,4.2 c16.01,0.999,32.245,2.098,48.299,1.41C332.038,419.665,332.049,415.465,329.34,415.581L329.34,415.581z" fill="#D7B8D7"/></g><g id="change4_39"><path d="M458.819,396c-13.73,8.301-31.1,11.96-46.571,15.068c-2.654,0.533-1.528,4.581,1.116,4.05 c15.823-3.178,33.53-7,47.574-15.491C463.252,398.227,461.143,394.595,458.819,396L458.819,396z" fill="#D7B8D7"/></g><g id="change3_8"><path d="M375.462,253.393c-2.712-1.3-10.069-7.112-12.809-3.794c-0.365,0.442-0.456,0.939-0.189,1.461 c0.954,1.864,4.085,2.167,5.855,2.965c2.106,0.949,4.124,1.789,6.447,1.935C376.106,256.046,376.692,253.983,375.462,253.393 L375.462,253.393z" fill="#EF5441"/></g><g id="change3_9"><path d="M279.691,21.61c1.54,7.135,2.621,14.331,3.77,21.54c0.8,5.021,4.564,31.185,5.336,36.21 c0.247,1.606,0.511,3.166,0.496,4.794c-0.004,0.418-0.083,2.357-0.208,1.532c0.12,0.794-1.126,0.847-1.246,0.059 c0.173,1.14-0.345-0.372-0.499-0.851c-0.423-1.317-0.701-2.599-0.905-3.967c-0.721-4.819-4.452-30.775-5.173-35.594 c-1.168-7.804-2.35-15.6-3.045-23.46C278.143,21.033,279.508,20.767,279.691,21.61L279.691,21.61z" fill="#EF5441"/></g><g><g><g id="change4_23"><path d="M265.081,2.979c1.934,2.206,3.805,4.45,5.582,6.787c1.675,2.203,3.962,4.567,4.806,7.27 c0.085,0.271-0.222,0.413-0.424,0.276c-2.178-1.475-3.705-4.111-5.222-6.187c-1.839-2.516-3.577-5.084-5.234-7.722 C264.399,3.101,264.831,2.693,265.081,2.979L265.081,2.979z" fill="#D7B8D7"/></g></g><g><g id="change4_69"><path d="M288.359,0.383c-0.943,2.776-1.95,5.516-3.085,8.221c-1.07,2.55-1.976,5.717-3.893,7.798 c-0.141,0.153-0.476,0.082-0.459-0.162c0.192-2.69,1.732-5.373,2.798-7.786c1.244-2.815,2.586-5.567,4.024-8.287 C287.913-0.151,288.482,0.02,288.359,0.383L288.359,0.383z" fill="#D7B8D7"/></g></g><g><g id="change4_25"><path d="M302.244,19.241c-2.878,0.572-5.757,1.069-8.669,1.439c-2.743,0.349-5.932,1.147-8.694,0.527 c-0.202-0.045-0.306-0.371-0.088-0.477c2.415-1.173,5.488-1.184,8.098-1.465c3.076-0.332,6.147-0.549,9.238-0.664 C302.49,18.587,302.619,19.166,302.244,19.241L302.244,19.241z" fill="#D7B8D7"/></g></g><g><g id="change4_12"><path d="M292.861,40.697c-1.934-2.206-3.805-4.45-5.582-6.787c-1.675-2.203-3.962-4.567-4.806-7.27 c-0.085-0.271,0.223-0.413,0.425-0.276c2.178,1.475,3.705,4.111,5.222,6.187c1.839,2.516,3.577,5.084,5.234,7.722 C293.543,40.575,293.111,40.983,292.861,40.697L292.861,40.697z" fill="#D7B8D7"/></g></g><g><g id="change4_62"><path d="M269.583,43.294c0.943-2.776,1.95-5.516,3.085-8.221c1.07-2.55,1.976-5.717,3.893-7.798 c0.141-0.153,0.476-0.082,0.459,0.162c-0.192,2.69-1.732,5.373-2.798,7.786c-1.244,2.815-2.586,5.567-4.024,8.287 C270.029,43.827,269.46,43.657,269.583,43.294L269.583,43.294z" fill="#D7B8D7"/></g></g><g><g id="change4_32"><path d="M255.698,24.436c2.878-0.572,5.757-1.069,8.669-1.439c2.743-0.349,5.932-1.147,8.694-0.527 c0.202,0.045,0.306,0.371,0.088,0.477c-2.415,1.173-5.488,1.184-8.098,1.465c-3.076,0.332-6.147,0.549-9.238,0.664 C255.452,25.09,255.323,24.51,255.698,24.436L255.698,24.436z" fill="#D7B8D7"/></g></g></g><g><g><g id="change4_24"><path d="M277.129,7.779c0.493,1.732,0.897,3.469,1.186,5.249c0.252,1.556,0.964,3.803,0.252,5.337 c-0.065,0.14-0.297,0.206-0.409,0.079c-1.012-1.154-1.042-3.175-1.228-4.607c-0.258-1.983-0.415-3.945-0.441-5.943 C276.484,7.53,277.024,7.411,277.129,7.779L277.129,7.779z" fill="#D7B8D7"/></g></g><g><g id="change4_60"><path d="M290.229,13.21c-1.254,1.293-2.556,2.513-3.953,3.653c-1.225,1-2.814,2.738-4.503,2.889 c-0.155,0.014-0.323-0.158-0.269-0.317c0.484-1.428,2.186-2.455,3.31-3.316c1.609-1.231,3.25-2.367,4.99-3.402 C290.114,12.533,290.496,12.935,290.229,13.21L290.229,13.21z" fill="#D7B8D7"/></g></g><g><g id="change4_10"><path d="M292.07,27.273c-1.745-0.439-3.45-0.955-5.134-1.594c-1.476-0.56-3.783-1.071-4.756-2.455 c-0.091-0.129-0.025-0.36,0.141-0.393c1.515-0.303,3.314,0.706,4.653,1.262c1.828,0.76,3.586,1.6,5.312,2.567 C292.602,26.836,292.444,27.367,292.07,27.273L292.07,27.273z" fill="#D7B8D7"/></g></g><g><g id="change4_66"><path d="M267.713,30.467c1.254-1.293,2.556-2.513,3.953-3.653c1.225-1,2.814-2.738,4.503-2.889 c0.155-0.014,0.323,0.158,0.269,0.317c-0.484,1.428-2.186,2.455-3.31,3.316c-1.609,1.231-3.25,2.367-4.99,3.402 C267.828,31.143,267.446,30.741,267.713,30.467L267.713,30.467z" fill="#D7B8D7"/></g></g><g><g id="change4_26"><path d="M265.872,16.404c1.745,0.439,3.45,0.955,5.134,1.594c1.476,0.56,3.783,1.071,4.756,2.455 c0.091,0.129,0.025,0.36-0.141,0.393c-1.515,0.303-3.314-0.706-4.653-1.262c-1.828-0.76-3.586-1.6-5.312-2.567 C265.34,16.841,265.498,16.31,265.872,16.404L265.872,16.404z" fill="#D7B8D7"/></g></g></g><g id="change3_10"><path d="M475.782,21.61c-1.54,7.135-2.621,14.331-3.77,21.54c-0.8,5.021-4.564,31.185-5.336,36.21 c-0.247,1.606-0.511,3.166-0.496,4.794c0.004,0.418,0.083,2.357,0.208,1.532c-0.12,0.794,1.126,0.847,1.246,0.059 c-0.173,1.14,0.345-0.372,0.499-0.851c0.423-1.317,0.701-2.599,0.905-3.967c0.721-4.819,4.452-30.775,5.173-35.594 c1.168-7.804,2.35-15.6,3.045-23.46C477.329,21.033,475.964,20.767,475.782,21.61L475.782,21.61z" fill="#EF5441"/></g><g><g><g id="change4_8"><path d="M490.391,2.979c-1.934,2.206-3.805,4.45-5.582,6.787c-1.675,2.203-3.962,4.567-4.806,7.27 c-0.085,0.271,0.223,0.413,0.425,0.276c2.178-1.475,3.705-4.111,5.222-6.187c1.839-2.516,3.577-5.084,5.234-7.722 C491.074,3.101,490.641,2.693,490.391,2.979L490.391,2.979z" fill="#D7B8D7"/></g></g><g><g id="change4_11"><path d="M467.113,0.383c0.943,2.776,1.95,5.516,3.085,8.221c1.07,2.55,1.976,5.717,3.893,7.798 c0.141,0.153,0.476,0.082,0.459-0.162c-0.192-2.69-1.732-5.373-2.798-7.786c-1.244-2.815-2.586-5.567-4.024-8.287 C467.559-0.151,466.99,0.02,467.113,0.383L467.113,0.383z" fill="#D7B8D7"/></g></g><g><g id="change4_9"><path d="M453.228,19.241c2.878,0.572,5.757,1.069,8.669,1.439c2.743,0.349,5.932,1.147,8.694,0.527 c0.202-0.045,0.306-0.371,0.088-0.477c-2.415-1.173-5.488-1.184-8.098-1.465c-3.076-0.332-6.147-0.549-9.238-0.664 C452.983,18.587,452.853,19.166,453.228,19.241L453.228,19.241z" fill="#D7B8D7"/></g></g><g><g id="change4_17"><path d="M462.612,40.697c1.934-2.206,3.805-4.45,5.582-6.787c1.675-2.203,3.962-4.567,4.806-7.27 c0.085-0.271-0.222-0.413-0.425-0.276c-2.178,1.475-3.705,4.111-5.222,6.187c-1.839,2.516-3.577,5.084-5.234,7.722 C461.929,40.575,462.361,40.983,462.612,40.697L462.612,40.697z" fill="#D7B8D7"/></g></g><g><g id="change4_30"><path d="M485.889,43.294c-0.943-2.776-1.95-5.516-3.085-8.221c-1.07-2.55-1.976-5.717-3.893-7.798 c-0.141-0.153-0.476-0.082-0.459,0.162c0.192,2.69,1.732,5.373,2.798,7.786c1.244,2.815,2.586,5.567,4.024,8.287 C485.443,43.827,486.012,43.657,485.889,43.294L485.889,43.294z" fill="#D7B8D7"/></g></g><g><g id="change4_27"><path d="M499.774,24.436c-2.878-0.572-5.757-1.069-8.669-1.439c-2.743-0.349-5.932-1.147-8.694-0.527 c-0.202,0.045-0.306,0.371-0.088,0.477c2.415,1.173,5.488,1.184,8.098,1.465c3.076,0.332,6.147,0.549,9.238,0.664 C500.02,25.09,500.149,24.51,499.774,24.436L499.774,24.436z" fill="#D7B8D7"/></g></g></g><g><g><g id="change4_33"><path d="M478.343,7.779c-0.493,1.732-0.897,3.469-1.186,5.249c-0.252,1.556-0.964,3.803-0.252,5.337 c0.065,0.14,0.297,0.206,0.409,0.079c1.012-1.154,1.042-3.175,1.228-4.607c0.258-1.983,0.415-3.945,0.441-5.943 C478.989,7.53,478.448,7.411,478.343,7.779L478.343,7.779z" fill="#D7B8D7"/></g></g><g><g id="change4_68"><path d="M465.243,13.21c1.254,1.293,2.556,2.513,3.953,3.653c1.225,1,2.814,2.738,4.503,2.889 c0.155,0.014,0.323-0.158,0.269-0.317c-0.484-1.428-2.186-2.455-3.31-3.316c-1.609-1.231-3.25-2.367-4.99-3.402 C465.358,12.533,464.977,12.935,465.243,13.21L465.243,13.21z" fill="#D7B8D7"/></g></g><g><g id="change4_7"><path d="M463.402,27.273c1.745-0.439,3.45-0.955,5.134-1.594c1.476-0.56,3.783-1.071,4.756-2.455 c0.091-0.129,0.025-0.36-0.141-0.393c-1.515-0.303-3.314,0.706-4.653,1.262c-1.828,0.76-3.586,1.6-5.312,2.567 C462.87,26.836,463.028,27.367,463.402,27.273L463.402,27.273z" fill="#D7B8D7"/></g></g><g><g id="change4_4"><path d="M487.759,30.467c-1.254-1.293-2.556-2.513-3.953-3.653c-1.225-1-2.814-2.738-4.503-2.889 c-0.155-0.014-0.323,0.158-0.269,0.317c0.484,1.428,2.186,2.455,3.31,3.316c1.609,1.231,3.25,2.367,4.99,3.402 C487.644,31.143,488.026,30.741,487.759,30.467L487.759,30.467z" fill="#D7B8D7"/></g></g><g><g id="change4_28"><path d="M489.601,16.404c-1.745,0.439-3.45,0.955-5.134,1.594c-1.476,0.56-3.783,1.071-4.756,2.455 c-0.091,0.129-0.025,0.36,0.141,0.393c1.515,0.303,3.314-0.706,4.653-1.262c1.828-0.76,3.586-1.6,5.312-2.567 C490.132,16.841,489.975,16.31,489.601,16.404L489.601,16.404z" fill="#D7B8D7"/></g></g></g><g><g id="change2_4"><path d="M353.317,96.367c4.419,4.285,9.127,8.24,13.906,12.115c0.578,0.469,1.164,0.92,1.75,1.373l0.795-4.212 l0.576-3.27c0.564,0.341,1.141,0.681,1.754,1.016c14.724,8.357,36.723-11.488,33.303-15.209c-3.42-3.721-9.894,1.95-12.673-3.9 c-1.059-2.229-1.316-3.897-0.49-9.186l-24.14,3.22c3.961,11.538-11.522,11.103-11.522,11.103l-4.625,1.572l-2.594,1.36 C350.657,93.752,352.001,95.091,353.317,96.367z" fill="#F48A70"/></g><g><g id="change2_6"><path d="M287.371,141.104l2.416,4.839l3.229,4.352l0.574,0.999c2.542-2.465,4.795-5.275,6.88-7.989 c4.165-5.423,8.969-10.948,12.378-16.886l-0.149,0.074l-3.415-3.532l-2.859-4.218l-2.855-4.239l-2.356-4.542l-2.58-4.419 l-2.245-4.6l-1.22-4.861l0.324-4.8l1.232-4.673l0.221-4.865l-1.054-5.047l-2.517-4.487l-4.334-2.124l-4.146-1.841l-3.573,1.963 l-3.716,0.456l-4.22,3.548l-3.721,4.207l-1.15,5.515l1.204,5.36l2.57,5.141l1.557,5.656l1.447,5.216l1.54,5.183l1.216,5.268 l1.651,5.147l1.91,5.057l1.693,5.13l2.043,4.998L287.371,141.104z" fill="#F48A70"/></g><g><g id="change3_55"><path d="M273.893,86.305c1.049,1.321,3.438,4.157,5.309,2.244c1.372-1.402,1.322-3.641,0.663-5.371 c-0.739-1.939-2.206-3.729-3.942-4.852c-1.268-0.82-3.745-0.969-3.957,0.963c-0.037,0.336,0.317,0.635,0.631,0.627 c1.137-0.029,1.593-0.518,2.706,0.191c1.049,0.669,1.863,1.818,2.508,2.855c0.569,0.915,0.861,1.947,0.905,3.02 c0.052,1.252-0.685,2.195-2.04,1.437c-0.765-0.428-1.407-1.254-2.074-1.826C274.1,85.165,273.496,85.804,273.893,86.305 L273.893,86.305z" fill="#EF5441"/></g><g id="change3_46"><path d="M278.92,84.183c1.433,1.862,3.613,1.976,5.134,0.186c1.594-1.877-0.049-4.993-1.127-6.724 c-1.098-1.763-2.593-3.535-4.575-4.294c-1.791-0.686-4.256,1.1-3.52,3.069c0.114,0.304,0.427,0.452,0.725,0.293 c0.839-0.449,1.173-1.751,2.274-1.453c1.152,0.312,2.158,1.639,2.841,2.539c0.661,0.871,1.178,1.831,1.671,2.803 c0.413,0.813,0.706,1.689,0.512,2.603c-0.355,1.675-2.216,1.081-3.043,0.286C279.362,83.057,278.514,83.655,278.92,84.183 L278.92,84.183z" fill="#EF5441"/></g><g id="change3_56"><path d="M283.464,80.98c4.347,2.483,4.34-4.325,3.244-6.824c-0.908-2.07-2.766-4.151-4.908-4.975 c-2.018-0.777-5.241,0.221-4.924,2.884c0.056,0.473,0.611,1.01,1.102,0.628c1.229-0.955,1.559-2.417,3.391-1.606 c1.492,0.66,2.688,2.06,3.481,3.447c0.713,1.246,1.628,6.42-0.945,5.388C283.286,79.673,282.909,80.663,283.464,80.98 L283.464,80.98z" fill="#EF5441"/></g><g id="change3_54"><path d="M286.707,78.918c4.919,0.796,5.068-5.654,3.157-8.691c-1.078-1.715-3.247-3.09-5.219-3.44 c-1.952-0.346-4.141,1.03-3.656,3.185c0.096,0.425,0.676,0.557,0.967,0.252c1.082-1.132,1.362-2.012,3.12-1.455 c1.223,0.387,2.472,1.346,3.219,2.381c1.328,1.84,1.705,6.539-1.421,6.498C286.161,77.639,285.976,78.799,286.707,78.918 L286.707,78.918z" fill="#EF5441"/></g><g id="change3_47"><path d="M283.291,90.403c-0.214-2.415,0.283-4.496,1.477-6.605c0.574-1.014,1.387-1.847,2.232-2.634 c0.737-0.685,1.166-0.676,1.211-1.66c0.007-0.158-0.11-0.267-0.244-0.319c-1.816-0.71-3.79,2.522-4.569,3.817 c-1.337,2.224-1.706,5.038-1.009,7.525C282.526,91.014,283.338,90.93,283.291,90.403L283.291,90.403z" fill="#EF5441"/></g></g></g><g><g id="change2_5"><path d="M471.483,141.642l-2.388,4.853l-3.203,4.371l-0.568,1.003c-2.556-2.45-4.826-5.247-6.926-7.949 c-4.196-5.398-9.032-10.896-12.476-16.814l0.149,0.074l3.395-3.552l2.835-4.235l2.831-4.256l2.33-4.556l2.554-4.434l2.218-4.613 l1.192-4.868l-0.352-4.798l-1.259-4.665l-0.249-4.864l1.025-5.053l2.491-4.502l4.322-2.149l4.135-1.865l3.585,1.943l3.719,0.434 l4.24,3.523l3.745,4.185l1.182,5.508l-1.173,5.367l-2.54,5.155l-1.524,5.665l-1.417,5.224l-1.51,5.192l-1.186,5.275l-1.621,5.157 l-1.881,5.068l-1.663,5.14l-2.014,5.01L471.483,141.642z" fill="#F48A70"/></g><g><g id="change3_50"><path d="M484.642,86.766c-1.041,1.327-3.414,4.176-5.295,2.275c-1.38-1.394-1.343-3.633-0.694-5.367 c0.727-1.943,2.184-3.742,3.913-4.875c1.263-0.827,3.739-0.991,3.963,0.94c0.039,0.336-0.313,0.637-0.627,0.631 c-1.137-0.022-1.596-0.509-2.705,0.207c-1.045,0.675-1.852,1.828-2.491,2.869c-0.563,0.918-0.849,1.952-0.888,3.025 c-0.045,1.253,0.698,2.191,2.049,1.425c0.763-0.433,1.4-1.263,2.064-1.838C484.428,85.627,485.036,86.263,484.642,86.766 L484.642,86.766z" fill="#EF5441"/></g><g id="change3_45"><path d="M479.603,84.673c-1.422,1.87-3.601,1.997-5.133,0.216c-1.605-1.867,0.02-4.993,1.088-6.731 c1.087-1.77,2.572-3.55,4.55-4.32c1.787-0.697,4.262,1.075,3.537,3.048c-0.112,0.305-0.424,0.455-0.724,0.297 c-0.841-0.444-1.183-1.745-2.283-1.44c-1.15,0.318-2.149,1.652-2.826,2.555c-0.655,0.875-1.167,1.838-1.655,2.813 c-0.408,0.815-0.696,1.693-0.497,2.606c0.364,1.673,2.223,1.068,3.045,0.269C479.154,83.549,480.006,84.143,479.603,84.673 L479.603,84.673z" fill="#EF5441"/></g><g id="change3_2"><path d="M475.04,81.496c-4.333,2.508-4.365-4.299-3.284-6.805c0.896-2.075,2.741-4.167,4.879-5.004 c2.013-0.788,5.242,0.19,4.941,2.855c-0.054,0.473-0.605,1.013-1.099,0.635c-1.235-0.948-1.573-2.408-3.401-1.587 c-1.489,0.669-2.676,2.076-3.461,3.467c-0.705,1.25-1.591,6.43,0.976,5.383C475.21,80.188,475.593,81.176,475.04,81.496 L475.04,81.496z" fill="#EF5441"/></g><g id="change3_57"><path d="M471.785,79.453c-4.914,0.825-5.1-5.624-3.208-8.673c1.068-1.721,3.229-3.109,5.199-3.471 c1.95-0.358,4.147,1.006,3.675,3.164c-0.093,0.425-0.673,0.561-0.966,0.258c-1.089-1.126-1.374-2.004-3.129-1.437 c-1.221,0.395-2.464,1.36-3.205,2.4c-1.317,1.848-1.667,6.548,1.459,6.49C472.323,78.171,472.515,79.33,471.785,79.453 L471.785,79.453z" fill="#EF5441"/></g><g id="change3_58"><path d="M475.268,90.918c0.2-2.416-0.309-4.494-1.515-6.596c-0.58-1.011-1.397-1.839-2.248-2.621 c-0.741-0.681-1.17-0.669-1.221-1.653c-0.008-0.158,0.109-0.267,0.243-0.32c1.812-0.721,3.804,2.499,4.591,3.791 c1.349,2.216,1.736,5.028,1.052,7.519C476.037,91.525,475.224,91.446,475.268,90.918L475.268,90.918z" fill="#EF5441"/></g></g></g><g><g><g><g><g><g id="change2_1"><path d="M405.704,72.126c-7.253,8.566-22.945,12.261-34.319,10.224c-7.739-1.386-11.042-6.07-13.386-11.456 c-3.068-7.052,0.657-15.759,1.037-17.988c1.576-9.254,0.966-18.732,9.166-23.081c5.686-2.916,14.908-3.246,23.668-1.326 c14.293,3.132,19.924,14.83,18.375,28.182c-0.027,0.231-0.061,0.46-0.09,0.691c0.86-0.247,1.78-0.284,2.749,0.015 c2.873,0.978,4.046,4.99,3.335,7.72C415.4,68.825,410.532,73.094,405.704,72.126z" fill="#F48A70"/></g><g id="change1_13"><path d="M393.915,51.083c-0.978-0.377-3.307-1.389-5.98-1.43c-2.071-0.032-4.584,1.014-5.343,0.254 c-1.738-1.742,0.977-4.141,4.222-4.55c4.538-0.572,7.221,1.518,8.223,2.955C396.039,49.747,395.652,51.751,393.915,51.083z" fill="#531515"/></g><g id="change3_59"><path d="M406.712,68.18c0.764-0.07,1.523-0.127,1.835-0.94c0.257-0.67-0.067-0.991-0.555-1.396 c-0.906-0.752-0.673-1.921-0.189-2.857c0.572-1.108,1.554-1.705,2.809-1.572c1.102,0.116,2.696,0.681,2.28,2.065 c-0.088,0.292-0.444,0.315-0.639,0.13c-1.042-0.984-2.676-1.442-3.295,0.199c-0.12,0.318-0.277,0.752-0.07,1.003 c0.402,0.489,0.812,0.655,0.971,1.318c0.467,1.955-1.384,3.414-3.187,2.76C406.355,68.777,406.327,68.216,406.712,68.18 L406.712,68.18z" fill="#EF5441"/></g><g id="change3_48"><path d="M388.416,63.938c0.441-0.275,0.869-0.55,1.282-0.867c0.503-0.386,1.188-0.68,1.592-1.167 c0.886-1.066,0.045-2.467-1.304-2.241c-0.688,0.115-1.294,0.705-1.815,1.131c-0.458,0.374-0.833,0.799-1.226,1.237 C386.053,63.027,387.199,64.696,388.416,63.938L388.416,63.938z" fill="#EF5441"/></g><g id="change3_52"><path d="M392.468,65.925c0.544-0.382,1.135-0.693,1.692-1.055c0.735-0.477,1.497-0.846,1.756-1.755 c0.176-0.617-0.209-1.251-0.811-1.428c-0.904-0.266-1.681,0.196-2.401,0.692c-0.769,0.53-1.337,1.154-1.853,1.929 C390.211,65.272,391.499,66.605,392.468,65.925L392.468,65.925z" fill="#EF5441"/></g><g id="change3_53"><path d="M360.115,62.307c0.441-0.275,0.869-0.55,1.282-0.867c0.503-0.386,1.188-0.68,1.592-1.167 c0.886-1.066,0.045-2.467-1.304-2.241c-0.688,0.115-1.294,0.705-1.815,1.131c-0.458,0.374-0.833,0.799-1.226,1.237 C357.752,61.396,358.898,63.065,360.115,62.307L360.115,62.307z" fill="#EF5441"/></g><g id="change3_51"><path d="M364.167,64.293c0.544-0.382,1.135-0.693,1.692-1.055c0.735-0.477,1.497-0.846,1.756-1.755 c0.176-0.617-0.209-1.251-0.811-1.428c-0.904-0.266-1.681,0.196-2.401,0.692c-0.769,0.53-1.337,1.154-1.853,1.929 C361.909,63.641,363.198,64.974,364.167,64.293L364.167,64.293z" fill="#EF5441"/></g><g id="change1_12"><path d="M373.224,48.978c-0.978-0.377-3.307-1.389-5.98-1.43c-2.071-0.032-4.584,1.014-5.343,0.254 c-1.738-1.742,0.977-4.141,4.222-4.55c4.538-0.572,7.221,1.518,8.223,2.955C375.348,47.643,374.96,49.647,373.224,48.978z" fill="#531515"/></g></g><g id="change3_1"><path d="M376.744,50.493c-0.257,0.704-0.073,1.637-0.577,2.213c-0.429,0.491-1.291,0.625-1.886,0.784 c-1.495,0.401-2.763,0.772-3.783,2.022c-1.624,1.991-1.346,6.003,1.608,6.58c1.233,0.241,2.066-1.125,1.213-2.084 c-1.035-1.163-1.848-1.922-0.46-3.321c0.805-0.812,2.484-0.828,3.503-1.328c1.879-0.923,3.358-3.423,1.554-5.176 C377.516,49.794,376.923,50.004,376.744,50.493L376.744,50.493z" fill="#EF5441"/></g></g><g id="change3_49"><path d="M369.992,83.035c5.37,1.406,14.462,2.694,19.066-1.156c0.439-0.367,0.093-1.198-0.476-1.148 c-2.862,0.249-5.531,1.212-8.461,1.297c-3.321,0.096-6.603-0.604-9.911-0.604C369.286,81.424,369.09,82.799,369.992,83.035 L369.992,83.035z" fill="#EF5441"/></g></g></g><g id="change3_3"><path d="M475.495,131.606c0,0-2.084,4.285-3.075,4.091c-0.991-0.195-6.657-4.329-10.385-10.577 c-3.729-6.247-4.657-14.192-4.451-14.595c0.513-1.002,1.837-2.928,1.817-3.553c-6.349-1.906-13.317,9.005-14.202,7.812 c-2.108-2.839-15.092-17.847-21.838-24.463c-3.656-3.586-9.462-5.147-14.429-5.518c-2.367-0.177-5.956,1.438-6.639-1.835 c-0.452-2.168-0.317-2.737-2.795-2.8c-1.932-0.049-3.397,0.518-4.9,1.74c-1.657,1.348-2.519,2.591-4.632,3.12 c-2.124,0.532-4.427,1.072-6.628,1.469c-4.567,0.824-9.546,0.955-13.767-1.253c-2.801-1.465-5.669-3.565-8.882-2.319 c-1.889,0.732-1.448,1.122-1.964,2.844c-0.912,3.042-7.794,1.89-10.492,2.381c-3.96,0.72-8.154,2.051-11.079,4.953 c-6.707,6.655-19.603,21.737-21.695,24.589c-0.878,1.198-7.909-9.672-14.247-7.729c-0.016,0.625,1.32,2.543,1.838,3.542 c0.209,0.402-0.674,8.352-4.366,14.621s-10.194,10.857-11.184,11.057c-0.99,0.2-2.156-3.093-2.156-3.093s-2.172,0.349,0.83,8.609 c3.002,8.26,14.697,20.158,20.932,21.113c8.512,1.305,21.014-6.723,27.917-10.202c-0.168,1.607-0.165,3.395-0.16,5.184 c0.02,7-1.954,11.905-3.924,18.211c-1.305,7.003,4.012,11.888,2.042,18.193c-0.653,3.502-4.624,5.613-3.286,9.809 c0.673,3.498,5.313,3.484,8.632,4.875c7.3,2.779,13.264,2.061,20.558,2.74c6.629-0.019,12.601,2.063,19.23,2.044 c12.597,0.663,26.512-1.477,38.436-4.312c4.638-0.713,14.576-2.842,17.215-7.05c1.978-3.506-0.018-6.3-0.689-9.098 c-0.675-4.198-0.016-5.6,0.636-9.101c0.647-5.602,1.289-12.603-0.053-18.199c-0.61-2.229-2.229-6.627-3.625-11.217 c8.121,3.306,17.789,6.123,23.798,5.166c6.229-0.992,17.855-12.958,20.809-21.235 C477.595,133.343,475.495,131.606,475.495,131.606z" fill="#EF5441"/></g></g><g id="change4_71"><path d="M315.034,119.674c1.006,4.161,1.882,7.937,1.585,12.266c-0.292,4.255-2.408,7.974-2.844,12.151 c-0.054,0.519,0.645,0.899,1.061,0.609c6.93-4.825,6.91-19.906,1.843-25.984C316.012,117.917,314.818,118.783,315.034,119.674 L315.034,119.674z" fill="#D7B8D7"/></g><g id="change4_13"><path d="M338.015,152.051c3.697-7.24-2.482-21.51-8.898-25.713c-1.506-0.986-3.376,0.951-2.444,2.444 c2.133,3.417,4.649,6.372,6.507,10.015c2.063,4.044,2.962,8.351,3.307,12.84C336.544,152.39,337.615,152.833,338.015,152.051 L338.015,152.051z" fill="#D7B8D7"/></g><g id="change4_31"><path d="M429.295,153.017c0.259-3.397-0.216-6.792-0.248-10.197c-0.052-5.62,1.877-10.398,3.274-15.712 c0.156-0.593-0.554-0.96-0.987-0.575c-6.766,6.015-5.456,18.748-3.425,26.672C428.117,154.013,429.237,153.782,429.295,153.017 L429.295,153.017z" fill="#D7B8D7"/></g><g id="change4_29"><path d="M443.38,115.594c-4.041,2.378-6.595,6.903-7.064,11.561c-0.41,4.073,0.511,10.142,5.305,10.994 c0.577,0.102,1.056-0.334,0.928-0.928c-0.772-3.603-2.591-6.176-2.375-10.066c0.209-3.761,2.278-7.33,4.508-10.259 C445.285,116.104,444.147,115.143,443.38,115.594L443.38,115.594z" fill="#D7B8D7"/></g><g id="change4_3"><path d="M354.028,90.043c3.184,10.623,15.628,14.416,25.483,13.726c10.984-0.769,21.813-6.32,30.176-13.239 c2.33-1.928-1.01-5.244-3.318-3.318c-7.162,5.979-15.859,10.119-25.041,11.783c-4.692,0.85-9.44,0.634-13.97-0.866 c-5.218-1.728-7.749-5.474-11.329-9.251C355.206,88.009,353.685,88.901,354.028,90.043L354.028,90.043z" fill="#D7B8D7"/></g></g><g id="change1_2"><path d="M362.744,50.856c1.388,0.1,2.535,0.088,3.782,0.815c1.171,0.683,2.04,1.713,2.736,2.855 c0.281-0.489,0.561-0.978,0.842-1.467c-1.618-0.17-3.23-0.369-4.857-0.4c-1.378-0.026-3.22-0.087-4.131,1.072 c-0.234,0.298-0.285,0.824,0.131,1.018c1.285,0.6,2.613,0.07,4,0.02c1.618-0.059,3.246,0.127,4.857,0.24 c0.72,0.05,1.24-0.873,0.842-1.467c-1.711-2.551-5.248-5.32-8.442-3.572C362.062,50.21,362.297,50.823,362.744,50.856 L362.744,50.856z" fill="#531515"/></g><g id="change1_3"><path d="M392.045,53.093c-2.659-2.482-6.772-0.687-9.063,1.36c-0.521,0.465-0.281,1.499,0.43,1.63 c1.572,0.288,3.144,0.55,4.692,0.953c1.286,0.335,2.64,1.397,3.964,0.999c0.329-0.099,0.559-0.454,0.453-0.797 c-0.437-1.405-2.071-1.72-3.355-2.102c-1.696-0.506-3.491-0.676-5.236-0.933c0.143,0.543,0.287,1.086,0.43,1.63 c0.991-0.966,2.048-1.633,3.355-2.088c1.344-0.467,2.535-0.096,3.865,0.145C392.019,53.967,392.42,53.443,392.045,53.093 L392.045,53.093z" fill="#531515"/></g><g id="change3_11"><path d="M375.945,63.083c-0.807,0.307-1.68,0.739-2.214,0.815c-1.438,0.205-2.605-0.485-3.993-0.418 c-2.977,0.144-1.899,5.077-0.167,6.171c2.027,1.28,5.464,1.953,7.213-0.1c1.058-1.242,3.23-6.109,0.654-6.755 C377.077,62.705,376.528,62.861,375.945,63.083z" fill="#EF5441"/></g><g id="change4_40"><path d="M339.87,204.185c6.37,3.087,13.854,3.854,20.831,4.625c7.849,0.868,15.328,0.197,22.977-1.593 c7.849-1.836,15.619-4.382,23.759-3.86c4.811,0.309,13.117,2.379,16.938-1.54c0.936-0.96,0.255-2.583-1.079-2.605 c-2.686-0.044-5.292,0.725-8.03,0.692c-3.115-0.038-6.233-0.447-9.34-0.647c-6.598-0.423-13.232,1.637-19.575,3.192 c-7.968,1.952-15.51,3.15-23.737,2.703c-7.474-0.406-14.795-2.81-22.263-2.741C339.452,202.42,338.987,203.756,339.87,204.185 L339.87,204.185z" fill="#D7B8D7"/></g><g id="change4_41"><path d="M151.86 388.533L149.157 395.281 150.494 403.57 158.349 405.704 166.748 405.402 173.875 406.889 181.01 408.48 188.155 409.915 195.35 410.049 201.568 406.739 200.213 400.685 193.26 398.709" fill="#D7B8D7"/></g><g id="change5_1"><path d="M123.616 240.347L125.288 247.447 127.35 254.664 131.361 260.977 134.648 267.654 137.951 274.329 141.729 280.74 145.974 286.921 148.157 294.102 151.47 300.863 150.255 308.089 149.788 315.948 148.677 323.702 149.338 331.495 149.69 339.303 151.528 346.966 151.956 354.774 152.703 362.554 153.376 370.346 153.86 378.115 152.053 385.853 151.595 393.153 157.874 397.297 165.248 399.44 173.359 401.761 180.887 405.209 188.063 406.638 195.433 406.408 201.799 402.799 198.596 397.796 192.531 395.018 187.548 390.332 182.229 386.14 182.758 378.354 184.23 370.791 184.892 363.134 186.923 355.658 187.336 347.967 187.175 340.207 188.971 332.686 190.194 325.085 190.594 317.398 190.339 309.685 190.38 302.038 190.562 294.412 189.088 286.882 188.005 279.223 185.442 271.928 183.915 264.324 180.678 257.263 179.24 249.579 176.021 242.53 173.099 235.378 169.417 228.567 167.313 221.006 162.176 215.051 157.573 209.409 150.521 208.808 143.8 211.972 137.311 215.637 131.568 220.447 126.784 226.233 122.785 232.768z" fill="#A14F26"/></g><g id="change4_42"><path d="M192.201 410.043L192.308 401.255 197.998 397.205 192.076 391.568 183.899 392.285 180.943 399.143 179.439 406.581 185.826 408.36z" fill="#D7B8D7"/></g><g id="change4_43"><path d="M149.056 396.916L149.561 388.852 152.86 381.434 153.005 381.397 157.567 382.29 157.55 382.385 157.653 389.157 160.161 395.525 164.792 400.379 156.911 398.67z" fill="#D7B8D7"/></g><g id="change4_44"><path d="M153.953 378.075L152.118 382.706 159.514 385.194 167.292 386.02 175.092 386.45 182.784 385.468 183.065 381.642 175.449 381.417 167.825 381.317 160.59 380.976z" fill="#D7B8D7"/></g><g id="change4_45"><path d="M14.048 315.63L6.795 315.645 0 320.442 0.864 328.36 4.667 335.868 6.078 343.057 7.211 350.274 8.64 357.431 11.115 364.305 17.052 368.201 22.288 364.886 20.809 357.824" fill="#D7B8D7"/></g><g id="change5_2"><path d="M84.024 224.661L82.325 232.216 80.662 239.85 80.89 247.649 81.074 255.423 81.452 263.194 80.351 270.961 80.451 278.733 77.124 284.969 70.081 287.661 62.599 289.524 56.37 293.941 49.696 297.585 43.774 302.379 37.795 307.069 31.472 311.281 24.534 314.442 16.772 314.771 9.216 316.748 8.545 324.57 10.732 332.366 9.557 340.584 9.878 348.896 11.803 356.005 14.842 362.722 20.765 366.825 23.714 362.163 25.236 355.639 25.753 348.974 28.683 343.22 36.073 340.879 43.69 339.142 51.132 336.753 58.595 334.445 66.158 332.455 73.63 330.132 80.859 327.1 88.085 324.118 95.11 320.703 101.974 316.997 108.58 312.768 113.389 306.538 116.702 299.525 119.425 292.265 121.505 284.806 122.618 277.104 124.869 269.712 127.091 262.284 128.122 254.604 129.583 247.012 129.988 239.266 130.736 231.603 131.196 223.943 130.486 216.376 124.07 213.105 116.91 211.224 109.396 210.782 102.107 212.669 94.857 214.598 88.456 218.596z" fill="#A14F26"/></g><g id="change4_46"><path d="M10.23 361.174L18.372 357.8 24.388 361.399 27.213 353.769 23.295 346.555 15.821 346.433 8.419 348.076 9.319 354.638z" fill="#D7B8D7"/></g><g id="change4_47"><path d="M5.194 316.32L12.944 313.686 21.049 313.732 21.222 313.757 21.949 318.428 22.022 318.422 15.851 321.2 10.979 326.001 8.341 332.165 6.878 324.233z" fill="#D7B8D7"/></g><g id="change4_48"><path d="M24.466 313.491L19.594 313.555 20.51 321.269 22.389 328.85 25.087 336.194 29.105 342.859 32.769 341.574 29.678 334.606 27.039 327.45 24.536 320.656z" fill="#D7B8D7"/></g><g id="change3_12"><path d="M191.404,294.254c-0.54-4.628-0.338-11.502-2.187-15.795c-0.992-2.302-2.618-4.879-3.006-7.336 c-0.401-2.541-0.407-5.542-1.466-7.904c-1.092-2.434-2.552-4.891-3.077-7.505c-0.524-2.61-0.729-5.409-1.962-7.788 c-2.501-4.829-4.904-9.681-7.076-14.668c-2.163-4.966-3.497-10.456-6.47-14.976c-2.089-3.176-9.997-34.367-14.071-34.153 c-5.531,0.292-54.994-2.923-58.923,1.715c-7.178,8.481-11.212,21-15.397,31.124c-3.223,7.796-4.909,16.381-4.74,24.821 c0.088,4.434,0.664,8.896,1.993,13.138c1.175,3.749,4.239,7.308,4.226,11.194c-0.008,2.632,0.014,5.17,0.245,7.788 c0.417,4.719,0.215,4.905-2.449,8.931c-0.95,1.437-0.115,0.741-2.114,1.531c-1.636,0.646-3.272,1.292-4.907,1.938 c-2.56,1.011-5.127,2.002-7.691,3.002c-3.222,1.257-6.5,3.038-9.19,5.214c-3.713,3.002-7.281,5.063-11.518,7.292 c-0.325,0.171-0.518,0.549-0.52,0.906c-0.035,6.477-0.03,12.405,2.258,18.513c2.267,6.052,5.557,10.238,9.796,15.032 c0.227,0.256,0.696,0.393,1.022,0.27c10.651-4.039,21.774-6.511,32.447-10.651c5.504-2.134,10.338-4.392,15.144-7.824 c4.478-3.198,8.44-6.771,12.392-10.583c1.581-1.525,2.312-4.913,3.192-6.905c1.072-2.427,1.692-5.089,2.485-7.617 c1.562-4.973,2.335-10.392,3.608-15.463c1.266-5.048,2.624-10.037,3.78-15.116c0.35-1.535,0.804-3.147,1.271-4.785 c4.359,8.016,8.679,15.992,12.796,24.157c2.107,4.177,4.331,8.374,5.853,12.814c1.658,4.838,2.502,8.803,2.992,13.884 c-1.124,4.178-2.015,8.152-2.655,12.437c-0.544,3.648,0.576,7.542,1.085,11.186c1.241,8.881,0.724,17.731,2.258,26.61 c0.065,0.371,0.409,0.615,0.734,0.733c10.738,3.919,23.234,5.869,34.27,2.13c0.448-0.151,0.77-0.524,0.771-1.013 c0.008-2.531-0.392-5.396,0.114-7.876c0.556-2.728,1.305-5.452,1.459-8.237c0.33-5.972,2.153-11.502,2.135-17.457 c-0.01-3.151,0.636-5.772,1.377-8.853c0.653-2.718,0.357-5.574,0.357-8.357c0.001-2.602,0.573-5.259,0.893-7.839 C193.237,299.508,191.684,296.656,191.404,294.254z M79.384,283.106c0.005-0.007,0.008-0.012,0.013-0.018 c-0.454,1.107-1.044,1.806-1.806,2.013C78.269,284.528,78.877,283.872,79.384,283.106z" fill="#EF5441"/></g><g id="change4_49"><path d="M174.984,309.12c0.447,1.83,1.281,3.51,2.046,5.225c0.741,1.66,1.456,4.168,3.376,4.712 c0.534,0.151,1.06-0.1,1.352-0.55c1.043-1.608-0.098-3.548-0.858-5.06c-0.944-1.877-2.096-3.69-3.219-5.464 C176.784,306.563,174.582,307.476,174.984,309.12L174.984,309.12z" fill="#D7B8D7"/></g><g id="change4_50"><path d="M92.343,303.425c-0.59,1.8-0.809,3.702-1.028,5.582c-0.204,1.75-0.876,3.942,0.223,5.483 c0.371,0.521,1.046,0.796,1.639,0.43c1.614-0.996,1.716-2.827,1.887-4.578c0.211-2.152,0.197-4.365,0.18-6.524 C95.229,302.11,92.856,301.86,92.343,303.425L92.343,303.425z" fill="#D7B8D7"/></g><g id="change1_4"><path d="M110.297 51.639L104.491 50.079 97.97 50.414 91.194 51.754 85.563 55.892 81.189 61.333 77.648 67.391 75.299 72.892 72.315 78.131 67.266 81.557 61.571 83.807 57.346 88.854 54.3 94.635 54.266 100.706 55.815 107.726 53.643 116.453 48.221 119.925 43.759 124.364 40.371 129.491 39.89 135.635 40.831 141.237 41.784 146.879 46.337 153.44 51.879 159.349 59.908 162.838 68.542 164.467 75.562 164.139 83.221 161.826 90.254 157.93 97.732 154.87 104.326 151.453 111.464 149.417 118.92 148.858 126.373 148.569 134.267 145.751 142.655 144.184 149.608 141.254 154.944 135.477 157.952 129.727 159.38 123.386 158.352 117.792 157.711 112.108 156.175 107.021 151.395 101.208 150.396 94.931 151.078 88.714 151.744 79.798 149.266 74.19 144.828 69.85 141.067 65.731 139.71 60.733 137.608 55.286 132.55 52.426 123.763 49.099 114.39 48.492 108.557 49.42 103.573 52.616 99.214 57.756 96.376 60.924 95.88 61.049" fill="#531515"/></g><g id="change3_13"><path d="M26.819,59.707c1.127,7.212,2.705,14.315,4.224,21.455c1.058,4.973,6.95,30.742,8.036,35.708 c0.347,1.588,0.661,3.138,1.26,4.652c0.154,0.388,0.924,2.17,0.744,1.355c0.173,0.784,1.355,0.386,1.184-0.393 c0.249,1.126,0.189-0.471,0.16-0.973c-0.079-1.381-0.28-2.677-0.581-4.027c-1.059-4.756-6.907-30.318-7.966-35.074 c-1.715-7.702-3.414-15.402-5.59-22.986C28.056,58.611,26.686,58.854,26.819,59.707L26.819,59.707z" fill="#EF5441"/></g><g id="change4_20"><path d="M33.755,37.07c-1.012,2.754-1.951,5.521-2.769,8.34c-0.771,2.658-2.055,5.686-1.872,8.512 c0.018,0.283,0.356,0.305,0.495,0.105c1.502-2.16,1.98-5.168,2.649-7.65c0.812-3.009,1.511-6.03,2.108-9.087 C34.436,36.938,33.886,36.713,33.755,37.07L33.755,37.07z" fill="#D7B8D7"/></g><g id="change4_22"><path d="M11.1,43.014c1.878,2.252,3.803,4.447,5.834,6.563c1.915,1.995,3.899,4.625,6.436,5.877 c0.187,0.092,0.474-0.095,0.37-0.316c-1.146-2.441-3.548-4.392-5.41-6.26c-2.173-2.18-4.414-4.266-6.734-6.287 C11.325,42.355,10.855,42.719,11.1,43.014L11.1,43.014z" fill="#D7B8D7"/></g><g id="change4_36"><path d="M4.921,65.602c2.891-0.5,5.756-1.072,8.606-1.773c2.685-0.661,5.948-1.062,8.302-2.633 c0.172-0.115,0.152-0.456-0.089-0.477c-2.675-0.226-5.547,0.868-8.083,1.543c-2.99,0.796-5.934,1.697-8.86,2.701 C4.457,65.08,4.544,65.667,4.921,65.602L4.921,65.602z" fill="#D7B8D7"/></g><g id="change4_35"><path d="M21.389,82.252c1.012-2.754,1.951-5.521,2.769-8.34c0.771-2.658,2.055-5.686,1.872-8.512 c-0.018-0.283-0.356-0.305-0.495-0.105c-1.502,2.16-1.98,5.168-2.649,7.65c-0.812,3.009-1.511,6.03-2.108,9.087 C20.708,82.384,21.258,82.609,21.389,82.252L21.389,82.252z" fill="#D7B8D7"/></g><g id="change4_16"><path d="M44.044,76.308c-1.878-2.252-3.803-4.447-5.834-6.563c-1.915-1.995-3.899-4.625-6.436-5.877 c-0.187-0.092-0.474,0.095-0.37,0.316c1.146,2.441,3.548,4.392,5.41,6.26c2.173,2.18,4.414,4.266,6.734,6.287 C43.82,76.966,44.29,76.603,44.044,76.308L44.044,76.308z" fill="#D7B8D7"/></g><g id="change4_19"><path d="M50.224,53.72c-2.891,0.5-5.756,1.072-8.606,1.773c-2.685,0.661-5.948,1.062-8.302,2.633 c-0.172,0.115-0.152,0.456,0.089,0.477c2.675,0.226,5.547-0.868,8.083-1.543c2.99-0.796,5.934-1.697,8.86-2.701 C50.688,54.242,50.6,53.654,50.224,53.72L50.224,53.72z" fill="#D7B8D7"/></g><g id="change4_6"><path d="M24.238,45.879c0.162,1.794,0.409,3.559,0.78,5.324c0.324,1.543,0.468,3.895,1.683,5.071 c0.111,0.108,0.351,0.085,0.41-0.074c0.53-1.441-0.169-3.338-0.51-4.74c-0.472-1.943-1.03-3.831-1.724-5.704 C24.751,45.415,24.203,45.498,24.238,45.879L24.238,45.879z" fill="#D7B8D7"/></g><g id="change4_15"><path d="M13.965,55.656c1.635,0.756,3.288,1.426,5.001,1.988c1.503,0.492,3.61,1.543,5.24,1.078 c0.15-0.043,0.244-0.264,0.137-0.392c-0.965-1.159-2.922-1.506-4.281-1.904c-1.944-0.571-3.883-1.041-5.879-1.381 C13.829,54.983,13.618,55.495,13.965,55.656L13.965,55.656z" fill="#D7B8D7"/></g><g id="change4_18"><path d="M17.302,69.441c1.47-1.036,2.876-2.131,4.218-3.333c1.176-1.054,3.145-2.359,3.556-4.001 c0.038-0.153-0.106-0.345-0.273-0.316c-1.523,0.261-2.839,1.85-3.888,2.85c-1.432,1.366-2.771,2.782-4.034,4.304 C16.648,69.224,16.986,69.663,17.302,69.441L17.302,69.441z" fill="#D7B8D7"/></g><g id="change4_5"><path d="M41.18,63.666c-1.635-0.756-3.288-1.426-5.001-1.988c-1.503-0.492-3.61-1.543-5.24-1.078 c-0.15,0.043-0.244,0.264-0.137,0.392c0.965,1.159,2.922,1.506,4.281,1.904c1.944,0.571,3.883,1.041,5.879,1.381 C41.315,64.339,41.527,63.827,41.18,63.666L41.18,63.666z" fill="#D7B8D7"/></g><g id="change4_2"><path d="M37.843,49.881c-1.47,1.036-2.876,2.131-4.218,3.333c-1.176,1.054-3.145,2.359-3.556,4.001 c-0.038,0.153,0.106,0.345,0.273,0.316c1.523-0.261,2.839-1.85,3.888-2.85c1.432-1.366,2.771-2.782,4.034-4.304 C38.496,50.098,38.158,49.659,37.843,49.881L37.843,49.881z" fill="#D7B8D7"/></g><g id="change3_14"><path d="M196.766,31.717c-1.318,7.18-2.175,14.405-3.1,21.646c-0.644,5.043-3.594,31.312-4.21,36.358 c-0.197,1.613-0.413,3.18-0.347,4.807c0.017,0.417,0.156,2.353,0.255,1.525c-0.096,0.797,1.152,0.812,1.247,0.02 c-0.137,1.145,0.334-0.382,0.473-0.866c0.382-1.33,0.62-2.619,0.782-3.993c0.571-4.839,3.495-30.898,4.066-35.737 c0.925-7.836,1.865-15.665,2.316-23.543C198.295,31.092,196.922,30.868,196.766,31.717L196.766,31.717z" fill="#EF5441"/></g><g id="change4_67"><path d="M210.79,12.642c-1.865,2.265-3.665,4.566-5.368,6.957c-1.606,2.254-3.818,4.688-4.578,7.416 c-0.076,0.273,0.235,0.406,0.433,0.262c2.131-1.542,3.576-4.224,5.028-6.346c1.76-2.572,3.417-5.192,4.992-7.881 C211.476,12.742,211.032,12.348,210.79,12.642L210.79,12.642z" fill="#D7B8D7"/></g><g id="change4_21"><path d="M187.443,10.769c1.029,2.746,2.12,5.453,3.339,8.122c1.148,2.515,2.152,5.653,4.133,7.673 c0.146,0.149,0.478,0.067,0.453-0.176c-0.275-2.683-1.898-5.317-3.038-7.695c-1.331-2.775-2.757-5.484-4.279-8.158 C187.873,10.222,187.309,10.41,187.443,10.769L187.443,10.769z" fill="#D7B8D7"/></g><g id="change4_34"><path d="M174.15,30.049c2.894,0.483,5.787,0.89,8.709,1.169c2.752,0.263,5.965,0.962,8.706,0.257 c0.201-0.052,0.294-0.381,0.074-0.479c-2.45-1.097-5.522-1.013-8.139-1.213c-3.085-0.236-6.161-0.358-9.254-0.377 C173.884,29.403,173.773,29.986,174.15,30.049L174.15,30.049z" fill="#D7B8D7"/></g><g id="change4_59"><path d="M184.195,51.203c1.865-2.265,3.665-4.566,5.368-6.957c1.606-2.254,3.818-4.688,4.578-7.416 c0.076-0.273-0.235-0.406-0.433-0.262c-2.132,1.542-3.576,4.224-5.028,6.346c-1.76,2.572-3.417,5.192-4.992,7.881 C183.508,51.103,183.953,51.497,184.195,51.203L184.195,51.203z" fill="#D7B8D7"/></g><g id="change4_64"><path d="M207.541,53.076c-1.029-2.746-2.12-5.453-3.339-8.122c-1.148-2.515-2.152-5.653-4.133-7.673 c-0.146-0.149-0.478-0.067-0.453,0.176c0.275,2.683,1.898,5.317,3.038,7.695c1.331,2.775,2.757,5.484,4.279,8.158 C207.112,53.623,207.676,53.436,207.541,53.076L207.541,53.076z" fill="#D7B8D7"/></g><g id="change4_1"><path d="M220.835,33.796c-2.894-0.483-5.787-0.89-8.709-1.169c-2.752-0.263-5.965-0.962-8.706-0.257 c-0.201,0.052-0.294,0.381-0.074,0.479c2.45,1.097,5.522,1.013,8.139,1.213c3.085,0.236,6.161,0.358,9.254,0.377 C221.1,34.443,221.211,33.859,220.835,33.796L220.835,33.796z" fill="#D7B8D7"/></g><g id="change4_14"><path d="M198.897,17.813c-0.439,1.747-0.789,3.495-1.023,5.283c-0.204,1.563-0.845,3.831-0.086,5.342 c0.069,0.138,0.303,0.197,0.411,0.066c0.976-1.185,0.943-3.206,1.085-4.643c0.197-1.99,0.293-3.956,0.257-5.954 C199.534,17.544,198.99,17.442,198.897,17.813L198.897,17.813z" fill="#D7B8D7"/></g><g id="change4_65"><path d="M185.972,23.648c1.293,1.253,2.632,2.432,4.064,3.528c1.256,0.961,2.897,2.649,4.59,2.748 c0.156,0.009,0.318-0.168,0.259-0.325c-0.528-1.412-2.261-2.386-3.411-3.211c-1.647-1.181-3.321-2.265-5.093-3.246 C186.066,22.968,185.697,23.382,185.972,23.648L185.972,23.648z" fill="#D7B8D7"/></g><g id="change4_61"><path d="M184.568,37.761c1.73-0.493,3.419-1.061,5.082-1.753c1.458-0.606,3.747-1.188,4.678-2.602 c0.087-0.132,0.014-0.361-0.153-0.389c-1.523-0.256-3.291,0.808-4.611,1.406c-1.803,0.816-3.535,1.711-5.23,2.73 C184.023,37.341,184.197,37.867,184.568,37.761L184.568,37.761z" fill="#D7B8D7"/></g><g id="change4_70"><path d="M209.013,40.197c-1.293-1.253-2.632-2.432-4.064-3.528c-1.256-0.961-2.897-2.649-4.59-2.748 c-0.156-0.009-0.318,0.168-0.259,0.325c0.528,1.412,2.261,2.386,3.411,3.211c1.647,1.181,3.321,2.265,5.093,3.246 C208.919,40.877,209.287,40.464,209.013,40.197L209.013,40.197z" fill="#D7B8D7"/></g><g id="change4_63"><path d="M210.417,26.084c-1.73,0.493-3.419,1.061-5.082,1.753c-1.458,0.606-3.747,1.188-4.678,2.602 c-0.087,0.132-0.014,0.361,0.153,0.389c1.523,0.256,3.291-0.808,4.611-1.406c1.803-0.816,3.535-1.711,5.23-2.73 C210.962,26.504,210.788,25.978,210.417,26.084L210.417,26.084z" fill="#D7B8D7"/></g><g id="change5_3"><path d="M89.502 123.251L84.412 124.244 79.503 125.995 74.914 128.253 70.927 131.654 68.172 136.037 65.37 140.365 63.936 145.37 61.802 150.018 59.745 154.524 56.805 150.999 53.682 147.381 50.961 143.446 48.575 139.304 46.649 135.079 47.138 130.504 47.629 125.854 47.477 121.173 45.883 116.497 43.464 112.242 39.197 110.47 35.124 108.735 31.712 110.973 28.107 111.523 24 115.083 21.462 119.852 20.109 125.075 21.718 130.198 24.348 135.116 26.773 140.205 28.426 145.148 29.496 150.283 31.509 155.107 33.784 159.817 35.698 164.656 37.219 169.683 39.692 174.284 42.32 178.789 44.812 183.368 47.817 187.626 51.254 191.528 54.912 195.205 59.321 197.901 64.342 199.104 69.559 198.203 74.007 195.399 78.292 192.345 81.395 188.072 84.802 183.991 87.11 179.21 90.036 174.777 91.96 169.815 94.06 165.355 94.994 160.497 95.497 155.585 96.178 150.682 96.144 145.733 96.077 140.788 96.092 135.808 94.731 131.015 93.473 126.218z" fill="#A14F26"/></g><g id="change3_15"><path d="M25.455,127.164c1.281,1.551,3.303,3.61,5.414,2.138c1.601-1.116,1.443-3.606,0.961-5.23 c-0.567-1.91-2.157-3.56-3.689-4.74c-1.388-1.069-3.982-1.685-5.027,0.157c-0.201,0.354-0.253,0.891,0,1.24 c0.729,1.004,1.413,0.281,2.338,0.245c1.114-0.044,2.315,1.486,2.956,2.222c0.756,0.868,1.203,1.853,1.453,2.967 c0.257,1.142-0.245,2.063-1.491,1.367c-0.718-0.401-1.349-1.044-2.036-1.506C25.603,125.531,24.964,126.569,25.455,127.164 L25.455,127.164z" fill="#EF5441"/></g><g id="change3_16"><path d="M30.225,124.926c1.536,1.86,3.906,1.694,5.34-0.138c1.554-1.986,0.024-4.911-1.194-6.676 c-1.228-1.78-2.82-3.442-4.865-4.235c-2.141-0.83-4.069,0.865-4.153,2.97c-0.016,0.41,0.234,0.786,0.571,0.996 c0.97,0.603,1.742-0.558,2.291-1.195c0.473-0.548,2.024,0.989,2.347,1.297c0.9,0.858,1.58,1.863,2.244,2.904 c0.446,0.7,0.858,1.428,0.906,2.274c0.095,1.678-1.745,1.082-2.488,0.508C30.43,123.019,29.676,124.261,30.225,124.926 L30.225,124.926z" fill="#EF5441"/></g><g id="change3_17"><path d="M34.35,121.503c1.855,0.983,3.783,0.454,4.114-1.826c0.281-1.934-0.132-4.157-1.113-5.851 c-1.166-2.016-3.386-3.956-5.708-4.416c-2.18-0.432-5.685,1.669-4.237,4.195c0.314,0.547,0.921,0.603,1.448,0.38 c1.177-0.499,1.139-2.103,2.626-1.733c1.359,0.339,2.597,1.569,3.391,2.667c0.631,0.874,2.094,5.623,0.124,5.056 C34.089,119.713,33.504,121.055,34.35,121.503L34.35,121.503z" fill="#EF5441"/></g><g id="change3_18"><path d="M37.639,119.413c5.362,0.714,4.716-6.662,2.453-9.468c-1.297-1.608-3.534-2.671-5.556-2.861 c-1.958-0.185-4.684,1.945-3.29,3.995c0.248,0.364,0.742,0.559,1.145,0.3c0.933-0.599,1.053-1.846,2.334-1.641 c1.266,0.204,2.467,0.995,3.35,1.894c1.273,1.297,2.148,5.681-0.435,5.91C36.414,117.651,36.459,119.256,37.639,119.413 L37.639,119.413z" fill="#EF5441"/></g><g id="change3_19"><path d="M35.18,130.392c-0.415-3.776,0.967-7.128,3.853-9.601c1.176-1.007-0.519-2.666-1.689-1.689 c-3.263,2.725-5.117,7.353-3.47,11.467C34.129,131.204,35.269,131.199,35.18,130.392L35.18,130.392z" fill="#EF5441"/></g><g id="change5_4"><path d="M138.568 119.692L143.597 119.488 148.741 120.01 153.354 122.365 157.54 125.362 161.731 127.331 165.813 129.491 170.407 130.31 174.511 131.895 177.244 128.155 179.463 123.926 181.51 119.607 183.698 115.372 185.331 110.852 184.2 106.285 182.902 101.834 182.387 97.233 183.296 92.409 184.884 87.784 188.959 85.697 192.756 83.308 196.482 84.832 199.955 85.238 204.245 88.365 207.516 92.49 209.566 97.362 209.003 102.63 207.385 108.017 205.385 113.234 204.49 118.284 203.613 123.342 201.827 128.176 200.695 133.179 199.532 138.202 197.709 143.01 195.186 147.519 193.297 152.286 191.204 156.974 188.552 161.369 185.895 165.752 182.939 169.961 178.785 172.979 173.623 172.54 168.685 170.983 163.82 169.248 158.819 167.798 154.264 165.277 149.455 163.306 145.234 160.258 140.914 157.443 139.054 152.81 137.018 148.18 136.287 143.185 135.383 138.221 134.771 133.2 135.028 128.144 135.513 123.106z" fill="#A14F26"/></g><g id="change3_20"><path d="M203.74,99.176c-0.582,0.523-1.103,1.096-1.661,1.642c-1.144,1.118-1.738-0.077-1.743-1.121 c-0.005-1.118,0.479-2.158,1.033-3.096c0.598-1.013,1.487-2.264,2.666-2.616c0.771-0.231,1.531,0.625,2.159-0.402 c0.295-0.482,0.193-1.122-0.196-1.517c-3.181-3.231-7.487,3.237-7.904,5.926c-0.283,1.821,0.018,4.106,1.806,5.072 c2.193,1.185,4.028-1.454,4.981-3.007C205.327,99.326,204.337,98.639,203.74,99.176L203.74,99.176z" fill="#EF5441"/></g><g id="change3_21"><path d="M198.559,97.486c-1.038,1.056-2.493,1.005-2.476-0.747c0.009-0.951,0.639-1.987,1.045-2.826 c0.651-1.347,1.79-3.41,3.319-3.887c0.358-0.112,1.045,0.847,1.345,1.023c0.556,0.326,1.258,0.133,1.578-0.414 c1.015-1.733-1.403-3.337-2.803-3.482c-3.297-0.341-5.749,4.71-6.594,7.187c-0.645,1.89-0.702,4.337,1.265,5.484 c1.723,1.005,3.612,0.295,4.618-1.339C200.349,97.681,199.214,96.82,198.559,97.486L198.559,97.486z" fill="#EF5441"/></g><g id="change3_22"><path d="M194.304,94.362c-1.632,0.721-1.042-3.834-0.663-4.701c0.57-1.304,1.576-2.487,2.766-3.26 c1.639-1.066,1.944,0.748,3.37,1.179c0.578,0.175,1.118-0.205,1.302-0.739c0.934-2.714-2.747-4.08-4.8-3.46 c-2.303,0.696-4.192,3.118-5.083,5.249c-0.733,1.753-0.758,3.884-0.332,5.717c0.517,2.225,2.567,2.692,4.285,1.46 C196.034,95.172,195.289,93.927,194.304,94.362L194.304,94.362z" fill="#EF5441"/></g><g id="change3_23"><path d="M191.57,92.262c-2.69,0.12-2.403-3.914-1.495-5.593c0.553-1.021,1.647-1.787,2.644-2.316 c1.563-0.829,1.741,0.442,2.97,1.04c0.376,0.183,0.947,0.137,1.145-0.3c1.034-2.284-1.554-3.928-3.61-3.622 c-2.158,0.321-4.053,1.921-5.283,3.647c-2.255,3.166-1.149,10.354,3.877,8.98C192.823,93.825,192.64,92.215,191.57,92.262 L191.57,92.262z" fill="#EF5441"/></g><g id="change3_24"><path d="M196.942,104.746c1.121-4.421-1.431-8.773-5.138-11.064c-1.316-0.813-2.5,1.24-1.205,2.062 c3.124,1.986,4.926,5.138,5.038,8.825C195.659,105.307,196.753,105.49,196.942,104.746L196.942,104.746z" fill="#EF5441"/></g><g id="change5_5"><path d="M88.151,123.745c-1.007,0.256-1.959,0.462-2.864,0.645c6.623,5.893,14.567,10.252,23.062,12.923 c9.744,3.064,22.461,5.865,32.616,3.122c5.276-1.425,9.436-4.406,12.969-8.216c0.673-5.45,0.448-9.807-2.339-10.984 c-10.672-4.507-29.467,0.956-23.348-13.735l-26.197-0.569C110.022,119.064,98.243,120.67,88.151,123.745z" fill="#A14F26"/></g><g id="change5_6"><path d="M92.713,103.674c7.35,8.483,23.083,12,34.433,9.833c7.722-1.474,10.972-6.195,13.254-11.608 c2.988-7.086-0.836-15.75-1.241-17.975c-1.681-9.235-1.179-18.719-9.428-22.975c-5.719-2.851-14.944-3.076-23.682-1.057 c-14.257,3.294-19.754,15.056-18.053,28.39c0.03,0.231,0.066,0.459,0.098,0.69c-0.863-0.238-1.783-0.264-2.749,0.046 c-2.862,1.01-3.989,5.035-3.247,7.758C82.981,100.483,87.897,104.696,92.713,103.674z" fill="#A14F26"/></g><g id="change1_5"><path d="M105.011,87.891c-0.743-1.797,2.02-3.561,3.409-3.933c1.179-0.316,2.361-0.243,3.496,0.204 c1.183,0.465,3.022,1.644,2.736,3.079c-0.079,0.398-0.331,0.608-0.736,0.621c-1.043,0.033-1.496-0.822-2.303-1.376 c-0.838-0.575-1.842-0.659-2.803-0.436c-1.353,0.315-1.826,1.525-2.889,2.155C105.616,88.386,105.145,88.214,105.011,87.891 L105.011,87.891z" fill="#531515"/></g><g id="change1_6"><path d="M104.262,82.498c0.974-0.388,3.291-1.426,5.963-1.498c2.071-0.056,4.595,0.962,5.346,0.193 c1.718-1.762-1.024-4.13-4.274-4.502c-4.544-0.52-7.203,1.6-8.188,3.048C102.123,81.187,102.533,83.186,104.262,82.498z" fill="#531515"/></g><g id="change1_7"><path d="M135.863,85.761c0.489-1.882-2.49-3.25-3.918-3.427c-1.211-0.151-2.372,0.084-3.435,0.683 c-1.108,0.624-2.767,2.044-2.287,3.426c0.133,0.383,0.411,0.557,0.815,0.514c1.037-0.111,1.369-1.019,2.092-1.679 c0.751-0.685,1.734-0.906,2.716-0.817c1.383,0.126,2.018,1.26,3.158,1.737C135.332,86.334,135.775,86.099,135.863,85.761 L135.863,85.761z" fill="#531515"/></g><g id="change1_8"><path d="M135.864,80.315c-1.018-0.25-3.456-0.96-6.113-0.664c-2.059,0.23-4.419,1.584-5.268,0.926 c-1.944-1.509,0.447-4.231,3.615-5.046c4.43-1.14,7.355,0.595,8.53,1.893S137.671,80.76,135.864,80.315z" fill="#531515"/></g><g id="change3_25"><path d="M127.328,86.848c-0.547-0.73-1.393-1.215-2.141-1.644l-0.382-0.223c-0.34-0.201-0.673-0.459-1.023-0.733 c-0.452-0.352-0.921-0.716-1.431-0.969c-0.788-0.388-1.735,0.242-1.74,1.125c-0.007,1.283,1.503,2.105,2.502,2.649 c0.169,0.092,0.324,0.176,0.451,0.252l0.291,0.173c0.515,0.305,1.002,0.592,1.428,0.95c0.192,0.162,0.186,0.259,0.184,0.291 c-0.03,0.453-1.105,1.137-1.459,1.362l-0.118,0.075c-0.377,0.243-0.543,0.707-0.411,1.157c0.13,0.444,0.515,0.742,0.956,0.742 l0.124-0.008c1.37-0.168,2.633-1.086,3.146-2.284C128.126,88.775,127.993,87.739,127.328,86.848z" fill="#EF5441"/></g><g id="change3_26"><path d="M91.66,99.74c-0.765-0.061-1.524-0.11-1.846-0.919c-0.265-0.667,0.056-0.992,0.539-1.402 c0.898-0.762,0.651-1.928,0.156-2.859c-0.585-1.101-1.573-1.687-2.827-1.54c-1.101,0.129-2.688,0.712-2.256,2.091 c0.091,0.291,0.447,0.31,0.641,0.123c1.03-0.996,2.659-1.472,3.297,0.162c0.124,0.316,0.286,0.748,0.082,1.002 c-0.397,0.494-0.805,0.664-0.956,1.329c-0.445,1.96,1.422,3.398,3.218,2.724C92.024,100.332,92.046,99.771,91.66,99.74L91.66,99.74z" fill="#EF5441"/></g><g id="change3_27"><path d="M90.796,101.144L90.796,101.144c-0.904,0-1.738-0.397-2.29-1.087c-0.543-0.682-0.731-1.551-0.527-2.449 c0.137-0.608,0.455-0.921,0.735-1.197c0.104-0.102,0.214-0.209,0.323-0.345c0.002-0.065-0.121-0.379-0.162-0.482 c-0.194-0.496-0.489-0.737-0.904-0.737c-0.463,0-1.053,0.292-1.538,0.762c-0.463,0.445-1.317,0.262-1.507-0.343 c-0.172-0.551-0.112-1.077,0.175-1.52c0.622-0.96,2.087-1.199,2.521-1.25c1.449-0.158,2.648,0.494,3.351,1.816 c0.76,1.431,0.658,2.709-0.28,3.505c-0.49,0.416-0.51,0.511-0.391,0.809c0.177,0.448,0.533,0.52,1.363,0.586 c0.435,0.035,0.74,0.325,0.797,0.725c0.062,0.433-0.176,0.855-0.567,1.003C91.538,101.076,91.167,101.144,90.796,101.144z M87.971,93.799c0.86,0,1.529,0.499,1.883,1.405c0.14,0.358,0.401,1.025,0.002,1.522c-0.136,0.171-0.274,0.308-0.405,0.436 c-0.236,0.233-0.377,0.372-0.448,0.681c-0.131,0.579-0.016,1.134,0.325,1.561c0.266,0.333,0.652,0.563,1.078,0.651 c-0.446-0.161-0.848-0.458-1.079-1.039c-0.42-1.057,0.246-1.623,0.688-1.997c0.687-0.582,0.397-1.525,0.032-2.212 c-0.341-0.642-1.067-1.425-2.303-1.264c-0.628,0.073-1.465,0.32-1.762,0.777c-0.053,0.083-0.114,0.207-0.1,0.398 C86.49,94.148,87.279,93.799,87.971,93.799z" fill="#EF5441"/></g><g id="change3_28"><path d="M120.488,102.208c1.972,1.403,5.282,1.112,6.699-1.077c1.516-2.343,1.126-6.088,0.125-6.79 c-1.129-0.792-6.21-1.156-8.38,0.579C117.383,96.16,117.23,99.89,120.488,102.208z" fill="#EF5441"/></g><g id="change1_9"><path d="M107.11,112.335c3.275,1.764,6.703,2.597,10.36,3.273c2.587,0.479,6.594,1.163,8.271-1.268 c0.151-0.219,0.107-0.603-0.1-0.775c-1.839-1.532-4.297-0.729-6.577-0.628c-3.945,0.174-7.738-0.548-11.498-1.682 C106.925,111.062,106.519,112.016,107.11,112.335L107.11,112.335z" fill="#531515"/></g><g id="change4_51"><path d="M197.872 129.924L188.757 127.093 183.278 119.265 177.947 113.751 170.936 113.7 172.281 121.362 166.715 124.001 159.005 122.094 152.001 117.989 144.952 114.572 137.063 115.426 131.627 121.749 128.052 129.446 120.824 130.602 114.086 128.982 107.472 127.164 101.431 123.804 95.068 121.493 87.651 120.724 80.362 121.892 74.051 125.736 67.916 129.973 64.018 136.38 61.066 141.997 57.627 145.359 53.173 136.91 49.657 142.424 46.463 148.349 42.871 153.934 37.341 157.244 30.961 159.711 27.6 164.731 33.517 169.59 39.413 176.895 40.599 185.185 44.463 192.59 50.588 198.231 57.398 202.459 66.551 202.979 75.606 200.761 80.653 194.791 86.384 190.909 93.551 192.362 100.883 192.476 108.119 192.903 115.367 194.009 122.598 192.688 129.889 192.849 137.135 192.157 144.225 190.458 151.452 189.553 158.483 187.664 158.138 186.691 158.873 177.982 164.731 176.218 173.762 176.447 182.305 174.686 188.785 172.056 193.933 167.042 195.187 159.996 196.675 152.923 199.284 146.544 205.223 144.363 210.622 140.641 206.632 133.333z" fill="#D7B8D7"/></g><g id="change3_29"><path d="M61.924,148.701c2.809,3.174,5.538,6.296,7.985,9.772c1.995,2.835,3.605,6.136,6.106,8.555 c0.432,0.418,1.256,0.006,1.049-0.611c-1.229-3.653-3.871-6.936-6.099-10.047c-2.283-3.187-4.804-6.369-7.788-8.923 C62.311,146.707,61.162,147.84,61.924,148.701L61.924,148.701z" fill="#EF5441"/></g><g id="change3_30"><path d="M170.191,129.992c-3.86,3.425-13.9,10.163-11.133,16.49c0.153,0.349,0.728,0.407,0.966,0.125 c0.935-1.109,1.18-2.3,1.639-3.675c0.643-1.93,2.024-3.579,3.413-5.014c2.209-2.282,4.856-4.084,6.468-6.882 C172.048,130.161,170.909,129.355,170.191,129.992L170.191,129.992z" fill="#EF5441"/></g><g id="change3_31"><path d="M126.642,179.603c2.039-1.162,3.949-2.508,5.874-3.847c1.835-1.276,4.275-2.362,5.781-3.993 c0.366-0.396,0.141-1.178-0.47-1.134c-2.124,0.15-4.007,1.759-5.677,2.973c-2.115,1.539-4.089,3.239-6.29,4.662 C125.024,178.804,125.768,180.101,126.642,179.603L126.642,179.603z" fill="#EF5441"/></g><g id="change3_32"><path d="M158.332,171.986c5.328-5.319,5.992-12.152,4.622-19.31c-1.113-5.811-4.933-16.432-10.504-19.294 c-0.539-0.277-1.23,0.176-1.048,0.806c0.659,2.287,2.362,3.959,3.647,5.946c2.077,3.212,3.643,6.727,4.849,10.348 c2.367,7.11,1.698,14.487-2.667,20.655C156.76,171.8,157.782,172.535,158.332,171.986L158.332,171.986z" fill="#EF5441"/></g><g id="change3_33"><path d="M38.912,164.629c3.751-0.239,7.347,1.139,10.891,2.191c0.537,0.16,1.218-0.186,1.334-0.757 c0.347-1.71,0.413-3.474,0.573-5.21c0.202-2.193,1.408-4.104,1.38-6.293c-0.007-0.509-0.508-0.71-0.926-0.531 c-3.731,1.592-3.403,8.41-3.157,11.747c0.458-0.349,0.915-0.697,1.373-1.046c-4.094-0.715-7.432-2.51-11.657-1.502 C37.945,163.412,38.103,164.681,38.912,164.629L38.912,164.629z" fill="#EF5441"/></g><g id="change3_34"><path d="M180.836,129.063c-0.61,2.786-0.116,5.315,0.129,8.111c0.087,0.993,1.076,1.693,2.015,1.157 c2.953-1.684,6.877-1.93,9.538-4.019c0.367-0.288,0.155-0.96-0.277-1.049c-3.443-0.706-7.657,1.126-10.613,2.754 c0.672,0.386,1.344,0.771,2.015,1.157c-0.228-2.619-0.838-5.231-0.922-7.856C182.688,128.266,181.075,127.971,180.836,129.063 L180.836,129.063z" fill="#EF5441"/></g><g id="change3_35"><path d="M92.89,166.964c-0.557,6.237-1.463,11.266-4.766,16.656c-2.302,3.757-5.407,7.076-6.1,11.543 c-0.065,0.419,0.436,0.84,0.781,0.455c6.714-7.477,13.07-18.473,11.196-28.804C93.88,166.143,92.943,166.371,92.89,166.964 L92.89,166.964z" fill="#EF5441"/></g><g id="change3_36"><path d="M111.152,93.591c-0.817-0.831-1.781-1.888-2.928-2.232c-0.95-0.285-1.744,1.008-0.985,1.691 c0.441,0.397,0.984,0.677,1.463,1.028c0.443,0.325,0.887,0.64,1.346,0.943C110.931,95.601,111.863,94.315,111.152,93.591 L111.152,93.591z" fill="#EF5441"/></g><g id="change3_37"><path d="M107.228,95.848c-0.479-0.635-0.975-1.171-1.625-1.633c-0.612-0.435-1.306-0.909-2.089-0.855 c-0.651,0.045-1.095,0.708-0.752,1.31c0.358,0.628,0.987,0.93,1.58,1.297c0.564,0.349,1.145,0.693,1.674,1.093 C106.711,97.588,107.752,96.544,107.228,95.848L107.228,95.848z" fill="#EF5441"/></g><g id="change3_38"><path d="M139.432,91.638c-0.817-0.831-1.781-1.888-2.928-2.232c-0.95-0.285-1.744,1.008-0.985,1.691 c0.441,0.397,0.984,0.677,1.463,1.028c0.443,0.325,0.887,0.64,1.346,0.943C139.212,93.648,140.144,92.362,139.432,91.638 L139.432,91.638z" fill="#EF5441"/></g><g id="change3_39"><path d="M135.508,93.895c-0.479-0.635-0.975-1.171-1.625-1.633c-0.612-0.435-1.306-0.909-2.089-0.855 c-0.651,0.045-1.095,0.708-0.752,1.31c0.358,0.628,0.987,0.93,1.58,1.297c0.564,0.349,1.145,0.693,1.674,1.093 C134.992,95.635,136.033,94.591,135.508,93.895L135.508,93.895z" fill="#EF5441"/></g><g id="change1_10"><path d="M123.323 56.859L115.561 58.368 110.189 63.538 106.397 71.99 101.775 74.31 96.524 75.419 94.336 85.612 95.594 90.158 91.641 91.487 83.189 85.958 82.645 76.119 82.58 67.943 86.429 60.659 93.612 56.503 100.807 54.108 108.396 53.509 115.913 54.621z" fill="#531515"/></g><g id="change3_40"><path d="M103.724,59.501c-1.072,0.864-1.59,1.946-2.244,3.162c-0.681,1.267-1.483,1.555,0.085,0.903 c-0.492,0.205-0.982,0.416-1.47,0.629c-2.567,1.123-7.015,2.071-9.013,4.068c-1.842,1.842-2.493,6.288-3.376,8.682 c-0.618,1.676,0.999-0.546,0.137-0.091c-0.845,0.446-1.694,0.886-2.541,1.33c-1.424,0.745-2.801,1.317-3.884,2.512 c-1.136,1.253,0.007,2.887,1.544,2.653c1.973-0.301,6.763-2.282,7.864-4.162c1.551-2.647,2.252-6.15,3.295-9.034 c-0.454,1.255-1.022,1.096,0.301,0.508c0.869-0.387,1.739-0.774,2.608-1.16c1.784-0.794,3.568-1.588,5.352-2.381 c2.118-0.942,3.378-4.584,3.483-6.73C105.925,59.188,104.504,58.872,103.724,59.501L103.724,59.501z" fill="#EF5441"/></g><g id="change3_41"><path d="M82.461,73.925c1.428-0.27,1.946-3.193,2.256-4.263c0.24-0.827,0.479-1.654,0.719-2.481 c-0.198,0.682-0.474,0.723-0.06,0.251c0.385-0.439,0.771-0.877,1.156-1.316c1.253-1.425,2.517-2.841,3.744-4.289 c1.028-1.212,3.133-2.31,3.146-4.144c0.003-0.469-0.362-0.727-0.783-0.783c-3.41-0.453-7.496,6.016-9.238,8.073 C82.35,66.216,79.476,74.491,82.461,73.925L82.461,73.925z" fill="#EF5441"/></g><g id="change3_42"><path d="M142.356,78.938c0.033,2.052,0.311,4.072,0.728,6.081c0.235,1.131,0.814,4.77,2.464,4.77 c2.83,0-0.513-9.805-1.065-11.139C144.045,77.591,142.335,77.621,142.356,78.938L142.356,78.938z" fill="#EF5441"/></g><g id="change4_52"><path d="M86.216,188.361c0.068,0,0.068-0.105,0-0.105S86.148,188.361,86.216,188.361L86.216,188.361z" fill="#D7B8D7"/></g><g id="change4_53"><path d="M129.914,254.254c0.738-2.342,0.191-5.38,1.415-7.409c1.55-2.571,1.782-5.533,3.466-8.043 c3.612-5.383,8.931-11.253,10.924-17.462c0.392-1.221-0.637-2.191-1.756-2.305c-2.788-0.284-3.656,2.031-4.665,4.276 c-1.854,4.126-4.956,7.953-7.355,11.79c-0.945,1.512-1.896,2.879-2.539,4.539c-0.742,1.915-0.588,3.855-2.139,5.468 c-1.798,1.87-0.399,6.936,0.298,9.146C127.931,255.416,129.548,255.416,129.914,254.254L129.914,254.254z" fill="#D7B8D7"/></g><g id="change1_11"><path d="M384.404,25.04c3.15,1.05,5.25,3.675,7.35,5.25c4.725,4.2,7.35,7.875,7.875,13.649c0,1.575,0,3.15,0,4.725 s-1.05,4.2-0.525,5.775c1.05,2.1,3.675,1.05,5.25,2.625c2.1,2.1,0,4.725,0.525,6.825c4.2,1.575,7.35-7.35,7.875-10.5 c0.525-3.675,0-7.35-1.575-11.55c-1.05-3.675-2.625-7.35-4.725-10.5c-2.1-2.1-5.25-7.35-8.925-7.35" fill="#531515"/></g><g id="change4_54"><path d="M399.109,29.234c1.103,1.029,2.286,1.769,3.111,3.071c0.878,1.385,1.336,3.068,1.776,4.632 c0.689,2.45,0.64,6.766,3.038,8.177c0.85,0.5,2.254,0.272,2.694-0.706c1.263-2.812-0.998-7.943-2.001-10.722 c-1.111-3.077-3.753-7.399-7.573-6.973C398.969,26.846,398.075,28.269,399.109,29.234L399.109,29.234z" fill="#D7B8D7"/></g><g id="change4_55"><path d="M412.158,37.244c1.682,2.559,1.681,5.402,2.409,8.251c0.44,1.722,3.426,1.945,3.7,0 c0.535-3.796-1.338-7.743-4.336-10.024C412.883,34.673,411.475,36.205,412.158,37.244L412.158,37.244z" fill="#D7B8D7"/></g><g id="change4_56"><path d="M405.212,137.966c-2.208,1.212-3.954,2.579-5.869,4.211c-5.19,4.425-8.225-0.412-10.801-4.409 c-1.938-3.006-6.338-6.537-10.183-6.245c-5.841,0.444-8.804,3.732-13.21,7.325c-1.145,1.063-2.267,2.15-3.366,3.26 c-4.36-1.014-7.227-3.36-8.603-7.037c-0.775-1.575-1.839-2.161-3.326-2.99c-0.952-0.531-2.324-0.108-2.969,0.715 c-0.284,0.363-0.569,0.726-0.853,1.089c-0.84,1.072-1.337,2.824-0.693,4.123c3.325,6.708,5.248,12.646,13.564,13.533 c6.912,0.737,16.178-14.523,21.713-10.266c6.517,5.013,6.09,12.678,16.177,11.807c5.206-0.45,10.666-7.407,12.57-11.703 C410.58,138.632,407.498,136.711,405.212,137.966L405.212,137.966z" fill="#D7B8D7"/></g><g id="change4_57"><path d="M408.296,120.692c-2.208,1.212-3.954,2.579-5.869,4.211c-5.19,4.425-8.225-0.412-10.801-4.409 c-1.938-3.006-6.338-6.537-10.183-6.245c-5.841,0.444-8.804,3.732-13.21,7.325c-1.145,1.063-2.267,2.15-3.366,3.26 c-4.36-1.014-7.227-3.36-8.603-7.037c-0.775-1.575-1.839-2.161-3.326-2.99c-0.952-0.531-2.324-0.108-2.969,0.715 c-0.284,0.363-0.569,0.726-0.853,1.089c-0.84,1.072-1.337,2.824-0.693,4.123c3.325,6.708,5.248,12.646,13.564,13.533 c6.912,0.737,16.178-14.523,21.713-10.266c6.517,5.013,6.09,12.678,16.177,11.807c5.206-0.45,10.666-7.407,12.57-11.703 C413.665,121.358,410.583,119.437,408.296,120.692L408.296,120.692z" fill="#D7B8D7"/></g><g id="change3_43"><path d="M64.634,107.987c-0.378,3.573-1.068,6.071-3.125,9.082c-1.857,2.718-3.947,4.001-6.677,5.592 c-1.826,1.064-0.605,3.932,1.428,3.387c1.346-0.361,1.947-0.541,2.851-1.593c0.449-0.522,0.367-1.559-0.449-1.7 c-0.754-0.13-1.67-0.129-2.403-0.281c0.148,1.129,0.295,2.258,0.443,3.387c1.226-0.72,2.655-1.147,3.745-2.085 c1.62-1.393,2.975-3.131,4.231-4.855c2.34-3.213,3.616-6.961,3.22-10.935C67.69,105.881,64.856,105.891,64.634,107.987 L64.634,107.987z" fill="#EF5441"/></g><g id="change3_44"><path d="M71.896,118.813c3.042-0.79,2.456-5.319,2.506-7.676c-0.449,0.59-0.899,1.18-1.348,1.77 c0.384-0.067,0.714-0.21,1.041-0.418c1.011-0.643,1.011-2.063,0-2.706c-0.327-0.208-0.657-0.351-1.041-0.418 c-1.117-0.195-2.38,0.486-2.324,1.77c0.041,0.937,0.146,1.87,0.196,2.806c0.027,0.501,0.054,1.044-0.013,1.543 c-0.033,0.242-0.085,0.472-0.153,0.706c-0.082,0.286-0.209,0.171,0.035,0.013C69.447,117.076,70.296,119.228,71.896,118.813 L71.896,118.813z" fill="#EF5441"/></g><g id="change4_58"><path d="M91.641,208.08c4.161,0.552,8.916,0.693,13.071-0.069c3.734-0.684,3.386-5.396,4.425-8.1 c-0.506,0.506-1.012,1.012-1.519,1.519c1.121-0.272,1.559-0.457,2.357-1.261c0.455-0.458,0.455-1.212,0-1.67 c-0.798-0.804-1.236-0.989-2.357-1.261c-1.239-0.301-2.24,0.386-2.675,1.519c-0.421,1.096-0.556,2.268-0.762,3.419 c-0.359,2.004-1.006,1.907-2.92,2.027c-3.211,0.201-6.421-0.04-9.62,0.385C89.395,204.883,89.395,207.782,91.641,208.08 L91.641,208.08z" fill="#D7B8D7"/></g></svg>