<?xml version="1.0" encoding="UTF-8"?><svg xmlns="http://www.w3.org/2000/svg" xmlns:xlink="http://www.w3.org/1999/xlink" height="387.2" preserveAspectRatio="xMidYMid meet" version="1.0" viewBox="-3.3 -0.4 497.8 387.2" width="497.8" zoomAndPan="magnify"><g id="change1_1"><path d="M172.02,141.17l13.29,19.36l-6.93,5.78c-0.29,14.74-4.33,30.91-14.45,32.07 c-10.11,1.16-23.4-4.62-23.4-4.62s-7.82,11.04-27.6,11.04c-17.78,0-23.54-11.04-23.54-11.04s-25.43,2.89-47.38,9.53 c-22.24,6.73-38.99,15.1-38.99,15.1s-6.37-12.79-0.59-24.64c5.78-11.85,37.56-88.7,43.05-103.43 c5.49-14.73,19.36-24.27,31.78-21.96c12.42,2.31,25.43,5.49,25.43,5.49l9.53-3.18l19.07,14.16l-1.44,14.45l9.25-12.13l2.89,6.93 c6.36,6.07,9.25,12.13,9.25,12.13h25.14l1.16,29.18L172.02,141.17z M109.45,252.89H15.84c-5.04,0-9.12,4.08-9.12,9.12v0.11 c0,3,2.44,5.44,5.44,5.44h100.97c3,0,5.44-2.44,5.44-5.44v-0.11C118.57,256.97,114.49,252.89,109.45,252.89z M427.33,254.63 c-7.63-26.92-67,6.71-67,6.71s-20.6,2.12-32.41,7.88c-11.81,5.76-26.05,12.72-23.32,33.62c2.73,20.9,13.93,49.98,13.93,49.98h29.38 l-3.63-42.41c0,0,34.23,0.3,54.22-0.61C418.49,308.9,434.96,281.55,427.33,254.63z" fill="#BBE5E1"/></g><g id="change2_1"><path d="M394.72,288.47l-13.08,21.81c-18.08,0.3-37.37,0.13-37.37,0.13l1.57,18.27l-6.96-23.39L394.72,288.47z M109.45,252.89H40.22c3.78,4.29,10.54,10.53,20.44,14.67h52.48c3,0,5.44-2.44,5.44-5.44v-0.11 C118.57,256.97,114.49,252.89,109.45,252.89z M94.72,199.4c0,0-23.22-20.99-32.76-44.85c0,0,6.22,30.36-19.95,48.73 c-26.17,18.37,18.68,18.37,18.68,18.37L94.72,199.4z M138.87,150.83l0.38-19.32l-14.02,26.9L138.87,150.83z" fill="#00BFA8"/></g><g id="change3_1"><path d="M218.74,256.09c-6.81,27.7-43.15,89.47-43.15,89.47h-67.22c6.36-42.24,32.7-93.1,32.7-93.1 s-68.58,0-103.09,0S3.01,218.39,3.01,218.39s16.76-8.37,38.99-15.1c21.96-6.65,47.38-9.53,47.38-9.53s5.76,11.04,23.54,11.04 c18.13,0,26.19-9.25,27.41-10.8c0.49,0.1,0.99,0.19,1.51,0.29c3.43,1.34,12.9,4.68,20.88,4.19c14.98,3.08,30.51,6.49,36.94,8.56 C213.74,211.58,225.55,228.39,218.74,256.09z M418.16,225.68c-8.69-12.07-22.44-29.44-29.92-37.4c-7.48-7.96-29.44-7.96-37.89-0.72 c-8.45,7.24-9.65,24.13-7.72,29.68c1.93,5.55,8.93,7.96,8.93,7.96s-3.62,25.58,8.2,36.44l7.24,0.48l60.33-7.48 C427.33,254.63,426.84,237.74,418.16,225.68z M214.77,124.3l-5.09-2.94l1.17,5.68l31.47,43.91c0.68,0.95,1.98,1.2,2.97,0.58 c1.07-0.67,1.35-2.1,0.62-3.13L214.77,124.3z M340.74,370.64l-6.38,2.83c0,0-5.43-5.43-11.81-5.9c0,0-5.43,6.61-10.63,10.63 c-5.2,4.02-3.07,8.03,2.6,8.03s35.9,0,35.9,0S357.02,369.04,340.74,370.64z M187.16,368.71c-9.16-4.07-14.77-11.86-14.77-11.86 l-26.39-1.69l-17.08-0.17c0,0-12.69,1.86-23.68,3.55c-2.37,3.04-8,26.12-1.89,26.12c6.11,0,95.35,0,95.35,0s4.41-1.36,4.41-6.11 C203.11,373.8,196.32,372.78,187.16,368.71z" fill="#FFF"/></g><g id="change4_1"><path d="M172.66,356.97c-8.07-1.34-21.18,9.41-21.18,9.41c-6.39-1.01-8.07-9.08-8.07-9.08 c-10.76-1.01-21.52,6.72-21.52,6.72l-17.82-5.72l6.7-12.76h60.48C170.14,353.58,172.66,356.97,172.66,356.97z M395.25,247.1 c-0.94-12.49-7.3-29.45-7.3-29.45s-4.48,3.77-9.42,2.12c0,0-0.94,4.24-4.95,5.65c-4.01,1.41-8.48-0.24-8.48-0.24 s-0.71,4.24-6.13,5.42l8.48,19.79c0,0,2.83,29.22,4.24,43.12s24.74,9.42,24.74,9.42l0.94-16.49 C397.37,286.45,396.19,259.59,395.25,247.1z M370.36,182.89c15.24,0.52,16.28-25.98,16.28-25.98l-12.99-24.94l-15.59-16.98 l-25.29,2.42c0,0-5.72,1.56-10.22,11.43c-3.28,7.19-2.94,13.51-5.54,15.42c-2.6,1.91-3.81,2.77-3.12,4.16s3.46,2.6,3.46,2.6 s-3.12,15.24,4.5,20.96c7.62,5.72,25.64,5.02,25.64,5.02l4.33,9.35C351.83,186.36,355.12,182.37,370.36,182.89z M321.62,352.57 c0,0,1.08,4.78,2.15,8.13c1.08,3.35-1.22,6.88-1.22,6.88s4.82,0.75,11.81,5.9c3.76-1.3,9.86-4.29,9.86-4.29l-2.75-16.5 L321.62,352.57z M234.15,131.82c-2.32,1.33-8.45,6.46-8.45,6.46l-8.79,2.49c0,0,0,0,0.66-1.99c0.66-1.99,0-3.81-5.14-4.64 c-5.14-0.83-23.7-3.81-29.67-3.81s-12.74,7.85-12.74,7.85l11.74,16.85c5.97-5.14,10.61-3.81,20.22-3.81s16.91-2.15,22.87-5.3 s11.44-7.79,13.09-10.94C239.62,131.82,236.47,130.49,234.15,131.82z M172.47,75.45c0.84,1.95,3.63,6.7,3.63,6.7s-0.98,0-5.59-0.14 c-4.61-0.14-15.5-0.28-18.43,4.75c-2.93,5.03-1.82,19.83-1.82,19.83l20.8-0.42l-0.28-7.12c0,0,7.68-1.54,11.31-2.51 c3.63-0.98,5.86-6.14,4.19-9.91c-1.68-3.77-7.68-9.77-10.19-12.43S171.63,73.49,172.47,75.45z M129.84,99.28l9.25-12.13l5.52-7.15 l24.84-14.26l7.01-2.41c0,0,0.01-11.74-0.66-16.31c-0.67-4.57-0.78-19.94-5.79-25.84c-5.01-5.9-25.51-4.9-25.51-4.9l-17.82,8.91 l-9.25,12.14l9.02,22.39l-10.47,6.35l-0.56,2.78l-1.56,2.9l17.43,13.09L129.84,99.28z" fill="#F79A91"/></g><g id="change5_1"><path d="M471.78,386.81h-117.2c-27.24-11.91-14.44-47.96,2.99-78.27c17.43-30.31,66.31-25.77,66.31-25.77 c6.44-4.55,4.93-21.6,4.93-21.6c53.05-4.17,60.62,72.71,63.14,96.65C494.47,381.77,471.78,386.81,471.78,386.81z M6.63,277.67H57 v47.27L4.03,368.36c-3.04,2.49-1.28,7.41,2.65,7.41c0.94,0,1.85-0.32,2.59-0.9l24.84-19.58h23.84v19.36c0,2.31,1.87,4.18,4.18,4.18 h1.42c2.31,0,4.18-1.87,4.18-4.18v-19.36H92.2l11.92,6.11l3.06-7.64L68.7,324.58v-46.91h50.02v-9.9H6.63V277.67z M172.74,50.53 c0.85,0,1.53-0.69,1.53-1.53c0-0.85-0.69-1.53-1.53-1.53c-0.85,0-1.53,0.69-1.53,1.53C171.2,49.84,171.89,50.53,172.74,50.53z M157.81,48.73c0.85,0,1.53-0.69,1.53-1.53c0-0.85-0.69-1.53-1.53-1.53c-0.85,0-1.53,0.69-1.53,1.53 C156.28,48.04,156.97,48.73,157.81,48.73z M150.9,36.14c-0.3,0.18-0.4,0.56-0.22,0.86c0.18,0.3,0.56,0.4,0.86,0.22 c0.05-0.03,4.75-2.75,9.17,0.91c0.12,0.1,0.26,0.14,0.4,0.14c0.18,0,0.36-0.08,0.49-0.23c0.22-0.27,0.18-0.67-0.08-0.89 C156.43,32.94,150.96,36.11,150.9,36.14z M167.29,37.72c-0.26,0.23-0.28,0.63-0.06,0.89c0.12,0.14,0.3,0.21,0.47,0.21 c0.15,0,0.3-0.05,0.42-0.16c0.02-0.02,2.2-1.9,4.8-1.9c0.35,0,0.63-0.28,0.63-0.63s-0.28-0.63-0.63-0.63 C169.84,35.5,167.39,37.63,167.29,37.72z M103.54,27.07c-3.72-10.98,6.08-14.7,6.08-14.7s-0.39-7.06,6.66-9.41 c7.06-2.35,12.15,2.16,12.15,2.16s3.53-5.49,9.41-5.1c5.88,0.39,9.02,5.29,9.02,5.29s3.72-3.72,9.6-2.55 c5.88,1.18,7.64,8.23,7.64,8.23s5.88-1.57,9.21,3.72c3.33,5.29,0.39,11.17-3.72,11.17s-18.82,0-18.82,0l-9.72,15.93l7.73,0.26 c0.82-0.76,4.01-3.43,7.93-3.43c3.6,0,5.56,2.3,6.28,3.38c0.91-0.38,2.38-0.53,3.94,0.44c0.83-0.78,3.01-2.44,6.54-2.44 c4.62,0,6.41,4.06,6.49,4.23c0.03,0.06,0.04,0.12,0.05,0.19c0.37,4.1-0.93,8.15-3.33,10.32c-1.17,1.06-2.52,1.6-3.96,1.6 c-0.38,0-0.76-0.04-1.15-0.11c-1.13-0.22-2.01-0.73-2.73-1.4c-0.05,0.3-0.15,0.59-0.36,0.84c-0.99,1.15-3.59,1.37-3.89,1.39 c-0.02,0-0.03,0-0.05,0c-0.33,0-0.6-0.25-0.63-0.58c-0.03-0.35,0.24-0.65,0.58-0.67c0.91-0.07,2.53-0.38,3.02-0.95 c0.11-0.12,0.11-0.21,0.11-0.29c-0.11-1.29-1.99-6.87-2.71-8.91c-0.12-0.33,0.06-0.69,0.39-0.8c0.33-0.11,0.69,0.06,0.8,0.39 c0.02,0.06,0.06,0.16,0.1,0.28c0.03-0.86,0.09-1.55,0.14-1.96c-1.33-0.86-2.43-0.59-2.93-0.37c0.34,4.61-0.62,8.5-2.68,10.71 c-1.36,1.46-3.16,2.2-5.33,2.2c-0.07,0-0.14,0-0.21,0c-2.06-0.04-4.8-1.28-6.11-6.93c-0.56-2.41-0.67-4.78-0.68-5.87l-6.95-0.23 l6.39,15.33c21.56-3.72,28.61,4.9,28.61,4.9c-0.59,13.33-15.09,21.75-28.81,20.38c-13.72-1.37-21.75-15.68-21.75-15.68l-10.98,2.16 c-3.14-4.31-1.57-9.6-1.57-9.6s-5.1-1.96-7.06-6.08c-1.96-4.12,1.18-8.23,1.18-8.23s-4.9-1.96-5.88-7.25 C100.6,33.73,103.54,27.07,103.54,27.07z M158.56,64.8c1.92,1.37,4.92,2.33,7.29,2.33c0.35,0,0.63-0.28,0.63-0.63 c0-0.35-0.28-0.63-0.63-0.63c-1.8,0-4.63-0.72-6.56-2.1c-0.83-0.59-1.23-1.26-1.31-1.56c0.2,0,0.68,0.08,1.63,0.56 c3.69,1.85,7.73,1.87,7.9,1.87c0.35,0,0.63-0.28,0.63-0.63c0-0.35-0.28-0.63-0.63-0.63c-0.04,0-3.92-0.02-7.33-1.73 c-0.65-0.32-2.62-1.31-3.31-0.15C156.31,62.41,157.29,63.9,158.56,64.8z M173.47,41.29c-3.41,0-5.37,1.76-5.86,2.26 c-0.17,1.42-1.06,10.44,4.19,11.46c1.46,0.28,2.86-0.12,4.03-1.18c2.06-1.86,3.23-5.53,2.93-9.16 C178.5,44.13,176.96,41.29,173.47,41.29z M156.72,39.92c-3.41,0-6.32,2.41-7.06,3.08c0.01,1.76,0.29,11.76,5.57,11.87 c1.89,0.05,3.44-0.56,4.59-1.8c1.86-1.99,2.71-5.64,2.33-10.02C161.83,42.5,160.19,39.92,156.72,39.92z M124.03,46.16 c0.41,6.59,8.24,7.14,10.85,6.18l-3.85-12.91C131.03,39.43,123.62,39.56,124.03,46.16z M348.89,144.23l4.86-6.19 c0,0,8.1,1.18,8.4,10.9c0.29,9.72-14.43,8.54-14.43,8.54c-5.89,7.51-7.07,19.74,0.15,23.42c7.22,3.68,20.47,3.09,30.63,1.18 c10.16-1.91,17.53-12.22,18.12-18.26c0.59-6.04,5.74-36.23-17.67-53.32s-47.72,5.15-47.72,5.15 C331.22,132.45,348.89,144.23,348.89,144.23z M325.66,142.58c0-0.77-0.63-1.4-1.4-1.4c-0.77,0-1.4,0.63-1.4,1.4s0.63,1.4,1.4,1.4 C325.03,143.99,325.66,143.36,325.66,142.58z M323.77,133.69c-0.35,0.02-0.61,0.32-0.59,0.66c0.02,0.35,0.33,0.64,0.66,0.59 c0.06,0,4.69-0.22,6.45,3.32c0.11,0.22,0.33,0.35,0.56,0.35c0.09,0,0.19-0.02,0.28-0.07c0.31-0.16,0.44-0.53,0.28-0.85 C329.29,133.43,323.99,133.67,323.77,133.69z M326.86,157.6c-1.85,2.1-5.45,1.49-5.48,1.49c-0.34-0.07-0.67,0.17-0.73,0.51 c-0.06,0.34,0.17,0.67,0.51,0.73c0.06,0.01,0.64,0.11,1.45,0.11c1.46,0,3.71-0.31,5.2-2.01c0.23-0.26,0.21-0.66-0.06-0.89 C327.49,157.31,327.09,157.34,326.86,157.6z M129.41,113.24c0,1.57-1.28,2.85-2.85,2.85c-1.57,0-2.85-1.28-2.85-2.85 c0-1.57,1.28-2.85,2.85-2.85C128.14,110.39,129.41,111.67,129.41,113.24z M128.15,113.24c0-0.87-0.71-1.59-1.59-1.59 c-0.87,0-1.59,0.71-1.59,1.59c0,0.88,0.71,1.59,1.59,1.59C127.44,114.82,128.15,114.11,128.15,113.24z M120.18,133.79 c1.57,0,2.85,1.28,2.85,2.85c0,1.57-1.28,2.85-2.85,2.85c-1.57,0-2.85-1.28-2.85-2.85C117.34,135.07,118.62,133.79,120.18,133.79z M120.18,135.05c-0.87,0-1.59,0.71-1.59,1.59s0.71,1.59,1.59,1.59c0.88,0,1.59-0.71,1.59-1.59S121.06,135.05,120.18,135.05z M171.03,139.97c0.23,0.27,0.63,0.3,0.89,0.07c0.27-0.23,0.3-0.62,0.07-0.89l-3.01-3.55c-0.19-0.22-0.51-0.29-0.76-0.15 l-19.81,10.01l1.5-25.31h25.69c0.35,0,0.63-0.28,0.63-0.63c0-0.35-0.28-0.63-0.63-0.63h-25.61l0.71-12.1 c0.02-0.35-0.24-0.65-0.59-0.67c-0.34-0.01-0.65,0.24-0.67,0.59l-2.31,39c-0.01,0.12,0.03,0.24,0.09,0.34l-28.26,14.28 c-2.72-5.36-23.88-47.12-24.86-49.72c-0.93-2.47,0.79-4.88,0.8-4.9c0.2-0.28,0.14-0.68-0.14-0.88c-0.28-0.2-0.67-0.14-0.88,0.14 c-0.09,0.12-2.14,2.97-0.97,6.09c1.06,2.84,24.22,48.47,25.2,50.41c0.11,0.22,0.33,0.35,0.56,0.35c0.1,0,0.19-0.02,0.28-0.07 l49.37-24.95L171.03,139.97z M141.92,192.94c0.12,0.17,0.32,0.26,0.51,0.26c0.13,0,0.26-0.04,0.37-0.12l34.39-25 c0.28-0.2,0.34-0.6,0.14-0.88c-0.2-0.28-0.6-0.34-0.88-0.14l-34.39,25C141.78,192.27,141.72,192.66,141.92,192.94z M172.93,167.14 c0.13,0,0.26-0.04,0.37-0.12c0.28-0.2,0.34-0.6,0.14-0.88l-16.13-22.16c-0.2-0.28-0.6-0.34-0.88-0.14c-0.28,0.2-0.34,0.6-0.14,0.88 l16.13,22.16C172.54,167.05,172.73,167.14,172.93,167.14z M115.25,96.86c0.1,0.14,0.25,0.24,0.42,0.27 c0.03,0.01,0.07,0.01,0.1,0.01c0.14,0,0.27-0.04,0.38-0.13l13.12-9.92c0.28-0.21,0.33-0.6,0.12-0.88 c-0.21-0.28-0.61-0.33-0.88-0.12l-12.59,9.52l-13.67-20.35c-0.2-0.29-0.59-0.37-0.87-0.17c-0.29,0.19-0.37,0.59-0.17,0.87 L115.25,96.86z M86.51,192.04c0.12,0.11,0.27,0.16,0.42,0.16c0.17,0,0.34-0.07,0.47-0.21c0.23-0.26,0.21-0.66-0.04-0.89 c-10.84-9.86-23.24-30.68-35.86-60.21c-6.6-15.44-8.03-30.03-8.04-30.18c-0.03-0.35-0.33-0.61-0.69-0.57 c-0.35,0.03-0.6,0.34-0.57,0.69c0.01,0.15,1.46,14.93,8.14,30.55C59.19,152.1,72.65,179.43,86.51,192.04z M179.23,209.73 c-12.4-4.51-42.59-10.95-42.89-11.01c-0.34-0.07-0.67,0.15-0.75,0.49c-0.07,0.34,0.15,0.67,0.49,0.75 c0.3,0.06,30.4,6.48,42.72,10.96c7.31,2.66,23.49,11.78,15.9,39.01c-6.35,22.78-43.89,93.11-44.27,93.82 c-0.16,0.31-0.05,0.69,0.26,0.85c0.09,0.05,0.2,0.07,0.3,0.07c0.23,0,0.44-0.12,0.56-0.33c0.38-0.71,37.99-71.16,44.37-94.07 C203.78,222.01,186.87,212.5,179.23,209.73z M154.82,366.35c-0.33-0.1-0.68,0.1-0.78,0.43c-0.09,0.33,0.1,0.68,0.43,0.78 c0.15,0.04,15.12,4.31,18.6,7.58c3.24,3.04,0.8,8.07,0.78,8.12c-0.15,0.31-0.03,0.69,0.28,0.84c0.09,0.05,0.19,0.07,0.28,0.07 c0.23,0,0.45-0.13,0.56-0.35c0.12-0.24,2.89-5.92-1.04-9.6C170.24,370.75,155.45,366.53,154.82,366.35z M146.47,346.06 c-0.31-0.17-0.69-0.06-0.86,0.24c-4.18,7.43-2.85,11.08-2.79,11.23c0.1,0.25,0.33,0.4,0.58,0.4c0.07,0,0.15-0.01,0.22-0.04 c0.32-0.12,0.49-0.48,0.37-0.81c-0.01-0.03-1.13-3.33,2.71-10.17C146.89,346.62,146.78,346.23,146.47,346.06z M384.35,211.11 c-17.46,4.53-29.49,13.01-29.61,13.09c-0.28,0.2-0.35,0.6-0.15,0.88c0.12,0.17,0.32,0.26,0.51,0.26c0.13,0,0.25-0.04,0.37-0.12 c0.12-0.08,11.98-8.44,29.2-12.9c0.34-0.09,0.54-0.43,0.45-0.77C385.03,211.22,384.7,211.02,384.35,211.11z M318.15,113.42 c-0.05,0-0.1,0-0.15,0l-90.85-2.06c-3.5-0.08-6.26-2.88-6.29-6.38l-0.16-18.52c-0.03-3.21-1.92-6.17-4.83-7.54l-25.47-11.98 c-0.28-0.13-0.42-0.44-0.34-0.74c0.08-0.3,0.37-0.48,0.68-0.46l24.51,2.72c1.28,0.15,2.51-0.24,3.49-1.09 c0.97-0.84,1.53-2.01,1.56-3.3l0.19-6.45c0.1-3.37,2.82-6.12,6.19-6.25l93.94-3.66c1.83-0.06,3.57,0.63,4.83,1.91 c1.27,1.28,1.94,3.06,1.85,4.86l-2.73,52.83C324.39,110.76,321.59,113.42,318.15,113.42z M323.32,107.25l2.73-52.83 c0.07-1.45-0.47-2.87-1.49-3.91c-1.02-1.03-2.48-1.6-3.89-1.54l-93.94,3.66c-2.71,0.11-4.9,2.31-4.98,5.02l-0.19,6.45 c-0.05,1.62-0.78,3.15-2,4.21c-1.22,1.06-2.84,1.57-4.45,1.39l-20.74-2.3l22.04,10.37c3.34,1.57,5.52,4.98,5.55,8.67l0.16,18.52 c0.02,2.82,2.25,5.07,5.06,5.14l90.85,2.06c0.04,0,0.08,0,0.12,0C320.91,112.16,323.17,110.02,323.32,107.25z M303.19,64.03 c0-0.35-0.29-0.62-0.63-0.62c0,0,0,0-0.01,0l-67.14,0.77c-0.35,0-0.63,0.29-0.62,0.64c0,0.35,0.29,0.62,0.63,0.62c0,0,0,0,0.01,0 l67.14-0.77C302.92,64.67,303.19,64.38,303.19,64.03z M303.34,79.1l-65.85-0.77c-0.35-0.07-0.63,0.27-0.64,0.62 c0,0.35,0.27,0.63,0.62,0.64l65.85,0.77c0,0,0,0,0.01,0c0.34,0,0.63-0.28,0.63-0.62C303.97,79.39,303.69,79.11,303.34,79.1z M303.34,97.37l-66.62-1.03c0,0-0.01,0-0.01,0c-0.34,0-0.62,0.28-0.63,0.62c-0.01,0.35,0.27,0.63,0.62,0.64l66.62,1.03 c0,0,0.01,0,0.01,0c0.34,0,0.63-0.28,0.63-0.62C303.97,97.66,303.69,97.37,303.34,97.37z M214.89,140.3l-16.34,0.71 c-0.35,0.02-0.62,0.31-0.6,0.66c0.01,0.34,0.29,0.6,0.63,0.6c0.01,0,0.02,0,0.03,0l16.34-0.71c0.35-0.02,0.62-0.31,0.6-0.66 C215.53,140.56,215.24,140.29,214.89,140.3z M355.64,151.93c0.12,0.11,0.27,0.16,0.42,0.16c0.17,0,0.35-0.07,0.47-0.21 c1.26-1.41,1.81-2.92,1.65-4.48c-0.3-2.85-2.93-4.79-3.04-4.87c-0.28-0.2-0.67-0.14-0.88,0.14c-0.2,0.28-0.14,0.68,0.14,0.88 c0.02,0.02,2.28,1.69,2.53,3.99c0.13,1.19-0.32,2.37-1.33,3.51C355.35,151.3,355.38,151.7,355.64,151.93z" fill="#28407E"/></g></svg>