<?xml version="1.0" encoding="UTF-8"?><svg xmlns="http://www.w3.org/2000/svg" xmlns:xlink="http://www.w3.org/1999/xlink" height="376.9" preserveAspectRatio="xMidYMid meet" version="1.0" viewBox="0.0 -6.1 493.5 376.9" width="493.5" zoomAndPan="magnify"><g id="change1_1"><path d="M413.99,369.57H80.96V193.23h333.03V369.57z" fill="#B0E7E1"/></g><g id="change2_1"><path d="M181.14,249.11c0,0,0.78,9.74-0.63,22.37c-1.4,12.63-5.25,60.01-5.25,60.01h-32.45l-14.24-60.93 l-25.78-1.08c0,0-41.28,16.77-52.46,0.72c-11.18-16.04-12.62-31.91-12.62-31.91l2.16-4.69l66.7-19.65c0,0,43.06,10.15,57.45,10.15 C178.41,224.1,181.14,249.11,181.14,249.11z M422.53,148.97c-1.84-10.28-8.28-30.44-9.93-38.68s-4.47-18.12-13.65-25.18 c-9.18-7.06-17.65-6.12-17.65-6.12l-3.82-6.19l-21.83,15.6c0,0,0.94,20.48-2.82,28.71c-3.77,8.24-4.71,16.95-2.12,28.24 c2.59,11.3,11.06,34.13,11.06,34.13s-6.74,2.84-13.85,5.84H83.95v8.49h245.17c-2.44,2-4.07,4.5-4.07,4.5l-6.59,1.88l5.46,22.35 l-1.23,6.84c0,0,12.24,0,55.78-11.06c23.56-5.98,33.87-15.62,38.74-24.51h4.26v-8.49h-0.92c1.07-4.06,1.38-7.54,1.98-9.83 C424.69,167.27,424.37,159.25,422.53,148.97z M327.54,247.64l-25.62-0.73c0,0,1.46,90.03-42.45,120.78 c-0.92,0.65-1.8,1.26-2.69,1.88h132.58l-28.89-108.75L327.54,247.64z" fill="#00BFA8"/></g><g id="change3_1"><path d="M465.31,172.47c0,0-12.96,83.87-37.44,98.63c-24.48,14.76-88.54-13.62-88.54-13.62l-20.73,0.31l24.31,54.72 l2.27,4.43l-25.4,15.38c0,0-33.57-48.37-39.89-57.26c-6.32-8.89-9.36-22.46-7.96-33.69c1.4-11.23,7.55-18.81,7.55-18.81l6.25-1.32 l15.68-3.98l22.49,5.3l10-1.48c0,0,5.04,3.24,11.16,1.44c6.12-1.8,35.28-9,54.36-14.76c19.08-5.76,23.09-32.25,23.09-32.25 L465.31,172.47z M269.26,84l-10.55-12.08l-2.02,0.62l-16.87,3.81l-6.88,3.14l-4.61,6.06l-2.64,14.96c0,0,25.18,0.17,25.87,0.17 S269.26,84,269.26,84z M256.06,145.16c-3.78,1.89-13.08,24.26-13.08,24.26l7.09,8.19l18.12-9.45l10.4-26.15 C278.58,142.01,259.84,143.27,256.06,145.16z M164.42,106.51l5.13,21.35l-12.91,17.46l8.03,6.42l8.75-12.56l8.27,37.02h54.51 l-14.56-69.69H164.42z M190.58,357.42c-6.71-1.46-16.35-9.34-18.39-14.6l-10.22,5.84h-19.85c0,0,0,10.73,0,15.44 c0,4.71,3.21,6.75,3.21,6.75h50.5C195.83,370.85,197.29,358.88,190.58,357.42z M327.62,350.64c0,0-5.94,7.64-11.04,9.97 c-5.09,2.33-7,3.18-7,5.73c0,2.55,4.24,3.18,4.24,3.18l25.52,0.07l10.99-11.96l-11.04-6.15L327.62,350.64z M102.58,130.93 c-12.17-1.56-19.35-1.25-29.95,8.42c-10.61,9.67-28.91,53.4-30.68,95.66l75.3-20.46l7.18-16.54l2.72-3.93c0,0-1.16-30.09-2.1-42.57 C124.11,139.04,114.75,132.49,102.58,130.93z" fill="#FFF"/></g><g id="change4_1"><path d="M261.89,48.14c0,0,0.79,0.65,0.02,8.18c-0.77,7.53-6.76,10.81-6.76,10.81l1.54,5.41l-18.73,18.34 l-5.02-11.39c0,0-8.88,2.12-16.8-0.97c-7.92-3.09-10.23-11.58-10.43-19.69c-0.19-8.11-0.09-24.84-0.09-24.84l2.21-8.17l22.78-3.09 h8.3l10.43,0.97L261.89,48.14z M230.12,143.54c0.49,3.53,0.49,6.55,0.49,6.55s-12.25-2.61-14.66-3.41 c-2.41-0.8-3.41,2.61-3.21,5.62c0.2,3.01,1,7.23,3.41,8.84c2.41,1.61,13.86,7.84,18.88,7.84s8.92-1.12,8.92-1.12l11.97-24.4 C255.92,143.46,242.48,141.41,230.12,143.54z M129.43,123.04c-1.71,0.47-2.64,2.49,0.62,7.78c3.27,5.29,6.22,10.57,11.35,10.73 c5.13,0.16,17.42,1.09,17.42,1.09l10.73-14.77c0,0-15.86-2.18-19.13-3.89c-3.27-1.71-6.84,0-5.91,2.02 c0.93,2.02,1.87,4.51,1.87,4.51l-8.4,0.16C137.98,130.66,131.14,122.57,129.43,123.04z M318.86,200.44c0,0-16.84,1.42-21.5,2.03 c-4.67,0.61-9.53,5.88-12.98,9.53c-3.45,3.65-5.27,8.52-4.87,10.55c0.41,2.03,5.48,7.51,8.92,7.71c3.45,0.2,14.4-6.69,14.4-6.69 s12.37,2.64,21.1-1.01L318.86,200.44z M356.76,20.56c0,0-31.09-2.16-36.63,6.57c-5.54,8.73,0.36,30.78,0.36,30.78l-1.3,7.12 l4.1-0.22c0,0,1.94,5.83,9.28,12.52c7.34,6.69,20.72,1.08,20.72,1.08l5.22,8.02l18.96-13.63l2.37-41.23L356.76,20.56z M115.98,120.46c0,0,7.51,0.33,12.01-5.5c4.5-5.84,3.34-15.85,3.34-15.85c2.17-1.17,3-3.17,2-4.17c-1-1-3.34-3.5-3.34-3.5 s0,0-2-7.34c-2-7.34-11.68-16.01-11.68-16.01l-6,4.34L85.79,90.94l4.67,29.52l-2.34,10.68c7.84-2.67,25.02,2.84,25.02,2.84 L115.98,120.46z M172.99,214.06c-8.56-2.85-45.64-14.26-45.64-14.26l-0.2-5.71H94.95c0,0,1.02,11.41,4.89,19.76 s15.08,14.87,29.55,14.87c14.47,0,41.77,0,41.77,0c8.15,4.08,9.98,20.38,9.98,20.38c2.85-1.43,3.87-7.34,3.87-14.47 S181.55,216.91,172.99,214.06z M326.94,343.11c2.26,4.88-0.17,8.36-0.17,8.36l7.31,6.62l5.57-2.09l1.74-37.27l-21.6,13.58 C319.8,332.31,324.67,338.23,326.94,343.11z M142.62,331.42v19.37l25.48,3.87l4.69-9.79c0,0-1.43-3.67,0-13.46H142.62z" fill="#F79A91"/></g><g id="change5_1"><path d="M493.41,357.09c0.07,6.9-5.5,12.52-12.4,12.52H339.34V257.48c0,0,30.14,0,60.28,0 c30.14,0,39.79-28.94,37.37-43.4c-2.41-14.47-14.47-38.58-14.47-38.58s2.41-7.23,1.21-16.88c-1.21-9.65-1.21-9.65-1.21-9.65 s15.81,0,29.61,0s15.98,8.06,15.98,15.08s0,12.35,0,12.35s23.97-0.73,23.97,26.39C492.09,224.94,493.06,322.19,493.41,357.09z M126.33,263.23h-54.7c-10.64,0-19.77-7.56-21.75-18.01l-3.65-19.25c-2.09-11.01-11.71-18.98-22.91-18.98h0 C10.44,206.99,0,217.43,0,230.31v130.98c0,5.12,4.15,9.26,9.26,9.26h127.26c3.56,0,6.44-2.9,6.41-6.46l-0.58-84.95 C142.29,270.33,135.14,263.23,126.33,263.23z M90.46,120.79c13.34-0.25,20.59-15.15,20.59-15.15s-8.89-0.49-9.64-8.65 c-0.56-6.17,4.94-8.65,4.94-8.65s7.91,7.41,11.36,7.41c3.46,0,0.74-21,0.74-21s7.91-10.87,1.48-13.59 c-6.42-2.72-19.27-7.91-37.8-1.98s-21.44,26.59-13.04,41.41S90.46,120.79,90.46,120.79z M124.83,88.49c0,0.84,0.68,1.52,1.52,1.52 c0.84,0,1.52-0.68,1.52-1.52c0-0.84-0.68-1.52-1.52-1.52C125.51,86.97,124.83,87.65,124.83,88.49z M126.42,80.44 c-3.21,0-5,3.27-5.07,3.41c-0.16,0.29-0.05,0.66,0.25,0.82c0.09,0.05,0.19,0.07,0.28,0.07c0.22,0,0.42-0.12,0.53-0.32 c0.02-0.03,1.51-2.78,4.01-2.78c0.33,0,0.6-0.27,0.6-0.6C127.03,80.71,126.76,80.44,126.42,80.44z M351.24,46.18l-1.9-8.57 c0,0,9.84-2.86,11.75,4.13c1.9,6.98-6.03,12.7-6.03,12.7s-0.95,18.09,13.97,20c14.92,1.9,31.74-14.6,30.16-29.2 c-1.59-14.6-17.02-30.92-26.03-39.36c-12.77-11.96-39.06-3.63-47.13,7.19c-7.87,10.56-5.88,14.08-5.88,14.08 S335.69,45.54,351.24,46.18z M326.91,52.61c0-0.89-0.72-1.61-1.61-1.61c-0.89,0-1.61,0.72-1.61,1.61s0.72,1.61,1.61,1.61 C326.19,54.22,326.91,53.5,326.91,52.61z M334.38,64.5c-0.3-0.15-0.66-0.03-0.81,0.27c-1.77,3.53-4.91,3.88-5.04,3.89 c-0.33,0.03-0.57,0.33-0.54,0.66c0.03,0.31,0.29,0.55,0.6,0.55c0.02,0,0.04,0,0.06,0c0.16-0.01,3.93-0.4,6.01-4.56 C334.8,65.01,334.68,64.65,334.38,64.5z M320.81,46.35c0.13-0.1,3.34-2.33,7.8,0.2c0.09,0.05,0.2,0.08,0.3,0.08 c0.21,0,0.41-0.11,0.52-0.31c0.16-0.29,0.06-0.66-0.23-0.82c-5.15-2.92-8.94-0.24-9.1-0.13c-0.27,0.2-0.33,0.57-0.13,0.84 C320.17,46.48,320.54,46.54,320.81,46.35z M357.23,44.45c0.03,0.31,0.29,0.55,0.6,0.55c0.02,0,0.04,0,0.05,0 c0.33-0.03,0.58-0.32,0.55-0.65c-0.3-3.41-3.43-4.18-5.01-4.12c-0.33,0.01-0.59,0.29-0.58,0.63c0.01,0.33,0.3,0.61,0.63,0.58 C353.63,41.43,356.96,41.33,357.23,44.45z M230.3,51.74c0.86,0,1.56-0.7,1.56-1.56s-0.7-1.56-1.56-1.56c-0.86,0-1.56,0.7-1.56,1.56 S229.44,51.74,230.3,51.74z M212.38,49.14c0.86,0,1.56-0.7,1.56-1.56c0-0.86-0.7-1.56-1.56-1.56c-0.86,0-1.56,0.7-1.56,1.56 C210.82,48.44,211.52,49.14,212.38,49.14z M203.67,51.41c-1.91-3.37-0.45-7.72-0.39-7.9c0.15-0.34,1.47-2.82,7.9-2.26 c5.41,0.46,7.76,4.49,8.44,5.95c1.28-0.26,2.44,0.08,3.14,0.36c0.02-0.06,0.03-0.13,0.07-0.18c0.13-0.19,3.39-4.74,10-3.61 c5.21,0.89,6.82,3.38,7.29,4.5l4.34-0.61c-0.54-7.08-1.26-17.86-1.26-17.86s-16.6,5.59-32.67-1.22l-4.89,5.42 c0,0-1.92-13.8,9.43-21.66c11.36-7.86,34.07-9.08,44.72,2.8c10.66,11.88,2.1,33.02,2.1,33.02s-2.27-2.27-5.07-2.8l-7.69,10.83 c-1.57,0.52-3.84,0-4.19-2.8c-0.08-0.66-0.23-2.35-0.39-4.52l-4.31,0.61c-0.32,1.86-2.01,8.55-9.49,8.55c-0.2,0-0.4,0-0.6-0.01 c-2.18-0.1-3.93-0.89-5.21-2.35c-1.86-2.13-2.21-5.14-2.24-6.79c-0.33-0.18-1.61-0.79-2.96-0.45c-0.08,0.25-0.37,1.08-0.94,2.07 c0.01,0.1,0.01,0.2-0.03,0.3c-0.02,0.05-1.87,4.84-2.35,6.76c-0.14,0.56,0.04,0.78,0.1,0.85c0.21,0.26,0.91,0.69,3.15,0.58 c0.32-0.03,0.61,0.24,0.63,0.57c0.02,0.33-0.24,0.61-0.57,0.63c-0.25,0.01-0.49,0.02-0.72,0.02c-1.75,0-2.84-0.34-3.42-1.04 c-0.28-0.34-0.57-0.95-0.33-1.9c0.25-0.99,0.82-2.64,1.34-4.09c-1.29,1.09-3.06,1.93-5.42,1.93c-0.73,0-1.51-0.08-2.35-0.25 C206.4,54.32,204.67,53.17,203.67,51.41z M225.85,54.86c1.05,1.2,2.51,1.85,4.35,1.93c7.64,0.34,8.78-6.85,8.9-7.82 c-0.14-0.48-1.14-3.11-6.48-4.02c-5.32-0.9-8.16,2.28-8.71,2.98C223.87,48.77,223.81,52.53,225.85,54.86z M204.72,50.82 c0.83,1.45,2.29,2.4,4.34,2.83c7.46,1.55,9.45-5.34,9.53-5.63c0.01-0.04,0.02-0.07,0.04-0.1c-0.39-0.96-2.34-5.02-7.55-5.46 c-5.58-0.47-6.68,1.5-6.69,1.52C204.4,43.97,203.08,47.94,204.72,50.82z M222.59,67.28c-0.33,0.04-0.57,0.34-0.53,0.67 c0.04,0.31,0.3,0.53,0.6,0.53c0.02,0,0.05,0,0.07,0c2.5-0.3,6.31-2.02,7.15-3.22c0.51-0.72,0.79-1.79,0.27-2.55 c-0.49-0.72-1.46-0.9-2.89-0.56c-2.77,0.67-7.94,0.77-7.99,0.77c-0.33,0.01-0.6,0.28-0.59,0.61c0.01,0.33,0.28,0.61,0.61,0.59 c0.22,0,5.35-0.11,8.25-0.81c0.99-0.24,1.48-0.12,1.61,0.07c0.15,0.22,0.03,0.76-0.26,1.18C228.35,65.35,225.02,66.99,222.59,67.28 z M228.18,42.33c0.05-0.02,5-1.68,7.9,1.22c0.12,0.12,0.27,0.18,0.43,0.18s0.31-0.06,0.43-0.18c0.24-0.24,0.24-0.62,0-0.85 c-3.44-3.44-8.92-1.58-9.15-1.5c-0.31,0.11-0.48,0.45-0.37,0.77C227.52,42.27,227.86,42.44,228.18,42.33z M217.87,43.11 c0.12,0.16,0.3,0.24,0.48,0.24c0.13,0,0.25-0.04,0.36-0.12c0.26-0.2,0.32-0.58,0.12-0.84c-2.9-3.83-8.26-2.99-8.48-2.95 c-0.33,0.05-0.55,0.36-0.5,0.69c0.05,0.33,0.37,0.55,0.69,0.5C210.59,40.62,215.41,39.87,217.87,43.11z M306.19,102.27 c-3.12-10.04-8.92-17.4-17.4-20.08c-8.48-2.68-23.2-2.68-23.2-2.68l-12.72,13.16l-5.42-1.45c0,0-9.52,6.36-15.77-0.56l-3.12,1.34 l-0.22-6.47c0,0-11.82,4.02-18.51,6.02c-6.69,2.01-12.27,9.59-12.05,14.95h23.87l8.48,37.03c0,0,15.39-0.45,24.09,4.02 c0,0,6.92-1.78,13.16,1.56l-10.48,22.98l-12.94-4.24l-8.92,1.12l1.14,7.23h-18.74l2.43,9.5h86.77l-0.89-2.9 c0,0,11.82-2.01,14.5-10.48c2.68-8.48,1.78-13.38-0.45-22.31C317.56,141.09,309.31,112.31,306.19,102.27z M164.67,151.75 l13.24,7.85l-4.49-20.41L164.67,151.75z M173.15,138.33c0.06,0,0.12-0.01,0.18-0.03c0.32-0.1,0.49-0.44,0.39-0.76l-2.86-8.87 c-0.1-0.32-0.44-0.49-0.76-0.39c-0.32,0.1-0.49,0.44-0.39,0.76l2.86,8.87C172.66,138.17,172.89,138.33,173.15,138.33z M89.73,193.29c-3.4-13-5.03-33.17-5.05-33.37c-0.03-0.33-0.33-0.57-0.65-0.55c-0.33,0.03-0.58,0.32-0.55,0.65 c0.02,0.21,1.69,20.93,5.2,34.02c0.07,0.26,0.29,0.44,0.56,0.45l5.69,0.22c0.01,0,0.02,0,0.02,0c0.32,0,0.59-0.26,0.6-0.58 c0.01-0.33-0.25-0.61-0.58-0.63L89.73,193.29z M363.41,178.68c0.1,0,0.2-0.02,0.29-0.08l20-11.06c0.24-0.13,0.36-0.41,0.29-0.68 l-13.18-50.13c-0.08-0.32-0.42-0.51-0.74-0.43c-0.32,0.08-0.51,0.41-0.43,0.74l13.06,49.68l-19.59,10.83 c-0.29,0.16-0.4,0.53-0.24,0.82C363,178.57,363.2,178.68,363.41,178.68z M385.28,166.88c-0.33,0.02-0.59,0.3-0.57,0.63 c0.01,0.33,0.26,0.61,0.63,0.57c0.05,0,4.92-0.2,7.06,2.16c0.12,0.13,0.28,0.2,0.45,0.2c0.14,0,0.29-0.05,0.4-0.16 c0.25-0.22,0.26-0.61,0.04-0.85C390.77,166.67,385.49,166.87,385.28,166.88z M327.28,201.2c-0.1-0.32-0.43-0.5-0.75-0.4 c-0.32,0.1-0.5,0.44-0.4,0.75l5.41,17.42c0.08,0.26,0.32,0.42,0.58,0.42c0.06,0,0.12-0.01,0.18-0.03c0.32-0.1,0.5-0.44,0.4-0.75 L327.28,201.2z M292.98,216.08c0.29-0.17,0.38-0.54,0.22-0.83c-0.17-0.28-0.53-0.38-0.83-0.22c-0.37,0.22-9.1,5.38-9.97,10.77 c-0.05,0.33,0.17,0.64,0.5,0.69c0.03,0.01,0.06,0.01,0.1,0.01c0.29,0,0.55-0.21,0.59-0.51 C284.37,221.17,292.89,216.13,292.98,216.08z M295.52,218.89c-0.31,0.2-7.71,5-8.93,9.01c-0.1,0.32,0.08,0.66,0.4,0.75 c0.06,0.02,0.12,0.03,0.18,0.03c0.26,0,0.5-0.17,0.58-0.43c1.09-3.58,8.35-8.3,8.43-8.35c0.28-0.18,0.36-0.55,0.18-0.83 C296.17,218.79,295.8,218.7,295.52,218.89z M289.53,211.7c0.26-0.2,0.32-0.58,0.11-0.84c-0.2-0.26-0.58-0.32-0.84-0.12 c-0.29,0.22-7.13,5.47-9.85,11.56c-0.14,0.3,0,0.66,0.3,0.8c0.08,0.04,0.16,0.05,0.25,0.05c0.23,0,0.45-0.13,0.55-0.36 C282.65,216.98,289.46,211.75,289.53,211.7z M363.19,94.5c0.11,0.09,0.24,0.13,0.37,0.13c0.13,0,0.26-0.04,0.38-0.13L381,80.94 c0.26-0.21,0.3-0.59,0.1-0.85c-0.21-0.26-0.59-0.3-0.85-0.1l-16.69,13.26l-5.23-4.14c-0.26-0.21-0.64-0.16-0.85,0.1 c-0.21,0.26-0.16,0.64,0.1,0.85L363.19,94.5z M361.15,76.09c-0.59-1.18-1.77-2.12-7.85,2.33l3.7,5.68 C359.41,80.11,361.39,76.58,361.15,76.09z M232.95,79.48l2.73,6.2c2.72-3.5,5.33-7.07,5.11-7.64 C240.32,76.88,239.62,77,232.95,79.48z M258.79,56.5c0.03,0,0.05,0,0.08,0c0.3,0,0.56-0.22,0.6-0.53c0.62-4.86-2.04-6.45-2.15-6.51 c-0.29-0.16-0.65-0.07-0.82,0.22c-0.17,0.28-0.07,0.65,0.21,0.82c0.08,0.05,2.08,1.3,1.56,5.32 C258.23,56.15,258.46,56.46,258.79,56.5z M188.74,51.77c0.15,0.23,0.13,0.54-0.06,0.74c-0.12,0.12-0.28,0.19-0.44,0.19 c-0.1,0-0.2-0.03-0.3-0.08l-11.61-6.6c-1.86-1.06-3.98-1.63-6.12-1.66l-69.52-0.9c-1.36-0.02-2.62-0.57-3.55-1.56 c-0.93-0.99-1.41-2.28-1.35-3.64l1.6-33.49c0.13-2.71,2.34-4.76,5.07-4.73l72.94,1.58c2.7,0.06,4.88,2.3,4.86,5l-0.19,28.12 c-0.02,2.53,0.71,4.98,2.1,7.09L188.74,51.77z M186.34,50.34l-5.18-7.85c-1.53-2.31-2.32-5-2.3-7.76l0.19-28.12 c0.01-2.04-1.64-3.74-3.68-3.79l-72.94-1.58c-0.03,0-0.06,0-0.08,0c-2.02,0-3.66,1.56-3.75,3.58l-1.6,33.49 c-0.05,1.03,0.31,2.01,1.02,2.76c0.71,0.75,1.66,1.17,2.69,1.18l69.52,0.9c2.34,0.03,4.66,0.66,6.7,1.82L186.34,50.34z M168.62,12.33l-61.51-0.92c-0.38-0.04-0.61,0.26-0.61,0.59c0,0.33,0.26,0.61,0.59,0.61l61.51,0.92c0,0,0.01,0,0.01,0 c0.33,0,0.6-0.26,0.6-0.59C169.22,12.61,168.95,12.34,168.62,12.33z M166.54,22.74l-59.66-1.16c-0.38-0.04-0.61,0.26-0.61,0.59 c-0.01,0.33,0.26,0.61,0.59,0.61l59.66,1.16c0,0,0.01,0,0.01,0c0.33,0,0.6-0.26,0.6-0.59C167.14,23.02,166.87,22.75,166.54,22.74z M145.96,32.68l-38.39-0.69c-0.35,0-0.61,0.26-0.61,0.59c-0.01,0.33,0.26,0.61,0.59,0.61l38.39,0.69c0,0,0.01,0,0.01,0 c0.33,0,0.6-0.26,0.6-0.59C146.56,32.96,146.29,32.69,145.96,32.68z M151.27,32.91h-1.62c-0.33,0-0.6,0.27-0.6,0.6 c0,0.33,0.27,0.6,0.6,0.6h1.62c0.33,0,0.6-0.27,0.6-0.6C151.87,33.18,151.6,32.91,151.27,32.91z M109.5,122.61 c0.76,0.69,3.19,2.22,5.29,3.51l1.19-5.66C109.22,120.6,108.07,121.32,109.5,122.61z M107.63,92.83c-0.27-0.19-0.65-0.13-0.84,0.14 c-1.1,1.55-2.5,5.19,0.05,7.89c0.12,0.13,0.28,0.19,0.44,0.19c0.15,0,0.3-0.05,0.41-0.16c0.24-0.23,0.25-0.61,0.02-0.85 c-2.51-2.65-0.05-6.22,0.05-6.37C107.96,93.39,107.9,93.02,107.63,92.83z M224.96,155.28c0.03,0,0.06,0.01,0.08,0.01 c0.3,0,0.55-0.22,0.6-0.52c0.05-0.33-0.18-0.63-0.51-0.68c-0.08-0.01-8.37-1.21-10.78-4.55c-0.2-0.27-0.57-0.33-0.84-0.14 c-0.27,0.19-0.33,0.57-0.14,0.84C216.08,154,224.6,155.23,224.96,155.28z M223.24,159.48c0.3,0,0.57-0.23,0.6-0.54 c0.03-0.33-0.21-0.63-0.54-0.66c-0.06-0.01-5.65-0.62-8.86-3.45c-0.25-0.22-0.63-0.2-0.85,0.05c-0.22,0.25-0.2,0.63,0.05,0.85 c3.5,3.09,9.28,3.72,9.53,3.74C223.2,159.48,223.22,159.48,223.24,159.48z" fill="#28407E"/></g></svg>