<?xml version="1.0" encoding="UTF-8"?><svg xmlns="http://www.w3.org/2000/svg" xmlns:xlink="http://www.w3.org/1999/xlink" height="327.4" preserveAspectRatio="xMidYMid meet" version="1.0" viewBox="0.0 -2.3 489.0 327.4" width="489.0" zoomAndPan="magnify"><g id="change1_1"><path d="M488.95,205.6v64.62c0,2.62-2.12,4.74-4.74,4.73l-257.86-0.17h-4.7v-15.14c0-15.46,12.53-27.99,27.99-27.99 h47.01c17.11,0,30.98-13.87,30.98-30.98v-31.73c0-17.11,13.87-30.98,30.98-30.98h90.4c3.48,0,6.3,2.82,6.3,6.3v27.7 C455.32,171.96,488.95,173.77,488.95,205.6z M181.33,102.33l-0.6-5.72c-0.1-0.99-0.94-1.74-1.93-1.74h-16.15 c-1.07,0-1.95,0.87-1.95,1.95v29.3L143.6,91.13l6.48-11.2l-24.56-16.7c-4.32,2.55-15.72,0.79-24.76,9.63 c-9.04,8.84-49.12,50.11-60.12,65.01c-11,14.9-7.47,26.16-7.47,26.16s38.13,1.13,75.38,2.15c0.72-0.28,1.35-0.52,2.07-0.8 c5.01-4.9,11.31-13.03,14.12-24.74c0,0,11.18,24.04,22.08,24.32c2.46,0.06,4.01,0.97,4.93,2.33c11.92,0.28,21.11,0.46,25.05,0.46 c17.88,0,11.59-40.28,10.81-49.71C186.83,108.62,181.33,102.33,181.33,102.33z M90.2,217.52H22.98c-3.11,0-5.63,2.52-5.63,5.63 v5.87h78.3l0.18-5.7C95.93,220.15,93.38,217.52,90.2,217.52z" fill="#B0E7E1"/></g><g id="change2_1"><path d="M410.98,231.64H296.66c17.11,0,30.98-13.87,30.98-30.98v-31.73c0-17.11,13.87-30.98,30.98-30.98h90.4 c3.48,0,6.3,2.82,6.3,6.3v27.7h0c-20.43,0-36.98,16.56-36.98,36.98v15.35C418.33,228.35,415.04,231.64,410.98,231.64z M213.51,107.09c0,0-18,7.13-25.9,10.96c1.98,17.29,0.71,35.2,0.71,35.2s13.61-7.18,19.44-11.66c5.83-4.49,9.12-13.91,9.12-13.91 l6.43-4.19L213.51,107.09z M467.4,270.19c-20.39,0-168.01,3.68-205.38,4.62c-1.14-0.09-2.47-0.14-4.03-0.14 c-17.15,0-29.14-5.45-36.34-10.22v10.33h4.7l35.68,0.02c0,0,0,0,0,0l222.18,0.15c2.62,0,4.74-2.12,4.74-4.73v-25.88 C487.51,254.85,482.77,270.19,467.4,270.19z M108.56,166.18c0.72-0.28,1.35-0.52,2.07-0.8c3.9-3.81,8.57-9.59,11.77-17.47 c-7.22,3.03-33.74,13.61-59.52,16.99C76.17,165.28,92.44,165.74,108.56,166.18z M90.2,217.52H65.67 c-2.18,3.76-7.17,9.68-17.44,11.5h47.42l0.18-5.7C95.93,220.15,93.38,217.52,90.2,217.52z" fill="#00BFA8"/></g><g id="change3_1"><path d="M427.19,176.54c-3.21,24.88-20.63,40.27-20.63,40.27l-24.13-27.12l-16.81-19.8c0,0,3-6.16,7.32-15.81 c4.33-9.65,9.09-17.8,21.23-24.28c12.15-6.49,20.02-3.74,26.36,4.2C425.62,140.35,429.86,155.82,427.19,176.54z M161.88,163.71 c-22.55,0-128.58,0-128.58,0s-12.47,15.35-9.12,33.34c3.36,17.99,12.47,20.39,12.47,20.39h52.3c0,0,36.46-5.76,59.25-12.95 c0,0-6.24,37.18-7.92,65.97l31.02-0.26c0,0,14.56-56.6,18.4-73.63C193.54,179.54,184.43,163.71,161.88,163.71z M248.4,91.72 l1.19,4.84l6.9,9.47l2.59,1.47l2.57-0.72l-9.31-12.42L248.4,91.72z M264.8,111.66l-3.07,1.65l12.8,17.99 c0.52,0.73,1.51,0.95,2.29,0.52c0.92-0.51,1.19-1.71,0.58-2.57L264.8,111.66z M100.46,302.96c-6.04,0-10.93,4.89-10.93,10.93 c0,6.04,4.89,10.93,10.93,10.93c6.04,0,10.93-4.89,10.93-10.93C111.39,307.86,106.5,302.96,100.46,302.96z M13.97,302.96 c-6.04,0-10.93,4.89-10.93,10.93c0,6.04,4.89,10.93,10.93,10.93c6.04,0,10.93-4.89,10.93-10.93 C24.9,307.86,20.01,302.96,13.97,302.96z M58.81,303.02h-4.05c-2.47,0-4.48,2.01-4.48,4.48v13.07c0,2.47,2.01,4.48,4.48,4.48h4.05 c2.47,0,4.48-2.01,4.48-4.48V307.5C63.29,305.02,61.28,303.02,58.81,303.02z" fill="#FFF"/></g><g id="change4_1"><path d="M408.69,113.02c-3.23,4.43-3.17,7.13-2.21,9.87c0.67,1.91,1.24,3.48,1.24,3.48s-10.43,0.43-19.62,7.41 l-2.55-7.49c0,0-13.45,1.87-19.58-3.57c-6.13-5.45-4.43-13.96-6.13-14.3c-1.7-0.34-5.45-0.34-2.72-4.26 c2.72-3.92,2.38-4.26,2.55-10.21c0.17-5.96,5.11-22.81,21.11-25.7c16-2.89,27.58,0.68,33.54,12.6 C420.27,92.77,411.93,108.6,408.69,113.02z M364.29,172.69c0,0-8.4-31.53-9.6-35.81c-1.2-4.28-5.65-7.37-9.77-7.37 c-4.11,0-18.51,0.17-18.51,0.17s-4.11-3.43-5.83-4.46c-1.71-1.03-2.06,1.71-0.51,3.43c1.54,1.71,4.28,5.83,6.85,7.37 c2.57,1.54,9.42,3.43,10.97,4.11c1.54,0.69,1.71,2.91,1.71,5.14s1.2,27.08,2.74,37.53c1.54,10.45,9.42,22.11,23.82,19.36 c14.39-2.74,22.28-19.54,22.28-19.54l-22.28-13.19L364.29,172.69z M273.26,203.37c-10.55,8.48-15.07,7.91-15.07,7.91 s-5.09-0.57-9.98-1.13c-4.9-0.57-11.12-0.38-10.17,9.61c0.94,9.98,6.59,11.87,6.59,11.87h34.85l28.26-11.3 c2.45,6.97,8.1,11.3,8.1,11.3h16.39v-51.81C308.02,178.94,283.81,194.89,273.26,203.37z M183.41,59.85 c0.56,1.67,1.86,3.81,1.86,3.81s-8.92,2.97-12.74,4.37c-3.81,1.39-6.6,4.18-6.69,7.72c-0.09,3.53,0.16,18.99,0.16,18.99l12.64-0.09 l-0.54-15.13c-0.05-1.38,0.72-2.66,1.98-3.25c3.26-1.52,9.37-4.38,10.58-4.99c1.67-0.84,3.25-3.07,1.49-6.14 c-1.77-3.07-4.28-5.3-5.58-6.51C185.27,57.44,182.85,58.18,183.41,59.85z M145.79,77.71l5.08-6.71c0.83-1.1,2.13-1.74,3.5-1.74h10 c7.96,0,12.79-4.22,13.64-10.5c0.56-4.18,0.96-6.54,1.17-7.65c0.09-0.5,0.44-0.9,0.91-1.08l2.47-0.9c0.89-0.32,1.22-1.4,0.68-2.17 l-3.44-4.85c-0.19-0.27-0.29-0.6-0.26-0.93c0.15-1.86,0.56-8.57-0.52-15.63c-1.27-8.31-7.59-18.51-22.39-20.96 s-27.8,1.63-34.32,15.03c-6.52,13.4,9.13,38.2,9.13,38.2l-4.51,6.17L145.79,77.71z M193.06,319.34c-2.76-1.28-8.29-4.04-14.25-6.81 c-5.96-2.76-15.95-7.02-14.89-13.61c1.06-6.59,7.4-28.81,7.4-28.81l-24.9,0.02c0,0-4.62,23.47-8.66,35.8 c-4.04,12.34-2.33,18.94-2.33,18.94h17.02l0.17-4.15c0,0,6.63,3.93,14.28,3.93s19.35,0,23.82,0 C195.18,324.66,195.82,320.62,193.06,319.34z M253.85,113.73c1.71,0.43,4.81,1.18,6.42,0.32c1.6-0.86,4.81-2.46,7.6-4.07 c2.78-1.6,4.07-2.03,4.49-4.17c0.43-2.14-1.5-2.67-1.5-2.67s-0.86-2.25-2.78-1.71c-1.36,0.38-5.65,2.02-8.25,2.96l1.54,2.4 l-2.3,0.72l-2.59-1.47l-1.6-2.54c-2.51-1.41-6.15-3.48-8.56-4.97c-3.99-2.47-8.56-2.09-12.55-0.19c-3.99,1.9-20.26,8.76-20.26,8.76 l8.67,14.76l18.62-11.23C240.79,110.62,252.14,113.3,253.85,113.73z" fill="#F79A91"/></g><g id="change5_1"><path d="M488.63,279.91v45.21H221.22v-45.21c0-2.83,2.3-5.13,5.13-5.13H483.5 C486.33,274.78,488.63,277.08,488.63,279.91z M331.77,191.59c-1.8,0.19-6.29,0.83-10.81,2.84l-2.51-5.18 c-0.13-0.26-0.44-0.37-0.7-0.24c-0.26,0.13-0.37,0.44-0.24,0.7l2.51,5.17c-2.81,1.38-5.56,3.31-7.6,6.02 c-7.15,9.54-5.78,17.39-5.19,19.57c0.06,0.23,0.27,0.39,0.51,0.39c0.05,0,0.09-0.01,0.14-0.02c0.28-0.08,0.44-0.36,0.37-0.64 c-0.56-2.06-1.85-9.51,5.01-18.66c5.15-6.86,15.47-8.52,18.51-8.87v39.2c0,0,28.48,0,47.24,0c18.76,0,27.53-15.04,27.53-15.04 s-12.42-14.87-23.08-26.38c-3.76,4.78-9.6,10.27-17.29,11.73c-14.39,2.74-22.28-8.91-23.82-19.36c-0.14-0.97-0.28-2.07-0.42-3.26 c-5.99,0.07-10.16,0.27-10.16,0.27V191.59z M371.55,77.44l3-1c0,0-0.71,12.01,3.72,17.87c4.43,5.86,8.86,4.43,8.86,4.43l0.71-6.86 c0,0,7.15-3.57,9.44,4.43c1.37,4.79-0.54,8.2-2.29,10.17c-1.21,1.36-1.14,3.43,0.09,4.77c3.3,3.59,9.29,9.1,13.07,6.51 c5.43-3.72,19.16-18.87,19.59-30.03c0.43-11.15-7.29-16.16-7.29-16.16c-1.14-12.73-15.73-20.45-35.17-16.01 C365.83,60,356.54,70.72,359.83,75.3C363.12,79.87,371.55,77.44,371.55,77.44z M363.89,99.26c0,0.77,0.62,1.39,1.39,1.39 c0.77,0,1.39-0.62,1.39-1.39c0-0.77-0.62-1.39-1.39-1.39C364.51,97.87,363.89,98.49,363.89,99.26z M370.05,92.5 c0.16,0,0.31-0.07,0.42-0.21c0.18-0.23,0.13-0.56-0.1-0.73c-4.25-3.23-8.48-0.3-8.52-0.27c-0.24,0.17-0.29,0.49-0.12,0.73 c0.17,0.24,0.49,0.29,0.73,0.13c0.15-0.1,3.65-2.51,7.28,0.25C369.83,92.46,369.94,92.5,370.05,92.5z M365.3,112.28 c0.73,0,4.03-0.18,5.57-3.33c0.13-0.26,0.02-0.57-0.24-0.7c-0.26-0.12-0.57-0.02-0.7,0.24c-1.39,2.85-4.58,2.75-4.71,2.74 c-0.27-0.01-0.53,0.21-0.55,0.5c-0.01,0.29,0.21,0.53,0.5,0.55C365.18,112.28,365.23,112.28,365.3,112.28z M365.91,169.89 l22.29,13.2l5.53,3.11c0.08,0.05,0.17,0.07,0.26,0.07c0.18,0,0.35-0.09,0.45-0.25c0.12-0.19,11.72-18.83,13.02-21.04 c1.08-1.84,2.87-1.36,2.95-1.34c0.27,0.08,0.57-0.08,0.65-0.36c0.08-0.28-0.08-0.57-0.36-0.65c-0.91-0.27-2.95-0.23-4.15,1.81 c-1.19,2.02-10.99,17.78-12.74,20.59l-5.08-2.86l-22.28-13.19c-0.25-0.15-0.57-0.07-0.72,0.18 C365.58,169.42,365.66,169.74,365.91,169.89z M451.14,198.33c0-1.56,1.27-2.83,2.83-2.83s2.83,1.27,2.83,2.83s-1.27,2.83-2.83,2.83 S451.14,199.89,451.14,198.33z M452.19,198.33c0,0.98,0.8,1.78,1.78,1.78c0.98,0,1.78-0.8,1.78-1.78c0-0.98-0.8-1.78-1.78-1.78 C452.99,196.55,452.19,197.35,452.19,198.33z M279.39,230.52c-0.29,0.05-0.48,0.32-0.43,0.61c0.04,0.25,0.27,0.43,0.52,0.43 c0.03,0,0.06,0,0.09-0.01c3.47-0.61,6.86-3.45,5.98-9.63c-0.86-5.98-9.14-6.54-9.49-6.56c-0.29-0.02-0.54,0.2-0.55,0.49 s0.2,0.54,0.49,0.55c0.08,0.01,7.78,0.52,8.51,5.66C285.17,226.69,283.26,229.85,279.39,230.52z M241.22,226.3 c-0.29-0.07-0.57,0.1-0.64,0.38c-0.07,0.28,0.1,0.57,0.38,0.64l3.6,0.9c0.04,0.01,0.08,0.02,0.13,0.02c0.07,0,0.12-0.04,0.18-0.06 c0.54,1.16,1.22,2.31,2.08,3.42c0.1,0.13,0.26,0.2,0.42,0.2c0.11,0,0.22-0.04,0.32-0.11c0.23-0.18,0.27-0.51,0.1-0.74 c-5.04-6.54-3.7-15.05-3.69-15.13c0.02-0.14-0.01-0.29-0.1-0.4c-0.08-0.11-0.21-0.19-0.36-0.21l-4.02-0.48 c-0.28-0.04-0.55,0.17-0.58,0.46c-0.03,0.29,0.17,0.55,0.46,0.58l3.49,0.42c-0.07,0.64-0.16,1.78-0.11,3.24l-3.59-0.9 c-0.28-0.07-0.57,0.1-0.64,0.38c-0.07,0.28,0.1,0.57,0.38,0.64l3.6,0.9c0.04,0.01,0.09,0.02,0.13,0.02c0.06,0,0.11-0.04,0.17-0.06 c0.06,0.79,0.16,1.66,0.33,2.56l-3.4-0.85c-0.28-0.07-0.57,0.1-0.64,0.38c-0.07,0.28,0.1,0.57,0.38,0.64l3.6,0.9 c0.04,0.01,0.08,0.02,0.13,0.02c0.05,0,0.09-0.03,0.13-0.05c0.23,1,0.54,2.03,0.95,3.08L241.22,226.3z M392.26,126.04 c-0.68-1.75-2.24-0.95-8.67,0.46c1.21-0.09,1.95-0.19,1.95-0.19l1.73,5.06C389.96,129.5,392.79,127.39,392.26,126.04z M328.36,134.75c2.03,0.34,8.29,1.18,8.35,1.19c0.02,0,0.05,0,0.07,0c0.26,0,0.48-0.19,0.52-0.45c0.04-0.29-0.16-0.55-0.45-0.59 c-0.06-0.01-6.31-0.85-8.32-1.19c-0.77-0.13-1.14-0.85-1.11-1.47c0.05-0.87,0.79-1.42,1.98-1.48c0.29-0.01,0.51-0.26,0.5-0.55 c-0.01-0.29-0.24-0.51-0.55-0.5c-2.1,0.11-2.92,1.4-2.98,2.47C326.31,133.44,327.16,134.54,328.36,134.75z M360.53,179.1 c0.08,0.05,0.17,0.07,0.27,0.07c0.18,0,0.35-0.09,0.45-0.26l3.5-5.96c0.15-0.25,0.06-0.57-0.19-0.72 c-0.25-0.15-0.57-0.06-0.72,0.19l-3.5,5.96C360.19,178.64,360.28,178.96,360.53,179.1z M193.06,319.34 c-2.76-1.28-8.29-4.04-14.25-6.81c-0.69-0.32-1.44-0.67-2.22-1.03l-10.13,4.38l-28.93-9.19c-3.72,11.84-2.1,18.18-2.1,18.18h17.02 l0.17-4.15c0,0,6.63,3.93,14.28,3.93s19.35,0,23.82,0C195.18,324.66,195.82,320.62,193.06,319.34z M175.38,40.36 c0.69,0,1.25-0.56,1.25-1.25c0-0.69-0.56-1.25-1.25-1.25s-1.25,0.56-1.25,1.25C174.14,39.81,174.69,40.36,175.38,40.36z M169.68,53.88c2.48,1.75,5.37,1.5,5.49,1.49c0.29-0.03,0.5-0.28,0.47-0.57c-0.03-0.29-0.27-0.5-0.57-0.47 c-0.03,0-2.63,0.22-4.79-1.3c-1.79-1.26-2.77-0.44-3.02-0.15c-0.66,0.73-0.6,1.98,0.15,2.84c1.1,1.26,3.34,2.55,6.44,2.55 c0.21,0,0.42-0.01,0.64-0.02c0.29-0.02,0.51-0.26,0.49-0.55c-0.02-0.29-0.25-0.52-0.55-0.49c-3.06,0.17-5.27-1.07-6.23-2.17 c-0.43-0.5-0.43-1.15-0.16-1.45C168.33,53.25,168.94,53.36,169.68,53.88z M185.36,64.18c0.77-0.14,2.91-0.25,3.51,0.86 c0.78,1.43-0.96,2.97-2.11,3.66c-1.53,0.92-7.73,5.19-7.99,5.38c-0.24,0.16-0.3,0.49-0.13,0.73c0.1,0.15,0.27,0.23,0.43,0.23 c0.1,0,0.21-0.03,0.3-0.09c0.06-0.04,6.43-4.44,7.93-5.34c1.97-1.18,3.5-3.2,2.49-5.06c-1.09-1.99-4.47-1.41-4.61-1.39 c-0.29,0.05-0.47,0.32-0.42,0.61C184.8,64.04,185.08,64.23,185.36,64.18z M211.01,57.34c0.04-0.23,0.22-0.42,0.46-0.44l14.42-1.66 c0.92-0.11,1.61-0.88,1.61-1.8V29.12c0-1.54,0.6-2.99,1.7-4.07c1.09-1.08,2.57-1.68,4.08-1.66l83.17,0.67 c1.54,0.01,2.98,0.62,4.05,1.72c1.07,1.1,1.66,2.55,1.64,4.09l-0.44,33.78c-0.04,3.13-2.61,5.66-5.73,5.66c-0.01,0-0.02,0-0.02,0 l-84.7-0.35c-1.46-0.01-2.67-1.1-2.83-2.55c-0.07-0.64-0.48-1.2-1.07-1.46l-16.02-7.04C211.1,57.81,210.97,57.58,211.01,57.34z M213.51,57.72l14.24,6.26c0.93,0.41,1.58,1.29,1.69,2.31c0.1,0.92,0.87,1.61,1.8,1.61l84.7,0.35c0.01,0,0.01,0,0.02,0 c2.55,0,4.65-2.07,4.69-4.63l0.44-33.78c0.02-1.26-0.46-2.44-1.34-3.34s-2.05-1.4-3.31-1.41l-83.17-0.67c-0.01,0-0.03,0-0.04,0 c-1.24,0-2.41,0.48-3.3,1.36c-0.89,0.89-1.39,2.07-1.39,3.33v24.32c0,1.46-1.09,2.68-2.54,2.84L213.51,57.72z M237.12,36.25 l72.61,1.23c0,0,0.01,0,0.01,0c0.29,0,0.52-0.23,0.52-0.52c0.01-0.29-0.23-0.53-0.52-0.53l-72.61-1.23c-0.27,0-0.53,0.23-0.53,0.52 C236.6,36,236.83,36.24,237.12,36.25z M309.01,46.26l-70.89-0.61c0,0,0,0,0,0c-0.29,0-0.52,0.23-0.52,0.52 c0,0.29,0.23,0.53,0.52,0.53L309,47.31c0,0,0,0,0,0c0.29,0,0.52-0.23,0.52-0.52C309.53,46.5,309.3,46.26,309.01,46.26z M308.64,57.07C308.64,57.07,308.64,57.07,308.64,57.07l-70.28,0.25c-0.29,0-0.52,0.24-0.52,0.53c0,0.29,0.24,0.52,0.52,0.52 c0,0,0,0,0,0l70.28-0.25c0.29,0,0.52-0.24,0.52-0.53C309.16,57.3,308.93,57.07,308.64,57.07z M181.85,102.43 c0-0.29-0.23-0.52-0.52-0.52h-17.65c-0.29,0-0.52,0.23-0.52,0.52s0.23,0.52,0.52,0.52h17.65 C181.62,102.95,181.85,102.72,181.85,102.43z M208.32,110.61c-0.14-0.26-0.45-0.35-0.71-0.21c-0.26,0.14-0.35,0.45-0.21,0.71 l9.04,16.82c0.09,0.18,0.28,0.28,0.46,0.28c0.08,0,0.17-0.02,0.25-0.06c0.25-0.14,0.35-0.45,0.21-0.71L208.32,110.61z M103.5,300.48c-0.52-2.58-3.31-12.78-14.93-15.92c-5.85-1.58-15.98-2.46-26.68-2.62v-44.32h33.76c2.37,0,4.3-1.92,4.3-4.3 c0-2.37-1.92-4.3-4.3-4.3h-78.3c-2.37,0-4.3,1.92-4.3,4.3c0,2.37,1.92,4.3,4.3,4.3H51.3v44.4c-10.18,0.31-19.79,1.28-25.62,2.96 c-11.73,3.38-13.76,12.57-14.11,15.44C0.14,301.95,0,313.77,0,313.89c0,0.29,0.23,0.52,0.52,0.52s0.52-0.23,0.52-0.52 c0-0.5,0.14-11.88,11.94-12.56l3.28,0.11c2.9,0.35,5.26,1.42,7.03,3.23c3.64,3.72,3.56,9.31,3.56,9.37 c-0.01,0.29,0.22,0.53,0.51,0.54c0,0,0.01,0,0.01,0c0.28,0,0.52-0.23,0.52-0.51c0.01-0.25,0.1-6.08-3.85-10.12 c-1.53-1.57-3.46-2.64-5.75-3.2l1.11-3.45c0.45-1.4,1.76-2.36,3.24-2.36h30.88v6.98h-0.08c-0.91,0-1.66,0.74-1.66,1.66v10.66 c0,0.91,0.74,1.66,1.66,1.66h6.38c0.91,0,1.66-0.74,1.66-1.66v-10.66c0-0.91-0.74-1.66-1.66-1.66h-0.24v-6.98h33.27 c1.38,0,2.62,0.83,3.14,2.1l1.44,3.48c-10.81,1.87-10.96,13.25-10.96,13.38c0,0.29,0.23,0.52,0.52,0.52h0 c0.29,0,0.52-0.23,0.52-0.52c0-0.51,0.17-12.59,13.06-12.59c3.91,0,7,1.13,9.19,3.37c3.64,3.72,3.56,9.31,3.56,9.37 c-0.01,0.29,0.22,0.53,0.51,0.54c0,0,0.01,0,0.01,0c0.28,0,0.52-0.23,0.52-0.51c0.01-0.25,0.1-6.08-3.85-10.12 C108.73,302.09,106.37,300.93,103.5,300.48z M111.79,113.77c-3.05-4.83-4.99-4.31-5.35-4.16c-0.27,0.11-0.4,0.43-0.29,0.69 c0.12,0.27,0.41,0.4,0.67,0.28c0.01-0.01,1.48-0.37,4.07,3.74c2.92,4.62,12.48,24.46,12.57,24.66c0.09,0.19,0.28,0.3,0.47,0.3 c0.08,0,0.15-0.02,0.23-0.05c0.26-0.13,0.37-0.44,0.25-0.7C124.03,137.72,114.73,118.44,111.79,113.77z M127.42,69.22 c-14.53-0.7-21.71-20.99-12.81-43.36c9.05-22.76,26.55-28.14,41.73-25.08c15.17,3.06,20.07,15.05,20.07,15.05 s-0.92,4.95-4.58,11.31c3.72-1.52,6.04,1.38,6.06,1.42c0.18,0.23,0.14,0.56-0.09,0.73c-0.1,0.07-0.21,0.11-0.32,0.11 c-0.16,0-0.31-0.07-0.41-0.2c-0.1-0.12-2.46-3.03-6.34-0.25c0,0,0,0,0,0c-1.34,2.1-2.97,4.3-4.95,6.5l3.39,0.04 c0.93-2.69,2.77-4.53,4.87-4.53c3.05,0,5.53,3.85,5.53,8.58c0,4.73-2.48,8.58-5.53,8.58c-3.05,0-5.53-3.85-5.53-8.58 c0-1.06,0.13-2.07,0.36-3.01l-4.06-0.05c-4.65,4.86-11.08,9.6-19.96,12.99c0,0,0.59,15.32,9.53,19.77c0,0-10.35,0-24.59,0 c2.23,1.36,5.19,3.89,7.73,8.52c4.59,8.36,6.56,13.11,6.57,13.16L164.3,131c0.13,0.26,0.03,0.57-0.23,0.7 c-0.08,0.04-0.16,0.06-0.24,0.06c-0.19,0-0.38-0.11-0.47-0.29l-20.23-40.1c-0.04-0.08-1.98-4.79-6.54-13.09 C133.37,72.41,129.39,70.07,127.42,69.22z M170.07,36.04c0,0.09-0.03,0.16-0.07,0.24c-0.29,0.99-0.45,2.1-0.45,3.28 c0,4.15,2.01,7.53,4.48,7.53c2.47,0,4.49-3.38,4.49-7.53c0-4.15-2.01-7.53-4.49-7.53C172.31,32.02,170.82,33.65,170.07,36.04z M138.16,40.26c0,6.03,6.65,6.76,6.65,6.76v-13C144.81,34.02,138.16,34.23,138.16,40.26z M258.74,108.54 c0.08,0.05,0.17,0.07,0.26,0.07c0.05,0,0.11-0.01,0.16-0.03c0.06-0.02,6.35-2.03,8.43-2.63c0.74-0.21,3.19-0.8,3.66,0.79 c0.08,0.28,0.37,0.44,0.65,0.35c0.28-0.08,0.44-0.37,0.35-0.65c-0.5-1.7-2.35-2.26-4.96-1.5c-1.87,0.55-7.09,2.21-8.23,2.57 c-0.6-0.35-2.59-1.55-6.64-4.18c-5.06-3.29-9.54-3.76-9.73-3.78c-0.28-0.03-0.54,0.18-0.57,0.47c-0.03,0.29,0.18,0.54,0.47,0.57 c0.04,0,4.41,0.46,9.26,3.61C256.82,107.44,258.66,108.5,258.74,108.54z M141.16,260.99c0,0.29,0.23,0.52,0.52,0.52h31.45 c0.29,0,0.52-0.23,0.52-0.52s-0.23-0.52-0.52-0.52h-31.45C141.39,260.47,141.16,260.7,141.16,260.99z M148.58,204.85l5.65-5.89 c0.2-0.21,0.19-0.54-0.02-0.74c-0.21-0.2-0.54-0.19-0.74,0.02l-5.65,5.89c-0.2,0.21-0.19,0.54,0.02,0.74 c0.1,0.1,0.23,0.15,0.36,0.15C148.34,205.01,148.48,204.96,148.58,204.85z M103.56,313.17c0,1.75-1.42,3.17-3.17,3.17 c-1.75,0-3.17-1.42-3.17-3.17s1.42-3.17,3.17-3.17C102.14,310,103.56,311.42,103.56,313.17z M102.52,313.17 c0-1.17-0.95-2.12-2.12-2.12c-1.17,0-2.12,0.95-2.12,2.12c0,1.17,0.95,2.12,2.12,2.12C101.57,315.28,102.52,314.33,102.52,313.17z M16.87,313.17c0,1.75-1.42,3.17-3.17,3.17s-3.17-1.42-3.17-3.17S11.96,310,13.7,310S16.87,311.42,16.87,313.17z M15.82,313.17 c0-1.17-0.95-2.12-2.12-2.12s-2.12,0.95-2.12,2.12c0,1.17,0.95,2.12,2.12,2.12S15.82,314.33,15.82,313.17z" fill="#27407E"/></g></svg>