<?xml version="1.0" encoding="UTF-8"?><svg xmlns="http://www.w3.org/2000/svg" xmlns:xlink="http://www.w3.org/1999/xlink" height="467.0" preserveAspectRatio="xMidYMid meet" version="1.0" viewBox="-0.2 -0.5 257.3 467.0" width="257.3" zoomAndPan="magnify"><g id="change1_3"><path d="M210.3,186.5c-1.8,0-3.7-0.3-5.4-0.9c-1.1-0.4-2.1-0.8-3.1-1.3c-1.4-0.6-2.6-1.2-4-1.6c-2-0.5-4.1-0.5-6.3-0.4 c-0.9,0-1.8,0-2.6,0c-5-0.1-9.9-1.4-14.5-3c-4.4,0.4-8.7,0.4-12.3-2.1c-1.2-0.8-2.2-1.9-3.2-2.9l-17.5-18.7 c-1.2,0.1-2.6,1.2-3.8,2.1l-0.5,0.4c-2.9,2.2-6.6,3-10.2,2.3c-2-0.4-3.8-1.4-5.6-2.3c-1.1-0.6-2.2-1.1-3.4-1.6 c-0.2-0.1-0.4-0.2-0.6-0.2c-0.7-0.2-1.4-0.5-2.1-0.9c-0.8-0.5-1.6-1.1-2.4-2.1c-1.9-2.2-3.1-4.9-4.4-7.4c-1.1-2.3-2.2-4.7-3.8-6.7 c-0.3-0.4-0.7-0.8-1-1.2c-0.6-0.6-1.1-1.3-1.6-2c-0.8-1.2-1.4-2.6-2-3.9c-0.3-0.8-0.7-1.6-0.8-2.6c-0.1-1.6,0.6-3.3,2.2-5 c2.8-3,6.7-4.7,10.2-4.5c4.2,0.3,7.7,3.3,8.3,7.1c0.1,0.9,0,1.6-0.5,2.1c-0.3,0.3-0.8,0.5-1.2,0.6c-2.2,0.5-4.7,0.4-6.8-0.4 c-0.3-0.1-0.7-0.2-1-0.4c-0.7-0.3-1.3-0.5-1.9-0.6c-0.4-0.1-2.3-0.4-2.8,1.2c-0.3,0.8,0.1,1.8,0.8,2.4c1.4,1.2,3.5,1.2,5.4,1.1 c1,0,2.3-0.1,3.4,0.5c0.6,0.3,1.1,0.9,1.5,1.3c1.3,1.5,2.2,3.3,2.6,5.3c0,0.2,0.1,0.4,0.1,0.5c0,0,0,0.1,0.2,0 c0.3-0.1,0.7-0.5,0.7-0.9c0.1-0.6-0.1-1.4-0.3-2.1c-0.3-1.3-0.6-2.7,0.3-3.8c0.7-0.8,1.9-1.2,3.3-1c1.6,0.2,3,0.9,3.9,2 c1,1.2,1.3,3,0.8,4.4c-0.1,0.2-0.1,0.3-0.2,0.4c-0.3,0.6-0.4,0.9,0,1.4c0.3,0.4,0.8,0.7,1.3,0.9c0.3,0.1,0.6,0.1,0.9,0.2 c1.2,0.3,2.5,0.6,3.5,1.4c1.1,0.9,1.8,2.7,0.9,4.1c-0.4,0.6-0.9,0.9-1.4,1.2c-3,1.6-6.5,1.9-9.7,1c-3.2-1-6-3.2-7.6-6.2 c-0.1-0.2-0.2-0.4-0.3-0.6c-0.3-0.7-0.7-1.3-1.1-1.8c-0.5-0.5-1.4-0.8-1.9-0.4c-0.3,0.2-0.4,0.6-0.5,0.8c-0.6,2.1,1.1,4.2,2.8,5.4 c1.7,1.2,3.6,2,5.5,2.8c1.6,0.7,3.2,1.4,4.7,2.3c0.7,0.4,1.3,0.8,1.9,1.2c1.7,1.1,3.2,2.2,5.2,2.6c0.7,0.1,1.3,0.1,1.9,0 c3-0.7,3.6-3.7,3.9-6.8c0.2-2.3,0.3-4.7-0.5-7c-0.8-2.3-2.5-4.3-4.3-6c-2.1-2.1-4.2-4-6.4-5.6l-0.3-0.2c-1.8-1.4-3.9-2.9-4.4-5.3 c-0.5-1.9,0.2-3.7,0.8-5.5c0.4-1.2,0.8-2.4,0.9-3.6c0.1-2.1-0.9-4.2-2-6.3c-1.3-2.5-2.6-5.1-1.9-7.9l1.3,0.3 c-0.6,2.3,0.6,4.6,1.8,7c1.1,2.2,2.3,4.5,2.1,6.9c-0.1,1.4-0.5,2.7-1,3.9c-0.6,1.7-1.1,3.2-0.8,4.8c0.5,1.9,2.2,3.2,4,4.5l0.3,0.2 c2.2,1.6,4.4,3.6,6.5,5.7c1.9,1.9,3.7,3.9,4.6,6.5c0.8,2.4,0.7,5,0.6,7.5c-0.2,2.1-0.5,7-4.9,8c-0.8,0.2-1.6,0.2-2.4,0 c-2.2-0.4-4-1.6-5.7-2.8c-0.6-0.4-1.2-0.8-1.8-1.2c-1.4-0.9-3-1.5-4.6-2.2c-2-0.8-4-1.7-5.8-3c-2-1.4-4.1-4.1-3.3-6.8 c0.2-0.6,0.5-1.2,1-1.5c1.1-0.9,2.7-0.4,3.6,0.5c0.6,0.6,1,1.4,1.4,2.1c0.1,0.2,0.2,0.4,0.3,0.6c1.4,2.7,3.9,4.7,6.8,5.6 c2.9,0.9,6.1,0.6,8.7-0.9c0.4-0.2,0.8-0.4,1-0.7c0.5-0.7,0.1-1.8-0.6-2.3c-0.8-0.7-1.9-0.9-3-1.2c-0.3-0.1-0.6-0.1-0.9-0.2 c-0.8-0.2-1.6-0.7-2.1-1.4c-0.9-1.2-0.4-2.2-0.1-2.8c0.1-0.1,0.1-0.2,0.2-0.4c0.4-0.9,0.2-2.1-0.6-3c-0.7-0.8-1.8-1.4-3-1.5 c-0.4-0.1-1.6-0.1-2.1,0.6c-0.5,0.6-0.3,1.6-0.1,2.7c0.2,0.8,0.4,1.7,0.3,2.6c-0.1,0.9-0.8,1.7-1.7,2c-0.6,0.2-1.2,0-1.5-0.5 c-0.2-0.3-0.3-0.7-0.4-0.9c-0.4-1.8-1.2-3.4-2.4-4.8c-0.3-0.4-0.7-0.7-1.1-1c-0.7-0.4-1.6-0.4-2.7-0.3c-2,0.1-4.5,0.2-6.3-1.4 c-1.1-1-1.6-2.5-1.2-3.8c0.6-1.9,2.6-2.5,4.3-2.1c0.8,0.1,1.5,0.4,2.2,0.7c0.3,0.1,0.6,0.2,0.9,0.4c1.9,0.7,4.1,0.8,6.1,0.3 c0.2-0.1,0.5-0.1,0.6-0.2c0.1-0.1,0.2-0.5,0.1-1c-0.5-3.1-3.6-5.8-7.1-6c-3.2-0.2-6.6,1.3-9.2,4.1c-1.4,1.5-2,2.8-1.9,4 c0.1,0.7,0.4,1.5,0.7,2.2c0.5,1.3,1.1,2.5,1.9,3.7c0.5,0.7,1,1.3,1.5,1.9c0.4,0.4,0.7,0.8,1,1.2c1.7,2.1,2.9,4.6,4,7 c1.2,2.5,2.4,5.1,4.2,7.1c0.7,0.8,1.4,1.4,2,1.8c0.6,0.3,1.2,0.6,1.8,0.8c0.2,0.1,0.4,0.2,0.7,0.2c1.2,0.5,2.4,1.1,3.5,1.6 c1.8,0.9,3.5,1.8,5.3,2.2c3.1,0.7,6.5-0.1,9.1-2l0.5-0.4c1.4-1.1,3-2.4,4.8-2.4c0,0,0,0,0.1,0l0.3,0l17.9,19.1c0.9,1,1.9,2,2.9,2.7 c2.4,1.7,5.4,2.1,8.4,2.1c-0.8-0.3-1.6-0.6-2.4-0.9c-0.6-0.2-2.2-0.8-2.3-2.2c-0.1-1,0.5-1.8,1.7-2.5c2.7-1.5,6.2-1.9,10.3-1.1 c1.8,0.3,3.6,0.8,5.3,1.3c1.5,0.4,3,0.8,4.5,1.2c3.6,0.7,7.4,0.9,11.1,1l23,0.7c2.5,0.1,5,0.2,7.3-0.6c1.7-0.5,3.3-1.4,5-2.4 c1-0.6,2-1.2,3.1-1.7c3.8-1.8,7.2-3,10.1-3.5l0.1,0l0.1,0c0.4,0.1,0.9-0.3,1.1-0.6c0.3-0.5,0.4-1.2,0.6-1.8l1.3-7.1 c0.4-2.4,0.7-4.7-0.4-6.4c-0.4-0.5-0.9-1-1.4-1.5c-0.7-0.7-1.4-1.3-1.9-2.3c-0.2-0.5-0.4-1-0.5-1.5c-0.2-0.8-0.4-1.6-1-2 c-0.2-0.1-0.3-0.2-0.5-0.2c-1.3,1.8-3,3.2-4.6,4.7c-1.6,1.4-3.5,3.1-5.8,3.9c-4.3,1.5-8.9-0.3-13.2-2.3l-2.5-1.2 c-0.8-0.3-1.9-0.9-2-2.3c-0.1,0.1-0.2,0.2-0.3,0.3c-0.7,0.6-1.6,1.2-2.6,1.2c-0.7,0-1.4-0.4-1.8-0.9c-0.3-0.5-0.4-1-0.2-1.5 c0.2-0.6,0.8-1,1.2-1.3l0.1-0.1c2.5-1.6,3.6-4.6,4.7-7.6l0.2-0.5c1.1-3.1,2.9-6.8,6.5-8c0.5-0.2,1.1-0.3,1.6-0.4 c0.9-0.2,1.8-0.3,2.4-0.8c0.2-0.1,0.3-0.3,0.5-0.4c0.1-0.1,0.1-0.1,0.2-0.2c-1.4-0.6-1.7-2-2-3.3c-0.1-0.5-0.2-0.9-0.3-1.3 c-0.2-0.5-0.5-0.9-0.7-1.4c-0.3-0.5-0.6-0.9-0.8-1.5c-0.1-0.2-0.2-0.5-0.2-0.8c-0.5,0.1-1,0.1-1.4,0c-1.4-0.4-1.9-1.6-2.4-2.7 c-0.3-0.8-0.6-1.5-1.2-1.9c-0.8-0.6-2.1-0.1-2.8,0.6c-0.8,0.9-1.2,2.2-1.5,3.3c-0.1,0.2-0.1,0.5-0.1,0.6c0.1-0.2,0.2-0.5,0.4-0.7 c0.5-0.8,1.2-1.7,2-1.5c0.4,0.1,0.6,0.3,0.7,0.7c0.2,0.9-0.8,2.3-1.2,2.6c-0.3,0.3-0.7,0.4-1.1,0.5c-0.3,0.7-0.6,1.5-1.1,2.1 c-1.3,1.7-3.7,2.4-5.8,1.8c-2-0.6-3.6-2.5-3.9-4.6c-0.2-1.7,0.3-3.3,0.8-4.9c0.2-0.6,0.4-1.2,0.5-1.8c0.1-0.4,0.2-0.8,0.3-1.2 c0.2-0.9,0.3-1.7,0.7-2.6c0.7-1.6,1.9-2.7,3.2-2.9c1-0.2,1.9,0.2,2.8,0.4l0.4,0.1c1,0.3,2.4,0.6,3.8,0.5c-1.1-1.4-1-3.3-0.3-4.9 c0.6-1.3,1.6-2.3,2.7-2.6c1.4-0.5,3,0.1,3.7,1.3c0.5,0.9,0.4,1.8,0.3,2.5c-0.2,1-0.7,2-1.5,2.8c1.3,0.4,2.5,2.1,2.9,3.3 c0.6,1.7,0.4,3.5,0.2,5.1c-0.1,0.5-0.2,1.1-0.2,1.7c0.2-0.3,0.4-0.6,0.6-0.9c0.2-0.3,0.4-0.7,0.7-1c0.2-0.2,0.3-0.4,0.5-0.6 c0.3-1.1,0.7-2.2,1.2-3.2c0.2-0.4,0.4-0.8,0.8-1c0.4-0.3,0.9-0.4,1.5-0.2c0.6,0.2,1.2,0.6,1.5,1.2c0.4,0.9,0.4,1.8,0.3,2.7 c-0.1,0.7-0.2,1.5,0.1,2c0,0,0,0,0,0c0.1-0.1,0.2-0.3,0.3-0.6c0.6-2.1,1.1-4,0.4-5.7c-0.6-1.5-1.8-2.5-3.2-3.6 c-0.4-0.3-0.8-0.6-1.2-0.9c-1.5-1.3-2.7-2.8-3.9-4.3c-0.8-1-1.6-2-2.4-3.1c-2-2.5-3.8-4.9-6.1-7.1c-1.8-1.7-3.7-3.5-5.1-5.7 c-1.1-1.7-2.5-4.4-2.3-7.4c0-0.8,0.2-1.6,0.4-2.4c0.1-0.5,0.2-1,0.3-1.5c0.1-0.9,0.2-1.9,0.2-2.9c0.1-2.7,0.2-5.4,2-7.4 c-0.9-0.2-1.6-0.9-1.9-1.7c-0.6-1.6,0.6-2.7,1.1-3.3c2.3-2.3,5-4.3,7.9-5.9c1-0.5,2.1-1,3.2-1c1.2,0,2.6,0.5,3.2,1.9 c0.3,0.7,0.3,1.4,0,2.2c0.6,0.1,1.1,0.3,1.6,0.6c1,0.6,1.6,1.6,2.1,2.4c1.5,2.3,3.2,5,3.4,8c0.1,1.4-0.2,2.5-0.8,3.3 c-0.4,0.5-1,0.9-1.6,1.2c1.8,0.3,3.4,1,4.1,2.3l-1,0.5c0.3,0.5,0.4,1,0.4,1.5c0,1.8-1.5,3.2-2.8,4.1c-3.3,2.4-6.8,4.6-10.4,6.4 c-1.5,0.7-2.7,0.7-3.3-0.2c-0.3-0.4-0.4-1-0.4-1.4c-0.1-1.5-0.3-3.6,0.4-5.3c0.1-0.8,0.4-1.7,0.8-2.4c0.8-1.3,2-2.5,3.9-3.7 c0.1-0.1,0.2-0.1,0.3-0.2c0.1-0.4,0.3-0.8,0.6-1.1c0.9-0.9,2.2-0.8,3-0.7l0.1,0c0,0,0.1,0,0.1,0c0.1,0,0.1,0,0.2,0 c0.5-0.2,1-0.3,1.5-0.5l0.3-0.1c1.1-0.3,2.2-0.6,2.8-1.4c0.4-0.6,0.6-1.4,0.5-2.4c-0.2-2.7-1.8-5.2-3.2-7.4c-0.5-0.7-1-1.5-1.7-2 c-0.5-0.3-1.1-0.4-1.6-0.4c0,0,0,0,0,0c-0.2,0.3-0.5,0.6-0.8,0.9c-1.7,1.7-3.7,3-5.9,3.9c-0.4,0.2-0.8,0.3-1.3,0.5 c-0.6,0.2-1.1,0.4-1.6,0.6c-0.3,0.2-0.6,0.3-0.9,0.4c-0.4,0.3-0.9,0.6-1.2,0.9c-1.6,1.6-1.7,4.1-1.8,6.7c0,1-0.1,2-0.2,3 c-0.1,0.5-0.2,1-0.3,1.5c-0.1,0.8-0.3,1.5-0.3,2.2c-0.2,2.7,1,5.1,2.1,6.7c1.4,2,3.2,3.8,4.9,5.5c2.3,2.3,4.3,4.8,6.2,7.2 c0.8,1,1.6,2,2.4,3c1.2,1.4,2.4,2.9,3.8,4.1c0.4,0.3,0.7,0.6,1.1,0.9c1.4,1.2,2.9,2.3,3.6,4.1c0.8,2.2,0.1,4.7-0.4,6.5 c-0.2,0.5-0.5,1.2-1.1,1.5c-0.3,0.1-0.7,0.1-1-0.1c-0.2-0.1-0.4-0.4-0.6-0.7c-0.4-0.9-0.3-1.9-0.2-2.7c0.1-0.8,0.1-1.5-0.1-2 c-0.1-0.2-0.4-0.5-0.7-0.5c-0.2,0-0.3,0-0.4,0c-0.1,0.1-0.3,0.3-0.4,0.5c-0.2,0.5-0.4,0.9-0.6,1.4c0.4,0,0.7,0.1,1,0.3 c0.5,0.4,0.7,1,0.5,1.6c-0.2,0.4-0.4,0.8-0.7,1.2c-0.5,0.5-1.2,0.6-1.9,0.3c-0.2-0.1-0.3-0.2-0.5-0.4c-0.1,0.2-0.2,0.3-0.3,0.5 c-0.5,0.7-0.9,1.5-1.7,2c0.1,0.3,0.1,0.6,0.3,0.9c0.2,0.4,0.4,0.9,0.7,1.3c0.3,0.5,0.6,1,0.9,1.6c0.2,0.5,0.3,1,0.4,1.5 c0.3,1.3,0.5,2.1,1.3,2.4c0.5,0.2,1-0.1,1.3-0.5c1.6-2.2,5-3.8,7.6-2.3c0.8,0.4,1.4,1.1,2,1.7l6.9,7.4c0.9,1,1.1,2,0.4,2.7 c-0.3,0.3-0.7,0.4-1.1,0.4c-0.3,0-0.7,0-1,0c0.2,0,0.4,0.1,0.7,0.2c0.8,0.5,0.8,1.4,0.8,1.7c0.2,2.4-0.7,4.5-1.7,6 c0.2,0.1,0.4,0.2,0.5,0.3c0.9,0.7,1.2,1.7,1.4,2.7c0.1,0.5,0.2,0.9,0.4,1.3c0.3,0.7,0.9,1.3,1.6,1.9c0.6,0.5,1.1,1.1,1.6,1.7 c1.4,2.1,1,4.8,0.6,7.3l-1.3,7.1c-0.1,0.7-0.3,1.6-0.8,2.3c-0.5,0.7-1.4,1.3-2.3,1.2c-2.8,0.5-6,1.7-9.6,3.4c-1,0.5-2,1.1-3,1.7 c-1.6,1-3.3,2-5.2,2.5c-2.6,0.8-5.2,0.7-7.8,0.6l-23-0.7c-3.7-0.1-7.6-0.2-11.3-1c-1.6-0.3-3.1-0.8-4.6-1.2c-1.7-0.5-3.4-1-5.2-1.3 c-3.8-0.7-7-0.4-9.5,1c-0.3,0.1-1.1,0.7-1.1,1.2c0,0.4,0.5,0.8,1.5,1.1c1.7,0.6,3.5,1.3,5.3,1.9c0.8-0.1,1.6-0.2,2.4-0.3 c0.8-0.1,1.6-0.2,2.4-0.3c6.6-0.6,13.3-0.1,19.8,0.5l15,1.3c1.2,0.1,2.7,0.2,3.8,1.2c0.7,0.6,1.1,1.5,1,2.4 c-0.2,1.6-1.6,2.1-2.3,2.4C214.5,186.1,212.4,186.5,210.3,186.5z M193.3,181c1.6,0,3.2,0.1,4.7,0.5c1.5,0.4,2.9,1,4.3,1.6 c1,0.4,2,0.9,3,1.3c3.4,1.2,7.3,1.1,10.7-0.2c1-0.4,1.4-0.8,1.4-1.3c0-0.4-0.2-0.9-0.6-1.3c-0.8-0.7-2-0.8-3.1-0.9l-15-1.3 c-6.4-0.5-13.1-1.1-19.6-0.5c-0.6,0.1-1.2,0.1-1.9,0.2c3.7,1.1,7.5,1.9,11.4,2c0.9,0,1.7,0,2.6,0C192,181,192.6,181,193.3,181z M226.9,139.9c0,0.7,0,1.3-0.3,2c-0.5,1.2-1.7,2-3.5,2.3c-0.3,0.1-0.6,0.1-0.9,0.1c-1.1,0.2-2.2,0.3-2.9,1 c-0.4,0.4-0.7,0.9-0.6,1.4c0,0.7,0.5,0.9,1.3,1.3l2.5,1.2c4.1,1.9,8.4,3.6,12.2,2.3c2-0.7,3.8-2.3,5.3-3.6c1.3-1.1,2.6-2.3,3.7-3.6 c-0.2,0-0.5,0.1-0.7,0.2c-0.2,0-0.4,0.1-0.6,0.1c-1,0.2-2.4,0.1-3.3-0.6c-0.5-0.4-0.8-0.9-0.8-1.6c-0.1-0.9,0.5-1.6,0.8-2.1 c1.7-2.4,3.8-4.9,6.8-5.1c-0.2,0-0.4,0-0.6,0c-1.2,0-2.4-0.1-3.4,0.3c-0.7,0.3-1.3,0.8-2,1.3c-0.4,0.3-0.7,0.6-1.1,0.9 c-2.4,1.6-5.4,2-8.2,2.1l-0.5,0C229,139.7,228,139.7,226.9,139.9z M234,127c-0.2,0-0.4,0-0.5,0c-0.9,0-1.7,0.1-2.4,0.5 c-0.2,0.1-0.4,0.3-0.6,0.4c-0.2,0.2-0.4,0.3-0.6,0.5c-0.9,0.6-1.9,0.8-2.9,1c-0.5,0.1-1,0.2-1.5,0.3c-3,1-4.6,4.4-5.6,7.2l-0.2,0.5 c-1.1,3-2.4,6.5-5.3,8.3l-0.1,0.1c-0.3,0.2-0.6,0.4-0.7,0.6c0,0.1,0,0.2,0.1,0.3c0.2,0.2,0.4,0.4,0.7,0.4c0.6,0,1.2-0.5,1.8-0.9 c1.5-1.2,3-2.5,4.3-3.8l0.3-0.3c0.9-0.9,1.9-1.8,3.1-2.5c0.5-0.3,1.1-0.5,1.7-0.7c0-0.4,0-0.8,0-1.2c0.4-3.1,4-4.4,5.6-4.7 c0.4-0.1,0.9-0.2,1.3-0.3c1.9-0.4,3.6-0.8,4.9-2c0.3-0.3,0.5-0.6,0.6-1c0.3-0.9-0.4-1.8-1.2-2.2C235.9,127,234.9,127,234,127z M246.1,136.3c0,0-0.1,0-0.1,0c-2.5,0.2-4.3,2.5-5.9,4.6c-0.3,0.5-0.6,0.9-0.6,1.3c0,0.2,0.1,0.4,0.3,0.6c0.5,0.4,1.4,0.5,2.3,0.3 c0.2,0,0.4-0.1,0.6-0.1c0.7-0.2,1.4-0.3,2.1-0.3c0.9-1.4,1.9-3.4,1.8-5.7c0-0.5-0.2-0.6-0.2-0.7 C246.3,136.3,246.2,136.3,246.1,136.3z M225.7,140.2c-0.4,0.1-0.8,0.3-1.2,0.5c-1,0.5-1.9,1.4-2.8,2.3l-0.2,0.2 c0.2,0,0.3,0,0.5-0.1c0.3,0,0.6-0.1,0.9-0.1c0.9-0.2,2.2-0.6,2.6-1.5C225.6,141,225.7,140.6,225.7,140.2z M234,125.7 c1.1,0,2.3,0.1,3.3,0.6c1.2,0.6,2.3,2.2,1.9,3.7c-0.2,0.5-0.5,1-1,1.5c-1.5,1.4-3.5,1.9-5.5,2.3c-0.4,0.1-0.9,0.2-1.3,0.3 c-1,0.2-4.2,1.2-4.6,3.6c0,0.3,0,0.5,0,0.8c1-0.2,2.1-0.2,3.1-0.3l0.5,0c2.7-0.1,5.4-0.4,7.6-1.9c0.4-0.2,0.7-0.5,1.1-0.8 c0.7-0.6,1.4-1.1,2.3-1.5c1.3-0.5,2.6-0.5,3.9-0.4c0.7,0,1.3,0,2,0c0.3,0,0.3-0.1,0.3-0.1c0-0.1-0.1-0.4-0.4-0.8l-6.9-7.4 c-0.5-0.5-1-1.1-1.6-1.5c-1.9-1-4.4,0.1-5.8,1.8c0.2,0,0.4,0,0.5,0C233.6,125.7,233.8,125.7,234,125.7z M212.4,107.2 c-0.1,0-0.2,0-0.4,0c-1.1,0.2-1.9,1.2-2.2,2.1c-0.3,0.7-0.5,1.5-0.6,2.4c-0.1,0.4-0.2,0.9-0.3,1.3c-0.2,0.6-0.4,1.2-0.6,1.8 c-0.5,1.5-0.9,2.9-0.7,4.3c0.2,1.6,1.5,3.1,3,3.6c1.6,0.5,3.4-0.1,4.4-1.4c0.3-0.4,0.6-1,0.8-1.6c-0.4-0.2-0.6-0.5-0.7-0.9 c-0.1-0.5,0-1,0.1-1.3c0.4-1.3,0.8-2.7,1.8-3.9c1.1-1.1,3-1.8,4.4-0.8c0.9,0.6,1.3,1.6,1.7,2.5c0.5,1.1,0.8,1.7,1.5,1.9 c0.3,0.1,0.6,0,0.9-0.1c-0.1-1.1,0.1-2.1,0.2-3c0.2-1.4,0.4-3.1-0.1-4.4c-0.4-1.1-1.5-2.4-2.1-2.5c-0.1,0-0.2,0-0.3,0.1 c-0.8,0.8-1.9,1-2.9,0.7c-1.7,0.4-3.7,0.3-5.7-0.3l-0.4-0.1C213.6,107.4,213,107.2,212.4,107.2z M229.9,114.1 C229.9,114.2,229.9,114.2,229.9,114.1c-0.1,0.3,0.1,0.4,0.1,0.4c0.1,0,0.2,0.1,0.3,0c0.2-0.2,0.4-0.5,0.5-0.8c0,0,0-0.1-0.1-0.2 c0,0-0.1-0.1-0.2,0C230.3,113.7,230.1,113.9,229.9,114.1z M222.5,100.5c-0.2,0-0.4,0-0.7,0.1c-0.8,0.3-1.5,1-2,2 c-0.7,1.4-0.7,3.2,0.7,4c0,0,0.1,0,0.1,0c1.8-0.6,3.2-2.1,3.5-3.7c0.1-0.4,0.1-1.1-0.2-1.6C223.7,100.8,223.1,100.5,222.5,100.5z M219.4,82c0,0.5,0.1,1,0.1,1.5c0,0.3,0.1,0.5,0.2,0.7c0.2,0.3,1,0.1,1.7-0.2c0.2-0.1,0.4-0.2,0.6-0.3c-0.6-0.1-1.3-0.4-1.8-0.9 C219.9,82.5,219.6,82.3,219.4,82z M219.9,78.6c-0.1,1.2,0.1,2.4,1.1,3.2c0.4,0.4,0.9,0.6,1.4,0.6c0.7,0.1,1.4-0.2,1.9-0.6 c0.7-0.6,1.1-1.7,1-2.8c-0.1-1.3-0.6-2.6-1.1-3.9l-0.2-0.4c-0.1-0.1-0.1-0.3-0.2-0.5l-2.3,2.3c-0.5,0.5-1.1,1.1-1.4,1.7 C220,78.3,220,78.4,219.9,78.6z M224.9,73.1c0.1,0.3,0.2,0.7,0.3,1.1l0.2,0.4c0.6,1.4,1.2,2.8,1.2,4.3c0,0.8-0.1,1.6-0.4,2.3 c1.8-1.1,3.6-2.3,5.3-3.6c1.1-0.8,2.3-1.8,2.2-3.1c0-1-0.9-1.8-1.7-2.2c-1-0.5-2.2-0.6-3.3-0.7l-1.3-0.1c-0.6,0.2-1.1,0.5-1.6,0.7 C225.6,72.6,225.2,72.8,224.9,73.1z M223.8,51.9C223.7,51.9,223.7,51.9,223.8,51.9c-0.9,0-1.7,0.4-2.7,0.9 c-2.8,1.5-5.3,3.4-7.6,5.6c-0.7,0.7-1.1,1.3-0.8,1.9c0.2,0.6,0.8,1,1.5,0.9c0.3,0,0.7-0.1,0.9-0.2c0.3-0.1,0.5-0.3,0.8-0.4 c0.6-0.4,1.2-1,1.8-1.6c0.2-0.2,0.4-0.5,0.7-0.7c1.4-1.3,2.9-2.4,4.7-3.1c0.7-0.3,1.5-0.6,2.4-0.7c0.3-0.5,0.5-1.1,0.3-1.7 C225.4,52.3,224.5,51.9,223.8,51.9z M223.9,56.4c-0.1,0-0.3,0.1-0.4,0.2c-1.6,0.7-3,1.6-4.3,2.9c0,0,0,0,0,0 C220.9,58.7,222.5,57.7,223.9,56.4z" fill="inherit"/></g><g id="change1_7"><path d="M158.5,102.6c-0.4,0-0.8-0.1-1.1-0.2c-2.2-0.8-2.5-3.6-2.8-5.7c-0.2-2.4-0.9-4.6-1.8-6.7c-0.1-0.3-0.3-0.5-0.4-0.8 c-0.7-1.5-1.5-3.1-1.3-4.9c0.2-2.4,2.1-4.1,4-5.3c-0.2,0-0.5,0-0.7,0c-1,0-2.1,0.1-3.1,0.3c-0.1,0.2-0.2,0.4-0.3,0.6 c-0.8,1.3-1.8,2.5-2.8,3.6c-0.2,0.2-0.4,0.4-0.6,0.6c-0.5,3.9-1.8,7.8-3.7,11.2c-0.4,0.7-1.2,1.4-2,1.5c-0.5,0-0.8-0.2-1.1-0.5 c-0.5-0.7-0.2-1.6,0-2c1.2-3.1,2.5-6.4,4.6-9.2c0.4-0.5,0.8-1,1.2-1.5c0-0.1,0-0.1,0-0.2l0-0.2c0.1-0.9,0.2-1.8,0.6-2.6 c0.7-1.4,2-2.1,3.5-2.4c0,0,0-0.1,0-0.1c0.3-0.7,0.7-1.3,1.2-1.9c1.4-1.9,3.5-3,5.1-3.8c2.3-1.1,4.8-1.9,7.2-2.5 c0.8-0.2,1.6-0.4,2.5-0.5c1.7-0.3,3.6-0.7,5.2-1.3c0.7-0.3,1.4-0.6,2-0.9c0.8-0.4,1.6-0.7,2.5-1c3.1-1.1,6.4-1.1,9.5-0.1 c1.7,0.6,3.3,1.4,4.8,2.2c0.9,0.5,1.9,1,2.8,1.4c3.5,1.6,7.4,2.3,11.3,2c1.1-0.1,2.6-0.3,3.8-1c1.8-1.1,2.7-3.1,3.7-5.4l1.1,0.5 c-0.8,2-1.9,4.6-4.1,6c-1.4,0.9-3.1,1.1-4.3,1.2c-4.1,0.3-8.2-0.4-11.9-2.1c-1-0.5-2-1-2.9-1.5c-1.5-0.8-3-1.6-4.6-2.2 c-2.8-0.9-5.9-0.9-8.7,0.1c-0.8,0.3-1.6,0.6-2.4,1c-0.7,0.3-1.4,0.6-2.1,0.9c-1.8,0.7-3.6,1-5.4,1.4c-0.8,0.2-1.6,0.3-2.4,0.5 c-2.4,0.6-4.8,1.4-7,2.4c-1.5,0.7-3.5,1.8-4.7,3.4c-0.2,0.3-0.5,0.7-0.7,1.1c0.8-0.1,1.6-0.1,2.3-0.1c1,0,2.1-0.1,3.1-0.3 c3.5-2,7.2-3.8,10.8-5.6c3.7-1.8,7.8-3.8,12.2-4c0.9,0,2,0,2.9,0.5c1.1,0.6,1.7,1.8,1.5,2.8c-0.2,1-1.1,1.9-2.6,2.3 c-2.1,0.7-4.2,0.8-6.3,0.9c-1.4,0.1-2.9,0.1-4.3,0.4c-1.8,0.3-3.6,1-5.3,1.6c-0.8,0.3-1.7,0.6-2.5,0.9c-2,0.6-4,1.1-6.1,1.4 c-0.3,0.2-0.7,0.4-1,0.6c-2,1.2-4.2,2.8-4.5,5.1c-0.1,1.4,0.5,2.8,1.2,4.3c0.1,0.3,0.3,0.6,0.4,0.8c1,2.2,1.7,4.5,1.9,7 c0.2,2,0.4,4.2,2,4.8c1.4,0.5,2.9-0.6,4.3-1.8c0.2-0.1,0.3-0.3,0.5-0.4c0.1-0.2,0.2-0.4,0.3-0.6c0.9-1.4,2.1-2.5,3.5-3.4l-0.1-0.5 c0.3-0.1,0.7-0.1,1,0c0.8-0.5,1.7-0.9,2.4-1.3l0.9-0.5c0.5-0.4,1.1-0.7,1.6-1.1c1.5-1,3.3-2.2,5.4-2.8c4.4-1.4,9.2-0.1,13,1 c0.8,0.2,1.9,0.5,2.6,1.4c0.2,0.2,0.3,0.5,0.2,0.8c-0.1,0.5-0.6,1-1.4,1.5l-8.8,5.2c-1.3,0.8-2.6,1.5-4.1,1.9 c-1.3,0.4-2.7,0.4-4,0.5c-2.5,0.1-5,0.2-7.5,0.2c-1.2,0-2.6,0.1-3.9-0.5c-0.1-0.1-0.4-0.2-0.6-0.4c0,0,0,0,0,0 C161.5,101.5,160,102.6,158.5,102.6z M163.7,99.6c0,0,0.1,0.1,0.2,0.1c1,0.5,2.3,0.4,3.4,0.4c1.9,0,3.7-0.1,5.6-0.1 c-0.6-0.2-1.1-0.5-1.5-0.9c-0.6-0.5-1-1-1.5-1.5c-0.3-0.3-0.6-0.7-0.9-1c-0.2-0.2-0.5-0.4-0.8-0.6 C166.6,97.2,165.1,98.4,163.7,99.6z M181.3,89.5c1,0.7,1.5,2.1,1.4,3.8c-0.2,2.5-1.5,4.7-3.4,6c1.1-0.4,2.1-1,3.2-1.6l8.8-5.2 c0.4-0.2,0.7-0.5,0.8-0.6c-0.4-0.4-1.1-0.7-1.9-0.9C187.4,90.3,184.3,89.4,181.3,89.5z M169.1,95.2c0.2,0.1,0.4,0.3,0.6,0.5 c0.3,0.3,0.7,0.7,1,1c0.4,0.5,0.8,1,1.3,1.4c1.6,1.3,4.1,1.5,6,0.4c1.8-1,3.1-3.1,3.3-5.4c0-0.5,0.1-2-0.9-2.7 c-1.1-0.7-2.7-0.1-3.9,0.6l-5.5,2.8C170.4,94.3,169.8,94.7,169.1,95.2z M145.9,86c-1.9,2.6-3.1,5.7-4.3,8.7 c-0.2,0.4-0.2,0.7-0.1,0.8c0.3,0,0.9-0.4,1.1-0.8C144.2,92,145.3,89,145.9,86z M149.5,79.8c-0.6,0.3-1.1,0.7-1.5,1.4 c-0.1,0.3-0.2,0.5-0.3,0.8C148.4,81.3,149,80.6,149.5,79.8z M180.9,69.2c-0.2,0-0.3,0-0.5,0c-4.2,0.2-8.2,2.2-11.7,3.9 c-2.5,1.2-5.1,2.4-7.6,3.8c0.8-0.2,1.6-0.4,2.3-0.6c0.8-0.3,1.7-0.6,2.5-0.9c1.8-0.6,3.6-1.3,5.5-1.6c1.5-0.3,3-0.3,4.4-0.4 c2.1-0.1,4.1-0.2,6-0.8c0.6-0.2,1.6-0.6,1.8-1.4c0.1-0.6-0.4-1.3-0.9-1.5C182.1,69.2,181.5,69.2,180.9,69.2z" fill="inherit"/></g><g id="change1_4"><path d="M164.4,96.1c-0.2,0-0.5,0-0.7-0.2c-0.3-0.2-0.5-0.5-0.6-0.8c-0.1-0.4,0-0.9,0.2-1.3c0.4-0.5,1-0.8,1.4-1l11.6-5.3 c1.7-0.8,3.6-1.6,5.7-1.7c0.7,0,1.4,0,2.4,0.2c2.1,0.4,4.2,1,6.2,2c1,0.5,1.5,1.6,1.3,2.7l-1.2-0.2c0.1-0.6-0.1-1.1-0.6-1.4 c-1.9-0.9-3.8-1.5-5.9-1.9c-0.9-0.2-1.5-0.2-2.1-0.2c-1.8,0.1-3.5,0.8-5.2,1.6l-11.6,5.3c-0.3,0.2-0.7,0.3-0.9,0.6 c-0.1,0.1-0.1,0.2-0.1,0.3c0.1,0.1,0.4,0.1,0.5,0.1c0.2,0,0.4-0.1,0.7-0.2c0.6-0.2,1.4-0.5,2.2-0.1l-0.5,1.1 c-0.3-0.1-0.8,0-1.3,0.2c-0.3,0.1-0.6,0.2-0.8,0.2C164.8,96.1,164.6,96.1,164.4,96.1z" fill="inherit"/></g><g id="change1_1"><path d="M251.4,151.2l-1.2-0.2c0.9-5.1,1.9-10.5,1.7-15.8c-0.1-1.8-0.3-3.6-0.5-5.4c-0.2-1.5-0.4-3.1-0.4-4.7 c-0.2-3.4,0-6.8,0.2-10.1c0.4-6.3,0.7-12.3-1.4-18c-1.3-3.6-3.5-6.9-5.7-10l-9.7-14.1l1-0.7l9.7,14.1c2.2,3.2,4.5,6.5,5.8,10.3 c2.1,5.9,1.8,12.3,1.4,18.5c-0.2,3.3-0.4,6.7-0.2,10c0.1,1.5,0.3,3.1,0.4,4.6c0.2,1.8,0.4,3.6,0.5,5.5 C253.4,140.6,252.4,146,251.4,151.2z" fill="inherit"/></g><g id="change1_6"><path d="M121.3,102l-1.2-0.2c0.3-1.7,0.4-2.9,0.5-4.3c0.1-1.3,0.2-2.6,0.5-4.3c0.3-1.9,0.2-3.9,0-5.8c-0.9-0.2-1.8-0.7-2.3-1.6 c-0.5-0.9-0.5-2.1-0.4-3.1c0.2-2.2,0.7-4.5,1.3-6.7c0.1-1.5,0.3-3,0.8-4.5c0.7-1.8,1.9-3.6,3.6-4.7c0.7-1.1,1.3-2.3,1.7-3.5 c0.7-1.7,1.5-4.9,0.1-7.6c-0.1-0.2-0.2-0.3-0.3-0.5c-0.3-0.5-0.6-1-0.7-1.6c-0.3-1.3,0.2-2.8,1.6-4.3c2.9-3.4,6.9-5.5,10.8-7.6 c3-1.6,6-3.2,8.6-5.4c1.6-1.4,3-3,4.4-4.5c1-1.1,2-2.2,3-3.3c3.2-3.2,6.5-4.9,9.7-5.2c2.7-0.2,5.2,0.7,7.6,1.5 c1.1,0.4,2.2,0.7,3.3,1c3.7,0.9,7.6,0.8,11.4,0.7c1.3,0,2.6-0.1,3.9-0.1c0,0,0.1,0,0.1,0c6.8,0,11.5,1.4,14.9,4.3 c1.5,1.3,2.7,3,3.8,4.6c0.3,0.4,0.5,0.7,0.8,1.1c4.3,5.9,9.9,11,16.2,14.8l-0.6,1c-6.4-3.8-12.1-9.1-16.5-15.1 c-0.3-0.4-0.5-0.7-0.8-1.1c-1.1-1.5-2.2-3.1-3.6-4.4c-3.1-2.8-7.6-4.1-14.2-4c-1.3,0-2.6,0-3.8,0.1c-3.9,0.1-7.9,0.2-11.7-0.7 c-1.2-0.3-2.3-0.7-3.4-1c-2.5-0.8-4.8-1.6-7.2-1.4c-2.9,0.2-5.9,1.8-8.9,4.8c-1,1-2,2.1-3,3.2c-1.4,1.6-2.8,3.2-4.5,4.6 c-2.6,2.3-5.8,4-8.8,5.6c-3.9,2.1-7.7,4.1-10.5,7.3c-1.1,1.2-1.5,2.3-1.3,3.3c0.1,0.4,0.3,0.8,0.6,1.3c0.1,0.2,0.2,0.4,0.3,0.5 c1.6,3.2,0.7,6.8-0.1,8.6c-0.3,0.7-0.6,1.4-0.9,2c1.1-0.4,2.2-0.5,3.4-0.3c0.3,0,1.1,0.2,1.5,0.8c0.3,0.4,0.3,0.8,0.3,1.3 c0.1,5.4-1.2,10.8-3.8,15.6c-0.8,1.5-1.8,3.1-3.5,3.9c-0.5,0.3-1.1,0.4-1.7,0.5c0.2,2,0.3,4,0,6c-0.3,1.7-0.4,3-0.5,4.2 C121.7,99,121.6,100.3,121.3,102z M120.9,76.2c-0.1,2.1,0.3,4.2,0.6,6.2l0.2,1.1c0.2,0.9,0.3,1.8,0.5,2.8c0.5,0,0.9-0.1,1.3-0.3 c1.4-0.7,2.3-2.1,3-3.4c2.5-4.6,3.7-9.8,3.6-15c0-0.2,0-0.5-0.1-0.6c-0.1-0.1-0.3-0.2-0.7-0.3c-1.5-0.2-3,0.2-4.3,1.1 c-0.2,0.3-0.4,0.6-0.5,0.9c-0.5,0.8-1,1.7-1.4,2.6C122.1,72.7,121.4,74.4,120.9,76.2z M119.9,80.1c-0.2,0.9-0.3,1.8-0.4,2.7 c-0.1,0.8-0.1,1.7,0.3,2.4c0.2,0.4,0.6,0.7,1.1,0.9c-0.1-0.8-0.3-1.6-0.4-2.4l-0.2-1.1C120.2,81.8,120,80.9,119.9,80.1z" fill="inherit"/></g><g id="change1_5"><path d="M28.1,300.5l-1.2-0.3c0.6-2.1,0.8-4.6,0.9-7.3c0.3-4.4,0.6-9,2.8-12.7c0.7-1.2,1.5-2.2,2.4-3.3c-2.3-1.5-2.9-4.4-1.9-8.7 c2-8.8,6.5-16.9,10.8-24.7c2.8-5,5.6-10.1,7.8-15.4c3.6-8.7,5.6-18.2,7.5-27.4c2.3-11.1,4.7-22.7,10.1-32.9c1.2-2.4,2.6-4.7,4-6.9 c2.5-4.1,5.1-8.4,6.6-13c3.5-10.5,1.6-21.9-0.3-32.9c-1.9-11.2-3.8-22.8-0.2-33.6c1.6-4.7,4.2-9,6.7-13.1c1.2-1.9,2.3-3.9,3.4-5.8 c2.2-4,4-8.3,5.8-12.4c3.7-8.6,7.6-17.5,14.5-24.1c4.9-4.7,11-7.8,16.8-10.9c6.6-3.4,14.1-7.3,22.1-8.1c4.1-0.4,8.3,0,12.3,0.4 c2.3,0.2,4.7,0.5,7.1,0.5c-0.4-0.4-0.7-0.8-0.9-1.3C165,5.7,165,4.8,165.5,4c0.4-0.6,0.9-1.2,1.7-1.5c4.8-2.3,10.4-3,15.8-2 c1.5,0.3,2.6,1.5,2.7,3c0.1,1.5-0.9,2.9-2.3,3.3c-3.1,0.9-6.2,1.6-9.4,1.9c2,0.1,4.1-0.1,6.2-0.2c6.1-0.4,12.3-0.8,16.4,3.7 c1.2,1.3,2,2.9,2.8,4.5c0.3,0.7,0.7,1.3,1,2c2.3,4,5.8,7.2,9.3,10.3c1.1,1,2.3,2,3.3,3c5.9,5.6,8.8,11.1,8.6,16.5l0,1.2l-0.9-0.8 c-2.7-2.4-4.6-5.5-6.4-8.6c-0.6-1.1-1.3-2.1-1.9-3.2c-8.1-12.6-23-20.6-38-20.3c-6.5,0.1-12.9,1.7-19.1,3.2l-27.5,6.7 c-6.7,1.6-14.6,4.3-16.4,10.9c-0.8,3-0.1,6.1,0.5,9.2c0.1,0.5,0.2,1,0.3,1.5c0.6,2.9,0.9,5.8,1.1,8.7c2.2,3.3,0.4,7.6-1.1,11 c-3.6,8.4-4.9,17.6-3.7,26.6c0.2,1.4,0.4,2.8,0.7,4.1c1.1,6.1,2.1,12.4-1.5,18.2c-2.3,3.7-6.7,5.3-10.6,4.1 c-2.9-0.9-4.3-3.1-5.1-5.3c-0.3,0.9-0.7,1.8-1,2.6c-1.4,3.7-2.9,7.5-3.1,11.4c-0.5,10.9,8.4,19.1,16.9,26.9c1.6,1.5,3.3,3,4.8,4.5 c8.2,8,13.1,16.4,14.6,24.9c1.9,10.6-2.2,21.1-10,26.2c-4.4,2.8-9.6,3.9-14.8,5c-7.5,1.6-14.5,3-18.8,9.5c-1.4,2.1-3.8,3.2-6,2.7 c-1.4-0.3-2.4-0.9-3-2c-0.8-1.3-0.8-2.9-0.7-4.3c-6.3,4.3-12.4,9.3-16.5,15.7c-2.5,3.8-4.3,8.1-5.9,12.4c3.5-3,8.1-5.1,12.7-7.1 c1.4-0.6,2.8-1.3,4.2-1.9c6-2.9,11.6-6.9,17-10.8c8-5.8,16.3-11.7,26-14.1c2.5-0.6,5.1-1,7.6-1.3c3.9-0.5,7.9-1.1,11.5-2.6 c14.3-5.8,19-24.2,15.1-37.9c-0.3-0.9-0.5-1.8-0.8-2.7c-0.7-2.3-1.5-4.8-1.7-7.3c-0.1-1.6-0.1-3.3,0-4.9c0.1-1.7,0.2-3.4,0-5 c-0.6-5.3-3.8-9.9-7-14.3c-0.9-1.3-1.9-2.6-2.8-4c-6.6-10-10.1-18.2-9-30.4l1.2,0.1c-1.1,11.9,2.4,19.9,8.8,29.6 c0.9,1.3,1.8,2.6,2.7,3.9c3.3,4.6,6.6,9.3,7.2,14.9c0.2,1.7,0.1,3.5,0,5.2c-0.1,1.6-0.2,3.2,0,4.7c0.2,2.4,1,4.7,1.7,7 c0.3,0.9,0.6,1.8,0.8,2.7c4.1,14.2-0.8,33.3-15.8,39.4c-3.8,1.5-7.9,2.1-11.8,2.6c-2.5,0.3-5,0.7-7.5,1.3 c-9.5,2.3-17.7,8.2-25.6,13.9c-5.4,3.9-11.1,8-17.2,10.9c-1.4,0.7-2.8,1.3-4.2,1.9c-5.3,2.4-10.8,4.8-14.1,8.7c0,0,0,0.1,0,0.1 c-1.1,2.9-2.1,5.8-3.4,8.6c-0.1,0.7-0.1,1.5-0.1,2.2c-0.2,3.5-0.4,7.1-3,10.3c-1.7,2-4.3,2.7-6.6,1.8c-0.9,1.1-1.7,2.2-2.4,3.3 c-2.1,3.5-2.4,7.9-2.6,12.2C28.9,295.7,28.7,298.2,28.1,300.5z M35,276.4c1.7,0.4,3.6-0.2,4.8-1.6c2.2-2.6,2.5-5.6,2.7-8.8 c-1.1,2.2-2.5,4.4-4,6.4c-0.8,1.1-1.7,2.1-2.6,3C35.6,275.8,35.3,276.1,35,276.4z M150.6,7.9c-1.2,0-2.3,0-3.5,0.2 c-7.8,0.8-15.1,4.6-21.6,8c-5.8,3-11.8,6.1-16.6,10.7c-6.7,6.4-10.5,15.2-14.2,23.7c-1.8,4.2-3.7,8.5-5.9,12.5 c-1.1,2-2.3,4-3.4,5.9c-2.5,4.1-5.1,8.3-6.6,12.9c-3.6,10.5-1.7,21.9,0.2,33c1.9,11.2,3.8,22.7,0.2,33.5c-1.6,4.7-4.2,9-6.7,13.2 c-1.3,2.2-2.7,4.5-4,6.9c-5.3,10.1-7.7,21.6-10,32.6c-1.9,9.2-3.9,18.8-7.6,27.6c-2.2,5.4-5.1,10.5-7.9,15.5 c-4.3,7.7-8.7,15.7-10.7,24.4c-0.9,3.8-0.4,6.3,1.6,7.5c0.4-0.4,0.7-0.9,1.1-1.3c0.9-1,1.7-2,2.5-3c2.1-2.7,3.7-5.7,5.2-8.8 c0.1-1.2,0.3-2.5,0.6-3.7c0.6-2.1,1.6-3.9,3-5.5c1.9-5.2,3.9-10.5,6.9-15.1c4.5-7,11.1-12.2,17.8-16.7c0.1-0.4,0.2-0.8,0.3-1 c2.2-6.6,6.2-12.6,10-18.4c5.6-8.5,10.8-16.4,11.2-26c0-0.8,0-1.6,0-2.4c0-2.7,0-5.5,1.3-8c0.7-1.3,1.7-2.4,3-3.1 c3.4-1.7,5.7,0.1,7.2,1.7c8.2,8.6,6.5,22.7,0.7,31.8c-6.2,9.7-16.5,16.1-25.5,21.7c-2.4,1.5-4.8,3-7.3,4.6 c-0.4,1.9-0.3,3.5,0.3,4.6c0.5,0.8,1.2,1.2,2.2,1.4c1.8,0.3,3.7-0.5,4.8-2.2c4.5-6.9,12.1-8.5,19.5-10c5-1,10.2-2.1,14.3-4.8 c7.3-4.8,11.2-15,9.5-25c-1.5-8.3-6.3-16.4-14.3-24.3c-1.5-1.5-3.2-3-4.8-4.5c-8.7-8.1-17.8-16.4-17.3-27.9c0.2-4.1,1.7-8,3.1-11.8 c0.5-1.3,1-2.5,1.4-3.8c0-0.1,0.1-0.2,0.1-0.3c-0.1-0.3-0.1-0.6-0.2-0.8l-3-12.3c-1.4-5.8-3-12.3-1.8-18.6 c1.1-5.4,5.3-11.2,11.1-12.4c0.2-1.2,0.4-2.3,0.6-3.4c0.9-4.4,2.5-9.3,7.2-11.4c2.3-1,4.9-0.7,6.8,0.7c-0.2-2.4-0.5-4.7-1-7.1 c-0.1-0.5-0.2-1-0.3-1.5c-0.7-3.2-1.4-6.6-0.5-9.8c1.9-7.1,10.3-10,17.3-11.7l27.5-6.7c6.3-1.5,12.8-3.1,19.4-3.2 c15.4-0.3,30.7,7.9,39,20.8c0.7,1.1,1.3,2.2,1.9,3.2c1.5,2.6,3,5.2,5.1,7.3c-0.3-4.5-3.1-9.3-8.2-14.2c-1.1-1-2.2-2-3.3-3 c-3.5-3.2-7.2-6.4-9.5-10.6c-0.4-0.7-0.7-1.3-1.1-2c-0.8-1.5-1.5-3-2.6-4.2c-3.7-4.1-9.4-3.7-15.4-3.3c-3.5,0.2-7.2,0.5-10.6-0.2 c-0.4-0.1-0.9-0.2-1.3-0.4c-0.7,0-1.3,0-2,0c-2.4-0.1-4.8-0.3-7.2-0.5C156.3,8.2,153.4,7.9,150.6,7.9z M99.5,163.4 c-0.6,0-1.3,0.2-2.1,0.6c-1.1,0.5-1.9,1.5-2.5,2.6c-1.2,2.3-1.2,4.8-1.2,7.5c0,0.8,0,1.6,0,2.5c-0.4,9.9-6,18.4-11.4,26.7 c-3.7,5.6-7.5,11.4-9.7,17.7c2.1-1.3,4.1-2.6,6.1-3.9c8.9-5.5,19-11.8,25.1-21.3c5.5-8.6,7.2-22.2-0.6-30.3 C102.1,164.3,101,163.4,99.5,163.4z M92.3,114.1c0.7,2.6,1.7,5.1,4.8,6c3.4,1.1,7.2-0.4,9.2-3.6c3.4-5.4,2.4-11.5,1.4-17.4 c-0.2-1.4-0.5-2.8-0.7-4.2c-1.1-8.3-0.2-16.8,2.7-24.6c-2.1,1.4-4.7,1.1-7.3,0.8c-1.2-0.1-2.4-0.3-3.5-0.2c-0.3,0-0.5,0-0.8,0.1 c-0.8,5.3-1.2,10.7-1.6,16C95.9,96,95.2,105.3,92.3,114.1z M96.9,71.2c-5.1,1.3-8.7,6.5-9.7,11.4C86,88.6,87.6,95,89,100.7 l2.8,11.2c2.4-8.1,3-16.6,3.6-25C95.7,81.7,96.1,76.4,96.9,71.2z M99.4,69.7c1.1,0,2.2,0.1,3.3,0.3c3.1,0.4,6,0.7,7.9-2 c0.7-0.9,1.1-2.1,1.2-3.3c0.2-2.3,0.2-4.7,0.2-7c-0.1-0.1-0.1-0.2-0.2-0.2c-1.5-1.7-4-2.2-6.2-1.2c-4.2,1.9-5.6,6.2-6.5,10.5 c-0.2,1-0.4,2-0.6,3c0.2,0,0.3,0,0.5,0C99,69.7,99.2,69.7,99.4,69.7z M178.2,1.2c-3.7,0-7.3,0.8-10.5,2.3c-0.4,0.2-0.9,0.5-1.2,1 c-0.3,0.5-0.3,1-0.1,1.5c0.3,0.7,1.2,1.4,2.1,1.8c4.9-0.1,9.7-0.8,14.4-2.2c1.2-0.3,1.5-1.3,1.5-2.1c0-0.7-0.5-1.7-1.7-1.9 C181.2,1.3,179.7,1.2,178.2,1.2z" fill="inherit"/></g><g id="change1_2"><path d="M113.6,451.4c-0.5,0-1-0.1-1.5-0.3c-1-0.5-1.5-1.6-1.9-2.3l-7.1-15.2c-2.6-5.6-5.3-11.3-6.9-17.4c-0.9-3.4-1.5-7-2-10.5 c-1.1-7.2-2.2-14-5.9-19.8c-1-1.6-2.3-3.1-3.5-4.6c-0.7-0.9-1.4-1.7-2.1-2.6c0,0.1,0,0.3,0,0.4c-0.2,1.5-0.8,3-1.8,4 c-2.6,2.8-6.3,1.9-9.6,1.1c-0.9-0.2-1.8-0.4-2.6-0.6c-3.5-0.6-7.3,0.2-10.9,1c-4.2,0.9-8.5,1.9-12.7,0.7c-2.7-0.7-5-2.3-7.3-3.7 l-17-11.1c-1.4-0.9-3-1.9-4-3.5c-3.6-5.4,1.9-12.5,3.8-14.8c0.6-0.8,1.2-1.5,1.7-2.3c0.1-1.3,0.4-2.5,0.7-3.7 c-0.6-1.1-1.1-2.2-1.6-3.3c-2.6-6.8-0.8-14.5,0.7-20.7c1-4.1,1.7-8,2.5-11.7c0.8-3.8,1.5-7.7,2.5-11.8l1.5,0.3 c-1,4.1-1.7,8-2.5,11.7c-0.8,3.8-1.5,7.7-2.5,11.8c-1.4,6-3.2,13.4-0.8,19.8c0.2,0.6,0.5,1.1,0.7,1.7c0.3-1,0.6-2,0.8-3 c0.3-1,0.6-2,0.8-2.9c0.9-3.2,1.5-6.5,2.2-9.7c1.1-5.3,2.2-10.8,4.2-15.9c1.1-2.9,2.6-5.7,4-8.5c1.3-2.5,2.5-5,3.6-7.6 c2.3-5.7,3.7-12,4.9-18c1.7-8.1,3.5-16.5,7.8-23.8c0.7-1.1,1.8-2.8,3.4-4c1.2-0.9,2.7-0.9,3.9,0c1.1,0.9,1.5,2.4,0.9,3.7 c-0.5,1.1-1.1,2.3-1.7,3.3l-0.3,0.5c-8.9,16.4-14.3,34.9-15.7,53.5c0,0.6-0.1,1.2-0.1,1.8c-0.2,3.3-0.5,6.7-1.4,9.9 c-1.4,4.9-4.1,9.1-7.1,13.4c-2.6,3.8-5.3,7.5-8,11.2c0.8,1.4,1.7,2.8,2.4,4.3c1.5,3.3,1.9,6.7,1,9.3c-0.3,0.8-0.9,1.3-1.7,1.5 c-0.8,0.1-1.6-0.2-2.1-0.8c-2-2.4-3.1-5.9-3.1-9.7c-0.1,0.2-0.3,0.4-0.4,0.5c-4.5,5.8-5.7,10-3.7,13.1c0.8,1.3,2.2,2.2,3.5,3.1 l17,11.1c2.2,1.4,4.4,2.9,6.8,3.5c3.9,1.1,7.8,0.2,12-0.7c3.7-0.8,7.6-1.7,11.4-1.1c0.9,0.1,1.8,0.4,2.7,0.6 c3.2,0.8,6.2,1.5,8.2-0.6c0.7-0.8,1.2-1.9,1.4-3.1c0.1-0.8,0.1-1.5,0.1-2.3c-0.1-0.2-0.2-0.4-0.4-0.6c-2.5-4.1-3.7-8.8-4.8-13.4 c-0.2-0.8-0.4-1.5-0.6-2.3c-0.1-0.6-0.3-1.1-0.4-1.6c-2.3-5.1-4.2-10.4-5.8-15.7L59,332.8c-1.5-1.5-3.5-3.5-3.2-6.4 c0.2-1.6,1.3-2.9,2.8-3.2c2.4-0.4,3.7,1.8,4.3,2.8c1.5,2.6,3,5.3,4.3,8c-0.9-5.8-0.8-10.7,0.3-15.1c0.3-1,1.1-1.6,2.1-1.7 c1-0.1,1.9,0.5,2.3,1.5c2.8,7.4,5.5,16.1,4.2,24.4c-0.2,1.1-1,2-2,2.4c-0.6,0.2-1.2,0.2-1.8,0c1.6,4.2,3,8.4,4.2,12.7 c0.1,0.3,0.3,0.7,0.5,1c0.3,0.7,0.7,1.4,1,2.2c2.3,4.7,4.6,9.6,4.8,14.8c1,1.4,2.1,2.8,3.2,4.2c1.2,1.5,2.5,3,3.6,4.7 c3.9,6.1,5.1,13.3,6.2,20.3c0.5,3.4,1.1,7,2,10.3c1.6,5.9,4.2,11.6,6.8,17.1l7.1,15.2c0.3,0.7,0.7,1.4,1.2,1.6 c0.5,0.2,1.2,0.2,1.9,0l11-2c5.5-1,12.5-2.2,17.1-6.5c1.7-1.6,3-3.4,4.3-5.4c1.1-1.6,2.2-3.2,3.6-4.7c2.5-2.7,5.8-4.3,8.8-4.3 c0,0,0,0,0,0c0.7,0,1.4,0.2,2,0.6c-0.6-8.7-1.4-18.4-5.5-26.6c-0.7-1.4-1.6-2.8-2.4-4.1c-1.5-2.4-2.9-4.9-3.9-7.6 c-1.6-4.7-1.5-9.8-1.3-14.7c0.1-1.8,0.1-3.7,0.1-5.6c-0.2-12.2-4.8-23.9-9.1-35.2c-3.5-8.9-7-18.1-8.6-27.7 c-0.6-3.7-1.4-12.7,3.6-18c1.5-1.6,4-1.7,5.6-0.2c0.8,0.7,1.6,1.4,2.4,2c1.2,1,2.5,2,3.6,3.2c0.6,0.6,1,1.3,1.1,2.1 c2,9.2,4.2,19.7,5,30.3l0.1,1.4c0.2,2.9,0.4,5.9,1.3,8.7c2.1,6.4,7.9,11.2,14.5,12.1c0.5,0.1,0.9,0.1,1.4,0.2 c1.9,0.2,3.8,0.4,5.5,1.5c2.2,1.6,3,4.3,3.5,7.1c1.5,6.9,3,14,3.8,21.1c0.7,5.8,1,14.2-4.1,19.4c-1.4,1.4-2.7,1.7-4,0.9 c-0.9-0.5-1.5-1.5-1.6-2.6c-0.6-5.5-0.2-11.1,0.1-16.5c0.5-8.4,1-16.2-1.6-23.8c-0.5-1.4-1-2.2-2.2-2.4c-1-0.2-2,0.2-2.8,1 c-1.4,1.3-1.8,3.4-2.1,5.4c-0.9,5.9-1.5,12-1.9,18c-0.3,5.4-0.4,11.1,1,16.6c0.8,2.8,2,5.5,3.1,8.1c0.5,1.2,1.1,2.4,1.6,3.7 c2.8,6.8,4.4,14,5.4,21.2c1.9-9,10.1-15.6,16.3-19.8c0.8-0.5,1.6-1.1,2.4-1.6c5.2-3.6,10.6-7.2,14.4-12c0.4-2.7,0.8-5.7,1.4-8.9 l7-40.1c0.3-4.2,0.8-8.5,2.1-12.5c0-0.1,0.1-0.2,0.1-0.4l0-0.3c0.6-3.3,1.2-6.7,2.8-9.8c1.4-2.6,3.4-4.8,5.3-7 c2.5-2.8,4.9-5.4,5.9-8.8c0.5-1.6,0.6-3.3,0.7-5.2c0.1-1.6,0.2-3.3,0.7-5c0.6-2.5,2.3-4.8,4.3-5.9c1-0.5,2.1-0.5,3.1,0.1 c1,0.6,1.6,1.5,1.6,2.6c0.2,3.8-1.3,7.9-4.5,12.7c-2.1,3.1-4.6,6.1-7,9c-4.6,5.5-9.3,11.2-11.6,18l-2.2,12.7 c-0.1,1.3-0.2,2.6-0.2,3.9l-0.1,1.1c-0.5,8.7-1.2,17.5-2.2,26.2c-0.5,4.8-1.2,9.5-3.2,13.7c-0.8,1.7-1.7,3.2-2.8,4.7 c-0.2,1.3-0.3,2.5-0.4,3.8c-0.5,5-0.6,11.2,3.2,15c3.1,3.1,7.9,3.5,12.5,3.9c0.9,0.1,1.8,0.2,2.7,0.3c6,0.7,11,2.4,15.1,5.2 c1.3,0.9,4.3,3.2,4.8,6.5c0.2,1.7-0.2,3.3-1.5,4.8c-1.4,1.7-3.4,2.8-5.8,3.2c-4.5,0.7-8.6,2.7-12.6,4.8c1.8,0,3.5,0.1,5.3,0.2 c2.3,0.1,5,0.4,7.5,1.5c1,0.5,1.9,1,2.8,1.6c1,0.6,1.9,1.2,2.9,1.6c0.6,0.3,1.3,0.4,1.9,0.5c0.7,0.1,1.4-0.2,1.8-0.7 c0.5-0.6,0.7-1.4,0.5-2.2c-2.7-9.6-1.8-19.8-1-29.7c0.6-6.8,1.2-13.8,0.6-20.6c-0.2-1.8-0.3-3.7-0.5-5.5c-0.8-9.2-1.6-18-1-27.3 c0.4-6.9,2-13.7,3.6-20.2c1-4.1,2-8.3,2.7-12.5c1.5-8.8,1.7-17.9,2-26.6c0.3-9.8,0.6-20-2.6-29.5c-2.7-8.1-9.2-17.7-19.5-20 c-0.8-0.2-1.7-0.3-2.5-0.5c-2.3-0.4-4.6-0.8-6.6-2c-1.3-0.8-2.4-2-3.4-3.1c-0.4-0.4-0.8-0.9-1.2-1.3c-4-3.9-9.8-6-15.4-5.6 c-0.3,0-0.5,0.1-0.6,0.4c-0.1,0.2-0.2,0.5-0.1,0.7c0.8,2.2,0.4,4.7,0,7.1c-0.2,1-0.3,2-0.4,3c-0.4,6,3.5,12.1,9.1,14.2 c0.6,0.2,1.3,0.4,2,0.6c1.5,0.4,3,0.9,4.3,1.8c1.3,0.9,2.2,2.4,2.4,3.9c0.2,1.1-0.1,2.1-0.7,2.9c-0.5,0.6-1.1,1-1.6,1.3l-9.8,6.3 c-3.4,2.1-7.2,4.6-11.4,5.4c-5.6,1-11.1-0.9-16.4-2.7c-0.7-0.2-1.4-0.5-2.1-0.7c-4.9-1.6-12.1-3.4-17.5-0.2 c-0.9,0.5-1.8,1.2-2.6,1.9c-2.4,1.8-4.9,3.8-8.5,3c-2.3-0.5-4.5-2.1-5.8-4.4c-2-3.4-2.3-7.1-2.6-10.8c-0.1-1.3-0.2-2.6-0.4-3.9 c-0.8-5.9-3.4-11.5-7.3-16c-1.4-1.6-3-3.1-4.5-4.6c-3.4-3.2-6.9-6.5-8.5-10.7c-0.3-0.9-0.1-1.9,0.5-2.6c0.7-0.7,1.7-0.9,2.6-0.6 c5.8,2,10.1,7,14.3,11.8c3.8,4.4,7.7,8.9,12.7,11.1c0.3,0.2,0.7,0.1,1-0.1c0.3-0.2,0.4-0.6,0.4-1c-0.4-1.8-1.4-3.7-2.4-5.5 c-1.9-3.4-3.8-7-1.5-10.4c1.5-2.2,4.1-3.4,6.9-3.1c7,0.6,14,2.7,20.1,6.2c1.1,0.6,2.4,0.7,3.5,0.2c1.2-0.5,1.2-1.2,1.2-2.2 c0-0.2,0-0.4,0-0.7c0.3-3.5,3.3-5.8,6-7.8c0.6-0.4,1.1-0.8,1.6-1.2c3.4-2.7,5.8-7,6.2-11.2c0.3-3-0.5-5.7-2.2-7.7 c-1.7-2-4-3.2-6.5-4.4c-1.5-0.8-3.1-1.6-4.6-2.6c-0.6-0.5-2.3-1.7-1.6-3.7c0.5-1.4,1.9-2.2,3.4-2.2l25.4,0.4c0.5,0,1.1,0,1.7,0.4 c0.8,0.4,1.5,1.5,1,3.9c-2.5,10.4-7.8,20.1-12.8,29.4c-5.7,10.5-11.7,21.4-13.4,33.2c-0.1,0.7,0.3,1.1,0.7,1.3 c0.4,0.2,1,0.3,1.4-0.1c1.2-1,2.2-2.6,2.7-4.4c0.4-1.5,0.6-3.1,0.8-4.7c0.2-1.6,0.4-3.2,0.8-4.8c1.1-3.8,3.5-7,5.8-10.1 c1.1-1.5,2.3-3,3.3-4.6c2.5-4,4-8.4,5.6-13.3c5.1-15.8,10-32.9,14.1-49.5l1.5,0.4c-4.1,16.6-8.9,33.8-14.1,49.6 c-1.6,5-3.2,9.5-5.8,13.7c-1,1.6-2.2,3.2-3.3,4.7c-2.4,3.1-4.6,6.1-5.6,9.6c-0.4,1.5-0.6,3.1-0.8,4.6c-0.2,1.6-0.4,3.3-0.9,5 c-0.6,2-1.7,3.8-3.1,5.1c-0.9,0.8-2.1,0.9-3.1,0.3c-1-0.6-1.6-1.7-1.4-2.9c1.7-12,7.8-23,13.6-33.7c5.1-9.3,10.3-18.8,12.7-29 c0.1-0.6,0.4-1.9-0.3-2.2c-0.2-0.1-0.6-0.1-1-0.2l-25.4-0.4c-0.9,0-1.7,0.5-2,1.2c-0.3,0.7,0,1.2,1.1,2c1.3,1,2.9,1.7,4.4,2.5 c2.5,1.3,5.1,2.6,7,4.8c2,2.4,2.9,5.4,2.6,8.9c-0.4,4.6-3,9.3-6.7,12.2c-0.5,0.4-1.1,0.8-1.7,1.3c-2.5,1.9-5.1,3.8-5.4,6.7 c0,0.2,0,0.4,0,0.6c0,1.1-0.1,2.6-2.1,3.5c-1.5,0.7-3.3,0.6-4.8-0.3c-6-3.3-12.7-5.4-19.5-6c-2.2-0.2-4.4,0.8-5.5,2.5 c-1.8,2.7-0.3,5.6,1.6,8.9c1.1,1.9,2.1,3.9,2.6,5.9c0.2,0.9-0.2,1.8-0.9,2.4c-0.7,0.6-1.7,0.7-2.6,0.3c-5.3-2.3-9.3-7-13.2-11.5 c-4.2-4.9-8.2-9.5-13.6-11.3c-0.4-0.1-0.7,0-1,0.3c-0.3,0.3-0.4,0.7-0.2,1c1.5,3.9,4.9,7.1,8.1,10.2c1.6,1.5,3.2,3,4.6,4.7 c4.1,4.7,6.8,10.6,7.7,16.8c0.2,1.3,0.3,2.7,0.4,4c0.3,3.6,0.5,7,2.4,10.1c1.2,1.9,2.9,3.3,4.9,3.7c2.9,0.6,5-1,7.3-2.7 c0.9-0.7,1.8-1.4,2.8-2c6-3.5,13.5-1.6,18.7,0.1c0.7,0.2,1.4,0.5,2.1,0.7c5.1,1.7,10.5,3.6,15.7,2.6c4-0.7,7.7-3.1,10.9-5.1 l9.8-6.3c0.5-0.3,0.9-0.6,1.2-1c0.5-0.6,0.5-1.3,0.4-1.8c-0.2-1.1-0.9-2.2-1.8-2.8c-1.1-0.8-2.5-1.2-3.9-1.6 c-0.7-0.2-1.4-0.4-2.1-0.7c-6.2-2.3-10.6-9.1-10.1-15.7c0.1-1,0.2-2.1,0.4-3.1c0.3-2.3,0.7-4.6,0-6.4c-0.2-0.7-0.2-1.4,0.2-2 c0.4-0.6,1-1,1.8-1c6.1-0.4,12.3,1.8,16.6,6.1c0.4,0.4,0.9,0.9,1.3,1.3c1,1.1,2,2.1,3.1,2.8c1.8,1.1,3.8,1.4,6,1.8 c0.9,0.1,1.7,0.3,2.6,0.5c10.9,2.5,17.8,12.5,20.6,21c3.2,9.7,2.9,20,2.6,30c-0.2,8.8-0.5,18-2,26.9c-0.7,4.2-1.7,8.5-2.7,12.6 c-1.5,6.5-3.1,13.2-3.6,20c-0.6,9.3,0.2,17.9,1,27.1c0.2,1.8,0.3,3.6,0.5,5.5c0.6,6.9,0,14-0.6,20.9c-0.8,9.8-1.7,19.9,1,29.2 c0.4,1.2,0.1,2.6-0.8,3.6c-0.8,0.9-1.9,1.4-3.2,1.3c-0.8-0.1-1.6-0.3-2.4-0.6c-1.1-0.5-2.1-1.1-3.1-1.7c-0.9-0.6-1.7-1.1-2.7-1.5 c-2.2-1-4.8-1.2-7-1.4c-2.7-0.2-5.4-0.2-8.2-0.2c-1.5,0.8-3,1.5-4.5,2.2c-7.4,3.2-14,3.7-19,1.4c-0.3-0.1-0.8-0.4-1.1-0.9 c-0.2-0.4-0.2-0.9,0.1-1.3c0.4-0.7,1.4-1.1,2.1-1.2c7.2-0.8,14.7-1.6,22.1-1.7c0.4-0.2,0.9-0.4,1.3-0.7c4.5-2.3,9.2-4.7,14.4-5.6 c2-0.3,3.8-1.3,4.9-2.7c0.9-1.1,1.3-2.4,1.1-3.6c-0.4-2.6-3-4.7-4.1-5.5c-3.9-2.6-8.7-4.3-14.5-4.9c-0.9-0.1-1.7-0.2-2.6-0.3 c-4.9-0.4-9.9-0.9-13.5-4.4c-4.2-4.2-4.2-10.8-3.6-16.2c0.1-0.5,0.1-1,0.2-1.5c-3.7,4.1-8.5,7.4-13.2,10.5 c-0.8,0.5-1.6,1.1-2.4,1.6c-6.4,4.4-15,11.3-16,20.7c-0.6,5.7,1.7,11.4,4.3,16.8c0.6,1.2,0,2.4-0.9,3c-1,0.6-2.2,0.5-3-0.5 c-1.1-1.4-1.2-3.1-1.4-4.5c-1.1-12.6-2.3-25.7-7.2-37.6c-0.5-1.2-1-2.4-1.6-3.6c-1.2-2.7-2.4-5.5-3.2-8.4c-1.5-5.7-1.4-11.5-1.1-17 c0.3-6.1,0.9-12.2,1.9-18.2c0.3-2.2,0.8-4.5,2.5-6.2c1.1-1.1,2.6-1.6,4.1-1.4c2.3,0.4,3,2.3,3.4,3.4c2.7,7.8,2.2,16.2,1.7,24.4 c-0.3,5.4-0.7,10.9-0.1,16.3c0.1,0.7,0.4,1.2,0.9,1.5c0.6,0.3,1.1,0.4,2.1-0.6c4.7-4.8,4.4-12.7,3.7-18.2c-0.8-7.1-2.4-14.1-3.8-21 c-0.5-2.5-1.2-4.9-2.9-6.1c-1.3-0.9-3-1.1-4.7-1.2c-0.5,0-1-0.1-1.5-0.2c-7.2-0.9-13.5-6.2-15.8-13.1c-1-2.9-1.2-6-1.4-9l-0.1-1.4 c-0.8-10.5-3-20.9-5-30.1c-0.1-0.6-0.4-1-0.7-1.4c-1.1-1.1-2.3-2.1-3.5-3.1c-0.8-0.7-1.6-1.3-2.4-2.1c-1-0.9-2.6-0.8-3.5,0.1 c-4.6,4.8-3.8,13.3-3.2,16.7c1.5,9.4,5.1,18.5,8.5,27.4c4.4,11.4,9,23.3,9.2,35.7c0,1.9,0,3.8-0.1,5.7c-0.2,4.8-0.3,9.7,1.2,14.2 c0.9,2.6,2.3,5,3.8,7.4c0.8,1.4,1.7,2.8,2.4,4.2c4.5,8.8,5.2,19,5.8,28.1l0.1,1.5c0.1,0.3,0.1,0.7,0.1,1l1.1,15.7 c0,0.6,0.1,1.3-0.2,2c-0.7,1.5-2.8,1.8-3.9,1.9l-0.2,0c-2,0.2-3.9-0.3-5.3-1.6c-1.2-1.1-1.8-2.4-1.8-3.9c0-2.4,1.5-5.3,4-7.8 l0.4-0.4c1.7-1.7,3.4-3.4,4.3-5.3c0.1-0.2,0.1-0.4,0.2-0.6l-0.1-0.8c-0.1-0.2-0.2-0.4-0.3-0.7c-0.4-0.6-1.1-1-1.9-1c0,0,0,0,0,0 c-2.5,0-5.5,1.5-7.7,3.9c-1.3,1.4-2.4,3-3.4,4.5c-1.4,2-2.8,4-4.6,5.7c-4.9,4.6-12.1,5.9-17.8,6.9l-11,2 C114.6,451.3,114.1,451.4,113.6,451.4z M161.9,433.7c-1,1.5-2.4,2.8-3.6,4l-0.4,0.4c-2.2,2.2-3.6,4.7-3.5,6.7 c0,1.1,0.4,2.1,1.3,2.9c1,0.9,2.5,1.4,4.1,1.2l0.3,0c0.8-0.1,2.3-0.2,2.7-1c0.2-0.3,0.1-0.8,0.1-1.3L161.9,433.7z M174.9,439.7 c0.1,1.1,0.2,2.1,0.3,3.2c0.1,1.2,0.2,2.7,1,3.7c0.4,0.5,0.9,0.3,1,0.2c0.3-0.2,0.6-0.6,0.3-1.1 C176.6,443.7,175.7,441.7,174.9,439.7z M199.6,444.1c0,0,0.1,0.1,0.3,0.1c5.9,2.7,13,0.7,17.8-1.4c0.5-0.2,1-0.5,1.5-0.7 c-6.3,0.3-12.5,1-18.7,1.6C200.1,443.8,199.7,444,199.6,444.1C199.6,444.1,199.6,444.1,199.6,444.1z M214.1,356.7l-4.7,27.2 c-0.4,2.1-0.7,4-1,5.9c0.4-0.6,0.7-1.3,1-1.9c1.9-4,2.5-8.6,3-13.2C213.1,368.7,213.7,362.7,214.1,356.7z M78.6,366.3 c0.6,2.1,1.3,4.3,2.2,6.3C80.2,370.4,79.5,368.3,78.6,366.3z M23.8,350.6c0,0.3,0,0.5-0.1,0.8c-0.2,3.9,0.7,7.6,2.7,10.1 c0.2,0.3,0.5,0.3,0.7,0.2c0.3,0,0.5-0.2,0.6-0.5c0.8-2.3,0.5-5.3-0.9-8.2c-0.6-1.3-1.3-2.5-2-3.7C24.5,349.7,24.1,350.1,23.8,350.6 z M24.6,346c0.1,0.2,0.2,0.4,0.3,0.6c2.6-3.5,5.2-7.1,7.6-10.6c2.9-4.2,5.5-8.3,6.8-12.9c0.9-3.1,1.1-6.4,1.3-9.6 c0-0.6,0.1-1.2,0.1-1.8c1.4-18.8,6.9-37.5,15.9-54.1l0.3-0.5c0.6-1.1,1.2-2.1,1.7-3.2c0.4-0.8,0-1.5-0.5-1.9c-0.5-0.4-1.3-0.6-2,0 c-1.1,0.9-2.2,2.1-3,3.6c-4.2,7.1-5.9,15.3-7.6,23.3c-1.3,6.1-2.6,12.4-5,18.3c-1.1,2.6-2.4,5.2-3.7,7.7c-1.4,2.7-2.8,5.5-3.9,8.3 c-2,5-3.1,10.4-4.1,15.7c-0.7,3.2-1.3,6.6-2.2,9.8c-0.3,1-0.6,2-0.8,3C25.4,343,25,344.5,24.6,346z M71.2,342.9l0.9,0.9 c0.4,0.4,1,0.6,1.6,0.4c0.6-0.2,0.9-0.6,1-1.2c1.2-7.9-1.4-16.4-4.1-23.6c-0.2-0.4-0.5-0.5-0.8-0.5c-0.1,0-0.6,0.1-0.7,0.6 c-1.5,5.7-1.2,12.3,1,20.7C70.4,341,70.9,341.9,71.2,342.9z M59.2,324.7c-0.1,0-0.2,0-0.3,0c-0.8,0.1-1.5,0.9-1.6,1.8 c-0.2,2,1.1,3.5,2.8,5.2l8.3,8.3c-2-4.5-4.3-8.9-6.8-13.2C60.8,325.5,60.2,324.7,59.2,324.7z M238.5,289.7c-0.3,0-0.5,0.1-0.8,0.2 c-1.6,0.9-3,2.8-3.6,4.9c-0.4,1.5-0.5,3.1-0.6,4.7c-0.1,1.8-0.3,3.7-0.8,5.5c-1.1,3.7-3.7,6.6-6.3,9.4c-1.9,2.1-3.8,4.2-5.1,6.7 c-0.5,1-1,2.1-1.3,3.2c2.5-4.4,5.8-8.4,9.1-12.3c2.4-2.9,4.8-5.8,6.9-8.9c3-4.4,4.4-8.4,4.3-11.8c0-0.6-0.4-1.1-0.9-1.4 C239.1,289.8,238.8,289.7,238.5,289.7z" fill="inherit"/></g><g id="change1_8"><path d="M49.2,466.5c-1,0-1.9,0-2.9-0.2c-4.4-0.5-8.8-3-8.8-7c0-3,2.5-5.2,4.4-6.5c3.1-2.2,6.4-4,9.9-5.4c0.6-0.2,1.3-0.5,1.9-0.7 c1.9-0.7,3.6-1.3,5.2-2.3c2.4-1.4,3.9-3.5,4.2-5.5c0.2-1.2-0.1-2.7-0.7-4.1c-1.8-4.1-6.1-7.1-11.2-7.9c-4.3-0.7-9.1,0.1-14.2,2.4 c-1.9,0.8-4.4,2.1-6.1,4.1c-1.7,2.1-2.6,4.8-3.4,7.4l-0.3,1.1c-1.1,3.6-2.8,8.1-6,11.8c-3.3,3.7-7.8,5.8-12,5.5 c-4.7-0.3-9.4-3.2-9.3-7.9l0.5-23.9c0.1-3.5,0.1-7.2,0.7-10.7c0.3-2.1,0.8-4.2,1.3-6.2c0.3-1.3,0.6-2.6,0.9-3.9 c0.5-2.5,0.8-5,1.2-7.5c0.9-6.7,1.9-13.6,5.5-19.4c1-1.6,2.1-3.1,3.3-4.5c1.4-1.7,2.8-3.5,3.8-5.4c0.8-1.5,3.1-6.5,0.4-10.1 c-0.2-0.1-0.3-0.2-0.3-0.2c-0.1-0.1-0.5-0.5,0-1.1l0,0l0.1-0.1c0,0,0,0,0,0c0,0,0,0,0,0l0.6-0.6l0.2,0.3c0.2,0,0.3,0.2,0.3,0.2 c0.1,0,0.2,0.2,0.2,0.5c2.2,2.9,2.1,7.3-0.3,11.8c-1.1,2.1-2.5,3.9-3.9,5.7c-1.1,1.4-2.2,2.8-3.2,4.4C7.8,385.8,6.9,392.5,6,399 c-0.3,2.5-0.7,5.1-1.2,7.6c-0.3,1.3-0.6,2.6-0.9,3.9c-0.5,2-0.9,4-1.2,6.1c-0.5,3.5-0.6,7.1-0.7,10.5l-0.5,23.9 c-0.1,3.8,3.9,6.1,7.9,6.4c3.8,0.3,7.8-1.6,10.8-5c3-3.4,4.6-7.8,5.7-11.2l0.3-1c0.8-2.8,1.7-5.6,3.6-7.9c1.9-2.2,4.5-3.6,6.6-4.5 c5.4-2.4,10.5-3.2,15.1-2.5c5.6,0.9,10.3,4.2,12.3,8.8c0.8,1.7,1,3.4,0.8,5c-0.4,2.5-2.2,4.9-4.9,6.6c-1.7,1-3.6,1.7-5.5,2.4 c-0.6,0.2-1.2,0.5-1.9,0.7c-3.4,1.3-6.6,3.1-9.6,5.2c-2.6,1.9-3.8,3.6-3.8,5.4c0,3.5,4.4,5.2,7.4,5.5c3.7,0.4,7.6,0,11.2-1.2 c3.1-1,6.1-2.7,8.9-4.2c1.9-1.1,4-2.2,6-3.1c3.7-1.7,10.8-4,16.8-0.8c1,0.5,1.9,1.2,2.7,1.8c1.7,1.3,3.4,2.4,5.3,2.6 c3,0.2,5.4-2.2,7.8-4.6l0.9-0.9c2.3-2.2,4.2-4.1,7.5-4.5l0.2,1.5c-2.8,0.3-4.5,2-6.6,4.1l-0.9,0.9c-2.5,2.4-5.3,5.2-8.9,5 c-2.4-0.1-4.3-1.5-6.1-2.8c-0.8-0.6-1.7-1.2-2.6-1.7c-5.4-2.9-12-0.7-15.5,0.8c-2,0.9-4,2-5.9,3.1c-2.9,1.6-5.9,3.3-9.2,4.4 C55.3,466,52.2,466.5,49.2,466.5z" fill="inherit"/></g></svg>