<?xml version="1.0" encoding="UTF-8"?><svg xmlns="http://www.w3.org/2000/svg" xmlns:xlink="http://www.w3.org/1999/xlink" height="288.4" preserveAspectRatio="xMidYMid meet" version="1.0" viewBox="-0.7 -2.5 496.9 288.4" width="496.9" zoomAndPan="magnify"><g id="change1_1"><path d="M496.14,160.23c0,16.98,0,107.16,0,112.64s-3.71,12.73-10.79,12.73c-7.07,0-159.35,0.3-159.35,0.3 s0.9-5.11,0.3-12.64c-0.6-7.52-1.81-16.85-1.81-16.85h3.91l-4.81-69.5l30.43,0.03c0,0-5.19,11.47-6.6,14.47 c-1.41,3.01-6.19,3.01-9.55,3.71c-3.36,0.71-4.6,4.24-1.59,5.84c3.01,1.59,6.9,3.18,6.9,3.18s1.24,1.95,8.31,3.54 c7.07,1.59,15.55,4.07,18.38,4.07c2.83,0,3.89-2.48,6.72-5.84c2.83-3.36,20.05-27.06,20.05-27.06h23.81c0,0,0-6.72,0-21.04 c0-14.32,8.84-27.59,30.06-27.59l-1.52-6.41c0,0,6.3-10.74-2.72-19.23c0,0,4.95,0,17.15,0c12.2,0,16.09,7.6,16.09,13.97 c0,6.37,0,11.67,0,11.67S496.14,143.25,496.14,160.23z M419.16,117.48c0,0,0.93,2.96,6.86,1.11c4.56-1.43,7.4-6.53,8.56-8.98 c-2.17-0.77-3.77-0.75-3.77-0.75l-12.64,6.24l-0.67-1.7c0,0-4.59,1.8-4.49,3.9C413.1,119.41,419.16,117.48,419.16,117.48z" fill="#BBE5E1"/></g><g id="change2_1"><path d="M448.99,133.84l1.52,6.41c-21.22,0-30.06,13.26-30.06,27.59c0,14.32,0,21.04,0,21.04h-23.81 c0,0-0.51,0.71-1.36,1.87h-43.13c0.83-2.19,1.73-3.82,1.73-3.82H323.6l4.81,69.5h-3.91c0,0,0.01,0.09,0.03,0.21h-40.5 c0,0-10.64-52.2-11.4-69.18c-0.76-16.98,8.11-27.87,26.73-34.55c18.62-6.68,55.37-12.33,55.37-12.33l0.25-3.55l55.49-28.63 c0,0,12.67-0.25,20.34,0.47l-12.64,6.24l-0.67-1.7c0,0-4.59,1.8-4.49,3.9c0.1,2.1,6.16,0.17,6.16,0.17s0.93,2.96,6.86,1.11 c4.38-1.37,7.34-6.47,8.59-9.05c6.24,1.58,11.67,5.06,11.67,5.06C455.29,123.1,448.99,133.84,448.99,133.84z M112.89,91.32 l-15.88,10.77l-4.02-6.94c0.18-12.78-9.67-20.08-16.61-20.63c-6.94-0.55-12.23-0.73-12.23-0.73l-3.83-3.47l-2.01,7.12l-3.47-6.94 l-13.69-3.83l-1.46,4.2c0,0-21.9,0-24.82,13.14s10.58,25.93,10.58,25.93l-4.2,7.48c0,0,11.14,40.16,11.68,40.71 s30.3,11.14,30.3,11.14s48.92-23.55,49.29-30.3c0.37-6.75-4.56-16.61-4.56-16.61l16.61-17.34L112.89,91.32z M142.85,217.22 l-13.93,1.99l25.4,64.06c0.46,1.15,1.56,1.9,2.8,1.9c1.98,0,3.42-1.88,2.91-3.79L142.85,217.22z M28.09,281.38 c-0.51,1.91,0.93,3.79,2.91,3.79c1.23,0,2.34-0.75,2.8-1.9l25.4-64.06l-13.93-1.99L28.09,281.38z M252.33,275.8 c-7.67-3.38-20.63-1.71-23.63-13.71h-29.02l8.2,21.84c0.41,1.09,1.45,1.81,2.61,1.81h44.48c1.56,0,2.82-1.27,2.79-2.83 C257.72,280.71,256.72,277.74,252.33,275.8z M254.88,234.57c-8.32-2.91-16.78-3.74-21.49-12.62c-8.46,6.1-12.9,9.29-12.9,9.29 l3.88,14.56c0,0,24.13,0,30.37,0C260.98,245.8,263.2,237.48,254.88,234.57z" fill="#FFF"/></g><g id="change3_1"><path d="M397.7,87.7c0,0,1.05-6.91,1.89-11.52c0.84-4.61,3.61-11.11,13.83-12.57c8.8-1.26,19.85-1.33,24.09,13.2 c3.98,13.62-9.01,25.35-9.01,25.35l2.3,6.7l-12.64,6.24l-3.99-9.54c0,0-7.89,1-12.29-1.94c-4.4-2.93-4.19-10.69-4.19-10.69 s-1.89-0.42-2.72-1.47C394.14,90.43,397.7,87.7,397.7,87.7z M388.06,157.89c-4.4,1.68-3.98,4.61-3.98,4.61l-4.4-2.51 c0,0-4.19,0.63-8.8,1.89c-4.61,1.26-8.8,7.75-11.1,12.57c-2.3,4.82-10.01,21.46-10.01,21.46l14.94,5.89l1.13-2.83l17.54,8.12 l13.26-18.21h8.45c-0.21-3.56-1.49-16.71-8.96-24.44h24.61c1.57-10.33,9.65-18.27,9.65-18.27L400,156.64 C400,156.64,392.46,156.22,388.06,157.89z M448.86,133.71l-18.16,5.67l1.71,5.12c0,0,7.04-4.25,18.1-4.25 C449.7,136.62,448.86,133.71,448.86,133.71z M355.73,35.18c2.44,4.36,4,7.81,4,7.81l8.54,6.32l10.09-1.27l-5.31,4.36l6.48,14.87 l17.74-12.43l-7.75-15.4c0,0,4.67-18.38,1.7-22.31c-2.97-3.93-20.4-14.02-27.3-11.69c-6.91,2.34-9.88,12.54-9.88,12.54v5.74 l0.03,2.41C354.06,26.12,353.29,30.83,355.73,35.18z M314.34,140.03c0,0-13.02,6.81-14.99,12.88l18.02-4.55L314.34,140.03z M286.86,256.61l1.85,9.6c0,0,3.69,1.29,6.28,4.8l5.91-4.8c0,0,6.65,2.22,8.49,6.83h16.92l-1.81-16.62L286.86,256.61z M144.44,85.98c-1.15,1.4-3.18,4.07-3.18,4.07s-12.47-2.55-17.56-2.16c-5.09,0.38-10.81,3.44-10.81,3.44l9.41,10.81 c0,0,4.96-1.27,9.67-2.04c4.71-0.76,10.31-3.18,11.83-5.47c1.53-2.29,3.31-5.34,3.94-7.76C148.38,84.45,145.58,84.58,144.44,85.98z M66.21,25.63c-10.78-6.65-29.38-1.8-32.34,11.5s8.98,23.18,8.98,23.18l-0.63,6.74l12.61,3.46l3.47,6.94l0.18-9.77 c9.97,1.44,14.91-8.45,15.9-15.81C75.38,44.5,76.99,32.28,66.21,25.63z" fill="#F79A91"/></g><g id="change4_1"><path d="M416.52,111.18c-2.84,1.64-6.72,4.41-9.76,8.55c-5.45,7.42-6.06,23.64-6.06,23.64s-31.36,0-36.67,0 s-8.94-1.21-8.94-1.21l-37.73,6.21l-3.03-8.33l34.54-20.3c0,0,2.88-31.36,4.39-38.64c1.52-7.27,3.48-11.82,8.94-15.3 c5.45-3.48,10.91-6.51,10.91-6.51l0.76-3.18l5.15,6.21l4.09-7.27l14.55-4.24l4.39,7.58l14.24,4.39l0.04,0.51 c-1,0.09-1.98,0.21-2.94,0.35c-10.21,1.46-12.99,7.96-13.83,12.57c-0.84,4.61-1.89,11.52-1.89,11.52s-3.56,2.72-2.72,3.77 c0.84,1.05,2.72,1.47,2.72,1.47s-0.21,7.75,4.19,10.69c4.4,2.93,12.29,1.94,12.29,1.94L416.52,111.18z M194.75,144.16 c-7.1-14.82-19.45-20.37-36.12-16.98c-16.67,3.4-78.41,20.37-78.41,20.37L66.58,158.4c0,0,15.08,7.59,23.32,25.21 c15.01,0,78.52,0,78.52,0l31.26,78.48h29.02l-8.03-30.87l12.97-9.26C233.64,221.95,201.85,158.98,194.75,144.16z" fill="#00BFA8"/></g><g id="change5_1"><path d="M436.27,95.97l-7.78,6.2c0,0-3.58-2.63-4.19-6.76c0,0,5.83-4.62,4.74-9.96c-1.09-5.35-7.78-3.89-7.78-3.89 l-0.36,6.32c0,0-9.48-0.36-12.03-16.4l-7.78,0.24c0,0-0.12-7.17,10.09-10.09c10.21-2.92,20.54,1.09,23.21,3.4 c0,0,8.14-4.62,13.37,1.09c5.23,5.71,2.92,20.66,3.04,21.75c0.12,1.09,4.13,2.67,4.13,2.67S447.7,99.73,436.27,95.97z M403.43,86.1 c0-0.56-0.45-1.01-1.01-1.01s-1.01,0.45-1.01,1.01s0.45,1.01,1.01,1.01S403.43,86.66,403.43,86.1z M405.76,83.12 c0.14,0,0.29-0.05,0.39-0.16c0.22-0.22,0.22-0.57,0-0.79c-2.35-2.35-5.52-1.07-5.66-1.02c-0.28,0.12-0.42,0.44-0.3,0.73 c0.12,0.28,0.45,0.42,0.73,0.3c0.11-0.04,2.62-1.04,4.44,0.77C405.48,83.07,405.62,83.12,405.76,83.12z M405.08,94.6 c0.18-0.25,0.11-0.6-0.14-0.78c-0.25-0.17-0.6-0.11-0.77,0.14c-1.09,1.57-3.44,1.31-3.47,1.31c-0.31-0.04-0.58,0.18-0.62,0.49 c-0.04,0.31,0.18,0.58,0.49,0.62c0.03,0,0.23,0.03,0.54,0.03C402.05,96.41,403.97,96.2,405.08,94.6z M425.72,87.02 c-0.01,0.31,0.23,0.57,0.53,0.58c0.01,0,0.02,0,0.02,0c0.3,0,0.54-0.23,0.56-0.53c0.09-2.32-2.36-3.35-2.46-3.39 c-0.29-0.12-0.61,0.02-0.72,0.3c-0.12,0.28,0.02,0.61,0.3,0.73C423.97,84.71,425.78,85.49,425.72,87.02z M349.63,16.89 c-0.25-6.28,5.17-12.19,12.81-14.78c7.63-2.59,24.5-4.56,30.04,5.17c5.54,9.73,3.32,26.6-3.69,37.31 c-7.02,10.71-21.06,11.21-26.1,8.25c-5.05-2.96-2.96-9.85-2.96-9.85l20.32-6.9c-0.25-3.94-1.85-11.45-1.85-11.45 c-12.93-0.62-21.18-7.26-21.18-7.26l-2.96,8.74C354.06,26.12,349.88,23.17,349.63,16.89z M371.91,41.03 c-0.25-0.17-0.6-0.12-0.78,0.14c-1.58,2.26-4.84,2.3-4.88,2.3c-0.31,0-0.56,0.25-0.56,0.56c0,0.31,0.25,0.56,0.56,0.56 c0.16,0,3.87-0.03,5.79-2.78C372.23,41.56,372.16,41.21,371.91,41.03z M381.89,24.65l2.83,7.39c0,0,3.69-1.35,2.34-5.54 C385.71,22.31,381.89,24.65,381.89,24.65z M367.39,32.31c0,0.59,0.48,1.07,1.07,1.07c0.59,0,1.07-0.48,1.07-1.07 c0-0.59-0.48-1.07-1.07-1.07C367.87,31.24,367.39,31.72,367.39,32.31z M358.07,34.96c0,0.59,0.48,1.07,1.07,1.07 c0.59,0,1.07-0.48,1.07-1.07c0-0.59-0.48-1.07-1.07-1.07C358.55,33.9,358.07,34.37,358.07,34.96z M362.42,38.54 c-0.26-1.73-0.44-6.12-0.44-6.16c-0.01-0.31-0.26-0.56-0.58-0.53c-0.31,0.01-0.55,0.27-0.54,0.58c0.01,0.18,0.18,4.49,0.45,6.28 c0.07,0.49,0.33,0.89,0.74,1.15c0.46,0.3,1.07,0.39,1.67,0.39c0.96,0,1.87-0.25,2.03-0.29c0.3-0.08,0.47-0.39,0.39-0.69 c-0.08-0.3-0.39-0.47-0.69-0.39c-0.76,0.22-2.2,0.42-2.79,0.03C362.52,38.82,362.44,38.71,362.42,38.54z M370.65,25.93 c0.11-0.29-0.04-0.61-0.33-0.72c-5.48-2.02-7.6,2.19-7.62,2.23c-0.13,0.28-0.02,0.61,0.25,0.74c0.08,0.04,0.16,0.06,0.24,0.06 c0.21,0,0.4-0.11,0.5-0.31c0.07-0.14,1.73-3.34,6.24-1.68C370.22,26.36,370.55,26.22,370.65,25.93z M359.62,29.14 c-1.5-0.73-2.8-0.86-3.88-0.39c-1.42,0.63-1.86,2.09-1.88,2.15c-0.08,0.29,0.08,0.6,0.38,0.69c0.05,0.02,0.11,0.02,0.16,0.02 c0.24,0,0.46-0.16,0.53-0.4c0-0.01,0.32-1.04,1.27-1.45c0.76-0.33,1.74-0.21,2.93,0.37c0.27,0.14,0.61,0.02,0.75-0.26 C360.01,29.61,359.9,29.28,359.62,29.14z M304.25,151.65c0.04,0,0.08,0,0.11-0.01c0.3-0.06,0.49-0.35,0.44-0.65 c-0.02-0.08-0.12-0.8,0.65-1.3c1.14-0.73,4.53-3.1,4.68-3.2c0.25-0.18,0.31-0.52,0.14-0.78c-0.18-0.25-0.53-0.31-0.78-0.14 c-0.03,0.02-3.52,2.45-4.64,3.18c-1.45,0.93-1.15,2.4-1.14,2.46C303.77,151.47,304,151.65,304.25,151.65z M309.39,273.04 c0,0-2.19-5.07-8.49-6.83l-5.91,4.8c0,0-1.3-3.96-6.28-4.8c0,0-5.81,4.83-10.33,8.04c-4.53,3.21-9.05,6.03-9.05,8.86s0,2.83,0,2.83 H326c0,0,0.89-10.53,0.3-12.9C324.2,273.04,309.39,273.04,309.39,273.04z M298.62,256.34c0.04,0.27,0.28,0.47,0.55,0.47 c0.03,0,0.06,0,0.09-0.01c0.3-0.05,0.51-0.34,0.46-0.64c-0.07-0.44-7.19-44.12-8.32-62.82c-1.08-17.9,4.94-30.04,16.54-33.31 c11.04-3.12,60.04-11.96,60.53-12.05c0.3-0.05,0.5-0.34,0.45-0.65c-0.06-0.3-0.35-0.5-0.65-0.45c-0.49,0.09-49.54,8.94-60.64,12.07 c-12.14,3.43-18.46,15.98-17.35,34.45C291.42,212.17,298.55,255.9,298.62,256.34z M420.25,190.46c-0.31,0-0.56,0.25-0.56,0.56 v32.68c0,3.37-2.74,6.11-6.11,6.11h-85.69c-0.31,0-0.56,0.25-0.56,0.56c0,0.31,0.25,0.56,0.56,0.56h85.69 c3.98,0,7.23-3.24,7.23-7.23v-32.68C420.8,190.71,420.55,190.46,420.25,190.46z M453.06,140.31c-0.31,0-0.56,0.25-0.56,0.56 s0.25,0.56,0.56,0.56c11.58,0,20.56,12.63,20.56,23.5v119.23c0,0.31,0.25,0.56,0.56,0.56c0.31,0,0.56-0.25,0.56-0.56V164.93 C474.74,150.84,463.29,140.31,453.06,140.31z M448.81,163.59c0,2.22-1.81,4.03-4.03,4.03c-2.22,0-4.03-1.81-4.03-4.03 c0-2.22,1.81-4.03,4.03-4.03C447,159.56,448.81,161.37,448.81,163.59z M447.69,163.59c0-1.61-1.31-2.92-2.92-2.92 c-1.61,0-2.92,1.31-2.92,2.92c0,1.61,1.31,2.92,2.92,2.92C446.39,166.51,447.69,165.2,447.69,163.59z M399.73,141.75l-1.11,13.33 c-0.03,0.31,0.2,0.58,0.51,0.6c0.02,0,0.03,0,0.05,0c0.29,0,0.53-0.22,0.55-0.51l1.11-13.33c0.03-0.31-0.2-0.58-0.51-0.6 C400.04,141.21,399.76,141.44,399.73,141.75z M392.99,165.25c0.23-0.02,0.41-0.18,0.48-0.38c0.88,0.08,1.77,0.12,2.66,0.12 c0.31,0,0.56-0.25,0.56-0.56s-0.25-0.56-0.56-0.56c-3.43,0-7.12-0.72-9.46-1.27c0.01-0.04,0.03-0.09,0.03-0.14 c0-0.28,0.11-0.51,0.34-0.71c1.3-1.12,5.5-0.8,7.01-0.57c0.31,0.04,0.59-0.17,0.63-0.47c0.05-0.3-0.17-0.59-0.47-0.63 c-0.61-0.09-5.98-0.83-7.9,0.83c-0.44,0.38-0.68,0.87-0.71,1.42c-0.83-0.21-1.33-0.36-1.35-0.37c-0.29-0.09-0.61,0.08-0.7,0.37 c-0.09,0.29,0.08,0.61,0.37,0.7c0.17,0.05,2.99,0.9,6.54,1.46c-4.28,0.87-8.79,3.31-13.31,11.04c-4.93,8.44-12,24.76-12.07,24.92 c-0.06,0.14-0.06,0.29-0.01,0.42l-0.36,0.91l-15-5.94c-0.91,2.34-1.78,4.5-2.28,5.58c-1.41,3.01-6.19,3.01-9.55,3.71 c-3.36,0.71-4.6,4.24-1.59,5.84c3.01,1.59,6.9,3.18,6.9,3.18s1.24,1.95,8.31,3.54c7.07,1.59,15.55,4.07,18.38,4.07 c2.83,0,3.89-2.48,6.72-5.84c0.97-1.15,3.64-4.71,6.73-8.87l-16.55-7.67c1.87-4.24,7.33-16.42,11.35-23.29 C382.96,167.81,387.56,165.77,392.99,165.25z M419.14,105.35c-0.77-1.15-1.63-0.29-4.96,0.21l1.66,3.98 C417.68,107.87,419.54,105.96,419.14,105.35z M359.77,78.41c-0.3-0.05-0.59,0.16-0.64,0.46c-0.25,1.58-6.15,38.91-6.15,48.29 c0,9.42,1.15,13.41,1.2,13.57c0.07,0.24,0.29,0.4,0.53,0.4c0.05,0,0.11-0.01,0.16-0.02c0.29-0.09,0.46-0.4,0.38-0.69 c-0.01-0.04-1.15-4.03-1.15-13.26c0-9.3,6.08-47.73,6.14-48.12C360.29,78.74,360.08,78.45,359.77,78.41z M383.95,56.3 c-0.16-0.27-0.5-0.35-0.76-0.2c-0.26,0.16-0.35,0.5-0.2,0.76l4.1,6.93c0.1,0.17,0.29,0.27,0.48,0.27c0.06,0,0.12-0.01,0.18-0.03 l12.76-4.25c0.29-0.1,0.45-0.41,0.35-0.7c-0.1-0.29-0.41-0.45-0.71-0.35l-12.33,4.11L383.95,56.3z M375.91,70.94 c0-1.08,0.88-1.96,1.96-1.96s1.96,0.88,1.96,1.96s-0.88,1.96-1.96,1.96S375.91,72.02,375.91,70.94z M377.02,70.94 c0,0.47,0.38,0.84,0.84,0.84s0.84-0.38,0.84-0.84c0-0.47-0.38-0.84-0.84-0.84S377.02,70.47,377.02,70.94z M374.85,110.3 c1.08,0,1.96,0.88,1.96,1.96s-0.88,1.96-1.96,1.96c-1.08,0-1.96-0.88-1.96-1.96S373.77,110.3,374.85,110.3z M374.01,112.26 c0,0.47,0.38,0.84,0.84,0.84c0.47,0,0.84-0.38,0.84-0.84s-0.38-0.84-0.84-0.84C374.39,111.42,374.01,111.8,374.01,112.26z M373.88,133.45c1.08,0,1.96,0.88,1.96,1.96s-0.88,1.96-1.96,1.96s-1.96-0.88-1.96-1.96S372.8,133.45,373.88,133.45z M373.04,135.4 c0,0.47,0.38,0.84,0.84,0.84s0.84-0.38,0.84-0.84c0-0.47-0.38-0.84-0.84-0.84S373.04,134.94,373.04,135.4z M376.1,87.98 c1.08,0,1.96,0.88,1.96,1.96s-0.88,1.96-1.96,1.96s-1.96-0.88-1.96-1.96S375.02,87.98,376.1,87.98z M375.25,89.94 c0,0.47,0.38,0.84,0.84,0.84s0.84-0.38,0.84-0.84c0-0.47-0.38-0.84-0.84-0.84S375.25,89.47,375.25,89.94z M89.91,183.6 c-14.64-31.48-43.74-30.3-43.74-30.3l-20.12-42.59c4.36,3.48,23.82,18.96,31.03,24.14c5.21,3.74,13.31,6.26,20.87,6.26 c4.44,0,8.7-0.87,12.06-2.87c8.78-5.23,18.27-15.39,18.36-15.49c0.21-0.23,0.2-0.58-0.03-0.79c-0.23-0.21-0.58-0.2-0.79,0.03 c-0.09,0.1-9.47,10.15-18.11,15.29c-8.72,5.19-23.71,2.41-31.71-3.33c-8.08-5.8-31.63-24.62-31.87-24.81 c-0.24-0.19-0.59-0.15-0.78,0.09c-0.08,0.1-0.11,0.23-0.11,0.35H11.83c-7.05,0-12.54,6.13-11.76,13.14 c1.87,16.71,5.18,44.6,7.53,54.7c3.44,14.81,4.82,43.05,30.3,43.05c25.48,0,79.55,0,107.44,0c27.89,0,23.07-37.19,23.07-37.19 L89.91,183.6z M219.33,229.47c0.05,0,0.11-0.01,0.16-0.02c0.29-0.09,0.46-0.4,0.38-0.69c-0.13-0.45-13.43-45.37-18.17-62.09 c-4.87-17.17-22.38-15.31-22.56-15.29c-0.06,0.01-0.11,0.02-0.17,0.05l-66.89,30.54c-0.28,0.13-0.4,0.46-0.28,0.74 c0.13,0.28,0.46,0.4,0.74,0.28l66.81-30.5c1.43-0.14,16.79-1.32,21.27,14.5c4.74,16.72,18.04,61.65,18.17,62.1 C218.87,229.32,219.09,229.47,219.33,229.47z M33.31,48.94c-2.99-9.24-4.62-20.38,10.33-26.36c14.95-5.98,28.67,0,29.21,6.52 c0,0,3.93,3.85,3.01,9.52c0.84,0.32,1.6,0.83,2.15,1.56c1.37,1.82,1.39,5.02,0.04,7.43c-0.98,1.75-2.47,2.73-4.15,2.73 c-0.13,0-0.26-0.01-0.39-0.02c-1.25-0.11-2.35-0.49-3.29-1.11c0.15,0.44,0.13,0.87-0.07,1.26c-0.43,0.84-1.57,1.26-2.46,1.47 c-0.04,0.01-0.09,0.01-0.13,0.01c-0.25,0-0.48-0.17-0.54-0.43c-0.07-0.3,0.12-0.6,0.42-0.67c0.9-0.21,1.54-0.55,1.72-0.89 c0.05-0.09,0.09-0.22-0.01-0.45c-0.2-0.49-0.61-1.52-1-2.49c-0.95-1.61-1.26-3.54-1.12-5.04c-1.16-0.45-1.75-0.05-1.92,0.11 c0.3,1.35,0.02,2.95-0.85,4.52c-1.28,2.3-3.4,3.72-5.49,3.72c-0.13,0-0.27-0.01-0.4-0.02c-2.25-0.2-4.05-1.25-5.21-3.03 c-1.39-2.13-1.56-4.96-1.03-6.53c0.37-1.1,1.86-1.92,4.07-2.27c2.88-0.45,6.68-0.01,8.23,2.06c0.11,0.15,0.2,0.31,0.29,0.47 c0.49-0.3,1.32-0.53,2.53-0.13c0.01-0.04,0.02-0.08,0.03-0.12c0.5-1.46,2.48-2.26,4.17-2.53c0.81-0.13,1.75-0.16,2.68-0.04 c-0.79-2.61-2.08-6.2-3.73-8.56c0,0-10.05,5.43-20.52,5.84c0,0-2.31,9.1-2.99,11.01c-0.68,1.9-2.17,1.77-3.26,0.27 c-1.09-1.49-2.99-6.52-2.99-6.52s-4.21,1.09-4.35,5.71c-0.14,4.62,3.53,6.93,6.66,6.52l-0.1,7.84 C42.85,60.31,36.3,58.18,33.31,48.94z M63.54,41.23c-1.2-1.6-4.59-2.03-7.16-1.63c-1.68,0.27-2.96,0.88-3.19,1.53 c-0.39,1.13-0.36,3.61,0.91,5.56c0.98,1.51,2.45,2.36,4.37,2.53c2.17,0.19,3.95-1.57,4.83-3.14C64.3,44.28,64.39,42.37,63.54,41.23 z M75.61,39.73c-0.15,0.56-0.33,1.14-0.59,1.73c0,0-0.19-0.83-0.54-2.08c-0.97-0.19-1.99-0.18-2.85-0.04 c-1.7,0.27-3.02,0.99-3.29,1.79c-0.25,0.73-0.32,2.01-0.01,3.36l0.03-0.01c0,0,0.39,0.99,0.82,2.09c0.03,0.04,0.04,0.08,0.07,0.13 c0.98,1.51,2.45,2.36,4.37,2.53c1.87,0.16,2.98-1.27,3.47-2.15c1.12-2.02,1.14-4.75,0.04-6.22C76.73,40.34,76.2,39.99,75.61,39.73z M58.11,43.93c-0.5,0-0.9,0.4-0.9,0.9c0,0.5,0.4,0.9,0.9,0.9s0.9-0.4,0.9-0.9C59.01,44.33,58.6,43.93,58.11,43.93z M71.46,43.97 c-0.5,0-0.9,0.4-0.9,0.9c0,0.5,0.4,0.9,0.9,0.9c0.5,0,0.9-0.4,0.9-0.9C72.36,44.38,71.96,43.97,71.46,43.97z M62.03,54.74 c1.9,0.72,4.06,0.66,4.16,0.66c0.31-0.01,0.55-0.27,0.54-0.57c-0.01-0.31-0.28-0.55-0.57-0.54c-0.03,0-2.04,0.05-3.73-0.59 c-1.27-0.48-2.27-0.42-2.75,0.18c-0.3,0.38-0.48,1.08,0.33,2.28c1.29,1.91,4.21,2.64,4.33,2.67c0.04,0.01,0.09,0.02,0.13,0.02 c0.25,0,0.48-0.17,0.54-0.42c0.07-0.3-0.11-0.6-0.41-0.67c-0.03-0.01-2.62-0.66-3.68-2.21c-0.44-0.64-0.41-0.93-0.38-0.96 C60.62,54.49,61.1,54.39,62.03,54.74z M55.27,38.49c0.03-0.02,2.8-1.7,6.86,0.1c0.07,0.03,0.15,0.05,0.23,0.05 c0.21,0,0.42-0.12,0.51-0.33c0.12-0.28,0-0.61-0.28-0.74c-4.6-2.04-7.77-0.11-7.9-0.03c-0.26,0.16-0.34,0.51-0.18,0.77 C54.66,38.57,55.01,38.65,55.27,38.49z M68.36,38.95c0.11,0,0.22-0.03,0.31-0.1c0.02-0.01,2-1.35,4.1-0.74 c0.3,0.08,0.6-0.08,0.69-0.38c0.09-0.3-0.08-0.6-0.38-0.69c-2.6-0.75-4.94,0.82-5.04,0.89c-0.25,0.17-0.32,0.52-0.14,0.77 C68.01,38.86,68.19,38.95,68.36,38.95z M58.49,67.68c-4.62-1.22-6.39-1.72-7.03-0.58c-0.47,0.85,4.43,3.83,6.94,5.28L58.49,67.68z M89.98,91.81H76.64c-0.2,0-0.39,0.11-0.49,0.29c-0.1,0.18-0.09,0.4,0.02,0.57c0.17,0.28,4.29,6.79,6.76,9.85 c1.97,2.44,5.56,3.06,7.31,3.22l-13.29,8.45L44.94,89.25c-0.24-0.19-0.59-0.15-0.78,0.1c-0.19,0.24-0.15,0.59,0.1,0.78l32.32,25.18 c0.1,0.08,0.22,0.12,0.34,0.12c0.1,0,0.21-0.03,0.3-0.09l20.09-12.78c0.26-0.17,0.34-0.51,0.17-0.77 c-0.17-0.26-0.51-0.34-0.77-0.17l-5.06,3.22c-0.1-0.1-0.24-0.16-0.39-0.16c-0.05,0-5.18-0.04-7.46-2.86 c-1.91-2.36-4.92-6.98-6.14-8.89h12.73c0.12,0,0.22-0.04,0.31-0.11l0.84,1.19c0.11,0.15,0.28,0.23,0.45,0.23 c0.11,0,0.22-0.03,0.32-0.1c0.25-0.18,0.31-0.53,0.13-0.78l-6.43-9.07c-0.18-0.25-0.53-0.31-0.78-0.13 c-0.25,0.18-0.31,0.53-0.13,0.78L89.98,91.81z M62.09,82.45c0.99,0,1.8,0.81,1.8,1.8c0,0.99-0.81,1.8-1.8,1.8s-1.8-0.81-1.8-1.8 C60.28,83.26,61.09,82.45,62.09,82.45z M62.09,83.57c-0.38,0-0.69,0.31-0.69,0.69c0,0.38,0.31,0.69,0.69,0.69 c0.38,0,0.69-0.31,0.69-0.69C62.77,83.87,62.46,83.57,62.09,83.57z M78.02,112.52c-0.99,0-1.8-0.81-1.8-1.8 c0-0.99,0.81-1.8,1.8-1.8c0.99,0,1.8,0.81,1.8,1.8C79.83,111.71,79.02,112.52,78.02,112.52z M78.02,111.4 c0.38,0,0.69-0.31,0.69-0.69c0-0.38-0.31-0.69-0.69-0.69c-0.38,0-0.69,0.31-0.69,0.69C77.34,111.1,77.65,111.4,78.02,111.4z M70.42,100.82c-0.99,0-1.8-0.81-1.8-1.8c0-0.99,0.81-1.8,1.8-1.8c0.99,0,1.8,0.81,1.8,1.8C72.22,100.01,71.41,100.82,70.42,100.82 z M70.42,99.71c0.38,0,0.69-0.31,0.69-0.69c0-0.38-0.31-0.69-0.69-0.69c-0.38,0-0.69,0.31-0.69,0.69 C69.74,99.4,70.04,99.71,70.42,99.71z M107.39,95.92c-0.22,0.22-0.22,0.57,0,0.79l11.7,11.7c0.11,0.11,0.25,0.16,0.39,0.16 c0.14,0,0.29-0.05,0.39-0.16c0.22-0.22,0.22-0.57,0-0.79l-11.7-11.7C107.96,95.7,107.61,95.7,107.39,95.92z M91.28,54.29 c-0.08-0.26,0.04-0.54,0.28-0.66l21.62-11.09c2.23-1.14,3.59-3.41,3.56-5.91l-0.19-13.89c-0.05-3.4,2.68-6.22,6.08-6.29l85.27-1.74 c3.3-0.02,6.09,2.47,6.32,5.78l2.18,31.48c0.12,1.67-0.43,3.28-1.54,4.54c-1.11,1.26-2.64,2-4.31,2.09l-85,4.64 c-0.11,0.01-0.22,0.01-0.34,0.01c-3.07,0-5.74-2.3-6.15-5.37c-0.48-3.53-3.74-6.05-7.28-5.62l-19.89,2.43 C91.61,54.72,91.36,54.55,91.28,54.29z M94.86,53.2l16.78-2.05c0.31-0.04,0.62-0.06,0.92-0.06c3.77,0,7.08,2.81,7.59,6.63 c0.35,2.61,2.7,4.55,5.32,4.4l85-4.64c1.37-0.08,2.63-0.68,3.54-1.71c0.91-1.03,1.36-2.35,1.26-3.72l-2.18-31.48 c-0.19-2.71-2.5-4.82-5.18-4.74l-85.27,1.74c-2.79,0.06-5.03,2.37-4.99,5.16l0.19,13.89c0.04,2.93-1.55,5.58-4.16,6.92L94.86,53.2z M128.61,28.78C128.61,28.78,128.62,28.78,128.61,28.78l72.04-1.23c0.31-0.01,0.55-0.26,0.55-0.57c-0.01-0.31-0.26-0.55-0.57-0.55 l-72.03,1.23c-0.31,0.01-0.55,0.26-0.55,0.57C128.06,28.54,128.31,28.78,128.61,28.78z M200.63,36.56l-71.11,1.23 c-0.31,0.01-0.55,0.26-0.55,0.57c0.01,0.3,0.25,0.55,0.56,0.55c0,0,0.01,0,0.01,0l71.11-1.23c0.31-0.01,0.55-0.26,0.55-0.57 C201.19,36.8,200.93,36.57,200.63,36.56z M182.55,48.82C182.55,48.82,182.55,48.82,182.55,48.82l-51.19,0.31 c-0.31,0-0.56,0.25-0.55,0.56c0,0.31,0.25,0.55,0.56,0.55c0,0,0,0,0,0l51.18-0.31c0.31,0,0.56-0.25,0.55-0.56 C183.11,49.06,182.86,48.82,182.55,48.82z M187.76,49.12h-2.15c-0.31,0-0.56,0.25-0.56,0.56s0.25,0.56,0.56,0.56h2.15 c0.31,0,0.56-0.25,0.56-0.56S188.07,49.12,187.76,49.12z M140.01,92.7c-2.13,0-13.48,0.24-13.59,0.24 c-0.31,0.01-0.55,0.26-0.55,0.57c0.01,0.3,0.25,0.55,0.56,0.55c0,0,0.01,0,0.01,0c0.11,0,11.45-0.24,13.57-0.24 c1.19,0,2.08-0.74,2.31-1.94c0.18-0.9-0.06-2.03-0.85-2.35c-0.29-0.12-0.61,0.02-0.73,0.31c-0.12,0.29,0.02,0.61,0.31,0.73 c0.12,0.07,0.31,0.6,0.16,1.2C141.1,92.19,140.8,92.7,140.01,92.7z M256.3,280.56h-48.11c-0.31,0-0.56,0.25-0.56,0.56 s0.25,0.56,0.56,0.56h48.11c0.31,0,0.56-0.25,0.56-0.56S256.61,280.56,256.3,280.56z M259.26,238.5c-0.33-0.03-0.57,0.21-0.59,0.52 c-0.01,0.12-0.25,2.81-3.82,2.81h-29.99c-0.31,0-0.56,0.25-0.56,0.56s0.25,0.56,0.56,0.56h29.99c4.64,0,4.93-3.82,4.93-3.86 C259.79,238.78,259.56,238.52,259.26,238.5z" fill="#28407E"/></g></svg>