<?xml version="1.0" encoding="UTF-8"?><svg xmlns="http://www.w3.org/2000/svg" xmlns:xlink="http://www.w3.org/1999/xlink" height="286.1" preserveAspectRatio="xMidYMid meet" version="1.0" viewBox="0.0 -2.2 500.0 286.1" width="500.0" zoomAndPan="magnify"><defs><clipPath id="a"><path d="M 0 2 L 499 2 L 499 283.328125 L 0 283.328125 Z M 0 2"/></clipPath><clipPath id="b"><path d="M 489 231 L 500.011719 231 L 500.011719 252 L 489 252 Z M 489 231"/></clipPath></defs><g><g clip-path="url(#a)" id="change1_1"><path d="M 340.308594 214.851562 L 340.511719 214.214844 C 339.863281 213.359375 336.613281 211.898438 334.210938 210.820312 C 331.902344 209.785156 329.289062 208.609375 326.605469 207.136719 C 321.597656 204.394531 316.488281 201.726562 315.453125 201.183594 L 313.546875 200.140625 L 314.253906 199.070312 C 313.472656 196.109375 310.839844 186.046875 308.53125 176.679688 L 311.972656 174.878906 C 321.871094 186.117188 337.921875 199.191406 351.117188 199.773438 C 358.914062 205.546875 373.644531 210.3125 376.207031 211.117188 C 377.351562 214.015625 378.441406 216.582031 379.183594 218.46875 C 379.183594 218.46875 379.183594 218.46875 379.183594 218.472656 C 379.304688 219.746094 379.675781 220.988281 380.179688 222.160156 C 380.382812 222.632812 380.59375 223.09375 380.855469 223.519531 C 367.289062 220.085938 354 216.65625 340.308594 214.851562 Z M 497.519531 240.976562 C 495.976562 237.582031 493.378906 234.964844 489.792969 233.1875 L 488.566406 232.578125 L 488.6875 231.21875 C 488.75 230.550781 488.800781 229.953125 488.835938 229.476562 L 488.835938 229.453125 L 484.296875 215.035156 C 484.449219 214.804688 484.609375 214.574219 484.765625 214.339844 L 484.808594 214.355469 L 484.777344 214.324219 C 488.40625 208.953125 492.785156 201.945312 494.1875 197.511719 C 497.9375 185.625 491.761719 174.8125 486.605469 167.800781 C 487.410156 166.144531 486.855469 165.285156 486.632812 164.945312 L 486.496094 164.734375 C 486.46875 164.6875 486.4375 164.632812 486.398438 164.585938 L 486.300781 164.449219 C 486.03125 164.039062 485.699219 163.613281 485.289062 163.148438 C 484.273438 161.960938 482.914062 160.714844 481.253906 159.4375 C 476.429688 155.722656 471.066406 153.441406 466.5625 153.179688 C 466.371094 153.171875 466.183594 153.164062 465.996094 153.164062 C 464.777344 153.164062 463.636719 153.378906 462.605469 153.800781 L 458.855469 155.328125 C 463.089844 151.136719 466.125 145.96875 467.996094 140.144531 C 472.976562 140.128906 477.011719 136.089844 477.011719 131.105469 C 477.011719 130.363281 476.910156 129.652344 476.742188 128.964844 C 481.023438 125.710938 483.210938 118.761719 482.242188 114.46875 C 481.382812 111.496094 479.023438 107.324219 476.792969 107.140625 L 470.199219 106.601562 L 475.988281 103.398438 C 480.179688 101.074219 480.332031 95.074219 479.183594 90.640625 C 477.664062 84.761719 473.335938 78.808594 468 78.808594 C 467.6875 78.808594 467.371094 78.828125 467.058594 78.867188 L 464.710938 79.167969 L 464.808594 76.804688 C 464.902344 74.390625 463.953125 72.132812 461.988281 70.085938 C 458.253906 66.199219 451.191406 63.585938 444.417969 63.585938 C 440.128906 63.585938 436.5625 64.644531 434.386719 66.5625 L 433.304688 67.519531 L 432.058594 66.789062 C 427.671875 64.230469 423.242188 62.878906 419.246094 62.878906 C 414.722656 62.878906 410.757812 64.582031 407.480469 67.929688 C 407.328125 68.097656 406.988281 68.53125 406.574219 69.058594 C 403.808594 72.5625 403.160156 73.246094 401.953125 73.246094 L 401.777344 73.246094 L 401.617188 73.222656 C 400.953125 73.113281 400.285156 73.058594 399.640625 73.058594 C 396.597656 73.058594 393.835938 74.273438 391.652344 76.574219 C 388.769531 79.609375 387.1875 84.222656 387.429688 88.917969 L 387.496094 90.300781 L 386.230469 90.851562 C 384.519531 91.601562 382.550781 93.273438 381.4375 94.917969 C 377.917969 100.121094 378.902344 109.320312 383.503906 114.214844 C 383.691406 114.410156 384.855469 115.488281 385.828125 116.371094 L 386.484375 116.96875 L 386.484375 117.851562 C 386.484375 117.910156 386.496094 123.71875 387.316406 126.796875 C 388.585938 131.5625 390.8125 133.980469 393.976562 133.980469 L 394.140625 133.980469 C 393.933594 135.792969 393.8125 137.828125 394.5 140.652344 C 396.113281 147.265625 397.964844 151.335938 403.035156 155.5625 C 403.296875 155.777344 403.566406 155.984375 403.832031 156.195312 L 403.269531 157.234375 L 401.835938 156.960938 C 401.441406 156.886719 401 156.851562 400.523438 156.851562 C 398.707031 156.851562 396.8125 157.386719 395.832031 157.878906 C 394.546875 158.597656 393.132812 159.414062 391.660156 160.332031 L 391.085938 159.265625 C 386.476562 161.757812 384.734375 165.300781 381.109375 168.925781 C 377.714844 172.433594 373.925781 180.398438 371.769531 185.1875 L 367.21875 182.414062 C 367.695312 181.085938 367.71875 180.492188 367.710938 180.339844 C 367.609375 178.308594 363.742188 175.355469 360.636719 172.980469 C 358.34375 171.226562 356.179688 169.574219 354.6875 167.847656 C 346.332031 158.171875 343.46875 153.835938 339.839844 148.34375 C 336.765625 143.683594 332.933594 137.882812 324.457031 126.890625 C 322.890625 124.855469 321.472656 122.90625 320.101562 121.019531 C 312.550781 110.640625 307.09375 103.140625 289.871094 100.4375 L 288.574219 100.234375 C 291.695312 96.988281 294.277344 93.21875 296.324219 89.035156 C 296.796875 89.101562 297.273438 89.148438 297.765625 89.148438 C 303.460938 89.148438 308.074219 84.53125 308.074219 78.835938 C 308.074219 76.746094 307.449219 74.804688 306.382812 73.179688 C 311.59375 63.699219 312.40625 51.589844 312.40625 45.085938 C 312.210938 32.25 304.101562 19.855469 291.230469 12.730469 C 277.941406 5.308594 266.574219 2 254.382812 2 C 250.046875 2 245.675781 2.417969 241.03125 3.273438 C 232.46875 4.925781 225.285156 5.695312 218.421875 5.695312 C 218.414062 5.695312 217.726562 5.695312 217.386719 5.691406 C 217.230469 5.695312 217.058594 5.699219 216.875 5.699219 C 216.414062 5.699219 215.851562 5.683594 215.234375 5.664062 C 214.53125 5.644531 213.75 5.617188 212.96875 5.617188 C 210.226562 5.617188 209.5625 5.941406 209.472656 5.996094 L 209.367188 6.074219 C 208.546875 6.605469 208.382812 9.40625 208.3125 10.605469 L 208.269531 11.316406 C 207.832031 15.148438 208.136719 18.859375 208.457031 22.785156 C 208.519531 23.546875 208.582031 24.308594 208.640625 25.128906 C 208.953125 32.484375 211.328125 36.519531 215.890625 41.820312 L 216.582031 42.628906 L 216.304688 43.652344 C 214.6875 49.570312 213.925781 54.597656 213.90625 59.476562 C 213.902344 60.882812 214.3125 63.066406 215.015625 65.0625 C 214.792969 68.917969 212.726562 71.535156 213.304688 77.597656 C 214.042969 85.324219 215.46875 90.21875 220.5 95.820312 C 221.390625 96.8125 222.328125 97.761719 223.292969 98.691406 L 222.851562 98.953125 L 222.492188 99.15625 L 221.960938 99.484375 L 221.335938 99.449219 C 220.46875 99.40625 219.625 99.382812 218.816406 99.382812 C 207.589844 99.382812 203.808594 103.796875 199.429688 108.902344 C 196.480469 112.34375 193.136719 116.242188 187.273438 118.710938 C 184.707031 119.773438 182.414062 120.90625 180.199219 122.007812 C 174.867188 124.648438 170.265625 126.925781 164.472656 126.925781 C 161.328125 126.925781 158.082031 126.238281 154.644531 124.855469 C 154.253906 124.71875 153.875 124.652344 153.488281 124.652344 C 151.625 124.652344 149.464844 126.289062 147.203125 129.363281 L 135.265625 127.964844 C 134.996094 126.949219 133.800781 124.703125 133.222656 123.789062 C 132.835938 123.179688 132.34375 122.441406 131.773438 121.679688 C 130.90625 119.945312 129.09375 114.582031 126.503906 113.144531 C 127.75 105.488281 124.652344 96.128906 121.0625 90.414062 C 119.621094 88.117188 117.828125 86.167969 116.078125 85.019531 C 115.855469 84.863281 115.621094 84.71875 115.355469 84.578125 L 114.699219 84.230469 L 114.429688 83.535156 C 108.117188 67.296875 86.609375 66.03125 80.167969 66.03125 C 78.074219 66.03125 75.976562 66.136719 73.945312 66.34375 C 56.289062 68.203125 44.175781 76.6875 37.949219 91.550781 C 34.300781 100.414062 33.65625 111.894531 36.347656 120.113281 L 36.378906 120.203125 L 36.398438 120.296875 C 36.6875 121.585938 37.074219 123.027344 37.523438 124.523438 C 35.683594 126.230469 34.523438 128.660156 34.523438 131.367188 C 34.523438 136.53125 38.707031 140.714844 43.867188 140.714844 C 44.503906 140.714844 45.128906 140.648438 45.730469 140.527344 C 46.222656 141.046875 46.703125 141.515625 47.167969 141.910156 L 47.839844 142.480469 C 48.8125 143.800781 49.875 145.066406 51.042969 146.265625 L 45.566406 145.410156 C 44.8125 145.292969 43.992188 145.234375 43.128906 145.234375 C 39.378906 145.234375 35 146.335938 31.113281 148.253906 C 27.054688 150.257812 22.863281 154.476562 19.902344 159.535156 L 19.847656 159.621094 C 19.722656 159.835938 19.597656 160.0625 19.445312 160.34375 C 18.574219 161.914062 17.941406 163.300781 17.503906 164.621094 C 17.3125 165.167969 17.167969 165.6875 17.074219 166.171875 L 17.039062 166.324219 C 17.019531 166.390625 17.011719 166.453125 17 166.519531 L 16.957031 166.742188 C 16.867188 167.214844 16.667969 168.265625 18.511719 169.542969 C 15.5 184.558594 13.910156 200.828125 20.863281 213.960938 C 21.390625 214.957031 21.957031 215.941406 22.546875 216.910156 C 17.792969 216.792969 13.277344 217.621094 9.226562 219.886719 C 0.523438 224.746094 -2.90625 236.402344 2.816406 244.578125 C 7.21875 250.871094 16.199219 255.824219 24.101562 258.628906 C 24.15625 259.121094 24.210938 259.621094 24.261719 260.128906 L 24.386719 261.34375 L 23.363281 262.007812 C 22.058594 262.859375 21.695312 263.363281 21.617188 263.496094 L 21.613281 263.527344 L 21.585938 263.648438 C 21.113281 265.714844 21.546875 266.574219 21.695312 266.789062 C 21.808594 266.957031 21.941406 267.050781 22.101562 267.074219 L 22.257812 267.097656 C 30.148438 268.316406 69.910156 274.578125 77.875 278.238281 C 80.0625 279.242188 82.179688 279.753906 84.175781 279.753906 C 87.292969 279.753906 89.03125 278.523438 89.082031 278.484375 L 89.417969 278.226562 L 89.828125 278.128906 C 89.828125 278.128906 101.644531 275.28125 113.988281 272.25 L 114.089844 272.230469 C 121.230469 270.859375 126.683594 269.503906 131.238281 267.96875 L 131.386719 267.925781 C 138.371094 266.15625 140.425781 265.5625 141.023438 265.363281 C 141.472656 264.808594 141.890625 263.179688 141.539062 262.621094 L 141.449219 262.527344 L 141.371094 262.472656 L 141.300781 262.40625 C 141.023438 262.171875 140.46875 261.71875 139.867188 261.359375 L 138.785156 260.707031 L 138.90625 259.449219 C 138.96875 258.84375 139.023438 258.25 139.078125 257.675781 C 144.546875 255.003906 149.6875 251.472656 152.75 247.277344 C 158.636719 239.214844 155.441406 227.496094 146.835938 222.460938 C 143.601562 220.566406 140.042969 219.609375 136.289062 219.320312 C 135.382812 219.121094 134.421875 218.980469 133.394531 218.898438 L 132.378906 218.816406 C 133.410156 217.195312 134.375 215.566406 135.21875 213.960938 C 143.207031 198.875 139.921875 179.65625 136.164062 162.949219 C 136.660156 161.871094 136.402344 161.277344 136.28125 161.019531 L 136.183594 160.796875 C 136.160156 160.738281 136.136719 160.683594 136.105469 160.628906 L 136.0625 160.554688 L 136.027344 160.476562 C 135.824219 160.035156 135.5625 159.558594 135.226562 159.039062 C 134.398438 157.710938 133.242188 156.273438 131.792969 154.761719 C 129.65625 152.53125 127.226562 150.570312 124.769531 149.085938 L 122.304688 147.601562 C 123.417969 147.65625 124.535156 147.609375 125.628906 147.421875 C 126.203125 147.300781 126.707031 147.109375 127.167969 146.871094 C 127.167969 146.871094 127.167969 146.875 127.167969 146.875 C 127.167969 146.875 131.890625 148.707031 137.90625 150.457031 C 137.660156 156.871094 145.382812 158.902344 154.066406 160.554688 C 158.84375 161.53125 161.6875 161.910156 164.210938 161.910156 C 167.507812 161.910156 170.40625 161.242188 175.664062 160.027344 L 177.605469 159.585938 C 179.542969 159.105469 185.496094 156.761719 203.585938 146.457031 L 207.542969 144.203125 L 206.523438 148.644531 C 204.960938 155.429688 203.449219 161.726562 201.984375 167.816406 C 199.429688 178.441406 197.222656 187.617188 195.757812 195.347656 C 194.421875 202.414062 194.683594 204.257812 194.695312 204.332031 C 194.679688 204.234375 194.664062 204.195312 194.664062 204.195312 L 193.160156 202.785156 L 192.742188 206.742188 L 192.972656 206.730469 L 194.125 206.179688 C 194.0625 206.238281 187.953125 212.167969 185.480469 215.617188 C 182.199219 220.1875 180.019531 224.996094 178.945312 229.972656 C 177.542969 231.984375 176.566406 234.472656 176.167969 237.550781 C 174.011719 254.101562 193.09375 257.035156 201.800781 258.347656 C 218.226562 260.816406 249.140625 262.277344 269.757812 263.519531 C 269.757812 263.519531 271.519531 262.917969 273.539062 261.554688 L 272.3125 264.046875 C 272.503906 264.4375 272.695312 264.925781 272.945312 265.554688 C 274.042969 268.324219 276.089844 273.472656 279.78125 273.472656 C 280 273.472656 280.230469 273.457031 280.460938 273.421875 C 281.832031 273.222656 282.269531 272.710938 282.5 271.003906 C 283.40625 265.207031 283.53125 257.257812 282.835938 249.742188 L 282.589844 247.066406 L 285.222656 247.597656 C 291.8125 248.921875 298.320312 249.683594 303.078125 249.683594 C 303.753906 249.683594 304.390625 249.667969 304.980469 249.636719 C 306.636719 249.542969 307.015625 249.238281 307.027344 249.238281 C 307.058594 249.175781 307.121094 248.933594 307.066406 248.042969 L 306.984375 246.714844 C 310.101562 248.777344 313.800781 249.882812 317.214844 250.855469 C 322.15625 252.265625 340.6875 251.558594 359.363281 250.765625 C 359.667969 252.953125 360.464844 255.082031 361.851562 256.984375 C 366.78125 263.734375 385.105469 267.636719 392.851562 269.390625 C 392.183594 270.445312 391.554688 271.402344 390.964844 272.160156 C 389.40625 274.109375 385.636719 278.136719 386.285156 280.996094 C 387.585938 286.582031 398.761719 280.476562 400.710938 279.824219 C 404.480469 278.398438 413.054688 275.445312 416.824219 274.019531 C 417.027344 273.9375 417.277344 273.863281 417.546875 273.789062 C 418.382812 273.65625 419.121094 273.488281 419.703125 273.335938 C 422.707031 272.828125 426.503906 272.523438 426.503906 272.523438 C 438.566406 271.605469 466.695312 269.394531 470.660156 268.410156 C 478.371094 266.496094 489.300781 261.449219 494.09375 254.601562 C 495.679688 252.332031 496.46875 249.757812 496.5625 247.160156 C 498.824219 243.851562 497.875 241.761719 497.519531 240.976562" fill="#fabca4"/></g><g id="change2_1"><path d="M 115.324219 182.839844 C 115.039062 181.167969 113.527344 178.453125 112.976562 176.457031 C 112.988281 176.492188 112.996094 176.511719 112.996094 176.511719 C 112.996094 176.511719 113.476562 176.710938 114.113281 176.875 C 114.140625 176.601562 114.308594 176.359375 114.675781 176.277344 C 121.433594 174.816406 129.378906 171.636719 134.136719 166.417969 C 134.742188 165.753906 136.53125 165.957031 136.773438 165.664062 C 138.195312 163.945312 136.4375 157.238281 136.226562 156.933594 C 135.863281 156.417969 135.570312 156.035156 135.167969 155.542969 C 135.03125 155.375 133.34375 156.035156 132.53125 155.578125 C 130.148438 154.238281 128.460938 151.6875 126.328125 150 C 123.023438 147.386719 119.191406 145.355469 114.9375 144.980469 C 114.609375 144.953125 113.386719 144.519531 112.90625 144.683594 C 112.625 150.980469 102.542969 161.683594 99.164062 162.863281 C 92.988281 165.027344 65.945312 162.886719 63.304688 161.863281 C 56.40625 159.195312 53.574219 149.320312 49.519531 144.601562 C 48.363281 143.257812 47.335938 141.835938 46.402344 140.359375 C 45.597656 140.585938 44.75 140.714844 43.871094 140.714844 C 43.644531 140.714844 43.417969 140.695312 43.191406 140.679688 C 44.011719 141.65625 44.933594 142.632812 45.878906 143.4375 C 45.886719 143.4375 45.894531 143.4375 45.902344 143.441406 C 41.351562 142.722656 21.414062 153.3125 18.644531 157.777344 C 18.480469 158.042969 18.335938 158.261719 18.179688 158.527344 C 18.164062 158.554688 18.144531 158.585938 18.125 158.613281 C 17.984375 158.859375 17.84375 159.117188 17.703125 159.371094 L 17.703125 159.375 C 16.914062 160.792969 16.871094 169.027344 18.957031 170.242188 C 21.15625 171.523438 24.027344 172.296875 26.007812 172.875 C 26.613281 173.054688 27.210938 173.226562 27.800781 173.390625 C 27.902344 173.421875 27.996094 173.445312 28.097656 173.476562 C 28.585938 173.613281 29.070312 173.75 29.542969 173.882812 C 29.628906 173.902344 29.707031 173.925781 29.789062 173.949219 C 30.289062 174.085938 43.492188 177.621094 43.492188 177.621094 C 43.167969 178.875 41.125 180.976562 40.914062 182.09375 C 40.679688 183.332031 40.511719 184.511719 40.414062 185.652344 L 41.125 195 C 41.386719 196.21875 41.710938 197.496094 42.09375 198.875 C 42.234375 199.371094 46.074219 202.238281 46.230469 202.761719 C 47.03125 205.488281 44.1875 205.855469 45.09375 208.570312 C 45.527344 209.867188 45.976562 211.160156 46.433594 212.445312 C 47.078125 214.253906 50.617188 216.007812 51.3125 217.792969 C 52.210938 220.097656 50.28125 222.429688 51.273438 224.683594 C 51.964844 224.960938 52.65625 225.238281 53.339844 225.515625 C 53.296875 225.652344 53.257812 225.792969 53.226562 225.964844 C 53.203125 226.097656 53.195312 226.25 53.191406 226.410156 C 53.191406 226.449219 53.191406 226.488281 53.195312 226.53125 C 53.199219 226.695312 53.207031 226.871094 53.230469 227.0625 C 53.734375 231.195312 58.636719 240.746094 58.636719 240.746094 C 58.636719 240.746094 58.648438 240.773438 58.652344 240.785156 C 61.175781 243.453125 66.335938 245.046875 64.28125 248.433594 C 63.820312 249.234375 63.15625 249.636719 62.390625 249.785156 C 62.957031 251.117188 61.398438 254.441406 61.773438 255.246094 C 62.855469 257.574219 67.789062 260.976562 68.800781 260.683594 C 69.808594 260.390625 72.152344 253.667969 71.878906 252.578125 C 71.609375 251.511719 67.625 249.871094 67.179688 248.683594 C 66.320312 246.382812 65.265625 244.058594 64.492188 242.441406 C 63.878906 241.160156 63.449219 240.324219 63.449219 240.324219 C 63.449219 240.324219 59.714844 232.058594 58.28125 228.867188 C 58.011719 228.269531 57.691406 227.675781 57.339844 227.125 C 58.179688 227.457031 59.097656 225.664062 59.917969 225.980469 C 60.316406 226.136719 60.628906 228.421875 61.03125 228.582031 C 67.109375 231.019531 73.503906 234.101562 79.085938 236.980469 C 84.496094 234.382812 90.476562 231.726562 96.101562 229.667969 C 97.917969 229 99.789062 228.289062 101.695312 227.566406 C 102.347656 227.316406 108.027344 217.015625 109.449219 213.066406 C 109.910156 211.78125 110.359375 210.492188 110.796875 209.199219 C 111.257812 207.832031 109.746094 205.074219 110.339844 203.167969 C 111.011719 201 113.761719 199.742188 113.804688 199.601562 C 114.195312 198.234375 114.535156 196.960938 114.816406 195.757812 C 115.273438 193.78125 115.8125 187.699219 115.738281 186.421875 C 115.671875 185.265625 115.535156 184.082031 115.324219 182.839844" fill="#1c3249"/></g><g id="change2_2"><path d="M 327.570312 205.386719 C 322.058594 202.367188 316.421875 199.4375 316.410156 199.425781 C 316.328125 199.535156 192.859375 204.765625 192.75 204.746094 C 192.75 204.746094 191.179688 206.265625 189.289062 208.238281 C 187.390625 210.207031 185.171875 212.636719 183.871094 214.457031 C 179.269531 220.867188 176.109375 228.527344 176.179688 237.558594 C 176.890625 232.148438 179.308594 228.507812 182.851562 226.1875 C 186.390625 223.867188 191.039062 222.867188 196.191406 222.695312 C 210.800781 222.226562 229.421875 228.546875 238.070312 230.988281 C 243.878906 232.617188 249.671875 234.316406 255.449219 236.046875 C 260.171875 237.46875 267.398438 241.347656 272.28125 241.1875 L 276.550781 241.046875 C 277.101562 240.316406 279.320312 240.328125 281.921875 241.207031 C 284.871094 242.105469 284.589844 246.847656 284.839844 249.546875 L 284.839844 249.558594 C 292.789062 251.15625 300.351562 251.898438 305.101562 251.636719 C 308.960938 251.425781 309.210938 250.066406 309.070312 247.925781 C 308.980469 246.476562 308.71875 244.675781 309.269531 242.617188 C 310.628906 238.527344 313.019531 234.777344 315.75 231.027344 C 321.539062 224.207031 340.53125 218.457031 342.320312 215.125 L 342.320312 215.117188 C 344.089844 211.785156 336.011719 210.007812 327.570312 205.386719" fill="#1c3249"/></g><g id="change2_3"><path d="M 214.378906 43.128906 C 212.929688 48.4375 211.929688 53.785156 211.910156 59.46875 C 211.910156 61.667969 212.730469 65.6875 214.390625 68.535156 C 214.78125 67.085938 215.101562 65.6875 215.039062 64.007812 C 214.839844 58.207031 216.171875 46.976562 217.769531 41.71875 C 221.789062 44.367188 228.890625 46.855469 231.988281 47.566406 C 237.488281 49.015625 240.199219 49.488281 248.300781 49.90625 C 251.460938 50.066406 258.628906 50.085938 262.449219 50.085938 C 267.808594 50.808594 273.261719 50.15625 278.660156 50.207031 C 279.398438 58.585938 280.71875 74.765625 287.28125 78.808594 C 288.621094 79.96875 290.328125 80.296875 291.828125 79.445312 C 293.761719 78.597656 294.570312 76.046875 295.171875 73.71875 C 295.820312 71.925781 296.628906 70.285156 298.359375 69.808594 C 300.238281 69.285156 302.648438 69.976562 304.5 71.035156 C 305.828125 72.1875 306.859375 73.667969 307.460938 75.347656 C 312.78125 66.515625 314.410156 54.605469 314.410156 45.058594 C 314.191406 30.546875 304.519531 17.796875 292.210938 10.988281 C 275.289062 1.535156 259.839844 -2.234375 240.660156 1.308594 C 233.070312 2.777344 225.289062 3.785156 217.359375 3.695312 C 215.371094 3.777344 209.910156 3.1875 208.28125 4.398438 C 206.441406 5.585938 206.421875 9.117188 206.28125 11.085938 C 205.738281 15.898438 206.300781 20.566406 206.648438 25.21875 C 206.988281 33.335938 209.789062 37.796875 214.378906 43.128906" fill="#1c3249"/></g><g id="change2_4"><path d="M 260.757812 80.933594 C 259.351562 80.9375 258.203125 79.6875 258.195312 78.140625 C 258.191406 76.59375 259.328125 75.332031 260.734375 75.324219 C 262.144531 75.320312 263.289062 76.570312 263.296875 78.117188 C 263.304688 79.664062 262.167969 80.925781 260.757812 80.933594" fill="#1c3249"/></g><g id="change2_5"><path d="M 234.960938 76.132812 C 234.964844 77.683594 233.828125 78.941406 232.421875 78.949219 C 231.011719 78.953125 229.867188 77.703125 229.859375 76.15625 C 229.851562 74.609375 230.988281 73.347656 232.398438 73.34375 C 233.804688 73.335938 234.953125 74.585938 234.960938 76.132812" fill="#1c3249"/></g><g id="change2_6"><path d="M 230.566406 64.003906 C 231.386719 63.832031 232.097656 63.496094 232.953125 63.457031 C 233.964844 63.410156 235.015625 63.855469 235.902344 64.285156 C 236.679688 64.660156 237.324219 63.589844 236.582031 63.125 C 234.683594 61.929688 231.539062 61.039062 229.96875 63.226562 C 229.671875 63.636719 230.15625 64.09375 230.566406 64.003906" fill="#1c3249"/></g><g id="change2_7"><path d="M 264.148438 66.40625 C 262.246094 65.214844 259.105469 64.320312 257.53125 66.511719 C 257.238281 66.917969 257.71875 67.375 258.132812 67.289062 C 258.949219 67.117188 259.660156 66.777344 260.519531 66.742188 C 261.53125 66.695312 262.578125 67.140625 263.46875 67.570312 C 264.242188 67.941406 264.886719 66.871094 264.148438 66.40625" fill="#1c3249"/></g><g id="change2_8"><path d="M 12.023438 218.578125 C 15.320312 217.300781 18.867188 216.820312 22.558594 216.914062 C 22.21875 216.355469 21.886719 215.789062 21.570312 215.222656 C 18.1875 215.488281 14.738281 216.410156 12.023438 218.578125" fill="#1c3249"/></g><g id="change2_9"><path d="M 132.105469 219.257812 C 136.3125 219.074219 140.335938 219.570312 144.023438 221.074219 C 141.199219 218.320312 137.339844 217.207031 133.566406 216.90625 C 133.097656 217.691406 132.613281 218.476562 132.105469 219.257812" fill="#1c3249"/></g><g id="change2_10"><path d="M 36.003906 126.351562 C 37 124.785156 38.449219 123.539062 40.167969 122.792969 C 41.554688 126.792969 41.8125 126.609375 43.089844 130.640625 C 43.773438 132.800781 45.167969 136.554688 48.113281 136.039062 C 50.261719 135.667969 54.691406 128.394531 56.585938 121.246094 L 57.546875 120.84375 C 61.105469 121.472656 64.914062 121.199219 69.023438 121.0625 C 76.6875 120.804688 83.839844 122.082031 91.503906 119.527344 C 95.5 117.992188 99.953125 114.96875 103.707031 111.421875 C 106.007812 113.59375 108.503906 117.324219 109.8125 118.792969 C 111.855469 121.179688 114.355469 127.078125 117.652344 127.8125 C 117.628906 129.34375 117.839844 130.890625 117.75 132.421875 C 117.722656 132.890625 117.664062 133.359375 117.59375 133.820312 C 119.160156 132.816406 120.035156 130.417969 120.53125 128.847656 C 120.757812 128.136719 120.980469 127.355469 121.199219 126.550781 C 122.941406 124.96875 124.382812 122.34375 125.585938 120.722656 C 126.886719 118.972656 127.742188 116.941406 128.242188 114.757812 C 130.148438 106.414062 126.800781 95.777344 122.765625 89.351562 C 121.386719 87.15625 119.433594 84.824219 117.242188 83.390625 C 116.9375 83.175781 116.621094 82.984375 116.300781 82.8125 C 109.96875 66.515625 89.019531 62.804688 73.742188 64.355469 C 56.71875 66.148438 43.054688 74.210938 36.109375 90.789062 C 32.578125 99.359375 31.410156 111.449219 34.457031 120.734375 C 34.828125 122.390625 35.359375 124.335938 36.003906 126.351562" fill="#1c3249"/></g><g id="change2_11"><path d="M 75.964844 137.355469 C 74.691406 137.253906 73.753906 136.039062 73.863281 134.640625 C 73.976562 133.242188 75.097656 132.191406 76.371094 132.292969 C 77.644531 132.394531 78.585938 133.613281 78.472656 135.011719 C 78.359375 136.410156 77.238281 137.460938 75.964844 137.355469" fill="#1c3249"/></g><g id="change2_12"><path d="M 101.714844 137.507812 C 100.441406 137.40625 99.5 136.1875 99.613281 134.789062 C 99.726562 133.390625 100.847656 132.34375 102.121094 132.445312 C 103.394531 132.546875 104.332031 133.761719 104.21875 135.160156 C 104.109375 136.558594 102.984375 137.609375 101.714844 137.507812" fill="#1c3249"/></g><g id="change2_13"><path d="M 105.035156 126.289062 C 103.878906 124.085938 100.691406 124.84375 98.96875 125.769531 C 98.308594 126.121094 98.769531 127.273438 99.488281 126.996094 C 100.25 126.699219 101.035156 126.460938 101.855469 126.410156 C 102.8125 126.351562 103.550781 126.863281 104.4375 127.066406 C 104.898438 127.175781 105.257812 126.707031 105.035156 126.289062" fill="#1c3249"/></g><g id="change2_14"><path d="M 79.90625 126.289062 C 78.75 124.085938 75.558594 124.84375 73.839844 125.769531 C 73.175781 126.121094 73.640625 127.273438 74.355469 126.996094 C 75.117188 126.699219 75.90625 126.460938 76.726562 126.410156 C 77.683594 126.351562 78.417969 126.863281 79.308594 127.066406 C 79.769531 127.175781 80.125 126.707031 79.90625 126.289062" fill="#1c3249"/></g><g clip-path="url(#b)" id="change2_23"><path d="M 499.339844 240.148438 C 497.425781 235.9375 494.277344 233.179688 490.679688 231.394531 C 490.648438 231.773438 489.554688 231.863281 489.515625 232.28125 C 489.464844 232.789062 490.472656 233.625 490.421875 234.164062 C 495.546875 238.167969 497.84375 245.089844 495.851562 251.082031 C 499.101562 247.886719 501.136719 244.097656 499.339844 240.148438" fill="#1c3249"/></g><g id="change2_15"><path d="M 372.1875 231.957031 C 372.140625 231.628906 371.285156 231.34375 371.238281 231.035156 C 367.328125 232.808594 363.871094 235.648438 361.828125 240.148438 C 361.820312 240.15625 361.820312 240.167969 361.820312 240.175781 C 363.128906 238.148438 364.898438 236.375 367.078125 235.097656 C 368.5 234.265625 369.988281 233.65625 371.53125 233.195312 C 371.480469 232.785156 372.238281 232.347656 372.1875 231.957031" fill="#1c3249"/></g><g id="change2_16"><path d="M 491.539062 235.507812 C 491.351562 235.4375 490.910156 235.457031 490.28125 235.546875 C 487.730469 235.945312 466.847656 237 462.53125 236.765625 C 458.210938 236.53125 444.46875 231.136719 457.269531 218.667969 C 457.496094 218.445312 457.550781 218.097656 457.71875 217.847656 C 458.949219 216.097656 460.710938 214.457031 462.71875 213.605469 C 463.039062 213.476562 463.359375 213.367188 463.679688 213.265625 C 464.308594 213.097656 466.550781 212.835938 466.988281 212.976562 C 466.988281 212.976562 467.269531 211.507812 467.621094 209.667969 C 468.011719 207.648438 466.675781 204.625 466.964844 203.167969 C 467.386719 201.125 470.089844 199.1875 470.960938 196.667969 C 472.089844 193.386719 473.171875 190.078125 473.109375 187.667969 C 473.101562 187.15625 471.511719 183.007812 470.148438 181.207031 C 471.621094 180.46875 473.390625 179.578125 475.179688 178.65625 C 476.050781 178.207031 476.921875 177.757812 477.761719 177.308594 C 478.21875 177.066406 478.671875 176.816406 479.109375 176.585938 C 480.140625 176.027344 481.089844 175.496094 481.898438 175.015625 C 483.121094 174.308594 484.621094 173.226562 485.921875 171.957031 C 486.128906 171.757812 486.328125 171.546875 486.519531 171.335938 C 486.570312 171.285156 486.609375 171.246094 486.640625 171.207031 C 486.851562 170.976562 487.039062 170.746094 487.230469 170.507812 C 487.261719 170.476562 487.28125 170.445312 487.300781 170.417969 C 487.46875 170.207031 487.628906 169.988281 487.78125 169.765625 C 487.789062 169.757812 487.789062 169.746094 487.800781 169.738281 C 487.828125 169.6875 487.859375 169.648438 487.890625 169.597656 C 488 169.417969 488.101562 169.238281 488.199219 169.058594 C 488.238281 168.988281 488.28125 168.917969 488.320312 168.847656 C 488.398438 168.6875 488.46875 168.527344 488.539062 168.367188 C 488.578125 168.277344 488.621094 168.175781 488.660156 168.078125 C 488.710938 167.9375 488.761719 167.785156 488.800781 167.648438 C 488.839844 167.527344 488.871094 167.417969 488.890625 167.296875 C 488.929688 167.167969 488.949219 167.027344 488.96875 166.886719 C 488.988281 166.757812 489 166.636719 489.011719 166.496094 C 489.019531 166.378906 489.019531 166.257812 489.019531 166.128906 C 489.019531 165.988281 489 165.835938 488.980469 165.695312 C 488.96875 165.585938 488.960938 165.476562 488.929688 165.355469 C 488.898438 165.195312 488.839844 165.027344 488.789062 164.867188 C 488.761719 164.777344 488.738281 164.6875 488.699219 164.597656 C 488.589844 164.335938 488.460938 164.085938 488.300781 163.835938 C 488.191406 163.675781 488.101562 163.515625 487.980469 163.355469 C 487.808594 163.097656 487.304688 163.417969 487.109375 163.164062 C 486.910156 162.910156 487.023438 162.085938 486.808594 161.847656 C 485.519531 160.335938 483.941406 158.976562 482.480469 157.847656 C 478.121094 154.496094 472.261719 151.507812 466.671875 151.1875 C 466.289062 151.167969 465.921875 151.167969 465.550781 151.175781 C 465.460938 151.1875 465.378906 151.1875 465.289062 151.195312 C 464.550781 151.238281 463.820312 151.347656 463.109375 151.535156 C 463.039062 151.558594 462.96875 151.578125 462.898438 151.597656 C 462.539062 151.695312 462.191406 151.816406 461.851562 151.945312 L 461.839844 151.957031 C 457.25 157.867188 450.769531 162.335938 442.308594 164.738281 C 441.539062 164.957031 440.761719 165.15625 439.96875 165.335938 C 436.527344 166.121094 432.785156 167.738281 429.417969 167.59375 C 424.765625 167.398438 420.546875 165.054688 416.28125 163.398438 C 411.449219 161.515625 406.960938 158.835938 403.039062 155.566406 C 402.769531 155.335938 402.519531 155.117188 402.269531 154.898438 C 402.25 154.925781 402.230469 154.96875 402.210938 154.996094 C 399.828125 154.546875 396.730469 155.195312 394.859375 156.136719 C 391.921875 157.777344 389.179688 159.425781 386.421875 161.4375 C 385.96875 161.816406 385.539062 162.175781 385.121094 162.527344 C 384.878906 162.742188 384.808594 163.441406 384.589844 163.652344 C 384.347656 163.878906 383.957031 163.613281 383.738281 163.835938 C 383.558594 164.027344 383.398438 164.226562 383.238281 164.417969 C 383.179688 164.496094 383.121094 164.566406 383.058594 164.648438 C 382.980469 164.757812 382.898438 164.878906 382.820312 164.996094 C 382.558594 165.386719 382.351562 165.796875 382.21875 166.226562 C 382.210938 166.257812 382.199219 166.285156 382.191406 166.316406 C 382.050781 166.808594 382.011719 167.328125 382.101562 167.886719 C 382.121094 168.007812 382.140625 168.128906 382.179688 168.246094 C 382.210938 168.367188 382.25 168.488281 382.289062 168.617188 C 382.320312 168.707031 382.351562 168.808594 382.390625 168.90625 C 382.398438 168.925781 382.398438 168.945312 382.410156 168.96875 C 382.449219 169.066406 382.5 169.15625 382.550781 169.257812 C 382.609375 169.386719 382.671875 169.507812 382.738281 169.636719 C 382.808594 169.765625 382.890625 169.886719 382.96875 170.015625 C 385.648438 174.1875 389.539062 180.015625 395.058594 180.746094 C 394.867188 181.691406 397.261719 183.90625 397.074219 184.855469 C 397.074219 184.855469 393.71875 187.535156 393.695312 187.667969 C 393.484375 188.757812 391.929688 189.933594 391.632812 191.507812 C 391.351562 193.054688 392.296875 195.1875 392.023438 196.667969 C 393.726562 198.886719 395.558594 206.402344 392.839844 208.4375 C 393.199219 208.546875 393.5625 208.707031 393.960938 208.917969 C 394.402344 209.15625 394.921875 209.40625 395.480469 209.667969 C 397.601562 210.648438 400.269531 211.777344 401.410156 213.355469 C 401.480469 213.457031 401.5625 213.566406 401.632812 213.675781 C 402.832031 215.167969 402.839844 215.277344 403.851562 216.90625 C 404.222656 217.457031 404.492188 218.046875 404.722656 218.667969 C 405.019531 219.488281 405.230469 220.355469 405.449219 221.21875 C 405.503906 221.429688 411.5 232.148438 406.992188 234.71875 C 398.308594 239.667969 375.675781 237.921875 371.980469 237.636719 C 370.261719 237.496094 369.230469 237.625 369.121094 238.117188 C 368.242188 241.957031 369.691406 243.71875 371.28125 243.96875 C 372.539062 244.15625 401.820312 248.648438 417.742188 252.386719 C 417.921875 252.425781 418.101562 252.46875 418.289062 252.515625 C 422.011719 253.398438 424.941406 254.238281 426.519531 254.96875 C 434.8125 258.777344 439.78125 254.988281 439.78125 254.988281 C 439.78125 254.988281 490.191406 242.835938 491.539062 242.015625 C 492.898438 241.195312 494.339844 236.578125 491.539062 235.507812" fill="#1c3249"/></g><g id="change2_17"><path d="M 384.488281 117.847656 C 384.488281 117.847656 384.488281 123.9375 385.390625 127.316406 C 386.609375 131.90625 389.179688 136.015625 393.988281 135.976562 C 394.070312 133.238281 394.769531 131.246094 394.300781 128.636719 C 394.050781 127.265625 393.75 125.9375 393.460938 124.636719 C 398.398438 125.796875 402.550781 119.765625 404.429688 113.757812 C 407.980469 115.457031 411.910156 116.378906 414.898438 116.378906 C 419.980469 116.378906 425.03125 114.457031 428.769531 111.078125 C 429.769531 110.167969 430.789062 108.765625 431.488281 107.226562 C 434.488281 111.257812 439.171875 114.425781 443.769531 115.605469 C 446.441406 116.296875 450.761719 116.257812 454.410156 115.15625 C 454.300781 116.128906 454.28125 117.117188 454.308594 118.046875 C 454.441406 122.246094 455.058594 128.398438 457.679688 131.808594 C 460 134.816406 463.339844 133.15625 464.640625 130.257812 C 465.679688 127.96875 464.960938 124.15625 467.949219 123.285156 C 469.78125 122.757812 472.019531 123.285156 473.75 124.148438 C 475.738281 125.808594 477.011719 128.308594 477.011719 131.105469 L 477.011719 131.21875 C 482.761719 127.667969 485.378906 119.128906 484.179688 113.96875 C 483.300781 110.867188 480.601562 105.445312 476.960938 105.148438 C 487.539062 99.285156 479.300781 75.277344 466.808594 76.886719 C 467.339844 63.558594 442.089844 57.097656 433.070312 65.058594 C 424.179688 59.878906 413.820312 58.597656 406.039062 66.535156 C 405.539062 67.058594 402.398438 71.316406 401.941406 71.246094 C 391.699219 69.585938 384.929688 79.128906 385.429688 89.015625 C 383.308594 89.945312 381.070312 91.898438 379.78125 93.796875 C 375.589844 100.007812 377.058594 110.277344 382.050781 115.585938 C 382.359375 115.917969 384.488281 117.847656 384.488281 117.847656" fill="#1c3249"/></g><g id="change2_18"><path d="M 436.121094 137.558594 C 437.339844 137.367188 438.171875 136.136719 437.960938 134.785156 C 437.761719 133.445312 436.609375 132.507812 435.390625 132.6875 C 434.171875 132.878906 433.339844 134.105469 433.539062 135.457031 C 433.738281 136.796875 434.890625 137.738281 436.121094 137.558594" fill="#1c3249"/></g><g id="change2_19"><path d="M 410.539062 134.535156 C 409.320312 134.71875 408.488281 135.957031 408.691406 137.296875 C 408.890625 138.636719 410.039062 139.578125 411.261719 139.398438 C 412.488281 139.21875 413.308594 137.976562 413.109375 136.636719 C 412.910156 135.285156 411.761719 134.347656 410.539062 134.535156" fill="#1c3249"/></g><g id="change2_20"><path d="M 413 125.128906 C 411.21875 124.316406 408.011719 123.777344 407.078125 126.117188 C 406.921875 126.507812 407.371094 126.867188 407.730469 126.765625 C 408.519531 126.558594 409.160156 126.066406 410 125.96875 C 410.828125 125.878906 411.699219 126.117188 412.480469 126.355469 C 413.199219 126.578125 413.699219 125.445312 413 125.128906" fill="#1c3249"/></g><g id="change2_21"><path d="M 436.820312 125.738281 C 437.539062 125.957031 438.039062 124.828125 437.339844 124.507812 C 435.558594 123.695312 432.351562 123.167969 431.421875 125.496094 C 431.261719 125.886719 431.710938 126.246094 432.070312 126.148438 C 432.859375 125.9375 433.5 125.445312 434.339844 125.355469 C 435.171875 125.257812 436.039062 125.496094 436.820312 125.738281" fill="#1c3249"/></g><g id="change2_22"><path d="M 253.699219 151.78125 C 254.53125 155.304688 267.863281 163.367188 271.765625 163.367188 C 271.90625 163.367188 272.046875 163.367188 272.160156 163.351562 C 275.898438 162.886719 284.957031 156.480469 286.867188 152.96875 C 288.597656 149.757812 288.671875 131.296875 288.671875 127.621094 L 288.671875 126.359375 L 287.421875 126.496094 C 281.367188 127.195312 270.011719 127.769531 262.773438 128.082031 C 269.148438 121.433594 271.042969 111.847656 272.296875 110.515625 C 271.148438 110.90625 269.964844 111.253906 268.75 111.554688 C 264.507812 115.667969 249.265625 113.632812 246.75 111.808594 C 245.507812 111.511719 244.28125 111.167969 243.074219 110.773438 C 239.738281 112.082031 226.855469 105.546875 227.839844 102.617188 C 227.339844 102.230469 226.835938 101.84375 226.347656 101.4375 C 225.761719 103.152344 208.117188 125.996094 240.316406 133.617188 C 246.128906 134.992188 250.828125 134.679688 254.65625 133.363281 C 254.089844 139.300781 253.199219 149.671875 253.699219 151.78125" fill="#1c3249"/></g><g id="change3_1"><path d="M 131.890625 269.863281 C 126.878906 271.136719 120.613281 272.6875 114.476562 274.191406 C 120.480469 273.042969 126.46875 271.691406 131.890625 269.863281" fill="#f9fced"/></g><g id="change3_2"><path d="M 116.53125 246.578125 C 115.601562 246.199219 113.546875 246.15625 110.851562 246.40625 C 110.570312 246.828125 110.332031 247.347656 110.179688 247.746094 C 109.929688 248.410156 110.003906 248.890625 109.398438 249.386719 C 108.722656 249.945312 107.679688 249.972656 107.027344 249.53125 C 106.660156 249.285156 106.351562 248.960938 106.113281 248.59375 C 105.9375 248.324219 105.539062 247.714844 105.5625 247.382812 C 105.503906 248.203125 105.511719 248.523438 105.140625 248.960938 C 104.046875 250.359375 101.660156 249.96875 101.214844 248.523438 C 100.09375 249.386719 99.136719 249.257812 98.390625 248.667969 C 93.046875 250.019531 87.550781 251.875 83.394531 254.085938 C 79.472656 252 73.335938 250.164062 67.179688 248.683594 C 67.621094 249.867188 68.015625 251.050781 68.28125 252.117188 C 68.554688 253.203125 69.03125 257.167969 68.023438 257.460938 C 67.011719 257.75 64.933594 255.441406 63.851562 253.113281 C 63.476562 252.308594 62.957031 251.113281 62.390625 249.785156 C 61.421875 249.976562 60.277344 249.75 59.117188 249.308594 L 59.121094 249.308594 C 57.417969 251.675781 54.921875 251.730469 53.128906 251.367188 C 52.15625 252.871094 49.394531 252.890625 47.773438 252.308594 C 45.871094 253.625 42.953125 252.546875 41.726562 251.101562 C 40.964844 250.207031 40.148438 248.519531 39.628906 246.476562 C 32.929688 248.34375 23.433594 251.277344 21.664062 253.328125 C 21.558594 253.449219 21.480469 253.566406 21.433594 253.679688 C 21.375 253.820312 21.34375 253.957031 21.375 254.085938 C 21.605469 255.011719 21.816406 256.347656 22.003906 257.835938 C 22.101562 258.636719 22.195312 259.480469 22.28125 260.332031 C 22.363281 261.136719 22.441406 261.945312 22.511719 262.722656 C 34.5 263.660156 80.007812 280.5625 84.210938 280.40625 C 88.675781 280.242188 132.464844 261.925781 140.8125 260.640625 C 140.84375 260.3125 140.878906 259.980469 140.910156 259.648438 C 141.015625 258.578125 141.117188 257.519531 141.199219 256.589844 C 141.296875 255.535156 141.367188 254.644531 141.398438 254.085938 C 141.546875 251.519531 120.023438 248.011719 116.53125 246.578125" fill="#f9fced"/></g><g id="change3_3"><path d="M 490.625 228.476562 C 489.433594 227.21875 484.050781 225.800781 478.570312 224.527344 C 477.210938 226.566406 474.507812 228.113281 472.617188 229.835938 L 471.445312 230.625 C 470.457031 231.691406 468.386719 230.554688 468.527344 229.246094 C 467.445312 230.152344 465.710938 229.734375 465.078125 228.230469 C 464.933594 227.835938 465.019531 227.390625 465.019531 227.390625 C 463.441406 229.089844 461.007812 227.601562 461.234375 225.652344 C 461.132812 226.019531 460.992188 226.363281 460.789062 226.667969 C 459.300781 228.925781 457.554688 228.28125 456.925781 225.835938 C 456.652344 224.703125 456.492188 223.234375 456.574219 221.789062 C 449.214844 222.925781 414.113281 222.84375 405.449219 221.21875 C 405.601562 221.835938 405.761719 222.453125 405.957031 223.050781 C 406.519531 224.519531 407.035156 226.3125 405.003906 226.828125 C 403.183594 227.273438 401.324219 225.449219 400.546875 224.054688 C 399.894531 222.976562 399.320312 221.835938 398.765625 220.683594 C 398.796875 220.816406 398.8125 220.953125 398.820312 221.097656 C 399.074219 222.171875 399.15625 223.265625 399.035156 224.476562 C 398.84375 226.503906 397.273438 229.855469 394.609375 227.980469 C 394.230469 229.445312 391.859375 229.9375 390.707031 228.585938 C 390.316406 228.164062 390.3125 227.847656 390.214844 227.027344 C 390.253906 227.359375 389.882812 227.984375 389.71875 228.261719 C 389.496094 228.640625 389.203125 228.976562 388.847656 229.238281 C 388.214844 229.707031 387.171875 229.730469 386.46875 229.199219 C 385.847656 228.726562 385.894531 228.246094 385.617188 227.59375 C 385.367188 227.015625 384.859375 226.730469 384.375 226.34375 C 383.566406 225.785156 382.699219 225.324219 381.914062 224.734375 C 381.5625 224.464844 381.292969 224.144531 381.050781 223.796875 C 375.464844 225.617188 370.507812 227.640625 370.847656 228.996094 C 370.984375 229.546875 371.113281 230.25 371.238281 231.039062 C 371.339844 231.703125 371.4375 232.4375 371.53125 233.199219 C 371.703125 234.640625 371.855469 236.191406 371.984375 237.632812 C 383.972656 238.570312 429.566406 252.503906 433.769531 252.347656 C 438.234375 252.179688 481.9375 236.835938 490.28125 235.550781 C 490.328125 235.089844 490.375 234.625 490.421875 234.164062 C 490.515625 233.191406 490.605469 232.238281 490.679688 231.394531 C 490.757812 230.542969 490.820312 229.800781 490.855469 229.269531 C 490.855469 229.25 490.855469 229.238281 490.859375 229.222656 C 490.863281 229.140625 490.867188 229.066406 490.871094 228.996094 C 490.882812 228.828125 490.792969 228.652344 490.625 228.476562" fill="#f9fced"/></g><g id="change4_1"><path d="M 226.992188 111.953125 C 227.570312 112.710938 228.597656 113.03125 230.113281 112.933594 L 230.78125 112.871094 C 234.414062 112.554688 239.734375 112.082031 243.074219 110.773438 C 237.535156 108.964844 232.398438 106.144531 227.839844 102.617188 C 226.851562 105.546875 225.515625 110.023438 226.992188 111.953125" fill="#65a7bc"/></g><g id="change4_2"><path d="M 268.75 111.554688 C 266.167969 112.199219 263.445312 112.65625 260.570312 112.890625 C 255.808594 113.277344 251.175781 112.859375 246.746094 111.808594 C 249.265625 113.632812 253.773438 116.78125 256.214844 117.773438 C 259.71875 119.09375 264.507812 115.667969 268.75 111.554688" fill="#65a7bc"/></g><g id="change4_3"><path d="M 259.074219 149.921875 C 259.503906 151.550781 268.933594 157.71875 271.632812 157.71875 L 271.730469 157.714844 C 274.078125 157.425781 280.804688 152.65625 282.007812 150.425781 C 282.855469 148.851562 283.199219 138.828125 283.234375 132.222656 C 276.367188 132.914062 263.410156 133.429688 260.105469 133.554688 C 259.503906 139.464844 258.742188 148.53125 259.074219 149.921875" fill="#65a7bc"/></g><g id="change4_4"><path d="M 285.011719 131.222656 C 285.011719 134.125 284.949219 148.730469 283.574219 151.277344 C 282.074219 154.058594 274.902344 159.128906 271.945312 159.492188 C 271.847656 159.507812 271.746094 159.511719 271.632812 159.511719 C 268.535156 159.511719 257.992188 153.128906 257.328125 150.335938 C 256.800781 148.109375 258.238281 134.175781 258.402344 132.59375 L 258.484375 131.816406 L 259.265625 131.789062 C 259.4375 131.785156 276.664062 131.179688 284.019531 130.332031 L 285.011719 130.214844 Z M 239.484375 120.355469 C 238.78125 120.355469 238.214844 119.789062 238.214844 119.085938 C 238.214844 118.382812 238.78125 117.816406 239.484375 117.816406 C 240.1875 117.816406 240.757812 118.382812 240.757812 119.085938 C 240.757812 119.789062 240.1875 120.355469 239.484375 120.355469 Z M 239.042969 125.714844 C 238.34375 125.714844 237.773438 125.148438 237.773438 124.445312 C 237.773438 123.742188 238.34375 123.175781 239.042969 123.175781 C 239.746094 123.175781 240.316406 123.742188 240.316406 124.445312 C 240.316406 125.148438 239.746094 125.714844 239.042969 125.714844 Z M 356.203125 166.539062 C 340.847656 148.761719 344.519531 149.628906 326.046875 125.667969 C 315.707031 112.257812 311.414062 101.792969 290.183594 98.460938 C 285.550781 103.886719 279.582031 108.046875 272.296875 110.515625 C 267.90625 115.179688 262.484375 119.839844 257.804688 119.839844 C 257.03125 119.839844 256.285156 119.714844 255.5625 119.441406 C 252.6875 118.277344 247.484375 114.574219 245.097656 112.824219 C 244.542969 117.496094 244.25 122.4375 244.25 127.582031 C 244.25 128.078125 243.847656 128.480469 243.355469 128.480469 C 242.859375 128.480469 242.457031 128.078125 242.457031 127.582031 C 242.457031 122.355469 242.757812 117.335938 243.320312 112.582031 C 239.722656 113.871094 234.539062 114.339844 230.941406 114.65625 L 230.253906 114.71875 C 228.066406 114.855469 226.523438 114.296875 225.566406 113.042969 C 223.414062 110.222656 225.1875 104.820312 226.347656 101.4375 C 224.761719 100.117188 223.257812 98.710938 221.835938 97.230469 C 221.707031 97.308594 221.574219 97.375 221.445312 97.453125 C 198.535156 96.226562 200.730469 110.886719 186.515625 116.863281 C 174.679688 121.769531 168.410156 128.230469 155.308594 122.96875 C 151.492188 121.640625 147.941406 124.691406 144.941406 129.101562 C 141.011719 134.871094 138.023438 142.972656 136.628906 146.640625 C 136.242188 147.804688 136.023438 148.875 135.933594 149.863281 C 135.128906 158.773438 145.546875 160.96875 153.679688 162.515625 C 165.046875 164.839844 166.863281 164.097656 178.097656 161.527344 C 183.433594 160.207031 199.605469 151.035156 204.585938 148.195312 C 200.269531 166.96875 196.113281 182.800781 193.804688 194.980469 C 192.273438 203.066406 192.75 204.746094 192.75 204.746094 L 192.757812 204.746094 C 192.859375 204.773438 222.007812 212.066406 240.964844 214.644531 C 298.636719 222.488281 316.328125 199.539062 316.410156 199.429688 L 316.414062 199.425781 C 316.414062 199.425781 313.230469 187.394531 310.472656 176.199219 C 319.210938 186.121094 336.96875 202.003906 352.316406 201.800781 C 352.78125 201.792969 353.269531 201.703125 353.769531 201.550781 C 359.355469 199.835938 366.636719 189.523438 368.960938 183.472656 C 369.472656 182.148438 369.75 181.019531 369.710938 180.242188 C 369.480469 175.589844 359.925781 170.851562 356.203125 166.539062" fill="#65a7bc"/></g><g id="change4_5"><path d="M 284.835938 249.542969 C 284.585938 246.847656 284.867188 242.105469 281.914062 241.210938 C 279.316406 240.332031 277.097656 240.316406 276.550781 241.046875 C 276.539062 241.0625 276.519531 241.070312 276.511719 241.082031 L 277.703125 257.414062 L 277.703125 257.417969 L 277.699219 257.417969 C 277.675781 257.433594 271.757812 260.675781 270.496094 263.234375 C 270.21875 263.789062 270.160156 264.3125 270.4375 264.765625 C 271.464844 266.582031 273.867188 276.40625 280.757812 275.40625 C 283.378906 275.023438 284.195312 273.449219 284.484375 271.316406 C 285.457031 265.117188 285.53125 257.042969 284.835938 249.5625 C 284.835938 249.554688 284.835938 249.550781 284.835938 249.542969" fill="#65a7bc"/></g><g id="change4_6"><path d="M 113.570312 200.398438 C 113.652344 200.125 113.726562 199.867188 113.800781 199.597656 C 111.753906 199.984375 109.699219 200.332031 107.644531 200.648438 C 107.304688 200.703125 106.945312 200.757812 106.585938 200.8125 C 85.171875 203.929688 63.335938 203.277344 42.09375 198.875 C 42.234375 199.371094 42.378906 199.875 42.53125 200.398438 C 43.335938 203.125 44.1875 205.855469 45.09375 208.570312 C 65.839844 212.335938 87.042969 212.699219 107.875 209.664062 C 108.253906 209.609375 108.628906 209.554688 108.988281 209.503906 C 109.589844 209.410156 110.191406 209.292969 110.796875 209.195312 C 111.78125 206.273438 112.710938 203.335938 113.570312 200.398438" fill="#65a7bc"/></g><g id="change4_7"><path d="M 46.433594 212.445312 C 47.910156 216.585938 49.515625 220.679688 51.273438 224.683594 C 51.964844 224.960938 52.65625 225.238281 53.339844 225.515625 C 53.988281 223.339844 55.902344 224.859375 57.339844 227.121094 C 58.175781 227.457031 59.007812 227.785156 59.828125 228.105469 C 60.226562 228.261719 60.628906 228.421875 61.03125 228.582031 C 61.046875 228.582031 61.066406 228.585938 61.082031 228.589844 C 75.867188 230.34375 86.550781 229.949219 101.300781 227.640625 C 101.429688 227.617188 101.5625 227.585938 101.691406 227.5625 C 102.347656 227.3125 103.003906 227.066406 103.664062 226.8125 C 103.976562 226.125 104.289062 225.4375 104.597656 224.746094 C 104.644531 224.644531 104.753906 224.671875 104.804688 224.742188 C 106.484375 220.917969 108.027344 217.011719 109.449219 213.0625 C 109.097656 213.109375 108.746094 213.160156 108.394531 213.210938 C 87.832031 216.222656 66.925781 215.945312 46.433594 212.445312" fill="#65a7bc"/></g><g id="change4_8"><path d="M 115.738281 186.421875 C 112.425781 187.132812 109.09375 187.746094 105.761719 188.246094 C 105.4375 188.285156 105.097656 188.335938 104.773438 188.390625 C 83.386719 191.515625 61.550781 190.59375 40.417969 185.652344 C 40.152344 188.773438 40.402344 191.652344 41.125 195 C 62.496094 199.640625 84.496094 200.402344 106.066406 197.261719 C 106.40625 197.207031 106.765625 197.15625 107.105469 197.101562 C 109.6875 196.710938 112.253906 196.261719 114.8125 195.757812 C 115.597656 192.363281 115.914062 189.480469 115.738281 186.421875" fill="#65a7bc"/></g><g id="change4_9"><path d="M 138.34375 254.601562 C 137.449219 254.636719 136.140625 254.710938 134.476562 254.847656 C 131.148438 255.125 126.390625 255.613281 120.773438 256.78125 C 115.164062 257.941406 108.679688 259.691406 101.976562 262.25 C 98.625 263.523438 95.214844 264.972656 91.796875 266.542969 C 90.09375 267.324219 88.375 268.117188 86.652344 268.910156 C 85.789062 269.289062 84.917969 269.671875 84.050781 269.945312 C 83.875 270.011719 83.734375 270.039062 83.589844 270.070312 L 84.054688 254.996094 L 82.722656 270.035156 C 82.355469 269.921875 81.972656 269.78125 81.589844 269.636719 C 78.078125 268.222656 74.5625 266.683594 71.042969 265.359375 C 67.53125 264.023438 64 262.828125 60.542969 261.890625 C 53.621094 260.035156 47.089844 258.628906 41.488281 257.457031 C 35.878906 256.316406 31.179688 255.496094 27.890625 254.9375 C 24.59375 254.394531 22.714844 254.085938 22.714844 254.085938 C 22.714844 254.085938 24.585938 254.449219 27.863281 255.082031 C 31.140625 255.714844 35.796875 256.730469 41.382812 257.945312 C 44.171875 258.589844 47.199219 259.246094 50.371094 260.054688 C 53.558594 260.804688 56.882812 261.734375 60.335938 262.640625 C 63.777344 263.589844 67.25 264.785156 70.746094 266.136719 C 74.246094 267.476562 77.714844 269.019531 81.269531 270.46875 C 81.722656 270.640625 82.171875 270.8125 82.675781 270.949219 C 82.84375 270.976562 82.9375 271.003906 83.167969 271.019531 L 83.523438 270.984375 C 83.777344 270.929688 84.09375 270.871094 84.3125 270.789062 C 85.261719 270.480469 86.132812 270.089844 87.003906 269.699219 C 88.726562 268.894531 90.445312 268.09375 92.148438 267.300781 C 95.542969 265.71875 98.929688 264.257812 102.253906 262.976562 C 108.90625 260.40625 115.304688 258.503906 120.878906 257.273438 C 126.453125 256.035156 131.171875 255.347656 134.488281 254.996094 C 136.148438 254.8125 137.453125 254.699219 138.34375 254.640625 C 139.234375 254.570312 139.710938 254.535156 139.710938 254.535156 C 139.710938 254.535156 139.234375 254.558594 138.34375 254.601562" fill="#65a7bc"/></g><g id="change4_10"><path d="M 137.585938 256.601562 C 136.925781 256.671875 136.179688 256.75 135.359375 256.871094 C 134.851562 256.945312 134.324219 257.019531 133.773438 257.101562 C 133.128906 257.199219 132.460938 257.304688 131.769531 257.425781 C 129.554688 257.8125 127.15625 258.277344 124.609375 258.820312 C 123.238281 259.132812 121.832031 259.464844 120.394531 259.824219 C 117.214844 260.636719 113.902344 261.554688 110.515625 262.585938 C 107.664062 263.460938 104.769531 264.417969 101.855469 265.464844 C 100.152344 266.074219 98.441406 266.710938 96.726562 267.367188 C 95.886719 267.722656 92.527344 268.972656 91.683594 269.359375 C 90.832031 269.75 87.332031 271.066406 86.472656 271.460938 C 86.042969 271.652344 84.324219 272.289062 83.890625 272.429688 C 83.773438 272.46875 83.453125 272.5625 83.347656 272.589844 L 83.035156 272.652344 C 83.035156 272.644531 83.105469 272.632812 83.074219 272.625 C 82.660156 272.5 82.230469 272.351562 81.804688 272.203125 C 78.277344 270.945312 74.746094 269.640625 71.210938 268.453125 C 70.296875 268.144531 69.386719 267.84375 68.472656 267.546875 C 65.890625 266.707031 63.308594 265.917969 60.742188 265.210938 C 58.347656 264.554688 55.976562 263.933594 53.632812 263.347656 C 49.601562 262.34375 45.6875 261.433594 41.953125 260.605469 C 40.8125 260.359375 39.6875 260.117188 38.585938 259.890625 C 35.890625 259.347656 33.347656 258.867188 31 258.46875 C 30.132812 258.320312 29.300781 258.183594 28.503906 258.0625 C 26.007812 257.675781 24.214844 257.433594 23.363281 257.414062 C 24.316406 257.464844 26.195312 257.777344 28.769531 258.257812 C 29.351562 258.367188 29.957031 258.484375 30.574219 258.605469 C 32.804688 259.050781 35.214844 259.582031 37.765625 260.164062 C 39.386719 260.535156 41.054688 260.925781 42.765625 261.328125 C 45.765625 262.0625 48.878906 262.824219 52.0625 263.675781 C 55.4375 264.550781 58.878906 265.523438 62.382812 266.496094 C 65.996094 267.527344 69.621094 268.691406 73.257812 269.945312 C 75.546875 270.734375 82.453125 273.726562 83.1875 273.730469 C 84.054688 273.734375 89.339844 271.390625 90.269531 271.023438 C 91.324219 270.597656 92.375 270.171875 93.425781 269.746094 C 94.195312 269.4375 94.964844 269.128906 95.730469 268.820312 C 99.292969 267.386719 102.855469 266.019531 106.386719 264.746094 C 111.992188 262.695312 117.476562 261 122.5625 259.675781 C 125.441406 258.9375 128.15625 258.304688 130.652344 257.789062 C 131.992188 257.515625 133.253906 257.296875 134.414062 257.097656 C 134.535156 257.074219 134.65625 257.054688 134.777344 257.035156 C 135.921875 256.84375 136.925781 256.714844 137.757812 256.605469 C 138.367188 256.539062 138.773438 256.488281 138.941406 256.453125 C 138.71875 256.496094 138.253906 256.542969 137.585938 256.601562" fill="#65a7bc"/></g><g id="change4_11"><path d="M 131.101562 259.824219 C 128.761719 260.390625 126.441406 261.03125 124.117188 261.667969 C 119.492188 262.996094 114.894531 264.421875 110.308594 265.875 C 105.71875 267.328125 101.160156 268.867188 96.605469 270.417969 L 83.117188 275.121094 C 78.308594 273.601562 73.480469 272.160156 68.640625 270.742188 C 63.753906 269.324219 58.863281 267.914062 53.9375 266.625 C 49.011719 265.335938 44.074219 264.101562 39.101562 263.003906 C 36.609375 262.476562 34.109375 261.980469 31.597656 261.566406 C 29.085938 261.160156 26.554688 260.800781 24.011719 260.742188 C 26.554688 260.875 29.066406 261.308594 31.558594 261.785156 C 34.054688 262.273438 36.53125 262.839844 39.003906 263.441406 C 43.949219 264.617188 48.859375 265.929688 53.753906 267.300781 C 63.546875 270.035156 73.300781 272.941406 82.992188 276.011719 L 83.136719 276.058594 L 83.277344 276.007812 C 87.796875 274.363281 92.328125 272.761719 96.871094 271.1875 C 101.414062 269.609375 105.964844 268.058594 110.519531 266.515625 C 115.078125 264.988281 119.648438 263.496094 124.242188 262.074219 C 126.539062 261.371094 128.835938 260.664062 131.15625 260.03125 C 132.308594 259.6875 133.480469 259.417969 134.644531 259.121094 C 135.804688 258.800781 136.992188 258.628906 138.171875 258.371094 C 136.988281 258.59375 135.789062 258.730469 134.621094 259.019531 C 133.445312 259.28125 132.265625 259.515625 131.101562 259.824219" fill="#65a7bc"/></g><g id="change4_12"><path d="M 18.183594 158.527344 C 18.328125 158.277344 18.496094 158.027344 18.648438 157.78125 C 18.648438 157.777344 18.648438 157.777344 18.644531 157.777344 C 18.492188 158.027344 18.332031 158.277344 18.183594 158.527344" fill="#65a7bc"/></g><g id="change4_13"><path d="M 41.722656 178.546875 L 41.722656 178.542969 C 41.398438 179.796875 41.128906 180.976562 40.917969 182.09375 C 61.707031 186.992188 83.203125 187.910156 104.253906 184.84375 C 104.578125 184.789062 104.898438 184.753906 105.222656 184.699219 C 108.601562 184.1875 111.96875 183.566406 115.324219 182.839844 C 115.039062 181.167969 114.625 179.375 114.074219 177.382812 C 114.085938 177.414062 114.089844 177.433594 114.089844 177.433594 C 114.089844 177.433594 124.027344 175.675781 129.523438 171.628906 C 131.425781 170.230469 134.753906 168.105469 136.773438 165.664062 C 138.195312 163.945312 138.96875 162.070312 138.105469 160.175781 C 138.023438 160 137.957031 159.824219 137.859375 159.648438 C 137.601562 159.082031 137.285156 158.527344 136.933594 157.984375 C 135.882812 156.300781 134.53125 154.71875 133.246094 153.378906 C 131.15625 151.199219 128.597656 149.058594 125.808594 147.378906 C 123.527344 146 121.089844 144.933594 118.625 144.410156 C 116.671875 144.007812 114.738281 144.066406 112.90625 144.683594 C 111.023438 147.347656 108.6875 149.597656 105.738281 151.40625 C 102.722656 153.261719 99.484375 154.804688 96.105469 155.984375 C 93.300781 159.558594 76.621094 160.402344 73.921875 158.015625 C 71.230469 157.582031 68.550781 156.871094 65.910156 155.847656 C 59.007812 153.179688 53.574219 149.320312 49.519531 144.601562 C 48.480469 144.027344 47.242188 143.648438 45.882812 143.4375 C 41.335938 142.726562 35.355469 143.933594 30.234375 146.460938 C 25.507812 148.796875 21.417969 153.296875 18.648438 157.78125 C 22.046875 160.835938 30.367188 166.804688 45.070312 170.183594 C 63.925781 174.464844 83.378906 175.214844 102.445312 172.425781 C 102.75 172.386719 103.054688 172.335938 103.339844 172.300781 C 106.222656 171.855469 109.089844 171.316406 111.945312 170.71875 C 111.949219 170.726562 111.949219 170.734375 111.953125 170.742188 C 111.960938 170.738281 112.9375 170.464844 113.410156 170.324219 C 128.722656 165.78125 133.65625 159.257812 135.167969 155.542969 C 135.535156 155.992188 135.886719 156.460938 136.226562 156.933594 C 134.011719 161.1875 128.257812 167.726562 113.820312 172.070312 C 113.382812 172.203125 112.941406 172.332031 112.488281 172.460938 C 112.488281 172.449219 112.476562 172.441406 112.472656 172.433594 C 109.527344 173.058594 106.574219 173.621094 103.609375 174.070312 C 103.304688 174.109375 103.003906 174.160156 102.695312 174.195312 C 83.332031 177.023438 63.570312 176.242188 44.425781 171.863281 C 44.425781 171.867188 44.421875 171.871094 44.421875 171.871094 C 29.699219 168.484375 21.390625 162.652344 17.707031 159.375 C 16.917969 160.792969 16.15625 162.359375 15.628906 163.957031 C 15.414062 164.566406 15.238281 165.183594 15.121094 165.789062 C 15.066406 165.988281 15.042969 166.171875 15.007812 166.359375 C 14.535156 168.769531 16.023438 170.4375 18.109375 171.65625 C 20.308594 172.933594 23.179688 173.710938 25.160156 174.289062 C 34.453125 177.003906 41.722656 178.546875 41.722656 178.546875" fill="#65a7bc"/></g><g id="change4_14"><path d="M 142.992188 261.226562 C 142.992188 261.226562 142.988281 261.222656 142.988281 261.222656 C 142.875 261.101562 142.75 260.988281 142.609375 260.890625 C 142.226562 260.5625 141.601562 260.0625 140.910156 259.648438 C 140.878906 259.980469 140.84375 260.3125 140.8125 260.640625 C 132.460938 261.929688 88.765625 277.273438 84.296875 277.4375 C 80.097656 277.59375 34.496094 263.660156 22.511719 262.722656 C 22.441406 261.945312 22.363281 261.140625 22.28125 260.332031 C 20.878906 261.246094 19.738281 262.265625 19.644531 263.203125 C 18.765625 267.046875 20.21875 268.808594 21.804688 269.054688 C 23.390625 269.300781 68.761719 276.25 77.050781 280.058594 C 85.339844 283.867188 90.304688 280.074219 90.304688 280.074219 C 90.304688 280.074219 102.128906 277.226562 114.476562 274.195312 C 120.613281 272.6875 126.878906 271.136719 131.890625 269.867188 C 137.613281 268.414062 141.699219 267.332031 142.070312 267.109375 C 143.238281 266.402344 144.464844 262.875 142.992188 261.226562" fill="#65a7bc"/></g><g id="change4_15"><path d="M 468.78125 203.730469 C 469.195312 201.683594 470.085938 199.1875 470.957031 196.667969 L 392.023438 196.667969 C 391.875 197.601562 391.773438 198.023438 391.632812 198.898438 C 392.046875 202.144531 392.703125 205.863281 392.84375 208.433594 C 393.195312 208.550781 393.5625 208.703125 393.960938 208.914062 C 394.402344 209.160156 394.925781 209.410156 395.484375 209.667969 L 467.625 209.667969 C 468.011719 207.648438 468.488281 205.1875 468.78125 203.730469" fill="#65a7bc"/></g><g id="change4_16"><path d="M 490.859375 229.21875 C 490.855469 229.234375 490.855469 229.25 490.855469 229.269531 C 490.855469 229.265625 490.871094 229.265625 490.871094 229.265625 L 490.859375 229.21875" fill="#65a7bc"/></g><g id="change4_17"><path d="M 485.714844 212.925781 L 485.03125 213.949219 C 482 218.453125 479.425781 221.90625 479.425781 221.90625 L 479.425781 221.902344 C 479.429688 222.878906 479.097656 223.738281 478.570312 224.527344 C 484.050781 225.800781 489.433594 227.21875 490.625 228.476562 L 486.015625 213.839844 L 485.714844 212.925781" fill="#65a7bc"/></g><g id="change4_18"><path d="M 432.867188 228.996094 C 439.390625 225.523438 449.214844 222.925781 456.574219 221.789062 C 456.640625 220.679688 456.851562 219.585938 457.265625 218.667969 L 404.71875 218.667969 C 405.019531 219.488281 405.234375 220.355469 405.449219 221.21875 C 414.113281 222.839844 426.449219 225.582031 432.867188 228.996094" fill="#65a7bc"/></g><g id="change4_19"><path d="M 442.3125 164.738281 C 441.546875 164.957031 440.765625 165.15625 439.964844 165.339844 C 431.78125 167.210938 423.636719 166.253906 416.28125 163.398438 C 419.757812 166.988281 424.617188 169.234375 430.011719 169.234375 C 434.699219 169.234375 438.984375 167.539062 442.3125 164.738281" fill="#65a7bc"/></g><g id="change4_20"><path d="M 395.734375 178.59375 C 395.550781 179.425781 395.253906 179.914062 395.058594 180.746094 C 394.4375 183.445312 394.378906 184.292969 393.695312 187.667969 L 473.109375 187.667969 C 473.097656 187.160156 473.046875 186.683594 472.921875 186.269531 C 472.53125 184.714844 471.511719 183.003906 470.152344 181.203125 C 467.996094 182.277344 466.472656 183.015625 466.472656 183.015625 L 464.859375 179.699219 C 472.832031 176.902344 483.265625 170.738281 487.976562 163.355469 C 487.636719 162.835938 487.242188 162.332031 486.8125 161.851562 C 482.171875 169.753906 470.003906 176.222656 462.90625 178.445312 C 461.691406 177.628906 460.417969 176.6875 459.230469 175.667969 L 396.378906 175.667969 C 396.296875 176.035156 396.21875 176.40625 396.136719 176.777344 C 391.257812 174.027344 387.039062 168.144531 385.125 162.53125 C 384.621094 162.980469 384.15625 163.410156 383.742188 163.839844 C 385.964844 169.765625 390.527344 175.8125 395.734375 178.59375" fill="#65a7bc"/></g><g id="change4_21"><path d="M 483.949219 229.753906 C 480.621094 230.035156 475.863281 230.519531 470.246094 231.691406 C 464.636719 232.851562 458.152344 234.601562 451.449219 237.160156 C 448.097656 238.429688 444.6875 239.882812 441.269531 241.449219 C 439.566406 242.234375 437.847656 243.023438 436.121094 243.816406 C 435.261719 244.199219 434.390625 244.582031 433.523438 244.855469 C 433.347656 244.917969 433.210938 244.945312 433.0625 244.980469 L 433.527344 229.90625 L 432.195312 244.941406 C 431.828125 244.832031 431.445312 244.691406 431.0625 244.546875 C 427.550781 243.132812 424.035156 241.59375 420.515625 240.269531 C 417.003906 238.933594 413.472656 237.734375 410.015625 236.800781 C 403.09375 234.945312 396.5625 233.535156 390.960938 232.363281 C 385.351562 231.226562 380.652344 230.402344 377.363281 229.84375 C 374.066406 229.304688 372.1875 228.996094 372.1875 228.996094 C 372.1875 228.996094 374.058594 229.359375 377.335938 229.992188 C 380.613281 230.625 385.269531 231.640625 390.855469 232.855469 C 393.644531 233.5 396.671875 234.15625 399.84375 234.960938 C 403.03125 235.714844 406.355469 236.644531 409.808594 237.550781 C 413.25 238.5 416.722656 239.695312 420.21875 241.046875 C 423.71875 242.386719 427.1875 243.929688 430.742188 245.378906 C 431.195312 245.550781 431.644531 245.722656 432.148438 245.859375 C 432.316406 245.886719 432.410156 245.914062 432.640625 245.929688 L 432.996094 245.894531 C 433.25 245.839844 433.566406 245.78125 433.785156 245.699219 C 434.734375 245.390625 435.605469 245 436.476562 244.609375 C 438.199219 243.804688 439.917969 243.003906 441.617188 242.210938 C 445.015625 240.628906 448.402344 239.167969 451.726562 237.886719 C 458.378906 235.316406 464.777344 233.414062 470.351562 232.183594 C 475.925781 230.945312 480.644531 230.257812 483.960938 229.90625 C 485.621094 229.722656 486.925781 229.609375 487.816406 229.550781 C 488.710938 229.480469 489.183594 229.445312 489.183594 229.445312 C 489.183594 229.445312 488.707031 229.46875 487.816406 229.511719 C 486.921875 229.542969 485.613281 229.621094 483.949219 229.753906" fill="#65a7bc"/></g><g id="change4_22"><path d="M 484.832031 231.78125 C 484.324219 231.855469 483.796875 231.929688 483.246094 232.011719 C 482.601562 232.109375 481.933594 232.214844 481.242188 232.335938 C 479.027344 232.722656 476.632812 233.1875 474.082031 233.730469 C 472.710938 234.039062 471.304688 234.375 469.867188 234.734375 C 466.6875 235.542969 463.375 236.460938 459.988281 237.496094 C 457.136719 238.367188 454.242188 239.328125 451.328125 240.375 C 449.625 240.984375 447.914062 241.621094 446.199219 242.273438 C 445.359375 242.628906 441.996094 243.882812 441.15625 244.269531 C 440.304688 244.660156 436.804688 245.972656 435.945312 246.371094 C 435.515625 246.5625 433.796875 247.199219 433.363281 247.335938 C 433.246094 247.375 432.925781 247.472656 432.820312 247.5 L 432.511719 247.5625 C 432.507812 247.550781 432.578125 247.539062 432.546875 247.535156 C 432.132812 247.410156 431.703125 247.261719 431.277344 247.113281 C 427.75 245.851562 424.21875 244.550781 420.683594 243.363281 C 419.769531 243.054688 418.859375 242.75 417.945312 242.453125 C 415.363281 241.617188 412.78125 240.828125 410.21875 240.121094 C 407.820312 239.464844 405.449219 238.84375 403.105469 238.257812 C 399.074219 237.25 395.160156 236.339844 391.425781 235.515625 C 390.285156 235.265625 389.160156 235.027344 388.058594 234.800781 C 385.363281 234.253906 382.820312 233.773438 380.472656 233.375 C 379.605469 233.230469 378.773438 233.09375 377.976562 232.972656 C 375.480469 232.585938 373.6875 232.34375 372.835938 232.324219 C 373.785156 232.375 375.664062 232.6875 378.242188 233.167969 C 378.828125 233.277344 379.429688 233.390625 380.046875 233.515625 C 382.28125 233.957031 384.6875 234.492188 387.238281 235.074219 C 388.859375 235.445312 390.527344 235.832031 392.238281 236.238281 C 395.238281 236.972656 398.351562 237.734375 401.535156 238.585938 C 404.910156 239.457031 408.351562 240.433594 411.855469 241.40625 C 415.46875 242.433594 419.09375 243.601562 422.730469 244.855469 C 424.882812 245.59375 427.027344 246.371094 429.175781 247.15625 C 429.3125 247.207031 429.90625 247.449219 430.332031 247.625 C 431.097656 247.941406 432.230469 248.375 432.628906 248.359375 C 433.242188 248.332031 436.671875 247.085938 436.917969 246.996094 C 437.882812 246.667969 438.8125 246.300781 439.742188 245.933594 C 440.796875 245.507812 441.847656 245.082031 442.898438 244.65625 C 443.667969 244.347656 444.4375 244.039062 445.203125 243.730469 C 448.765625 242.292969 452.328125 240.929688 455.859375 239.652344 C 461.464844 237.605469 466.949219 235.90625 472.035156 234.582031 C 474.914062 233.847656 477.632812 233.214844 480.125 232.699219 C 481.464844 232.421875 482.726562 232.207031 483.886719 232.007812 C 484.011719 231.984375 484.132812 231.964844 484.253906 231.945312 C 485.394531 231.75 486.398438 231.625 487.230469 231.515625 C 487.84375 231.449219 488.246094 231.398438 488.414062 231.363281 C 488.191406 231.402344 487.726562 231.449219 487.058594 231.507812 C 486.398438 231.578125 485.652344 231.660156 484.832031 231.78125" fill="#65a7bc"/></g><g id="change4_23"><path d="M 480.574219 234.734375 C 478.234375 235.300781 475.914062 235.941406 473.59375 236.578125 C 468.964844 237.90625 464.367188 239.332031 459.78125 240.785156 C 455.191406 242.238281 450.632812 243.777344 446.078125 245.328125 L 432.589844 250.03125 C 427.78125 248.511719 422.953125 247.070312 418.113281 245.652344 C 413.226562 244.234375 408.335938 242.824219 403.410156 241.535156 C 398.484375 240.246094 393.546875 239.011719 388.574219 237.914062 C 386.082031 237.386719 383.582031 236.890625 381.070312 236.476562 C 378.558594 236.070312 376.027344 235.710938 373.484375 235.652344 C 376.027344 235.785156 378.535156 236.21875 381.03125 236.695312 C 383.527344 237.183594 386.003906 237.75 388.476562 238.351562 C 393.421875 239.527344 398.332031 240.839844 403.226562 242.210938 C 413.019531 244.945312 422.773438 247.851562 432.464844 250.921875 L 432.609375 250.96875 L 432.75 250.914062 C 437.269531 249.273438 441.800781 247.671875 446.34375 246.097656 C 450.886719 244.519531 455.4375 242.96875 459.992188 241.425781 C 464.550781 239.898438 469.121094 238.40625 473.714844 236.984375 C 476.011719 236.28125 478.308594 235.574219 480.628906 234.941406 C 481.78125 234.597656 482.953125 234.328125 484.117188 234.03125 C 485.277344 233.710938 486.46875 233.539062 487.644531 233.28125 C 486.464844 233.503906 485.261719 233.640625 484.09375 233.929688 C 482.917969 234.191406 481.738281 234.425781 480.574219 234.734375" fill="#65a7bc"/></g><g id="change5_1"><path d="M 393.726562 187.496094 C 392.804688 188.488281 392.039062 189.449219 391.582031 190.367188 C 391.0625 192.792969 391.257812 195.824219 391.632812 198.886719 C 391.796875 197.964844 391.960938 197.03125 392.132812 196.082031 C 392.402344 194.59375 392.6875 193.050781 392.972656 191.492188 C 393.21875 190.183594 393.46875 188.839844 393.726562 187.496094" fill="#f59382"/></g><g id="change5_2"><path d="M 216.707031 76.183594 C 215.46875 76.183594 214.304688 76.484375 213.269531 77.007812 C 213.28125 77.203125 213.289062 77.394531 213.308594 77.597656 C 213.367188 78.230469 213.4375 78.839844 213.507812 79.433594 C 213.523438 79.578125 213.542969 79.726562 213.5625 79.867188 C 213.636719 80.460938 213.714844 81.039062 213.804688 81.597656 C 213.804688 81.601562 213.804688 81.601562 213.808594 81.605469 C 213.898438 82.183594 214.003906 82.746094 214.117188 83.296875 C 214.136719 83.390625 214.15625 83.480469 214.175781 83.570312 C 214.414062 84.679688 214.695312 85.734375 215.035156 86.75 C 215.054688 86.804688 215.070312 86.855469 215.089844 86.90625 C 215.445312 87.945312 215.867188 88.945312 216.367188 89.929688 C 216.382812 89.957031 216.398438 89.984375 216.414062 90.015625 C 216.667969 90.507812 216.941406 90.996094 217.238281 91.484375 C 221.222656 91.210938 224.371094 87.902344 224.371094 83.847656 C 224.371094 79.613281 220.941406 76.183594 216.707031 76.183594" fill="#f59382"/></g><g id="change5_3"><path d="M 271.839844 82.75 C 276.070312 82.75 279.503906 86.183594 279.503906 90.414062 C 279.503906 94.648438 276.070312 98.078125 271.839844 98.078125 C 267.605469 98.078125 264.175781 94.648438 264.175781 90.414062 C 264.175781 86.183594 267.605469 82.75 271.839844 82.75" fill="#f59382"/></g><g id="change5_4"><path d="M 242.75 83.753906 C 242.890625 84.035156 243.058594 84.261719 243.261719 84.417969 C 243.4375 84.59375 243.597656 84.730469 243.761719 84.800781 C 244.066406 84.964844 244.238281 85.042969 244.238281 85.042969 C 244.238281 85.042969 244.101562 84.90625 243.867188 84.664062 C 243.632812 84.445312 243.371094 84.046875 243.210938 83.554688 C 243.09375 83.320312 243.105469 83.015625 243.054688 82.730469 C 243.074219 82.421875 243.066406 82.109375 243.128906 81.777344 C 243.214844 81.117188 243.421875 80.410156 243.671875 79.714844 C 244.171875 78.320312 244.777344 76.925781 245.1875 75.847656 C 245.605469 74.769531 245.757812 74.007812 245.757812 74.007812 C 245.757812 74.007812 245.339844 74.660156 244.734375 75.628906 C 244.140625 76.605469 243.351562 77.933594 242.828125 79.417969 C 242.582031 80.160156 242.363281 80.933594 242.34375 81.703125 C 242.292969 82.082031 242.367188 82.460938 242.410156 82.808594 C 242.519531 83.152344 242.566406 83.492188 242.75 83.753906" fill="#f59382"/></g><g id="change5_5"><path d="M 254.929688 87.816406 C 248.683594 90.4375 242.890625 91.609375 237.296875 86.839844 C 237.027344 86.609375 236.578125 86.90625 236.785156 87.234375 C 240.242188 92.734375 251.011719 93.039062 255.195312 88.273438 C 255.355469 88.089844 255.203125 87.703125 254.929688 87.816406" fill="#f59382"/></g><g id="change5_6"><path d="M 96.105469 155.984375 C 89.929688 158.148438 83.28125 159.085938 76.636719 158.359375 C 75.730469 158.277344 74.824219 158.160156 73.921875 158.015625 C 76.625 160.402344 80.164062 161.863281 84.054688 161.863281 C 88.953125 161.863281 93.300781 159.558594 96.105469 155.984375" fill="#f59382"/></g><g id="change5_7"><path d="M 10.652344 247 C 14.398438 249.015625 17.929688 251.320312 21.433594 253.679688 C 21.480469 253.566406 21.558594 253.449219 21.664062 253.328125 C 18.128906 250.984375 14.488281 248.792969 10.746094 246.835938 C 10.640625 246.78125 10.542969 246.941406 10.652344 247" fill="#f59382"/></g><g id="change5_8"><path d="M 115.675781 139.808594 C 116.570312 137.828125 117.328125 135.742188 117.628906 133.578125 C 117.574219 133.578125 117.519531 133.570312 117.464844 133.570312 C 113.628906 133.570312 110.519531 136.679688 110.519531 140.515625 C 110.519531 142.375 111.253906 144.058594 112.441406 145.304688 C 113.695312 143.640625 114.769531 141.816406 115.675781 139.808594" fill="#f59382"/></g><g id="change5_9"><path d="M 60.113281 133.570312 C 63.949219 133.570312 67.058594 136.679688 67.058594 140.515625 C 67.058594 144.351562 63.949219 147.460938 60.113281 147.460938 C 56.28125 147.460938 53.171875 144.351562 53.171875 140.515625 C 53.171875 136.679688 56.28125 133.570312 60.113281 133.570312" fill="#f59382"/></g><g id="change5_10"><path d="M 102.449219 241.058594 C 101.730469 241.929688 101.214844 242.953125 100.960938 244.054688 C 100.632812 245.476562 101.089844 246.820312 101.117188 248.230469 C 101.117188 248.339844 101.28125 248.339844 101.289062 248.230469 C 101.339844 247.195312 101.152344 246.160156 101.195312 245.113281 C 101.261719 243.558594 102.136719 242.542969 102.65625 241.179688 C 102.699219 241.0625 102.527344 240.960938 102.449219 241.058594" fill="#f59382"/></g><g id="change5_11"><path d="M 98.445312 238.117188 C 97.761719 238.890625 97.109375 239.882812 96.847656 240.890625 C 96.8125 241.027344 97 241.101562 97.074219 240.984375 C 97.640625 240.121094 98.011719 239.148438 98.664062 238.335938 C 98.785156 238.183594 98.578125 237.964844 98.445312 238.117188" fill="#f59382"/></g><g id="change5_12"><path d="M 106.792969 243.609375 C 106.078125 244.476562 105.121094 245.960938 105.4375 247.175781 C 105.460938 247.253906 105.570312 247.246094 105.59375 247.175781 C 105.984375 245.949219 106.234375 244.851562 107.035156 243.792969 C 107.140625 243.65625 106.902344 243.472656 106.792969 243.609375" fill="#f59382"/></g><g id="change5_13"><path d="M 131.757812 219.632812 C 128.253906 224.851562 124.210938 229.601562 119.917969 234.179688 C 119.085938 235.066406 116.398438 237.015625 116.078125 238.171875 C 115.015625 242.046875 115.15625 243.519531 111.222656 245.902344 C 111.125 245.960938 111.214844 246.117188 111.3125 246.058594 C 113.316406 244.84375 114.53125 244.230469 115.597656 242.074219 C 116.6875 239.871094 116.144531 238.351562 118.042969 236.398438 C 120.367188 234.003906 122.628906 231.554688 124.789062 229.027344 C 126.367188 228.761719 127.949219 228.5 129.550781 228.273438 C 129.648438 228.257812 129.625 228.085938 129.523438 228.09375 C 128.0625 228.238281 126.601562 228.414062 125.148438 228.609375 C 127.554688 225.769531 129.828125 222.824219 131.914062 219.722656 C 131.980469 219.625 131.824219 219.535156 131.757812 219.632812" fill="#f59382"/></g><g id="change5_14"><path d="M 88.953125 239.242188 C 89.730469 239.285156 90.5 239.203125 91.03125 239.074219 C 90.878906 239.484375 90.726562 239.898438 90.589844 240.300781 C 90.394531 240.890625 90.117188 241.613281 89.851562 242.378906 C 88.667969 241.6875 87.472656 241.011719 86.265625 240.359375 C 87.15625 239.972656 88.054688 239.609375 88.953125 239.242188 Z M 96.601562 242.015625 C 96.382812 243.578125 96.316406 245.238281 96.855469 246.683594 C 96.210938 246.273438 95.566406 245.867188 94.921875 245.460938 C 95.65625 244.410156 96.203125 243.203125 96.601562 242.015625 Z M 104.597656 224.746094 C 104.289062 225.4375 103.976562 226.125 103.664062 226.816406 C 103.558594 227.046875 103.457031 227.277344 103.351562 227.511719 C 102.839844 228.621094 101.953125 228.792969 100.96875 229.332031 C 99.359375 230.21875 97.6875 230.875 96.15625 231.917969 C 96.113281 231.945312 96.101562 231.984375 96.097656 232.023438 C 93.757812 233.339844 91.367188 233.894531 88.804688 234.546875 C 87.515625 234.875 86.328125 235.574219 86.125 236.953125 C 85.917969 238.320312 86.964844 238.9375 88.199219 239.152344 C 87.4375 239.488281 86.679688 239.832031 85.921875 240.175781 C 83.84375 239.066406 81.722656 238.019531 79.519531 237.089844 C 79.382812 237.03125 79.261719 237.214844 79.398438 237.296875 C 82.648438 239.210938 86.117188 240.742188 89.445312 242.515625 C 89.546875 242.570312 89.644531 242.628906 89.746094 242.683594 C 89.234375 244.21875 88.820312 245.90625 89.238281 247.152344 C 89.601562 248.25 91.726562 248.136719 92.488281 247.730469 C 93.367188 247.261719 94.101562 246.570312 94.714844 245.761719 C 95.484375 246.253906 96.265625 246.730469 97.0625 247.167969 C 97.316406 247.675781 97.644531 248.152344 98.097656 248.574219 C 98.21875 248.691406 98.394531 248.515625 98.28125 248.394531 C 96.394531 246.339844 96.683594 243.960938 96.804688 241.410156 C 96.808594 241.390625 96.785156 241.378906 96.769531 241.371094 C 96.765625 241.371094 96.765625 241.367188 96.761719 241.363281 C 96.734375 241.355469 96.699219 241.359375 96.695312 241.394531 C 96.695312 241.402344 96.695312 241.410156 96.691406 241.417969 C 95.972656 243.414062 94.757812 245.886719 93.027344 247.171875 C 92.171875 247.804688 89.269531 248.410156 89.386719 246.121094 C 89.425781 245.320312 89.660156 244.609375 89.867188 243.847656 C 90.792969 240.460938 91.835938 237.300781 93.820312 234.371094 C 93.882812 234.277344 93.734375 234.160156 93.65625 234.25 C 92.507812 235.582031 91.710938 237.257812 91.078125 238.9375 C 90.1875 239.171875 89.339844 239.207031 88.425781 239.074219 C 87.191406 238.890625 84.84375 237.398438 87.359375 235.46875 C 87.960938 235.007812 88.734375 234.828125 89.449219 234.636719 C 91.832031 234.003906 94.050781 233.453125 96.175781 232.15625 C 96.207031 232.175781 96.246094 232.179688 96.292969 232.152344 C 97.824219 231.105469 99.5 230.457031 101.105469 229.566406 C 101.503906 229.34375 102.925781 229.0625 103.070312 228.746094 C 103.671875 227.464844 104.257812 226.175781 104.832031 224.882812 C 104.855469 224.828125 104.835938 224.78125 104.808594 224.742188 C 104.753906 224.671875 104.644531 224.644531 104.597656 224.746094" fill="#f59382"/></g><g id="change5_15"><path d="M 87.5625 137.886719 C 87.886719 137.757812 88.234375 137.699219 88.582031 137.65625 C 88.925781 137.652344 89.277344 137.632812 89.589844 137.734375 C 89.921875 137.769531 90.203125 137.929688 90.46875 138.039062 C 90.722656 138.171875 90.925781 138.316406 91.082031 138.410156 C 91.234375 138.507812 91.335938 138.558594 91.335938 138.558594 C 91.335938 138.558594 91.300781 138.460938 91.210938 138.296875 C 91.105469 138.152344 91.019531 137.867188 90.78125 137.644531 C 90.527344 137.445312 90.261719 137.109375 89.835938 136.984375 C 89.636719 136.910156 89.429688 136.792969 89.199219 136.800781 C 88.96875 136.785156 88.734375 136.742188 88.503906 136.761719 C 88.050781 136.835938 87.601562 136.9375 87.242188 137.164062 C 86.855469 137.320312 86.59375 137.660156 86.34375 137.851562 C 86.113281 138.070312 86.007812 138.316406 85.894531 138.460938 C 85.796875 138.613281 85.746094 138.710938 85.746094 138.710938 C 85.746094 138.710938 86.136719 138.527344 86.667969 138.234375 C 86.945312 138.128906 87.214844 137.960938 87.5625 137.886719" fill="#f59382"/></g><g id="change5_16"><path d="M 95.699219 145.847656 C 95.886719 145.589844 95.511719 145.203125 95.253906 145.402344 C 89.417969 149.851562 83.699219 148.433594 77.589844 145.441406 C 77.300781 145.300781 77.070312 145.628906 77.261719 145.871094 C 81.234375 150.871094 91.886719 151.140625 95.699219 145.847656" fill="#f59382"/></g><g id="change5_17"><path d="M 58.203125 248.628906 C 56.464844 247.914062 54.800781 247.277344 53.515625 245.839844 C 53.375 245.679688 53.148438 245.910156 53.28125 246.070312 C 54.523438 247.519531 56.277344 248.480469 58.121094 248.933594 C 58.324219 248.980469 58.386719 248.703125 58.203125 248.628906" fill="#f59382"/></g><g id="change5_18"><path d="M 50.527344 249.070312 C 50.386719 248.917969 50.160156 249.144531 50.300781 249.296875 C 50.816406 249.871094 51.40625 250.363281 52.121094 250.671875 C 52.277344 250.738281 52.40625 250.535156 52.257812 250.441406 C 51.625 250.035156 51.035156 249.625 50.527344 249.070312" fill="#f59382"/></g><g id="change5_19"><path d="M 46.511719 250.394531 C 46.410156 250.222656 46.144531 250.378906 46.242188 250.554688 C 46.53125 251.070312 46.886719 251.476562 47.441406 251.71875 C 47.59375 251.785156 47.710938 251.589844 47.574219 251.488281 C 47.136719 251.175781 46.78125 250.863281 46.511719 250.394531" fill="#f59382"/></g><g id="change5_20"><path d="M 39.972656 237.441406 C 34.101562 231.078125 27.328125 224.824219 22.886719 217.320312 C 22.832031 217.230469 22.695312 217.308594 22.746094 217.402344 C 26.738281 224.890625 33.632812 231.832031 39.800781 237.5625 C 38.464844 240.191406 38.511719 243.507812 39.402344 246.269531 C 39.460938 246.449219 39.714844 246.375 39.683594 246.191406 C 39.167969 243.089844 39.050781 240.605469 40.058594 237.585938 C 40.082031 237.515625 40.03125 237.460938 39.972656 237.441406" fill="#f59382"/></g><g id="change5_21"><path d="M 61.984375 236.398438 C 61.902344 236.300781 61.722656 236.433594 61.804688 236.535156 C 62.375 237.285156 62.96875 238 63.597656 238.699219 C 64.550781 239.757812 65.578125 240.78125 64.554688 242.191406 C 64.46875 242.3125 64.644531 242.492188 64.765625 242.402344 C 67.066406 240.640625 63.015625 237.585938 61.984375 236.398438" fill="#f59382"/></g><g id="change5_22"><path d="M 53.363281 228.320312 C 52.867188 228.046875 52.730469 227.527344 52.507812 227.039062 C 52.1875 226.324219 51.855469 225.609375 51.519531 224.902344 C 51.46875 224.789062 51.273438 224.871094 51.320312 224.984375 C 51.664062 225.816406 52.019531 226.644531 52.378906 227.472656 C 52.597656 227.976562 52.707031 228.390625 53.269531 228.539062 C 53.402344 228.574219 53.484375 228.386719 53.363281 228.320312" fill="#f59382"/></g><g id="change5_23"><path d="M 394.523438 227.6875 C 394.535156 227.796875 394.699219 227.800781 394.695312 227.6875 C 394.664062 226.453125 395.007812 225.261719 394.769531 224.015625 C 394.519531 222.722656 393.941406 221.5625 393.054688 220.578125 C 392.953125 220.46875 392.808594 220.609375 392.859375 220.730469 C 393.378906 221.925781 394.148438 222.777344 394.421875 224.113281 C 394.664062 225.3125 394.414062 226.492188 394.523438 227.6875" fill="#f59382"/></g><g id="change5_24"><path d="M 396.710938 217.691406 C 397.472656 218.554688 397.921875 219.640625 398.574219 220.578125 C 398.648438 220.6875 398.847656 220.625 398.800781 220.484375 C 398.453125 219.398438 397.714844 218.292969 396.929688 217.46875 C 396.792969 217.324219 396.582031 217.539062 396.710938 217.691406" fill="#f59382"/></g><g id="change5_25"><path d="M 388.613281 223.535156 C 389.449219 224.546875 389.738281 225.625 390.175781 226.820312 C 390.203125 226.890625 390.3125 226.902344 390.332031 226.820312 C 390.59375 225.59375 389.585938 224.160156 388.828125 223.316406 C 388.695312 223.167969 388.488281 223.386719 388.613281 223.535156" fill="#f59382"/></g><g id="change5_26"><path d="M 464.3125 218.984375 C 461.96875 219.671875 460.285156 222.882812 460.996094 225.191406 C 461.039062 225.332031 461.246094 225.273438 461.21875 225.128906 C 460.742188 222.71875 462.375 220.355469 464.433594 219.269531 C 464.59375 219.1875 464.484375 218.933594 464.3125 218.984375" fill="#f59382"/></g><g id="change5_27"><path d="M 467.566406 221.359375 C 465.273438 222.152344 464.472656 224.789062 464.734375 227.007812 C 464.757812 227.203125 465.058594 227.214844 465.046875 227.007812 C 464.9375 224.804688 465.707031 222.773438 467.699219 221.675781 C 467.871094 221.582031 467.753906 221.292969 467.566406 221.359375" fill="#f59382"/></g><g id="change5_28"><path d="M 470.246094 224.992188 C 469.152344 225.816406 468.570312 227.070312 468.785156 228.441406 C 468.816406 228.636719 469.144531 228.589844 469.128906 228.394531 C 469.003906 227.136719 469.59375 226.132812 470.46875 225.277344 C 470.613281 225.136719 470.414062 224.863281 470.246094 224.992188" fill="#f59382"/></g><g id="change5_29"><path d="M 410.070312 257.144531 C 402.222656 253.238281 395.636719 263.328125 392.667969 269.28125 C 392.65625 269.304688 392.664062 269.328125 392.664062 269.351562 C 392.652344 269.4375 392.679688 269.527344 392.746094 269.578125 C 392.824219 269.644531 392.9375 269.660156 393.023438 269.554688 C 397.320312 264.074219 401.195312 254.097656 409.945312 257.488281 C 410.0625 257.53125 410.144531 257.4375 410.164062 257.335938 C 412.785156 256.046875 415.152344 254.222656 417.71875 252.808594 C 417.90625 252.707031 418.097656 252.613281 418.285156 252.511719 C 418.105469 252.46875 417.921875 252.425781 417.734375 252.382812 C 415.140625 253.890625 412.609375 255.511719 410.070312 257.144531" fill="#f59382"/></g><g id="change5_30"><path d="M 394.910156 142.226562 C 394.941406 142.347656 394.976562 142.46875 395.007812 142.585938 C 395.292969 143.617188 395.59375 144.585938 395.921875 145.496094 C 395.949219 145.574219 395.980469 145.652344 396.007812 145.730469 C 396.351562 146.660156 396.726562 147.539062 397.152344 148.378906 C 397.175781 148.425781 397.199219 148.46875 397.226562 148.515625 C 397.664062 149.367188 398.152344 150.183594 398.710938 150.96875 C 398.730469 150.996094 398.75 151.023438 398.769531 151.054688 C 399.046875 151.441406 399.339844 151.828125 399.65625 152.207031 C 399.65625 152.210938 399.660156 152.214844 399.664062 152.21875 C 402.691406 151.5625 404.964844 148.871094 404.964844 145.648438 C 404.964844 141.9375 401.953125 138.925781 398.242188 138.925781 C 396.808594 138.925781 395.484375 139.378906 394.394531 140.140625 C 394.429688 140.3125 394.460938 140.476562 394.503906 140.652344 C 394.636719 141.195312 394.773438 141.714844 394.910156 142.226562" fill="#f59382"/></g><g id="change5_31"><path d="M 446.917969 137.691406 C 450.632812 137.691406 453.640625 140.703125 453.640625 144.414062 C 453.640625 148.128906 450.632812 151.136719 446.917969 151.136719 C 443.207031 151.136719 440.195312 148.128906 440.195312 144.414062 C 440.195312 140.703125 443.207031 137.691406 446.917969 137.691406" fill="#f59382"/></g><g id="change5_32"><path d="M 431.871094 144.273438 C 426.632812 147.207031 422.0625 148.964844 416.480469 145.605469 C 416.144531 145.402344 415.863281 145.84375 416.085938 146.117188 C 419.722656 150.519531 429.328125 149.398438 432.246094 144.644531 C 432.394531 144.40625 432.105469 144.140625 431.871094 144.273438" fill="#f59382"/></g><g id="change5_33"><path d="M 419.4375 139.878906 C 419.6875 139.738281 419.949219 139.550781 420.277344 139.472656 C 420.574219 139.335938 420.929688 139.316406 421.269531 139.28125 C 421.617188 139.289062 421.96875 139.304688 422.308594 139.394531 C 422.660156 139.429688 422.945312 139.566406 423.234375 139.636719 C 423.796875 139.867188 424.203125 140.007812 424.203125 140.007812 C 424.203125 140.007812 424.144531 139.914062 424.03125 139.773438 C 423.902344 139.644531 423.769531 139.410156 423.515625 139.222656 C 423.242188 139.0625 422.945312 138.753906 422.542969 138.640625 C 422.160156 138.460938 421.703125 138.40625 421.242188 138.386719 C 421.015625 138.390625 420.785156 138.460938 420.558594 138.5 C 420.328125 138.519531 420.140625 138.660156 419.945312 138.757812 C 419.539062 138.929688 419.3125 139.289062 419.085938 139.519531 C 418.871094 139.765625 418.816406 140.0625 418.730469 140.21875 C 418.660156 140.390625 418.632812 140.492188 418.632812 140.492188 C 418.632812 140.492188 418.730469 140.429688 418.871094 140.316406 C 419.015625 140.207031 419.203125 140.035156 419.4375 139.878906" fill="#f59382"/></g></g></svg>