<?xml version="1.0" encoding="UTF-8"?><svg xmlns="http://www.w3.org/2000/svg" xmlns:xlink="http://www.w3.org/1999/xlink" height="440.9" preserveAspectRatio="xMidYMid meet" version="1.0" viewBox="0.0 0.0 460.6 440.9" width="460.6" zoomAndPan="magnify"><defs><clipPath id="a"><path d="M 0 0 L 460.628906 0 L 460.628906 440.859375 L 0 440.859375 Z M 0 0"/></clipPath></defs><g><g id="change1_1"><path d="M 74.425781 275.300781 C 74.425781 275.300781 76.230469 303.089844 78.351562 308.277344 C 80.476562 313.46875 81.542969 315.695312 83.207031 315.8125 C 89.710938 316.273438 90.113281 303.730469 91.667969 298.546875 C 92.933594 294.335938 98.84375 272.300781 98.84375 272.300781 Z M 397.578125 65.109375 C 395.90625 67.972656 393.878906 67.375 388.390625 68.089844 C 382.902344 68.808594 380.089844 69.15625 380.089844 69.15625 L 381.351562 78.113281 C 373.835938 76.085938 376.222656 82.40625 377.535156 85.03125 C 378.847656 87.65625 381.949219 84.792969 382.664062 87.488281 C 383.378906 90.179688 386.242188 94.816406 386.242188 94.816406 L 383.617188 95.054688 L 383.859375 98.753906 C 384.929688 105.195312 387.4375 105.195312 393.640625 109.367188 C 399.84375 113.546875 404.316406 110.058594 404.316406 110.058594 C 400.453125 104.808594 405.09375 93.859375 405.09375 93.859375 C 410.820312 91.949219 412.847656 79.1875 411.535156 71.074219 C 410.222656 62.960938 399.246094 62.246094 397.578125 65.109375 Z M 385.144531 162.605469 C 384.296875 157.410156 372.769531 147.964844 372.769531 147.964844 C 372.769531 147.964844 352.933594 126.710938 346.320312 125.765625 C 339.707031 124.820312 320.121094 120.714844 319.523438 123.355469 C 316.34375 137.480469 367.574219 149.851562 367.574219 149.851562 C 368.199219 157.71875 368.992188 162.605469 368.992188 162.605469 C 368.992188 162.605469 385.992188 167.800781 385.144531 162.605469 Z M 427.28125 192.117188 C 425.519531 187.886719 428.339844 157.226562 428.339844 156.875 C 428.339844 156.523438 418.824219 157.226562 416.355469 159.695312 L 418.121094 191.765625 L 416.355469 205.660156 L 418.121094 206.917969 L 421.289062 201.632812 L 421.289062 215.023438 C 421.289062 215.023438 433.625 216.433594 433.625 215.023438 C 433.625 213.613281 429.042969 196.34375 427.28125 192.117188 Z M 391.101562 321.347656 C 391.148438 321.933594 391.351562 322.675781 391.351562 322.675781 C 391.351562 322.675781 392.773438 324.148438 394.65625 320.980469 C 396.539062 317.808594 409.613281 257.027344 409.613281 257.027344 L 385.144531 257.027344 C 385.84375 258.425781 390.453125 313.566406 391.101562 321.347656 Z M 354.390625 260.671875 C 351.734375 258.917969 342.976562 254.40625 342.976562 254.40625 C 343.269531 255.292969 346.515625 269.953125 354.777344 267.59375 C 363.039062 265.234375 365.398438 261.382812 365.398438 261.382812 C 365.398438 261.382812 357.046875 262.429688 354.390625 260.671875 Z M 265.328125 299.152344 C 265.328125 299.152344 258.53125 293.25 253.496094 292.359375 C 255.609375 283.9375 258.550781 269.320312 257.4375 256.667969 L 257.679688 250.492188 C 257.679688 250.492188 244.128906 238.140625 226.359375 244.316406 L 233.855469 290.464844 C 233.855469 290.464844 225.996094 325.15625 238.910156 363.332031 C 238.910156 363.332031 228.605469 392.527344 232.636719 395.332031 C 236.664062 398.140625 244.523438 396.453125 246.207031 391.964844 C 247.890625 387.472656 246.207031 352.105469 246.207031 352.105469 L 251.203125 302.882812 C 257.507812 307.703125 274.328125 320.269531 277.652344 319.644531 C 281.761719 318.875 290.390625 283.949219 290.390625 283.949219 C 290.390625 283.949219 277.652344 275.320312 265.328125 266.285156 Z M 307.453125 118.375 C 307.453125 118.375 299.394531 130.175781 290.386719 129.210938 L 288.339844 128.824219 L 290.386719 131.734375 C 290.386719 131.734375 305.449219 148.953125 312.519531 152.949219 C 312.519531 152.949219 303.378906 169.664062 302.992188 191.378906 C 302.992188 191.378906 294.386719 200.679688 293.621094 202.457031 C 293.621094 202.457031 293.878906 204.238281 295.402344 205.382812 C 295.402344 205.382812 295.125 209.847656 295.253906 210.609375 C 295.378906 211.371094 305.578125 215.304688 311.425781 212.886719 L 312.03125 205.734375 L 311.824219 194.195312 C 311.824219 194.195312 323.363281 164.234375 324.523438 150.300781 Z M 231.152344 78.078125 C 231.152344 78.078125 232.464844 89.878906 240.851562 93.046875 C 240.851562 93.046875 243.824219 93.917969 241.027344 100.4375 C 238.234375 106.960938 231.277344 109.648438 231.277344 109.648438 C 231.277344 109.648438 234.695312 121.867188 254.445312 123.355469 C 254.445312 123.355469 268.128906 121.734375 271.398438 102.117188 C 271.585938 100.996094 273.820312 94.460938 275.496094 94.003906 C 277.175781 93.546875 260.035156 97.085938 257.984375 98.015625 C 257.984375 98.015625 259.476562 94.289062 262.082031 91.496094 C 264.691406 88.699219 266.929688 83.109375 267.113281 82.550781 C 267.300781 81.992188 267.375 81.515625 267.375 81.515625 C 267.375 81.515625 274.992188 80.277344 274.992188 75.882812 C 274.992188 71.484375 271.914062 66.648438 270.78125 67.78125 C 269.648438 68.917969 268.3125 52.621094 267.886719 52.621094 C 267.464844 52.621094 258.246094 45.105469 247.609375 48.933594 C 236.972656 52.765625 234.292969 54.128906 233.726562 61.644531 C 233.726562 61.644531 233.492188 69.445312 233.390625 67.273438 C 233.390625 67.273438 228.390625 61.480469 226.898438 63.53125 C 225.410156 65.578125 225.9375 76.960938 231.152344 78.078125 Z M 214.15625 139.417969 C 213.421875 138.085938 200.855469 155.613281 199.746094 167.253906 C 199.746094 167.253906 177.324219 186.226562 172.738281 206.632812 C 172.738281 206.632812 158.429688 217.363281 157.585938 219.050781 C 156.742188 220.738281 166.007812 231.59375 167.273438 229.484375 C 168.539062 227.371094 175.589844 212.773438 175.589844 212.773438 C 175.589844 212.773438 180.835938 206.832031 187.363281 200.886719 C 194.84375 194.070312 197.4375 185.894531 207.636719 173.671875 C 216.738281 162.757812 225.726562 155.277344 225.773438 155.09375 L 224.484375 152.894531 C 224.484375 152.894531 218.5 147.304688 214.15625 139.417969 Z M 97.605469 327.378906 L 100.3125 327.378906 C 100.3125 327.378906 113.472656 300.332031 115.300781 286.445312 L 98.84375 284.253906 C 98.84375 284.253906 92.84375 315.683594 97.605469 327.378906 Z M 160.0625 162.71875 L 148.203125 165.839844 C 148.203125 165.839844 137.382812 173.328125 135.09375 178.113281 C 135.09375 178.113281 123.339844 175.273438 121.46875 176.105469 L 123.441406 179.988281 L 128.851562 179.988281 L 120.113281 185.8125 C 120.113281 185.8125 118.402344 192.941406 124.484375 198.296875 L 129.058594 199.753906 L 136.757812 190.390625 C 136.757812 190.390625 157.355469 183.316406 160.0625 165.839844 Z M 53.160156 146.617188 L 49.171875 167.527344 L 40.347656 183.414062 L 48.582031 191.257812 L 50.742188 181.257812 L 52.703125 176.550781 L 53.484375 181.257812 L 56.625 181.257812 L 55.25 169.292969 L 63.863281 154.992188 C 63.863281 154.992188 54.140625 146.617188 53.160156 146.617188 Z M 115.785156 77.378906 L 110.414062 89.191406 L 112.832031 97.246094 L 97.257812 118.996094 C 97.257812 118.996094 90.546875 119.800781 88.128906 115.773438 C 85.710938 111.746094 79.546875 104.464844 79.546875 104.464844 L 86.945312 91.003906 C 86.945312 91.003906 77.390625 86.238281 76.316406 66.101562 C 76.316406 66.101562 76.316406 56.164062 84.101562 53.75 C 91.886719 51.332031 101.285156 51.601562 106.925781 57.777344 C 112.5625 63.953125 114.175781 69.589844 115.785156 69.054688 C 117.398438 68.515625 120.351562 63.953125 121.15625 66.636719 C 121.960938 69.320312 122.230469 79.792969 115.785156 77.378906" fill="#ce913b"/></g><g id="change2_1"><path d="M 411.269531 60.828125 C 410.433594 59.304688 409.601562 57.789062 409.097656 56.15625 C 408.875 55.449219 408.71875 54.722656 408.644531 53.960938 C 408.507812 52.5 408.363281 50.886719 406.9375 50.089844 C 405.714844 49.40625 403.667969 49.34375 403.667969 51.207031 C 403.667969 53.917969 394.628906 55.425781 381.824219 56.78125 C 369.019531 58.136719 371.277344 64.613281 371.578125 69.433594 C 371.878906 74.257812 375.90625 79.816406 376.246094 79.265625 C 377.34375 77.484375 379.96875 78.074219 381.511719 78.621094 C 382.128906 78.839844 382.785156 78.375 382.773438 77.71875 C 382.75 76.199219 382.496094 74.195312 382.28125 72.324219 C 382.109375 70.8125 383.046875 69.386719 384.511719 68.96875 C 386.492188 68.402344 389.226562 68.011719 391.101562 67.859375 C 392.640625 67.738281 394.257812 67.738281 395.613281 67.003906 C 396.921875 66.292969 397.792969 64.957031 399.152344 64.328125 C 400.859375 63.539062 403.101562 63.570312 404.878906 64.042969 C 408.5625 65.023438 410.933594 68.402344 411.664062 71.972656 C 411.730469 72.296875 411.996094 72.0625 412.039062 71.734375 C 412.285156 69.859375 412.769531 67.984375 412.828125 66.085938 C 412.890625 64.175781 412.175781 62.472656 411.269531 60.828125 Z M 238.910156 363.332031 C 238.824219 363.558594 238.527344 364.34375 238.390625 364.710938 C 236.503906 369.820312 228.699219 386.476562 231.074219 394.03125 C 231.074219 394.03125 244.601562 406.703125 246.710938 388.6875 C 248.351562 374.695312 246.648438 363.386719 246.648438 363.386719 C 246.648438 363.386719 244.460938 365.113281 242.875 365.089844 C 241 365.0625 238.910156 363.332031 238.910156 363.332031 Z M 238.714844 363.832031 L 238.71875 363.832031 C 238.835938 363.519531 238.910156 363.332031 238.910156 363.332031 Z M 78.976562 309.785156 C 78.976562 309.785156 80.832031 325.933594 84.410156 327.378906 C 87.988281 328.824219 86.632812 314.503906 86.632812 314.503906 C 86.632812 314.503906 82.023438 316.988281 78.976562 309.785156 Z M 97.019531 325.65625 C 97.019531 325.65625 97.46875 329.011719 98.253906 330.238281 C 99.039062 331.46875 119.078125 344.546875 119.078125 337.515625 C 119.078125 329.894531 97.019531 325.65625 97.019531 325.65625 Z M 391.101562 321.347656 C 391.101562 321.347656 393.230469 341.902344 394.945312 344.238281 C 396.660156 346.582031 402.492188 345.910156 402.148438 339.558594 C 401.804688 333.207031 394.976562 320.222656 394.976562 320.222656 Z M 259.75 33.679688 C 236.457031 27.292969 222.554688 48.332031 219.925781 55.847656 C 217.296875 63.359375 223.910156 69.417969 222.929688 79.890625 C 222.03125 89.484375 206.988281 103.726562 200.605469 109.574219 C 194.226562 115.425781 195.40625 117.601562 199.457031 119.0625 C 206.523438 121.613281 192.921875 138.472656 194.640625 143.699219 C 195.492188 146.28125 197.605469 146.378906 199.898438 145.023438 C 199.898438 145.023438 200.167969 146.089844 194.488281 155.1875 C 188.808594 164.289062 199.695312 164.847656 202.40625 158.421875 C 207.152344 147.179688 214.253906 142.414062 214.253906 142.414062 L 211.972656 138.941406 L 219.226562 122.484375 C 226.378906 115.269531 233.761719 108.449219 233.761719 108.449219 C 246.625 99.597656 241.542969 92.179688 241.542969 92.179688 C 232.976562 89.273438 231.152344 78.078125 231.152344 78.078125 C 226.023438 77.390625 226.492188 65.5625 229.429688 64.773438 C 232.367188 63.984375 233.640625 69.914062 235.039062 70.226562 C 236.4375 70.535156 234.863281 65.769531 236.746094 58.085938 C 238.632812 50.402344 250.730469 47.230469 258.433594 48.386719 C 266.132812 49.542969 268.296875 60.601562 268.460938 64.632812 C 268.625 68.660156 269.304688 69.78125 269.304688 69.78125 C 271.953125 67.570312 273.679688 69.691406 273.644531 73.648438 C 273.613281 77.601562 267.375 81.515625 267.375 81.515625 C 267.375 81.515625 259.929688 94.320312 258.699219 96.484375 C 257.464844 98.648438 255.316406 100.46875 258.453125 102.882812 C 261.589844 105.292969 279.207031 94.433594 279.207031 94.433594 L 281.164062 85.601562 C 283.796875 75.53125 283.042969 40.066406 259.75 33.679688 Z M 120.507812 65.820312 C 120.507812 65.820312 118.183594 67.15625 116.722656 68.472656 C 116.289062 68.863281 115.773438 69.359375 115.265625 69.859375 C 114.160156 70.945312 112.296875 70.511719 111.789062 69.046875 L 109.757812 63.207031 C 108.738281 60.324219 105.109375 57.066406 102.546875 55.597656 C 100.316406 54.320312 97.367188 53.609375 94.867188 54.480469 C 93.515625 54.953125 92.710938 57.84375 90.320312 56.324219 C 87.917969 54.796875 81.875 53.382812 79.953125 60.101562 C 78.035156 66.816406 76.316406 66.101562 76.316406 66.101562 C 76.117188 66.015625 75.691406 64.53125 75.441406 63.714844 C 75.371094 63.492188 75.316406 63.316406 75.28125 63.234375 C 74.882812 62.257812 74.640625 61.265625 74.441406 60.203125 C 74.011719 57.875 73.800781 55.496094 73.96875 53.132812 C 74.257812 49.089844 75.628906 45.132812 78.644531 42.351562 C 81.433594 39.777344 85.015625 38.210938 88.589844 37.066406 C 100.105469 33.390625 113.222656 39.46875 117.0625 42.507812 C 120.898438 45.546875 120.507812 65.820312 120.507812 65.820312" fill="#4a1f21"/></g><g id="change3_1"><path d="M 433.625 155.558594 C 435.921875 153.746094 433.925781 123.257812 426.855469 113.1875 C 419.78125 103.113281 403.367188 99.453125 403.367188 99.453125 C 403.367188 99.453125 402.867188 101.605469 402.488281 104.199219 C 402.335938 105.257812 402.359375 106.277344 402.441406 107.113281 C 402.550781 108.195312 401.621094 109.109375 400.539062 108.996094 C 382.59375 107.128906 383.617188 95.054688 383.617188 95.054688 C 356.472656 94.789062 330.929688 113.480469 327.335938 113.082031 C 323.746094 112.683594 326.695312 115.726562 321.3125 116.878906 C 315.929688 118.03125 319.523438 123.355469 319.523438 123.355469 C 327.621094 122.085938 346.320312 125.765625 346.320312 125.765625 L 360.332031 116.761719 L 357.5625 133.195312 L 364.671875 139.746094 L 371.410156 146.53125 L 378.695312 153.394531 C 385.339844 159.585938 384.984375 163.726562 384.984375 163.726562 C 380.8125 165.480469 368.992188 162.605469 368.992188 162.605469 L 367.574219 149.851562 L 355.523438 146.46875 C 355.523438 146.46875 348.402344 181.453125 347.890625 189.402344 C 347.378906 197.347656 351.734375 193.757812 364.550781 190.425781 C 377.367188 187.09375 406.152344 193.515625 407.6875 193.515625 C 406.578125 193.515625 405.644531 180.746094 405.636719 179.71875 C 405.574219 173.804688 406.304688 167.902344 407.46875 162.113281 C 408.976562 154.613281 410.59375 145.386719 414.101562 138.617188 C 414.429688 144.066406 414.453125 149.753906 413.925781 155.195312 C 413.382812 160.816406 414.652344 161.359375 414.652344 161.359375 C 419.910156 158.457031 433.503906 161.175781 434.53125 159.726562 C 435.5625 158.277344 431.328125 157.371094 433.625 155.558594 Z M 131.511719 216.226562 C 131.488281 216.308594 117.089844 269.855469 118.296875 276.191406 C 119.503906 282.53125 118.453125 287.15625 118.453125 287.15625 L 95.636719 284.074219 L 98.84375 272.300781 L 72.089844 275.585938 C 72.089844 275.585938 72.390625 270.453125 73.332031 262.300781 C 74.273438 254.144531 60.089844 215.90625 60.089844 215.90625 C 65.90625 212.703125 76.839844 215.789062 76.839844 215.789062 C 81.375 217.070312 85.824219 219.105469 90.242188 220.734375 C 95.988281 222.855469 100.898438 225.753906 107.230469 225.933594 C 115.917969 226.179688 126.902344 224.503906 131.511719 216.226562" fill="#e3d4a4"/></g><g id="change4_1"><path d="M 407.621094 206.109375 L 404.589844 192.820312 C 404.589844 192.820312 379.117188 186.683594 364.550781 190.425781 L 349.988281 194.167969 C 349.988281 194.167969 335.578125 228.027344 340.871094 253.214844 C 340.871094 253.214844 343.28125 254.960938 348.253906 257.867188 C 351.144531 259.558594 353.949219 261.402344 357.292969 262.023438 C 360.78125 262.675781 364.453125 262.3125 367.738281 260.976562 C 368.925781 260.492188 369.058594 259.140625 369.058594 258.023438 C 369.058594 256.503906 368.949219 255.105469 369.097656 253.570312 C 369.707031 247.160156 371.179688 240.816406 372.714844 234.578125 C 373.683594 230.65625 374.765625 226.757812 376.046875 222.929688 C 376.628906 221.179688 377.257812 219.445312 377.957031 217.742188 C 378.265625 217 378.585938 216.261719 378.925781 215.535156 C 379.136719 215.089844 381.425781 254.535156 382.683594 257.027344 C 383.945312 259.515625 402.78125 255.230469 409.613281 259.011719 C 416.441406 262.789062 412.914062 227.773438 407.621094 206.109375 Z M 160.0625 149.179688 C 162.234375 160.746094 166.789062 158.292969 163.988281 160.746094 C 161.183594 163.199219 148.234375 165.71875 146.03125 167.414062 C 143.828125 169.113281 142.953125 165.300781 141.902344 160.746094 C 140.851562 156.1875 127.882812 134.808594 127.882812 134.808594 L 129.773438 176.933594 L 123.214844 175.964844 L 123.441406 179.988281 L 128.851562 179.988281 L 120.113281 185.8125 C 120.113281 185.8125 119.742188 191.542969 122.113281 194.921875 C 123.628906 197.078125 123.960938 197.609375 124.003906 197.714844 L 129.058594 199.753906 L 131.007812 197.382812 C 131.007812 197.382812 131.597656 214.652344 131.601562 214.6875 C 131.890625 218.574219 126.472656 222.9375 123.710938 224.65625 C 113.507812 231.023438 100.617188 225.699219 90.769531 221.289062 C 79.636719 216.296875 70.542969 213.269531 58.382812 216.40625 C 58.382812 216.40625 54.601562 217.382812 56.492188 210.851562 C 58.382812 204.320312 62.703125 156.917969 62.703125 156.917969 C 62.703125 156.917969 59.054688 150.617188 53.484375 147.328125 C 53.484375 147.328125 51.148438 146.289062 53.484375 142.847656 C 55.824219 139.40625 48.789062 115.925781 51.523438 112.171875 C 54.261719 108.414062 79.617188 94.953125 79.617188 94.953125 L 86.945312 91.003906 C 86.945312 91.003906 80.601562 103.742188 82.105469 106.117188 C 83.613281 108.492188 88.539062 117.21875 92.296875 118.621094 C 92.296875 118.621094 102.917969 111.09375 106.488281 106.109375 C 110.058594 101.125 112.839844 97.273438 112.625 96.554688 C 112.410156 95.839844 110.503906 89.484375 110.503906 89.484375 C 110.503906 89.484375 137.894531 105.363281 140.074219 108.167969 C 142.253906 110.972656 157.890625 137.609375 160.0625 149.179688" fill="#49669f"/></g><g clip-path="url(#a)" id="change5_1"><path d="M 317.050781 402.433594 C 319.039062 405.25 319.367188 408.953125 318.402344 412.203125 C 316.152344 419.761719 307.148438 422.484375 300.183594 420.425781 C 299.929688 420.347656 299.613281 420.058594 299.558594 419.785156 C 299.5 419.488281 299.445312 419.191406 299.386719 418.894531 C 296.839844 421.421875 292.757812 422.519531 289.402344 421.207031 C 284.816406 419.417969 282.777344 413.386719 285.257812 409.160156 C 285.636719 408.519531 286.375 408.117188 287.136719 408.25 C 287.703125 408.347656 288.425781 408.917969 288.046875 409.566406 C 286.242188 412.640625 287.253906 417.152344 290.484375 418.898438 C 293.839844 420.714844 297.835938 418.285156 298.773438 414.863281 C 299.046875 413.863281 301.382812 413.460938 301.617188 414.675781 C 301.863281 415.949219 302.109375 417.222656 302.359375 418.496094 C 305.722656 419.335938 309.511719 418.808594 312.300781 416.679688 C 315.0625 414.570312 316.40625 411.007812 315.890625 407.582031 C 315.417969 404.433594 313.375 401.570312 310.125 400.945312 C 307.296875 400.398438 304.167969 401.460938 302.847656 404.148438 C 302.242188 405.382812 299.3125 405.265625 300.058594 403.746094 C 301.675781 400.453125 305.214844 398.621094 308.808594 398.546875 C 312.023438 398.476562 315.160156 399.761719 317.050781 402.433594 Z M 260.929688 25.074219 C 265.089844 20.574219 269.246094 16.070312 273.410156 11.570312 C 273.863281 11.078125 274.695312 10.859375 275.335938 10.839844 C 275.667969 10.828125 276.515625 10.972656 276.0625 11.464844 C 271.902344 15.964844 267.742188 20.464844 263.582031 24.96875 C 263.128906 25.457031 262.292969 25.679688 261.652344 25.699219 C 261.324219 25.710938 260.472656 25.566406 260.929688 25.074219 Z M 236.546875 23.683594 C 237.175781 16.1875 237.800781 8.695312 238.429688 1.199219 C 238.542969 -0.160156 241.496094 -0.535156 241.371094 0.996094 C 240.742188 8.492188 240.117188 15.988281 239.488281 23.480469 C 239.375 24.839844 236.421875 25.214844 236.546875 23.683594 Z M 197.613281 26.738281 C 197.085938 26.265625 199.722656 25.171875 200.335938 25.71875 C 204.578125 29.496094 208.820312 33.277344 213.0625 37.058594 C 213.589844 37.527344 210.953125 38.625 210.339844 38.078125 C 206.097656 34.296875 201.855469 30.519531 197.613281 26.738281 Z M 415.777344 308.957031 C 415.839844 309.195312 415.621094 309.398438 415.476562 309.539062 C 414.058594 310.949219 412.636719 312.359375 411.214844 313.769531 C 410.964844 314.015625 410.570312 314.144531 410.242188 314.238281 C 409.898438 314.339844 409.519531 314.371094 409.164062 314.320312 C 408.972656 314.289062 408.671875 314.183594 408.613281 313.960938 C 408.550781 313.726562 408.769531 313.523438 408.914062 313.378906 C 410.335938 311.96875 411.753906 310.558594 413.175781 309.148438 C 413.425781 308.902344 413.820312 308.777344 414.148438 308.679688 C 414.492188 308.578125 414.871094 308.546875 415.226562 308.601562 C 415.417969 308.628906 415.71875 308.734375 415.777344 308.957031 Z M 404.289062 305.757812 C 407.625 302.011719 410.964844 298.265625 414.300781 294.523438 C 414.785156 293.976562 415.652344 293.703125 416.351562 293.972656 C 416.964844 294.210938 417.203125 294.925781 416.742188 295.441406 C 413.40625 299.1875 410.070312 302.929688 406.730469 306.675781 C 406.246094 307.222656 405.382812 307.496094 404.683594 307.226562 C 404.066406 306.988281 403.828125 306.273438 404.289062 305.757812 Z M 63.160156 318.65625 C 63.273438 319.171875 62.195312 319.503906 61.855469 319.589844 C 58.085938 320.546875 54.3125 321.503906 50.542969 322.460938 C 50.285156 322.527344 49.054688 322.808594 48.945312 322.304688 C 48.832031 321.789062 49.910156 321.457031 50.25 321.367188 C 54.019531 320.410156 57.792969 319.453125 61.5625 318.496094 C 61.820312 318.433594 63.046875 318.152344 63.160156 318.65625 Z M 63.25 297.074219 C 60.480469 292.789062 58.914062 287.859375 58.796875 282.753906 C 58.773438 281.625 61.675781 281.0625 61.695312 281.976562 C 61.808594 286.914062 63.257812 291.785156 65.9375 295.9375 C 66.589844 296.945312 63.773438 297.890625 63.25 297.074219 Z M 47.816406 291.300781 C 47.199219 290.378906 50.011719 289.445312 50.515625 290.195312 C 53.363281 294.429688 56.214844 298.664062 59.0625 302.898438 C 59.683594 303.820312 56.867188 304.75 56.363281 304.003906 C 53.515625 299.769531 50.664062 295.535156 47.816406 291.300781 Z M 399.679688 368.59375 C 398.054688 364.488281 399.664062 359.867188 402.597656 356.800781 C 404.257812 355.0625 406.292969 353.722656 408.433594 352.648438 C 410.375 351.671875 413.1875 350.148438 415.320312 351.414062 C 417.410156 352.65625 417.3125 354.792969 416.421875 356.894531 C 416.15625 356.683594 415.433594 356.707031 415.269531 356.730469 C 414.675781 356.808594 413.890625 357.066406 413.601562 357.644531 C 410.890625 363.117188 407.238281 368.101562 402.886719 372.378906 C 401.480469 371.488281 400.328125 370.230469 399.679688 368.59375 Z M 457.679688 316.375 C 453.550781 333 444.535156 348.269531 432.097656 360.035156 C 429.015625 362.953125 425.722656 365.636719 422.246094 368.070312 C 418.53125 370.667969 414.378906 373.492188 409.742188 373.9375 C 408.03125 374.105469 406.230469 373.871094 404.609375 373.246094 C 407.75 370.269531 410.550781 366.945312 412.949219 363.335938 C 412.992188 363.359375 413.035156 363.386719 413.085938 363.402344 C 413.757812 363.640625 414.652344 363.335938 415.136719 362.855469 C 417.679688 360.328125 421.238281 355.621094 419.40625 351.828125 C 417.082031 347.019531 410.515625 349.441406 407.023438 351.226562 C 402.769531 353.398438 398.621094 356.582031 396.929688 361.21875 C 395.335938 365.585938 396.101562 370.558594 399.929688 373.484375 C 400.257812 373.738281 400.601562 373.957031 400.949219 374.167969 C 398.902344 376 396.734375 377.699219 394.4375 379.214844 C 385.800781 384.910156 375.800781 387.910156 365.460938 388.011719 C 353.378906 388.125 342.042969 384.53125 330.972656 380.042969 C 321.289062 376.117188 310.945312 371.875 300.28125 373.472656 C 291.214844 374.832031 281.382812 380.167969 279.308594 389.808594 C 279.109375 390.738281 282 390.277344 282.191406 389.390625 C 284.050781 380.746094 292.378906 375.777344 300.667969 374.769531 C 311.683594 373.429688 322.460938 378.9375 332.40625 382.855469 C 343.28125 387.144531 354.816406 389.96875 366.582031 389.414062 C 376.660156 388.941406 386.492188 385.953125 395.066406 380.617188 C 397.746094 378.945312 400.285156 377.066406 402.664062 375.003906 C 406.09375 376.347656 410.128906 376.105469 413.566406 374.972656 C 418.476562 373.351562 422.875 370.25 426.953125 367.148438 C 434.734375 361.226562 441.519531 354.066406 447.078125 346.027344 C 453.34375 336.964844 457.945312 326.789062 460.601562 316.101562 C 460.917969 314.824219 457.972656 315.210938 457.679688 316.375 Z M 203.652344 336.152344 C 199.035156 339.941406 194.273438 343.558594 189.390625 347 C 193.421875 342.519531 198.230469 338.773438 203.652344 336.152344 Z M 248.710938 437.253906 C 226.765625 442.714844 201.976562 434.476562 187.371094 417.277344 C 180.164062 408.789062 175.804688 398.289062 175.222656 387.152344 C 174.664062 376.480469 177.386719 365.644531 182.648438 356.371094 C 183.453125 354.953125 184.328125 353.570312 185.257812 352.230469 C 191.625 348.015625 197.804688 343.515625 203.753906 338.730469 C 205.917969 336.988281 208.050781 335.210938 210.15625 333.402344 C 211.203125 332.503906 209.4375 331.949219 208.730469 332.171875 C 198.191406 335.488281 189.289062 342.429688 182.933594 351.398438 C 173.277344 357.757812 163.183594 363.445312 152.742188 368.40625 C 132.902344 377.824219 111.8125 384.671875 90.1875 388.542969 C 69.925781 392.171875 46.574219 394.472656 28.144531 383.289062 C 11.425781 373.144531 3.589844 353.414062 2.964844 334.515625 C 2.199219 311.503906 11.835938 289.703125 21.824219 269.515625 C 23.105469 266.921875 24.402344 264.339844 25.703125 261.757812 C 26.394531 260.382812 23.476562 260.515625 22.960938 261.539062 C 12.355469 282.617188 1.066406 304.878906 0.0703125 328.929688 C -0.71875 347.878906 5.183594 368.285156 20.167969 380.773438 C 37.066406 394.859375 60.929688 394.75 81.5625 391.789062 C 103.839844 388.59375 125.664062 382.355469 146.304688 373.382812 C 158.074219 368.265625 169.464844 362.253906 180.328125 355.414062 C 175.371094 363.84375 172.527344 373.578125 172.261719 383.335938 C 171.949219 394.796875 175.363281 405.902344 182.101562 415.183594 C 189.035156 424.734375 198.949219 431.886719 209.878906 436.195312 C 220.871094 440.53125 233.121094 441.996094 244.785156 439.945312 C 246.261719 439.6875 247.730469 439.382812 249.183594 439.019531 C 249.695312 438.890625 250.574219 438.402344 250.398438 437.75 C 250.21875 437.078125 249.207031 437.132812 248.710938 437.253906 Z M 299.675781 272.332031 C 301.113281 255.484375 305.160156 236.238281 296.664062 223.566406 C 296.664062 223.566406 296.621094 223.589844 296.546875 223.625 C 298.671875 222.554688 299.367188 220.773438 299.089844 218.992188 C 298.914062 217.839844 299.160156 212.386719 299.160156 212.386719 L 295.496094 210.511719 L 295.402344 205.382812 L 293.621094 202.457031 L 299.039062 195.746094 C 300.769531 179.171875 292.332031 133.914062 292.332031 133.914062 C 303.484375 131.019531 310.027344 118.375 310.027344 118.375 C 310.027344 118.375 300.191406 99.433594 294.945312 94.433594 C 289.699219 89.4375 279.207031 94.433594 279.207031 94.433594 L 272.757812 98.128906 C 272.757812 98.128906 264.914062 117.101562 254.945312 121.074219 C 244.980469 125.046875 233.761719 108.449219 233.761719 108.449219 C 213.492188 112.902344 204.699219 140.261719 204.699219 140.261719 L 225.078125 159.15625 L 230.050781 151.652344 C 235.695312 159.121094 229.398438 191.710938 224.933594 200.390625 C 220.472656 209.070312 220.222656 216.015625 223.449219 213.585938 C 223.449219 213.585938 217.199219 238.039062 219.226562 247.566406 C 219.226562 247.566406 218.621094 250.757812 221.136719 248.703125 C 223.644531 246.648438 251.335938 244.472656 258.554688 254.90625 L 262.894531 267.859375 C 262.894531 267.859375 292.277344 287.332031 293.097656 287.332031 C 293.921875 287.332031 298.234375 289.183594 299.675781 272.332031" fill="#efd010"/></g></g></svg>